<svg version="1.2" width="329" height="250" id="svg1904" xmlns="http://www.w3.org/2000/svg"><style id="style974">.s0{fill:#6bdff9}.s1{fill:#9ded68}.s2{fill:#fad22a}.s3{fill:#6f5967}.s4{fill:#0e8b9f}.s5{fill:#ad96a6}.s6{fill:#ea5947}.s7{fill:#86da37}.s8{fill:#d94a6d}.s9{fill:none;stroke:#101e38;stroke-width:.6}.s10,.s11{fill:none;stroke:#1d1d1b;stroke-width:.5}.s11{stroke-dasharray:2,2}.s12,.s13{fill:none;stroke:#163568;stroke-width:.6}.s13{stroke-linecap:round;stroke-linejoin:round}.s14{fill:#163568}.s15{fill:#fff}.s16{fill:#b6eaff}</style><g id="OBJECTS"><g id="g1901"><g id="g1897"><g id="&lt;Group&gt;"><path id="&lt;Path&gt;" class="s0" d="m190.8 36.8-3.1 2-10.9-3.6-7.6-2.6-7.3 2.2-1.3 7.2-10.1-3.7-3.145-1.434L137.3 32.3l-2.6-4.2-6.282-.918.837-4.879.045-2.403-1.4.4-18.5 1.2-7.2 4.3-8.3.3-2.4-2.1-3.3 5.4-5.6.9-3.5 9.3.5 3-9.7 7.2-10.8 19 1.7 13.6-3.4 4.9 2.5 8.8 2.7 3.3 8 9.8 3.8 2.3 11.3 6.8 13.5-2.2 3.1 2.2 7.3-2.7 3.1-1.1 3-1.2 2.2-.8 5.9 7.3 8.9-1.7 2.9 6.1-.3 1-1.2 3.8-2.3 6.8 5.6 7.8 2.6 3.7 1.7 2.4 3.7 17.9-6.1 8.6.4 6.9.1 2.1 7.6 12.6v8.9l3.5 8.2 6 13.9-.4 4.1 4 4.5 21.5-4.6 16.5-20.3-.8-4.5 9.2-4.1-1.4-13.5 4.8-3.3 13.5-9.1v-15.9l-5.2-13.9 2-2.4 7.6-9.1 8.9-10.7 3.4-1.3 11.488-16.459-1.426-14.893L241.1 99.2l-5 3.3-4.2-3.5-3.493-2.875L220.3 87.4l-5.99-5.224.29-5.176-6.695-4.97-2.131-6.625-7.7-14.035c-10.27-1.666-5.346-14.229-7.274-14.57Z"/><path id="path977" class="s0" d="M238.7 179h-5.5l-2.3 6.2 2.5 7.5-4 6.1 2 8.2h9.8l11.8-33.2-5.6-7.1z"/></g><g id="g1615"><g id="g1079"><g id="g1075"><path id="path980" class="s1" d="m249.5 93.3-.8 10.5-12.2 16.9-3.4 1.3-8.9 10.7-3-3.9 1.2-3.7-.6-6.1 1.9-2.6 6-4 3.2 1.1 8.5-9-12.4-2.7-2.8-6.1-.1-.3 1.8-.4 4.2 3.5 5-3.3z"/><path id="path982" class="s1" d="m243.4 162.7 5.6 7.1-11.8 33.2h-9.8l-2-8.2 4-6.1-2.5-7.5 2.3-6.2h5.5z"/><path id="path984" class="s2" d="m241.4 104.5-8.5 9-3.2-1.1-6 4-4-1.2-4.5 2.3-10.7-6.4-5.5-7.8 8.8-16.4v-.6l6.7-2 9 6.5.8.4-.8 4.1 1.4.4 1.2-.3.1.3 2.8 6.1z"/><path id="path986" class="s3" d="m227.9 95-1.8.4-1.2.3-1.4-.4.8-4.1 2.2-1.1.2 4z"/><path id="path988" class="s4" d="m226.5 90.1-2.2 1.1-.8-.4-9-6.5-6.7 2v-6.5l6.7-4.1 1.8 7.7z"/><path id="path990" class="s5" d="m221.2 128.8 3 3.9-7.6 9.1-6.3-6.2-8.9-5.3 1.6-1.7-2-1.8 3.9-4.8-3.3-6.8 2.9-4.1 10.7 6.4 4.5-2.3 4 1.2-1.9 2.6.6 6.1z"/><path id="path992" class="s5" d="M219.8 158.1V174l-13.4 9.1-3.1-4.5 2.1-3.8-.2-2.5 1.2-1-2.8-3-1.3-4 .7-1v-1.8l3-.4 1.6 1.1z"/><path id="path994" class="s6" d="m214.6 144.2 5.2 13.9-12.2 4.1-1.6-1.1-3 .4-.8-.5-.4-5.3-1.8.3-2.1-.7-6-2.3-.9-5.3-2.2-1.5v-4.5l-.2-.5 3.8-3.1-2.4-3.5 2.4-.6-1.2-2.8h-.2l3.6-.5h.1l.2 4.9 5.4-.4-1.3-2.3 2.4-2.6 8.9 5.3 6.3 6.2z"/><path id="path996" class="s7" d="m181.3 112.5-9.2-9.2-4.2-8.7-2.2-4.7 3.1-8.4 2.3-.6-.2-10.7 2.9-1.6-.1-5.4h33.8l.4-.3.5.8 2.2 9.3 3.9 2.7-6.7 4.1v7.1l-8.8 16.4 5.5 7.8-2.9 4.1-9.3 1.7-3.9-2.8-4.6.8z"/><path id="path998" class="s1" d="m196 45.3 11.9 17.6-.4.3h-33.8l-.8-32 10.8 3.6 3.1-2 9 .6 1.7.1 2.9 3 .5 2.9.6 3.9-2.3.5-3.7-5.5-1.3.7z"/><path id="path1000" class="s4" d="m203.6 168.3 2.8 3-1.2 1 .2 2.5-2.1 3.8-2.2-2.3-.8-2.1 1.2-2.2-.9-1.4-2.3-.3-.9-1.5v-6.1l1.2-2.9-.7-4.5 2.1.7 1 6.3-1 1.5 1.8 5.2 1.1.8z"/><path id="path1002" class="s6" d="m203.3 178.6 3.1 4.5-4.9 3.3-5.4-.1.6-8.9 4.4-1.1z"/><path id="path1004" class="s4" d="m201.6 115.2 3.3 6.8-3.9 4.8-6.4 1.1.1 2.8h-.1l-3.6.5-3-.5 3.1-6.3 1.2-7.5z"/><path id="path1006" class="s6" d="m201.5 186.4 1.4 13.5-9.2 4.1-2.4-.7 1.2-2.3-1-7.1 3.3-3.3v-2.7l1.3-1.6z"/><path id="path1008" class="s6" d="m200.6 170.6.9 1.4-1.2 2.2.8 2.1-4.4 1.1-6-2.2-1.4-1.7v-1.8l8.1-2.9.9 1.5z"/><path id="path1010" class="s2" d="m191.7 153.2.2-.2 6 2.3.7 4.5-1.2 2.9v6.1l-8.1 2.9-3.3-4.1 2.8-2.6-3.5-11.8 4.4-1.7.1.7z"/><path id="path1012" class="s4" d="m196.7 177.4-.6 8.9-1.3 1.6v2.7l-3.3 3.3-5.9-.8-1.5.8-9.2-13.4h4.6l5.4-6 4.4-1 1.4 1.7z"/><path id="path1014" class="s2" d="m193.7 204 .8 4.5-5-1-.2-2.2 2-2z"/><path id="&lt;Compound Path&gt;" fill-rule="evenodd" class="s1" d="M194.5 208.5 178 228.8l-21.5 4.6-4-4.5.4-4.1-6-13.9 5.1 2.7 6.5-1.9.3-9.4 2.3 4.2 3.7-.2 2.5-3.7 6.8 1.4 6.3-8.3 3.7-1.8 1.5-.8 5.9.8 1 7.1-1.2 2.3-2 2 .2 2.2zm-10 8.2v-2.9l-1.6-1-3 .6-2.3 2.4 2.9 3.9z"/><path id="path1017" class="s5" d="m191.2 131.2 1.2 2.8-2.4.6-3.4 1 1.4-4.9 3 .5z"/><path id="path1019" class="s3" d="m190 134.6 2.4 3.5-3.8 3.1-.7-3.1-1.3-.4v-2.1z"/><path id="path1021" class="s1" d="m192.3 116.9-1.2 7.5-3.1 6.3-1.4 4.9V147l2.8 2.5.3 2-4.4 1.7 3.5 11.8-2.8 2.6-5.1-4.9-9.2-.9-.6-.1-5.5-5.9-1.1-6.6-5.7-1-1.5 2.4-4.7.7-2.7-6.2-12.2.6-1.7-2.4 4.1-2.1 4.9.6 4-4.3v-3.7l4-3.9 3.6-11.5v-3.7l1.8-1.6 12.7 1.2 10.2-1.8 2.5 2.4 4.6-.8z"/><path id="path1023" class="s8" d="M189.3 171.7v1.8l-4.4 1-5.4 6h-4.6l-1.6-1.4-3.7.3-1.3-1-2.7-2.1v-9.8h6v-4.4l.1-.3 9.2.9 5.1 4.9z"/><path id="path1025" class="s3" d="M184.5 213.8v2.9l-4 3-2.9-3.9 2.3-2.4 3-.6z"/><path id="path1027" class="s3" d="m174.9 180.5 9.2 13.4-3.7 1.8-6.3 8.3-6.8-1.4-2.5 3.7-3.7.2-2.3-4.2.4-10h2.3l1-9.6 7.8-.7 3-2.9z"/><path id="path1029" class="s4" d="m172.1 103.3 9.2 9.2-10.2 1.8-12.7-1.2-1.8 1.6-8.5 3.3-3.5-4.7.2-4 2.5-5.1 1.7 1.7 12.7-4.9 6.2-6.4z"/><path id="path1031" class="s5" d="m173.7 63.2.1 5.4-2.9 1.6-23.1-12.3-2.9 1.8-9.4-.7-4.6-9.8-1.8-11.7.8-.4 1.9-2.1 1.5-6.7 12.6 1.4.6 4.6 10.1 3.7 1.3-7.2 7.3-2.2 7.7 2.6z"/><path id="path1033" class="s5" d="m158.8 202.3-.3 9.4-6.5 1.9-5.1-2.7-3.5-8.2v-8.9l-7.6-12.6-.1-2.1 4-1.8 2.7 1.6 11.6-.3 2.5 1.4 4.4-.6 3 1.1 4.4-2.1 1.3 1 3.7-.3-3 2.9-7.8.7-1 9.6h-2.3z"/><path id="path1035" class="s6" d="m171.7 161.8-.1.3v4.4h-6v9.8l2.7 2.1-4.4 2.1-3-1.1-4.4.6-2.5-1.4-11.6.3-2.7-1.6-4 1.8-.4-6.9 6.2-8.6-3.8-17.9 12.2-.6 2.7 6.2 4.7-.7 1.5-2.4 5.7 1 1.1 6.6 5.5 5.9z"/><path id="path1037" class="s3" d="m170.9 70.2.2 10.7-2.3.6-3.1 8.4 2.2 4.7-6.2 6.4-12.7 4.9-1.7-1.7-3.5-3.4.2-2.2h3.8l-2.1-3.3-.3-2.8-.1-1.1-4.1-4.2v-3.3l5.8-5.3.8-11.1-2.9-7.8 2.9-1.8z"/><path id="path1039" class="s6" d="M156.6 114.7v3.7l-3.6 11.5-4 3.9v3.7l-4 4.3-4.9-.6-4.1 2.1-2.6-3.7 3-2v-2.3l3.1-1.3 2.5.8 2-4.5-3.9-9 8.4 1.5.5-3.6-.9-1.2z"/><path id="path1041" class="s8" d="m148.1 118 .9 1.2-.5 3.6-8.4-1.5-.3-.1h-8.5l.3-1-2.9-6.1 2.9-6.6 3 1.3 6.6-12.5 4.2-3.8.3 2.8 2.1 3.3H144l-.2 2.2 3.5 3.4-2.5 5.1-.2 4z"/><path id="path1043" class="s2" d="m144.9 59.7 2.9 7.8-.8 11.1-5.8 5.3v3.3l-4.2 2.1-9.1-.1-12.1-2-2.3 3.3 1 6-3.3 3.9.5 8.9-3 1.2-.2-.5-.5-10.9-2.4-4 1.5-2.3h2.7l-1-2.7-5.3-4.4.4-2.7 4.9.6 5.1-3.1.2-9L135.5 59z"/><path id="path1045" class="s4" d="m145.3 91.4.1 1.1-4.2 3.8-6.6 12.5-3-1.3-2.9 6.6-8.9 1.7-5.8-7.3-2.3.8-.5-8.9 3.3-3.9-1-6 2.3-3.3 12.1 2 9.1.1 4.2-2.1z"/><path id="path1047" class="s3" d="m140.1 121.3 3.9 9-2 4.5-2.5-.8-3.1 1.3v2.3l-3 2-5.6-7.8 2.3-6.8 4.3.4 1.1-4.2h4.3z"/><path id="path1049" class="s6" d="m130.9 49.2 4.6 9.8-21.4 12.5-27.6-19.6-8.5-6.1 4.6-4.3 6.8-2.8 5.4-5.7 4.1-1.5-.7-9.7 7.3-4.3 18.4-1.2 1.4-.4-1.3 9.6 5.1 12z"/><path id="path1051" class="s2" d="m135.5 121.2-1.1 4.2-4.3-.4 1.2-3.8z"/><path id="path1053" class="s8" d="m129.9 14.7 3.5 7.3-2.7 2.1 2.6 4.2-1.5 6.7-1.9 2.1-.8.4-5.1-12 1.3-9.6z"/><path id="path1055" class="s5" d="m114.1 71.5-.2 9-5.1 3.1-4.9-.6-1.8-.2L87 96.3h-4.6l-1.1-.3-17.9-5.9-.4-.1-7.1 2.1-2.4-8.8 3.3-4.9 9.7 4.4 21.8-2.3-1.9-28.4.1-.2z"/><path id="path1057" class="s4" d="m108.8 90.1 1 2.7h-2.7l-1.5 2.3 2.4 4 .5 10.9.2.5-3.1 1.1-.3-11.4-2.9-5.6-6.8.8v3.1l-.2.6-8.4-2.8 15.1-13.5 1.8.2-.4 2.7z"/><path id="path1059" class="s3" d="m105.3 100.2.3 11.4-7.3 2.7-3.1-2.2.4-7.8v-5.1l-.2-.1.2-.6v-3.1l6.8-.8z"/><path id="path1061" class="s2" d="m98.2 21.8.7 9.7-4.1 1.5-5.4 5.7-6.8 2.8-4.6 4.3H66l9.7-6.5-.6-3.7 3.5-9.3 5.6-.9 3.3-5.4 2.4 2.1z"/><path id="path1063" class="s6" d="M95.6 99.2v5.1l-.4 7.8-13.5 2.2-.1-4.3-2.4-1.4.7-2.9v-.5l.1.1 1.2-9 .1-.3 1.1.3H87l8.4 2.8z"/><path id="path1065" class="s1" d="m86.4 52.1 1.9 28.4-21.8 2.3-9.7-4.4-1.7-13.6L66 64l3.1-13.7h8.7l.2-4.5 8.5 6.1z"/><path id="path1067" class="s8" d="m81.6 110 .1 4.3-11.3-6.8 3.8-5.4 2.8 2.7 2.9.4v.5l-.7 2.9z"/><path id="path1069" class="s3" d="m81.3 96-.1.3-1.2 9-.1-.1-2.9-.4-2.8-2.7-3.8 5.4-3.8-2.3-8-9.8 4.3-1.2.5-4.1z"/><path id="path1071" class="s4" d="m78 45.8-.2 4.5h-8.7L66 64l-10.9.8 10.9-19z"/><path id="path1073" class="s6" d="m63 90 .4.1-.5 4.1-4.3 1.2-2.7-3.3z"/></g></g><path id="path1081" class="s9" d="m203.3 178.6 3.1 4.2"/><path id="path1083" class="s9" d="m186 167.6 3.3 4.1"/><path id="path1085" class="s10" d="m197.5 33.5-10.7-.7-3.1 2-18.5-6.2-7.3 2.1-1.3 7.3-10.1-3.7-.6-4.6-12.6-1.5-2.6-4.1 2.7-2.1-3.5-7.3-6 1.5-18.4 1.3-7.3 4.3-8.3.3-2.4-2.1-3.3 5.4-5.6.9-3.5 9.3.6 3.7-9.7 6.5-10.9 18.9 1.7 13.7-3.3 4.9 2.4 8.8 10.7 13.1 15.1 9.1 13.5-2.2 3.1 2.2 15.7-5.8 5.8 7.2 8.9-1.6 2.9 6.1-3.8 11.6 9.9 13.9 3.8 17.9-6.2 8.6.5 9 7.6 12.5v9l9.5 22.1-.4 4.1 4 4.5 21.5-4.6 16.5-20.3-.8-4.5 9.2-4.1-1.4-13.5 18.3-12.4v-15.9l-5.2-13.9 18.5-22.2 3.4-1.3 12.2-17 .8-10.4-12.4 1.9-5 3.3-5.4-4.4-.2-4-10.2-6.7-1.8-7.7-3.9-2.7-2.2-9.3L196 45.3l-1.8-6.3 1.3-.7 3.7 5.4 2.3-.5-1.207-6.978c-.712 3.158-2.793-2.722-2.793-2.722Z"/><path id="path1087" class="s10" d="m243.4 162.7-8.7 12.3h-5.5l-2.3 6.2 2.5 7.5-4 6.1 2 8.2h9.8l11.8-33.2z"/><path id="path1093" class="s11" d="M66 45.8h12l4.6-4.3 6.8-2.8 5.3-5.7 4.2-1.5-.7-9.7"/><path id="path1095" class="s11" d="m129.9 37.1 1.8-2.1 1.6-6.8"/><path id="path1097" class="s11" d="m86.4 52.1 1.8 28.4-21.7 2.3-9.7-4.4"/><path id="path1099" class="s11" d="M77.7 46.5v3.8h-8.6L66 64l-10.9.7"/><path id="path1101" class="s11" d="M55.9 92.1 63 90l19.4 6.3H87l15.1-13.5 6.6.8 5.2-3.1.2-9"/><path id="path1103" class="s11" d="m58.6 95.4 4.3-1.2.5-4.1"/><path id="path1105" class="s11" d="m70.4 107.5 3.8-5.4 2.8 2.7 3 .4 1.2-8.9"/><path id="path1107" class="s11" d="m79.9 105.7-.7 2.9 2.4 1.4.1 4.3"/><path id="path1109" class="s11" d="m87 96.3 8.6 2.9v5.1l-.4 7.8"/><path id="path1111" class="s11" d="M95.6 98.5v-3.1l6.8-.8 2.9 5.6.3 11.4"/><path id="path1113" class="s11" d="m108.5 110-.5-10.9-2.4-4 1.5-2.4h2.7l-1-2.6-5.3-4.4.4-2.7"/><path id="path1115" class="s11" d="m111.7 109.3-.5-8.9 3.3-3.9-1-6 2.3-3.3 12.1 2h9.1l4.2-2v-3.3l5.8-5.3.8-11.1-2.9-7.8-9.4-.7"/><path id="path1117" class="s11" d="m145.3 59 2.5-1.1 23.1 12.3 2.9-1.6-.9-37.4"/><path id="path1119" class="s11" d="m141.2 87.2 4.1 4.2.4 3.9 2.1 3.3H144l-.2 2.1 5.2 5.2 12.7-4.9 6.2-6.4-2.2-4.7 3.1-8.4 2.3-.6-.2-10.7"/><path id="path1121" class="s11" d="m128.7 114.1 2.9-6.6 3 1.2 6.6-12.4 4.2-3.8"/><path id="path1123" class="s11" d="M131.3 121.2h8.5l8.7 1.5.5-3.5-4.4-6 .2-3.9 2.4-5.1"/><path id="path1125" class="s11" d="m130 124.9 4.4.5 1.1-4.2"/><path id="path1127" class="s11" d="m133.4 139.6 3-2v-2.4l3.1-1.2 2.5.8 2-4.5-3.9-9"/><path id="path1129" class="s11" d="m136 143.3 4.1-2.1 4.9.6 4-4.3v-3.7l4-3.9 3.6-11.5v-3.7l1.8-1.6 12.7 1.2 10.5-1.9"/><path id="path1131" class="s11" d="m167.9 94.6 4.2 8.7 11.7 11.6 4.6-.8 3.9 2.8 9.3-1.7 2.9-4.1-5.5-7.8 8.8-16.4v-7.2l6.7-4"/><path id="path1133" class="s11" d="M173.7 63.2h33.8"/><path id="path1137" class="s11" d="m137.7 145.7 12.2-.6 2.7 6.2 4.6-.7 1.6-2.4 5.7 1 1.1 6.6 5.5 5.9 9.8 1 5.1 4.9 2.7-2.6-3.5-11.8 4.5-1.7"/><path id="path1139" class="s11" d="M171.6 162.1v4.4h-6v9.8l4 3.1 3.7-.3 1.6 1.4h4.6l5.4-6 4.4-1v-1.9l8.1-2.8v-6.1l1.2-2.9-.7-4.5 2.1.7"/><path id="path1141" class="s10" d="m200 156 1.8-.3.4 5.3.8.5v1.8l-.8.9 1.4 4.1-.7 1.5-1.1-.8-1.8-5.2 1-1.6z"/><path id="path1143" class="s11" d="m203 161.5 3-.4 1.6 1.1 12.2-4.1"/><path id="path1145" class="s11" d="m197.4 168.8.9 1.5 2.3.3.9 1.4-1.2 2.2.8 2.1 2.1 2.3 2.2-3.8-.2-2.5 1.2-1-2.8-3"/><path id="path1147" class="s11" d="m189.5 173.9 1.2 1.3 6 2.2-.6 8.9-1.3 1.6-.1 2.7-3.2 3.3 1 7.1-1.2 2.3 2.4.7"/><path id="path1149" class="s11" d="m194.5 208.5-5-1-.2-2.2 2-2"/><path id="path1151" class="s11" d="m191.5 193.9-5.9-.8-5.2 2.6-6.3 8.3-6.8-1.4-2.6 3.6-3.6.3-2.5-4.6"/><path id="path1153" class="s11" d="m146.9 210.9 5.1 2.7 6.5-1.9.7-19.4h2.3l1-9.6 7.8-.7 3-2.9"/><path id="path1155" class="s11" d="m135.7 179.1 4-1.8 2.7 1.6 11.6-.3 2.5 1.4 4.4-.6 3 1.1 4.4-2.1"/><path id="path1157" class="s11" d="m177.6 215.8 2.3-2.4 3-.7 1.6 1v3l-4 3z"/><path id="path1159" class="s10" d="m191.9 153.3-2.2-1.2-.3-2.6-2.8-2.5v-9.4l1.3.5.8 3.6v4.5l2.3 1.5.9 5.3"/><path id="path1161" class="s10" d="m194.6 127.9.3 7.7 5.4-.4-1.3-2.3 4-4.3-2-1.8z"/><path id="path1163" class="s11" d="m188.6 141.2 3.8-3.1-2.4-3.5-3.4 1v2"/><path id="path1165" class="s11" d="m186.6 134.8 1.6-3.6h3l1.2 2.8-2.4.6"/><path id="path1167" class="s11" d="m194.6 130.7-3.9.5"/><path id="path1169" class="s11" d="m188 130.7 3.1-6.3 1.2-7.5"/><path id="path1171" class="s11" d="m201 126.8 3.9-4.8-3.3-6.8"/><path id="path1173" class="s11" d="m204.5 111.1 10.7 6.4 4.5-2.3 4 1.2 6-4 3.2 1.1 8.5-9-12.4-2.7-2.8-6.2"/><path id="path1175" class="s11" d="m227.9 95-3 .6-1.4-.3.7-4.1 2.3-1.1"/><path id="path1177" class="s11" d="m223.5 90.8-9-6.5-6.7 2"/><path id="path1179" class="s11" d="m224.2 132.7-3-3.9 1.2-3.7-.7-6.1 2-2.6"/><path id="path1181" class="s11" d="m216.6 141.8-6.3-6.2-8.9-5.3"/><path id="path1183" class="s11" d="m197.5 33.5 2.9 3 1.1 6.7"/><path id="path1187" class="s11" d="m344.8 755.5 2.4 5.6 11.4 4.1 5.9 4.5 3.6-.5 3.1 2 7.6-1.9 5.3 1.4 11.1-5.2 5.9 4.2 3.2 6.5-2.7 5.7 6.4 4.8 5.4 4.8 1.8-3.8 7.2-1.2.9-1.8 5.9 2.3 4.6 5.4"/><g id="g1393"><g id="g1287"><path id="path1191" class="s1" d="m249.5 93.3-.8 10.5-12.2 16.9-3.4 1.3-8.9 10.7-3-3.9 1.2-3.7-.6-6.1 1.9-2.6 6-4 3.2 1.1 8.5-9-12.4-2.7-2.8-6.1-.1-.3 1.8-.4 4.2 3.5 5-3.3z"/><path id="path1193" class="s1" d="m243.4 162.7 5.6 7.1-11.8 33.2h-9.8l-2-8.2 4-6.1-2.5-7.5 2.3-6.2h5.5z"/><path id="path1195" class="s2" d="m241.4 104.5-8.5 9-3.2-1.1-6 4-4-1.2-4.5 2.3-10.7-6.4-5.5-7.8 8.8-16.4v-.6l6.7-2 9 6.5.8.4-.8 4.1 1.4.4 1.2-.3.1.3 2.8 6.1z"/><path id="path1197" class="s3" d="m227.9 95-1.8.4-1.2.3-1.4-.4.8-4.1 2.2-1.1.2 4z"/><path id="path1199" class="s4" d="m226.5 90.1-2.2 1.1-.8-.4-9-6.5-6.7 2v-6.5l6.7-4.1 1.8 7.7z"/><path id="path1201" class="s5" d="m221.2 128.8 3 3.9-7.6 9.1-6.3-6.2-8.9-5.3 1.6-1.7-2-1.8 3.9-4.8-3.3-6.8 2.9-4.1 10.7 6.4 4.5-2.3 4 1.2-1.9 2.6.6 6.1z"/><path id="path1203" class="s5" d="M219.8 158.1V174l-13.4 9.1-3.1-4.5 2.1-3.8-.2-2.5 1.2-1-2.8-3-1.3-4 .7-1v-1.8l3-.4 1.6 1.1z"/><path id="path1205" class="s6" d="m214.6 144.2 5.2 13.9-12.2 4.1-1.6-1.1-3 .4-.8-.5-.4-5.3-1.8.3-2.1-.7-6-2.3-.9-5.3-2.2-1.5v-4.5l-.2-.5 3.8-3.1-2.4-3.5 2.4-.6-1.2-2.8h-.2l3.6-.5h.1l.2 4.9 5.4-.4-1.3-2.3 2.4-2.6 8.9 5.3 6.3 6.2z"/><path id="path1207" class="s7" d="m181.3 112.5-9.2-9.2-4.2-8.7-2.2-4.7 3.1-8.4 2.3-.6-.2-10.7 2.9-1.6-.1-5.4h33.8l.4-.3.5.8 2.2 9.3 3.9 2.7-6.7 4.1v7.1l-8.8 16.4 5.5 7.8-2.9 4.1-9.3 1.7-3.9-2.8-4.6.8z"/><path id="path1209" class="s1" d="m196 45.3 11.9 17.6-.4.3h-33.8l-.8-32 10.8 3.6 3.1-2 9 .6 1.7.1 2.9 3 .5 2.9.6 3.9-2.3.5-3.7-5.5-1.3.7z"/><path id="path1211" class="s4" d="m203.6 168.3 2.8 3-1.2 1 .2 2.5-2.1 3.8-2.2-2.3-.8-2.1 1.2-2.2-.9-1.4-2.3-.3-.9-1.5v-6.1l1.2-2.9-.7-4.5 2.1.7 1 6.3-1 1.5 1.8 5.2 1.1.8z"/><path id="path1213" class="s6" d="m203.3 178.6 3.1 4.5-4.9 3.3-5.4-.1.6-8.9 4.4-1.1z"/><path id="path1215" class="s4" d="m201.6 115.2 3.3 6.8-3.9 4.8-6.4 1.1.1 2.8h-.1l-3.6.5-3-.5 3.1-6.3 1.2-7.5z"/><path id="path1217" class="s6" d="m201.5 186.4 1.4 13.5-9.2 4.1-2.4-.7 1.2-2.3-1-7.1 3.3-3.3v-2.7l1.3-1.6z"/><path id="path1219" class="s6" d="m200.6 170.6.9 1.4-1.2 2.2.8 2.1-4.4 1.1-6-2.2-1.4-1.7v-1.8l8.1-2.9.9 1.5z"/><path id="path1221" class="s2" d="m191.7 153.2.2-.2 6 2.3.7 4.5-1.2 2.9v6.1l-8.1 2.9-3.3-4.1 2.8-2.6-3.5-11.8 4.4-1.7.1.7z"/><path id="path1223" class="s4" d="m196.7 177.4-.6 8.9-1.3 1.6v2.7l-3.3 3.3-5.9-.8-1.5.8-9.2-13.4h4.6l5.4-6 4.4-1 1.4 1.7z"/><path id="path1225" class="s2" d="m193.7 204 .8 4.5-5-1-.2-2.2 2-2z"/><path id="path1227" fill-rule="evenodd" class="s1" d="M194.5 208.5 178 228.8l-21.5 4.6-4-4.5.4-4.1-6-13.9 5.1 2.7 6.5-1.9.3-9.4 2.3 4.2 3.7-.2 2.5-3.7 6.8 1.4 6.3-8.3 3.7-1.8 1.5-.8 5.9.8 1 7.1-1.2 2.3-2 2 .2 2.2zm-10 8.2v-2.9l-1.6-1-3 .6-2.3 2.4 2.9 3.9z"/><path id="path1229" class="s5" d="m191.2 131.2 1.2 2.8-2.4.6-3.4 1 1.4-4.9 3 .5z"/><path id="path1231" class="s3" d="m190 134.6 2.4 3.5-3.8 3.1-.7-3.1-1.3-.4v-2.1z"/><path id="path1233" class="s1" d="m192.3 116.9-1.2 7.5-3.1 6.3-1.4 4.9V147l2.8 2.5.3 2-4.4 1.7 3.5 11.8-2.8 2.6-5.1-4.9-9.2-.9-.6-.1-5.5-5.9-1.1-6.6-5.7-1-1.5 2.4-4.7.7-2.7-6.2-12.2.6-1.7-2.4 4.1-2.1 4.9.6 4-4.3v-3.7l4-3.9 3.6-11.5v-3.7l1.8-1.6 12.7 1.2 10.2-1.8 2.5 2.4 4.6-.8z"/><path id="path1235" class="s8" d="M189.3 171.7v1.8l-4.4 1-5.4 6h-4.6l-1.6-1.4-3.7.3-1.3-1-2.7-2.1v-9.8h6v-4.4l.1-.3 9.2.9 5.1 4.9z"/><path id="path1237" class="s3" d="M184.5 213.8v2.9l-4 3-2.9-3.9 2.3-2.4 3-.6z"/><path id="path1239" class="s3" d="m174.9 180.5 9.2 13.4-3.7 1.8-6.3 8.3-6.8-1.4-2.5 3.7-3.7.2-2.3-4.2.4-10h2.3l1-9.6 7.8-.7 3-2.9z"/><path id="path1241" class="s4" d="m172.1 103.3 9.2 9.2-10.2 1.8-12.7-1.2-1.8 1.6-8.5 3.3-3.5-4.7.2-4 2.5-5.1 1.7 1.7 12.7-4.9 6.2-6.4z"/><path id="path1243" class="s5" d="m173.7 63.2.1 5.4-2.9 1.6-23.1-12.3-2.9 1.8-9.4-.7-4.6-9.8-1.8-11.7.8-.4 1.9-2.1 1.5-6.7 12.6 1.4.6 4.6 10.1 3.7 1.3-7.2 7.3-2.2 7.7 2.6z"/><path id="path1245" class="s5" d="m158.8 202.3-.3 9.4-6.5 1.9-5.1-2.7-3.5-8.2v-8.9l-7.6-12.6-.1-2.1 4-1.8 2.7 1.6 11.6-.3 2.5 1.4 4.4-.6 3 1.1 4.4-2.1 1.3 1 3.7-.3-3 2.9-7.8.7-1 9.6h-2.3z"/><path id="path1247" class="s6" d="m171.7 161.8-.1.3v4.4h-6v9.8l2.7 2.1-4.4 2.1-3-1.1-4.4.6-2.5-1.4-11.6.3-2.7-1.6-4 1.8-.4-6.9 6.2-8.6-3.8-17.9 12.2-.6 2.7 6.2 4.7-.7 1.5-2.4 5.7 1 1.1 6.6 5.5 5.9z"/><path id="path1249" class="s3" d="m170.9 70.2.2 10.7-2.3.6-3.1 8.4 2.2 4.7-6.2 6.4-12.7 4.9-1.7-1.7-3.5-3.4.2-2.2h3.8l-2.1-3.3-.3-2.8-.1-1.1-4.1-4.2v-3.3l5.8-5.3.8-11.1-2.9-7.8 2.9-1.8z"/><path id="path1251" class="s6" d="M156.6 114.7v3.7l-3.6 11.5-4 3.9v3.7l-4 4.3-4.9-.6-4.1 2.1-2.6-3.7 3-2v-2.3l3.1-1.3 2.5.8 2-4.5-3.9-9 8.4 1.5.5-3.6-.9-1.2z"/><path id="path1253" class="s8" d="m148.1 118 .9 1.2-.5 3.6-8.4-1.5-.3-.1h-8.5l.3-1-2.9-6.1 2.9-6.6 3 1.3 6.6-12.5 4.2-3.8.3 2.8 2.1 3.3H144l-.2 2.2 3.5 3.4-2.5 5.1-.2 4z"/><path id="path1255" class="s2" d="m144.9 59.7 2.9 7.8-.8 11.1-5.8 5.3v3.3l-4.2 2.1-9.1-.1-12.1-2-2.3 3.3 1 6-3.3 3.9.5 8.9-3 1.2-.2-.5-.5-10.9-2.4-4 1.5-2.3h2.7l-1-2.7-5.3-4.4.4-2.7 4.9.6 5.1-3.1.2-9L135.5 59z"/><path id="path1257" class="s4" d="m145.3 91.4.1 1.1-4.2 3.8-6.6 12.5-3-1.3-2.9 6.6-8.9 1.7-5.8-7.3-2.3.8-.5-8.9 3.3-3.9-1-6 2.3-3.3 12.1 2 9.1.1 4.2-2.1z"/><path id="path1259" class="s3" d="m140.1 121.3 3.9 9-2 4.5-2.5-.8-3.1 1.3v2.3l-3 2-5.6-7.8 2.3-6.8 4.3.4 1.1-4.2h4.3z"/><path id="path1261" class="s6" d="m130.9 49.2 4.6 9.8-21.4 12.5-27.6-19.6-8.5-6.1 4.6-4.3 6.8-2.8 5.4-5.7 4.1-1.5-.7-9.7 7.3-4.3 18.4-1.2 1.4-.4-1.3 9.6 5.1 12z"/><path id="path1263" class="s2" d="m135.5 121.2-1.1 4.2-4.3-.4 1.2-3.8z"/><path id="path1265" class="s8" d="m129.9 14.7 3.5 7.3-2.7 2.1 2.6 4.2-1.5 6.7-1.9 2.1-.8.4-5.1-12 1.3-9.6z"/><path id="path1267" class="s5" d="m114.1 71.5-.2 9-5.1 3.1-4.9-.6-1.8-.2L87 96.3h-4.6l-1.1-.3-17.9-5.9-.4-.1-7.1 2.1-2.4-8.8 3.3-4.9 9.7 4.4 21.8-2.3-1.9-28.4.1-.2z"/><path id="path1269" class="s4" d="m108.8 90.1 1 2.7h-2.7l-1.5 2.3 2.4 4 .5 10.9.2.5-3.1 1.1-.3-11.4-2.9-5.6-6.8.8v3.1l-.2.6-8.4-2.8 15.1-13.5 1.8.2-.4 2.7z"/><path id="path1271" class="s3" d="m105.3 100.2.3 11.4-7.3 2.7-3.1-2.2.4-7.8v-5.1l-.2-.1.2-.6v-3.1l6.8-.8z"/><path id="path1273" class="s2" d="m98.2 21.8.7 9.7-4.1 1.5-5.4 5.7-6.8 2.8-4.6 4.3H66l9.7-6.5-.6-3.7 3.5-9.3 5.6-.9 3.3-5.4 2.4 2.1z"/><path id="path1275" class="s6" d="M95.6 99.2v5.1l-.4 7.8-13.5 2.2-.1-4.3-2.4-1.4.7-2.9v-.5l.1.1 1.2-9 .1-.3 1.1.3H87l8.4 2.8z"/><path id="path1277" class="s1" d="m86.4 52.1 1.9 28.4-21.8 2.3-9.7-4.4-1.7-13.6L66 64l3.1-13.7h8.7l.2-4.5 8.5 6.1z"/><path id="path1279" class="s8" d="m81.6 110 .1 4.3-11.3-6.8 3.8-5.4 2.8 2.7 2.9.4v.5l-.7 2.9z"/><path id="path1281" class="s3" d="m81.3 96-.1.3-1.2 9-.1-.1-2.9-.4-2.8-2.7-3.8 5.4-3.8-2.3-8-9.8 4.3-1.2.5-4.1z"/><path id="path1283" class="s4" d="m78 45.8-.2 4.5h-8.7L66 64l-10.9.8 10.9-19z"/><path id="path1285" class="s6" d="m63 90 .4.1-.5 4.1-4.3 1.2-2.7-3.3z"/></g><g id="g1391"><path id="path1289" class="s12" d="M66 45.8h12l4.6-4.3 6.8-2.8 5.4-5.7 4.1-1.5-.7-9.7"/><path id="path1291" class="s12" d="m129.9 37.1 1.9-2.1 1.5-6.7"/><path id="path1293" class="s12" d="m86.4 52.1 1.9 28.4-21.8 2.3-9.7-4.4"/><path id="path1295" class="s12" d="m78 45.8-.2 4.5h-8.7L66 64l-10.9.8"/><path id="path1297" class="s12" d="M55.9 92.1 63 90l.4.1L81.3 96l1.1.3H87l15.1-13.5 1.8.2 4.9.6 5.1-3.1.2-9"/><path id="path1299" class="s12" d="m58.6 95.4 4.3-1.2.5-4.1"/><path id="path1301" class="s12" d="m70.4 107.5 3.8-5.4 2.8 2.7 2.9.4.1.1 1.2-9"/><path id="path1303" class="s12" d="m79.9 105.7-.7 2.9 2.4 1.4.1 4.3"/><path id="path1305" class="s12" d="m87 96.3 8.4 2.8.2.1v5.1l-.4 7.8"/><path id="path1307" class="s12" d="M95.6 98.5v-3.1l6.8-.8 2.9 5.6.3 11.4"/><path id="path1309" class="s12" d="m108.5 110-.5-10.9-2.4-4 1.5-2.3h2.7l-1-2.7-5.3-4.4.4-2.7"/><path id="path1311" class="s12" d="m111.7 109.3-.5-8.9 3.3-3.9-1-6 2.3-3.3 12.1 2 9.1.1 4.2-2.1v-3.3l5.8-5.3.8-11.1-2.9-7.8-9.4-.7"/><path id="path1313" class="s12" d="m144.9 59.7 2.9-1.8 23.1 12.3 2.9-1.6-.1-5.4-.8-32"/><path id="path1315" class="s12" d="m141.2 87.2 4.1 4.2.1 1.1.3 2.8 2.1 3.3H144l-.2 2.2 3.5 3.4 1.7 1.7 12.7-4.9 6.2-6.4-2.2-4.7 3.1-8.4 2.3-.6-.2-10.7"/><path id="path1317" class="s12" d="m128.7 114.1 2.9-6.6 3 1.3 6.6-12.5 4.2-3.8"/><path id="path1319" class="s12" d="M131.3 121.2h8.5l.3.1 8.4 1.5.5-3.6-.9-1.2-3.5-4.7.2-4 2.5-5.1"/><path id="path1321" class="s12" d="m130.1 125 4.3.4 1.1-4.2"/><path id="path1323" class="s12" d="m133.4 139.6 3-2v-2.3l3.1-1.3 2.5.8 2-4.5-3.9-9"/><path id="path1325" class="s12" d="m136 143.3 4.1-2.1 4.9.6 4-4.3v-3.7l4-3.9 3.6-11.5v-3.7l1.8-1.6 12.7 1.2 10.2-1.8.3-.1"/><path id="path1327" class="s12" d="m167.9 94.6 4.2 8.7 9.2 9.2 2.5 2.4 4.6-.8 3.9 2.8 9.3-1.7 2.9-4.1-5.5-7.8 8.8-16.4v-7.1l6.7-4.1"/><path id="path1329" class="s12" d="M173.7 63.2h33.8"/><path id="path1331" class="s12" d="m137.7 145.7 12.2-.6 2.7 6.2 4.7-.7 1.5-2.4 5.7 1 1.1 6.6 5.5 5.9.6.1 9.2.9 5.1 4.9 2.8-2.6-3.5-11.8 4.4-1.7"/><path id="path1333" class="s12" d="M171.6 162.1v4.4h-6v9.8l2.7 2.1 1.3 1 3.7-.3 1.6 1.4h4.6l5.4-6 4.4-1v-1.8l8.1-2.9v-6.1l1.2-2.9-.7-4.5 2.1.7"/><path id="path1335" class="s12" d="m200 156 1.8-.3.4 5.3.8.5v1.8l-.7 1 1.3 4-.7 1.5-1.1-.8-1.8-5.2 1-1.5z"/><path id="path1337" class="s12" d="m203 161.5 3-.4 1.6 1.1 12.2-4.1"/><path id="path1339" class="s12" d="m197.4 168.8.9 1.5 2.3.3.9 1.4-1.2 2.2.8 2.1 2.2 2.3 2.1-3.8-.2-2.5 1.2-1-2.8-3"/><path id="path1341" class="s12" d="m189.3 173.5 1.4 1.7 6 2.2-.6 8.9-1.3 1.6v2.7l-3.3 3.3 1 7.1-1.2 2.3 2.4.7"/><path id="path1343" class="s12" d="m194.5 208.5-5-1-.2-2.2 2-2"/><path id="path1345" class="s12" d="m191.5 193.9-5.9-.8-1.5.8-3.7 1.8-6.3 8.3-6.8-1.4-2.5 3.7-3.7.2-2.3-4.2-.2-.4"/><path id="path1347" class="s12" d="m146.9 210.9 5.1 2.7 6.5-1.9.3-9.4.4-10h2.3l1-9.6 7.8-.7 3-2.9"/><path id="path1349" class="s12" d="m135.7 179.1 4-1.8 2.7 1.6 11.6-.3 2.5 1.4 4.4-.6 3 1.1 4.4-2.1"/><path id="path1351" class="s12" d="m177.6 215.8 2.3-2.4 3-.6 1.6 1v2.9l-4 3z"/><path id="path1353" class="s12" d="m191.9 153.3-.2-.1-1.9-1-.1-.7-.3-2-2.8-2.5v-9.3l1.3.4.7 3.1.2.5v4.5l2.2 1.5.9 5.3 6 2.3"/><path id="path1355" class="s12" d="m201 126.8-6.4 1.1.1 2.8.2 4.9 5.4-.4-1.3-2.3 2.4-2.6 1.6-1.7z"/><path id="path1357" class="s13" d="m188.6 141.2 3.8-3.1-2.4-3.5-3.4 1v2.1"/><path id="path1359" class="s13" d="M186.6 135.7v-.1l1.4-4.9 3 .5h.2l1.2 2.8-2.4.6"/><path id="path1361" class="s12" d="m194.6 130.7-3.6.5"/><path id="path1363" class="s12" d="m188 130.7 3.1-6.3 1.2-7.5"/><path id="path1365" class="s12" d="m201 126.8 3.9-4.8-3.3-6.8"/><path id="path1367" class="s12" d="m204.5 111.1 10.7 6.4 4.5-2.3 4 1.2 6-4 3.2 1.1 8.5-9-12.4-2.7-2.8-6.1"/><path id="path1369" class="s12" d="m227.9 95-1.8.4-1.2.3-1.4-.4.8-4.1 2.2-1.1"/><path id="path1371" class="s12" d="m223.5 90.8-9-6.5-6.7 2"/><path id="path1373" class="s12" d="m224.2 132.7-3-3.9 1.2-3.7-.6-6.1 1.9-2.6"/><path id="path1375" class="s12" d="m216.6 141.8-6.3-6.2-8.9-5.3"/><path id="path1377" class="s12" d="m197.5 33.5 2.9 3 .5 2.9.6 3.9"/><path id="path1383" class="s13" d="m200.354 36.268-2.84-2.646L186.8 32.8l-3.1 2-10.8-3.6-7.7-2.6-7.3 2.2-1.3 7.2-10.1-3.7-.6-4.6-12.6-1.4-2.6-4.2 2.7-2.1-3.5-7.3-4.6 1.2-1.4.4-18.4 1.2-7.3 4.3-8.3.3-2.4-2.1-3.3 5.4-5.6.9-3.5 9.3.6 3.7-9.7 6.5-10.9 19 1.7 13.6-3.3 4.9 2.4 8.8 2.7 3.3 8 9.8 3.8 2.3 11.3 6.8 13.5-2.2 3.1 2.2 7.3-2.7 3.1-1.1 3-1.2 2.3-.8 5.8 7.3 8.9-1.7 2.9 6.1-.3 1-1.2 3.8-2.3 6.8 5.6 7.8 2.6 3.7 1.7 2.4 3.8 17.9-6.2 8.6.4 6.9.1 2.1 7.6 12.6v8.9l3.5 8.2 6 13.9-.4 4.1 4 4.5 21.5-4.6 16.5-20.3-.8-4.5 9.2-4.1-1.4-13.5 4.9-3.3 13.4-9.1v-15.9l-5.2-13.9 2-2.4 7.6-9.1 8.9-10.7 3.4-1.3 12.2-16.9.8-10.5-12.4 1.9-5 3.3-4.2-3.5-1.2-.9-.2-4-10.2-6.7-1.8-7.7-3.9-2.7-2.2-9.3-.5-.8L196 45.3l-1.8-6.3 1.3-.7 3.7 5.5c.887-.941 2.347-.667 1.154-7.532z"/><path id="path1385" class="s13" d="m243.4 162.7-8.7 12.3h-5.5l-2.3 6.2 2.5 7.5-4 6.1 2 8.2h9.8l11.8-33.2z"/><path id="path1387" class="s12" d="m174.9 180.5 9.2 13.4"/><path id="path1389" class="s12" d="m148.1 118 8.5-3.3"/></g></g><g id="g1399"><path id="path1395" class="s14" d="M244.2 162c-.2-.2-.5-.3-.8-.3h-.1c-.3 0-.6.1-.7.4l-8.4 11.9h-5c-.4 0-.8.2-.9.6l-2.4 6.2q-.1.3 0 .7l2.4 7-3.8 5.8c-.1.2-.2.5-.1.8l2 8.1c.1.5.5.8 1 .8h9.8c.4 0 .8-.3 1-.7l11.8-33.1c.1-.4 0-.7-.2-1z"/><path id="path1397" fill-rule="evenodd" class="s14" d="m217.13 82.855 9.97 6.445.2.2.1.1c.067.133.1.267.1.4l.2 3.6 4.5 3.7 4.4-3a.888.888 0 0 1 .4-.1l12.4-1.9h.1c.267 0 .5.1.7.3.2.2.4.5.3.8l-.8 10.4c0 .2-.067.367-.2.5l-12.2 17c-.133.133-.3.233-.5.3l-3.1 1.2-17.9 21.6 4.9 13.3v.2c.067.067.1.133.1.2V174c0 .3-.2.6-.4.8l-17.8 12.1 1.3 12.9c0 .4-.2.8-.6 1l-8.5 3.8.7 3.7v.5a1.164 1.164 0 0 1-.2.3l-16.6 20.4c-.133.133-.3.233-.5.3l-21.5 4.6h-.2c-.3 0-.5-.1-.7-.3l-4-4.5c-.2-.2-.3-.5-.3-.8l.4-3.8-9.4-21.9a.887.887 0 0 1-.1-.4V194l-7.5-12.3c-.067-.133-.1-.3-.1-.5l-.1-2.1-.4-6.9c0-.2.067-.4.2-.6l5.9-8.3-3.6-17.2-9.8-13.7c-.2-.2-.3-.6-.2-.9l3.7-11.3-2.4-5-8.1 1.5c-.067.067-.133.1-.2.1-.3 0-.6-.2-.8-.4l-5.4-6.7-15 5.6h-.3c-.2 0-.4-.067-.6-.2l-2.7-2-13.1 2.2h-.2c-.133 0-.3-.033-.5-.1L66.1 106a1.164 1.164 0 0 1-.3-.2L55.1 92.7a1.163 1.163 0 0 1-.2-.3l-2.4-8.8c-.1-.3 0-.6.1-.8l3.2-4.6-1.7-13.3v-.1c0-.2.067-.367.2-.5l10.8-19c.067-.133.133-.2.2-.2l.1-.1 9.2-6.1-.5-3.2c0-.133.033-.3.1-.5l3.5-9.2c.1-.4.4-.6.7-.7l5.2-.8 3.76-5.592 2.587 2.44 8.295-.436 7.112-4.14 18.45-1.136 6.191-1.647 4.413 7.987-2.703 2.344 2.086 3.263 13.036 1.307.526 4.608 8.68 3.35 1.23-7.083 7.805-2.239 18.521 6.1 3.035-1.856 11.352.81 3.003 3.165 1.53 8.114-3.618.782-3.431-5.58-.665.305 2.005 5.83 12.402 18.166 2.232 9.066 3.82 2.885z"/></g><path id="path1401" class="s13" d="m186 167.6 3.3 4.1"/><path id="path1403" class="s13" d="m203.3 178.6 3.2 4.8"/><g id="g1613"><g id="g1507"><path id="path1405" class="s1" d="m249.5 93.3-.8 10.5-12.2 16.9-3.4 1.3-8.9 10.7-3-3.9 1.2-3.7-.6-6.1 1.9-2.6 6-4 3.2 1.1 8.5-9-12.4-2.7-2.8-6.1-.1-.3 1.8-.4 4.2 3.5 5-3.3z"/><path id="path1407" class="s1" d="m243.4 162.7 5.6 7.1-11.8 33.2h-9.8l-2-8.2 4-6.1-2.5-7.5 2.3-6.2h5.5z"/><path id="path1409" class="s2" d="m241.4 104.5-8.5 9-3.2-1.1-6 4-4-1.2-4.5 2.3-10.7-6.4-5.5-7.8 8.8-16.4v-.6l6.7-2 9.8 6.9-.8 4.1 1.4.4 1.2-.3.1.3 2.8 6.1z"/><path id="path1411" class="s3" d="m227.9 95-1.8.4-1.2.3-1.4-.4.8-4.1 2.2-1.1.2 4z"/><path id="path1413" class="s4" d="m226.5 90.1-2.2 1.1-9.8-6.9-6.7 2v-6.5l6.7-4.1 1.8 7.7z"/><path id="path1415" class="s5" d="m221.2 128.8 3 3.9-7.6 9.1-6.3-6.2-8.9-5.3 1.6-1.7-2-1.8 3.9-4.8-3.3-6.8 2.9-4.1 10.7 6.4 4.5-2.3 4 1.2-1.9 2.6.6 6.1z"/><path id="path1417" class="s5" d="M219.8 158.1V174l-13.4 9.1-3.1-4.5 2.1-3.8-.2-2.5 1.2-1-2.8-3-1.3-4 .7-1v-1.8l3-.4 1.6 1.1z"/><path id="path1419" class="s6" d="m214.6 144.2 5.2 13.9-12.2 4.1-1.6-1.1-3 .4-.8-.5-.4-5.3-1.8.3-2.1-.7-6-2.3-.9-5.3-2.2-1.5v-4.5l-.2-.5 3.8-3.1-2.4-3.5 2.4-.6-1.2-2.8h-.2l3.6-.5h.1l.2 4.9 5.4-.4-1.3-2.3 2.4-2.6 8.9 5.3 6.3 6.2z"/><path id="path1421" class="s7" d="m214.5 75.7-6.7 4.1v7.1l-8.8 16.4 5.5 7.8-2.9 4.1-9.3 1.7-3.9-2.8-4.6.8-2.4-2.3-9.3-9.3-4.2-8.7-2.2-4.7 3.1-8.4 2.3-.6-.2-10.7 2.9-1.6-.1-5.4h33.8l.4-.3.5.8 2.2 9.3z"/><path id="path1423" class="s1" d="m196 45.3 11.9 17.6-.4.3h-33.8l-.8-32 10.8 3.6 3.1-2 9 .6 1.7.1 2.9 3 .5 2.9.6 3.9-2.3.5-3.7-5.5-1.3.7z"/><path id="path1425" class="s4" d="m203.6 168.3 2.8 3-1.2 1 .2 2.5-2.1 3.8-2.2-2.3-.8-2.1 1.2-2.2-.9-1.4-2.3-.3-.9-1.5v-6.1l1.2-2.9-.7-4.5 2.1.7 1 6.3-1 1.5 1.8 5.2 1.1.8z"/><path id="path1427" class="s6" d="m203.3 178.6 3.1 4.5-4.9 3.3-5.4-.1.6-8.9 4.4-1.1z"/><path id="path1429" class="s4" d="m201.6 115.2 3.3 6.8-3.9 4.8-6.4 1.1.1 2.8h-.1l-3.6.5-3-.5 3.1-6.3 1.2-7.5z"/><path id="path1431" class="s15" d="m202.3 164.3 1.3 4-.7 1.5-1.1-.8-1.8-5.2 1-1.5-1-6.3 1.8-.3.4 5.3.8.5v1.8z"/><path id="path1433" class="s15" d="m203 128.6-1.6 1.7-2.4 2.6 1.3 2.3-5.4.4-.2-4.9-.1-2.8 6.4-1.1z"/><path id="path1435" class="s6" d="m201.5 186.4 1.4 13.5-9.2 4.1-2.4-.7 1.2-2.3-1-7.1 3.3-3.3v-2.7l1.3-1.6z"/><path id="path1437" class="s6" d="m200.6 170.6.9 1.4-1.2 2.2.8 2.1-4.4 1.1-6-2.2-1.4-1.7v-1.8l8.1-2.9.9 1.5z"/><path id="path1439" class="s2" d="m197.9 155.3.7 4.5-1.2 2.9v6.1l-8.1 2.9-3.3-4.1 2.8-2.6-3.5-11.8 4.4-1.7 2.2 1.5z"/><path id="path1441" class="s4" d="m196.7 177.4-.6 8.9-1.3 1.6v2.7l-3.3 3.3-5.9-.8-1.5.8-9.2-13.4h4.6l5.4-6 4.4-1 1.4 1.7z"/><path id="path1443" class="s2" d="m193.7 204 .8 4.5-5-1-.2-2.2 2-2z"/><path id="path1445" fill-rule="evenodd" class="s1" d="M194.5 208.5 178 228.8l-21.5 4.6-4-4.5.4-4.1-6-13.9 5.1 2.7 6.5-1.9.3-9.4 2.3 4.2 3.7-.2 2.5-3.7 6.8 1.4 6.3-8.3 3.7-1.8 1.5-.8 5.9.8 1 7.1-1.2 2.3-2 2 .2 2.2zm-10 8.2v-2.9l-1.6-1-3 .6-2.3 2.4 2.9 3.9z"/><path id="path1447" class="s5" d="m191.2 131.2 1.2 2.8-2.4.6-3.4 1 1.4-4.9 3 .5z"/><path id="path1449" class="s3" d="m190 134.6 2.4 3.5-3.8 3.1-.7-3.1-1.3-.4v-2.1z"/><path id="path1451" class="s1" d="m192.3 116.9-1.2 7.5-3.1 6.3-1.4 4.9V147l2.8 2.5.3 2-4.4 1.7 3.5 11.8-2.8 2.6-5.1-4.9-9.3-.6-6-6.3-1.1-6.6-5.7-1-1.5 2.4-4.7.7-2.7-6.2-12.2.6-1.7-2.4 4.1-2.1 4.9.6 4-4.3v-3.7l4-3.9 3.6-11.5v-3.7l1.8-1.6 12.7 1.2 10.3-1.7 2.4 2.3 4.6-.8z"/><path id="path1453" class="s15" d="m191 147.7.9 5.3-2.2-1.5-.3-2-2.8-2.5v-9.3l1.3.4.7 3.1.2.5v4.5z"/><path id="path1455" class="s8" d="M189.3 171.7v1.8l-4.4 1-5.4 6h-4.6l-1.6-1.4-3.7.3-1.3-1-2.7-2.1v-9.8h6v-4.4l9.3.6 5.1 4.9z"/><path id="path1457" class="s3" d="M184.5 213.8v2.9l-4 3-2.9-3.9 2.3-2.4 3-.6z"/><path id="path1459" class="s3" d="m174.9 180.5 9.2 13.4-3.7 1.8-6.3 8.3-6.8-1.4-2.5 3.7-3.7.2-2.3-4.2.4-10h2.3l1-9.6 7.8-.7 3-2.9z"/><path id="path1461" class="s4" d="m181.4 112.6-10.3 1.7-12.7-1.2-1.8 1.6-8.5 3.3-3.5-4.7.2-4 2.5-5.1 1.7 1.7 12.7-4.9 6.2-6.4 4.2 8.7z"/><path id="path1463" class="s5" d="m173.7 63.2.1 5.4-2.9 1.6-23.1-12.3-2.9 1.8-9.4-.7-4.6-9.8-1.8-11.7 2.7-2.5 1.5-6.7 12.6 1.4.6 4.6 10.1 3.7 1.3-7.2 7.3-2.2 7.7 2.6z"/><path id="path1465" class="s5" d="m173.3 179.1-3 2.9-7.8.7-1 9.6h-2.3l-.4 10-.3 9.4-6.5 1.9-5.1-2.7-3.5-8.2v-8.9l-7.6-12.6-.1-2.1 4-1.8 2.7 1.6 11.6-.3 2.5 1.4 4.4-.6 3 1.1 4.4-2.1 1.3 1z"/><path id="path1467" class="s6" d="M171.6 162.1v4.4h-6v9.8l2.7 2.1-4.4 2.1-3-1.1-4.4.6-2.5-1.4-11.6.3-2.7-1.6-4 1.8-.4-6.9 6.2-8.6-3.8-17.9 12.2-.6 2.7 6.2 4.7-.7 1.5-2.4 5.7 1 1.1 6.6z"/><path id="path1469" class="s3" d="m170.9 70.2.2 10.7-2.3.6-3.1 8.4 2.2 4.7-6.2 6.4-12.7 4.9-1.7-1.7-3.5-3.4.2-2.2h3.8l-2.1-3.3-.3-2.8-.1-1.1-4.1-4.2v-3.3l5.8-5.3.8-11.1-2.9-7.8 2.9-1.8z"/><path id="path1471" class="s6" d="M156.6 114.7v3.7l-3.6 11.5-4 3.9v3.7l-4 4.3-4.9-.6-4.1 2.1-2.6-3.7 3-2v-2.3l3.1-1.3 2.5.8 2-4.5-3.9-9 8.4 1.5.5-3.6-.9-1.2z"/><path id="path1473" class="s8" d="m148.1 118 .9 1.2-.5 3.6-8.4-1.5-.3-.1h-8.5l.3-1-2.9-6.1 2.9-6.6 3 1.3 6.6-12.5 4.2-3.8.3 2.8 2.1 3.3H144l-.2 2.2 3.5 3.4-2.5 5.1-.2 4z"/><path id="path1475" class="s2" d="m144.9 59.7 2.9 7.8-.8 11.1-5.8 5.3v3.3l-4.2 2.1-9.1-.1-12.1-2-2.3 3.3 1 6-3.3 3.9.5 8.9-3 1.2-.2-.5-.5-10.9-2.4-4 1.5-2.3h2.7l-1-2.7-5.3-4.4.4-2.7 4.9.6 5.1-3.1.2-9L135.5 59z"/><path id="path1477" class="s4" d="m145.3 91.4.1 1.1-4.2 3.8-6.6 12.5-3-1.3-2.9 6.6-8.9 1.7-5.8-7.3-2.3.8-.5-8.9 3.3-3.9-1-6 2.3-3.3 12.1 2 9.1.1 4.2-2.1z"/><path id="path1479" class="s3" d="m140.1 121.3 3.9 9-2 4.5-2.5-.8-3.1 1.3v2.3l-3 2-5.6-7.8 2.3-6.8 4.3.4 1.1-4.2h4.3z"/><path id="path1481" class="s6" d="m130.9 49.2 4.6 9.8-21.4 12.5-27.6-19.6-8.5-6.1 4.6-4.3 6.8-2.8 5.4-5.7 4.1-1.5-.7-9.7 7.3-4.3 18.4-1.2 1.4-.4-1.3 9.6 5.1 12z"/><path id="path1483" class="s2" d="m135.5 121.2-1.1 4.2-4.3-.4 1.2-3.8z"/><path id="path1485" class="s8" d="m129.9 14.7 3.5 7.3-2.7 2.1 2.6 4.2-1.5 6.7-2.7 2.5-5.1-12 1.3-9.6z"/><path id="path1487" class="s5" d="m114.1 71.5-.2 9-5.1 3.1-4.9-.6-1.8-.2L87 96.3h-4.6l-1.1-.3-17.9-5.9-.4-.1-7.1 2.1-2.4-8.8 3.3-4.9 9.7 4.4 21.8-2.3-1.9-28.4.1-.2z"/><path id="path1489" class="s4" d="m108.8 90.1 1 2.7h-2.7l-1.5 2.3 2.4 4 .5 10.9.2.5-3.1 1.1-.3-11.4-2.9-5.6-6.8.8v3.8L87 96.3l15.1-13.5 1.8.2-.4 2.7z"/><path id="path1491" class="s3" d="m105.3 100.2.3 11.4-7.3 2.7-3.1-2.2.4-7.8V95.4l6.8-.8z"/><path id="path1493" class="s2" d="m98.2 21.8.7 9.7-4.1 1.5-5.4 5.7-6.8 2.8-4.6 4.3H66l9.7-6.5-.6-3.7 3.5-9.3 5.6-.9 3.3-5.4 2.4 2.1z"/><path id="path1495" class="s6" d="M95.6 99.2v5.1l-.4 7.8-13.5 2.2-.1-4.3-2.4-1.4.8-3.3 1.2-9 .1-.3 1.1.3H87z"/><path id="path1497" class="s1" d="m86.4 52.1 1.9 28.4-21.8 2.3-9.7-4.4-1.7-13.6L66 64l3.1-13.7h8.7l.2-4.5 8.5 6.1z"/><path id="path1499" class="s8" d="m81.6 110 .1 4.3-11.3-6.8 3.8-5.4 2.8 2.7 3 .5-.8 3.3z"/><path id="path1501" class="s3" d="m81.3 96-.1.3-1.2 9-3-.5-2.8-2.7-3.8 5.4-3.8-2.3-8-9.8 4.3-1.2.5-4.1z"/><path id="path1503" class="s4" d="m78 45.8-.2 4.5h-8.7L66 64l-10.9.8 10.9-19z"/><path id="path1505" class="s6" d="m63 90 .4.1-.5 4.1-4.3 1.2-2.7-3.3z"/></g><g id="g1611"><path id="path1509" class="s13" d="M66 45.8h12l4.6-4.3 6.8-2.8 5.4-5.7 4.1-1.5-.7-9.7"/><path id="path1511" class="s13" d="m129.1 37.5 2.7-2.5 1.5-6.7"/><path id="path1513" class="s13" d="m86.4 52.1 1.9 28.4-21.8 2.3-9.7-4.4"/><path id="path1515" class="s13" d="m78 45.8-.2 4.5h-8.7L66 64l-10.9.8"/><path id="path1517" class="s13" d="M55.9 92.1 63 90l.4.1L81.3 96l1.1.3H87l15.1-13.5 1.8.2 4.9.6 5.1-3.1.2-9"/><path id="path1519" class="s13" d="m58.6 95.4 4.3-1.2.5-4.1"/><path id="path1521" class="s13" d="m70.4 107.5 3.8-5.4 2.8 2.7 3 .5 1.2-9"/><path id="path1523" class="s13" d="m80 105.3-.8 3.3 2.4 1.4.1 4.3"/><path id="path1525" class="s13" d="m87 96.3 8.6 2.9v5.1l-.4 7.8"/><path id="path1527" class="s13" d="M95.6 99.2v-3.8l6.8-.8 2.9 5.6.3 11.4"/><path id="path1529" class="s13" d="m108.5 110-.5-10.9-2.4-4 1.5-2.3h2.7l-1-2.7-5.3-4.4.4-2.7"/><path id="path1531" class="s13" d="m111.7 109.3-.5-8.9 3.3-3.9-1-6 2.3-3.3 12.1 2 9.1.1 4.2-2.1v-3.3l5.8-5.3.8-11.1-2.9-7.8-9.4-.7"/><path id="path1533" class="s13" d="m144.9 59.7 2.9-1.8 23.1 12.3 2.9-1.6-.1-5.4-.8-32"/><path id="path1535" class="s13" d="m141.2 87.2 4.1 4.2.1 1.1.3 2.8 2.1 3.3H144l-.2 2.2 3.5 3.4 1.7 1.7 12.7-4.9 6.2-6.4-2.2-4.7 3.1-8.4 2.3-.6-.2-10.7"/><path id="path1537" class="s13" d="m128.7 114.1 2.9-6.6 3 1.3 6.6-12.5 4.2-3.8"/><path id="path1539" class="s13" d="M131.3 121.2h8.5l.3.1 8.4 1.5.5-3.6-.9-1.2-3.5-4.7.2-4 2.5-5.1"/><path id="path1541" class="s13" d="m130.1 125 4.3.4 1.1-4.2"/><path id="path1543" class="s13" d="m133.4 139.6 3-2v-2.3l3.1-1.3 2.5.8 2-4.5-3.9-9"/><path id="path1545" class="s13" d="m136 143.3 4.1-2.1 4.9.6 4-4.3v-3.7l4-3.9 3.6-11.5v-3.7l1.8-1.6 12.7 1.2 10.3-1.7"/><path id="path1547" class="s13" d="m167.9 94.6 4.2 8.7 9.3 9.3 2.4 2.3 4.6-.8 3.9 2.8 9.3-1.7 2.9-4.1-5.5-7.8 8.8-16.4v-7.1l6.7-4.1"/><path id="path1549" class="s13" d="M173.7 63.2h33.8"/><path id="path1551" class="s13" d="m137.7 145.7 12.2-.6 2.7 6.2 4.7-.7 1.5-2.4 5.7 1 1.1 6.6 6 6.3 9.3.6 5.1 4.9 2.8-2.6-3.5-11.8 4.4-1.7"/><path id="path1553" class="s13" d="M171.6 162.1v4.4h-6v9.8l2.7 2.1 1.3 1 3.7-.3 1.6 1.4h4.6l5.4-6 4.4-1v-1.8l8.1-2.9v-6.1l1.2-2.9-.7-4.5 2.1.7"/><path id="path1555" class="s13" d="m200 156 1.8-.3.4 5.3.8.5v1.8l-.7 1 1.3 4-.7 1.5-1.1-.8-1.8-5.2 1-1.5z"/><path id="path1557" class="s13" d="m203 161.5 3-.4 1.6 1.1 12.2-4.1"/><path id="path1559" class="s13" d="m197.4 168.8.9 1.5 2.3.3.9 1.4-1.2 2.2.8 2.1 2.2 2.3 2.1-3.8-.2-2.5 1.2-1-2.8-3"/><path id="path1561" class="s13" d="m189.3 173.5 1.4 1.7 6 2.2-.6 8.9-1.3 1.6v2.7l-3.3 3.3 1 7.1-1.2 2.3 2.4.7"/><path id="path1563" class="s13" d="m194.5 208.5-5-1-.2-2.2 2-2"/><path id="path1565" class="s13" d="m191.5 193.9-5.9-.8-1.5.8-3.7 1.8-6.3 8.3-6.8-1.4-2.5 3.7-3.7.2-2.3-4.2"/><path id="path1567" class="s13" d="m146.9 210.9 5.1 2.7 6.5-1.9.3-9.4.4-10h2.3l1-9.6 7.8-.7 3-2.9"/><path id="path1569" class="s13" d="m135.7 179.1 4-1.8 2.7 1.6 11.6-.3 2.5 1.4 4.4-.6 3 1.1 4.4-2.1"/><path id="path1571" class="s13" d="m177.6 215.8 2.3-2.4 3-.6 1.6 1v2.9l-4 3z"/><path id="path1573" class="s13" d="m191.9 153-2.2-1.5-.3-2-2.8-2.5v-9.3l1.3.4.7 3.1.2.5v4.5l2.2 1.5.9 5.3 6 2.3"/><path id="path1575" class="s13" d="m201 126.8-6.4 1.1.1 2.8.2 4.9 5.4-.4-1.3-2.3 2.4-2.6 1.6-1.7z"/><path id="path1577" class="s13" d="m188.6 141.2 3.8-3.1-2.4-3.5-3.4 1v2.1"/><path id="path1579" class="s13" d="M186.6 135.7v-.1l1.4-4.9 3 .5h.2l1.2 2.8-2.4.6"/><path id="path1581" class="s13" d="m194.6 130.7-3.6.5"/><path id="path1583" class="s13" d="m188 130.7 3.1-6.3 1.2-7.5"/><path id="path1585" class="s13" d="m201 126.8 3.9-4.8-3.3-6.8"/><path id="path1587" class="s13" d="m204.5 111.1 10.7 6.4 4.5-2.3 4 1.2 6-4 3.2 1.1 8.5-9-12.4-2.7-2.8-6.1"/><path id="path1589" class="s13" d="m227.9 95-1.8.4-1.2.3-1.4-.4.8-4.1 2.2-1.1"/><path id="path1591" class="s13" d="m224.3 91.2-9.8-6.9-6.7 2"/><path id="path1593" class="s13" d="m224.2 132.7-3-3.9 1.2-3.7-.6-6.1 1.9-2.6"/><path id="path1595" class="s13" d="m216.6 141.8-6.3-6.2-8.9-5.3"/><path id="path1597" class="s13" d="m197.5 33.5 2.9 3 .5 2.9.6 3.9"/><path id="path1603" class="s13" d="m200.297 36.233-2.762-2.523-10.735-.91-3.1 2-10.8-3.6-7.7-2.6-7.3 2.2-1.3 7.2-10.1-3.7-.6-4.6-12.6-1.4-2.6-4.2 2.7-2.1-3.5-7.3-4.6 1.2-1.4.4-18.4 1.2-7.3 4.3-8.3.3-2.4-2.1-3.3 5.4-5.6.9-3.5 9.3.6 3.7-9.7 6.5-10.9 19 1.7 13.6-3.3 4.9 2.4 8.8 2.7 3.3 8 9.8 3.8 2.3 11.3 6.8 13.5-2.2 3.1 2.2 7.3-2.7 3.1-1.1 3-1.2 2.3-.8 5.8 7.3 8.9-1.7 2.9 6.1-.3 1-1.2 3.8-2.3 6.8 5.6 7.8 2.6 3.7 1.7 2.4 3.8 17.9-6.2 8.6.4 6.9.1 2.1 7.6 12.6v8.9l3.5 8.2 6 13.9-.4 4.1 4 4.5 21.5-4.6 16.5-20.3-.8-4.5 9.2-4.1-1.4-13.5 4.9-3.3 13.4-9.1v-15.9l-5.2-13.9 2-2.4 7.6-9.1 8.9-10.7 3.4-1.3 12.2-16.9.8-10.5-12.4 1.9-5 3.3-4.2-3.5-1.2-.9-.2-4-10.2-6.7-1.8-7.7-3.9-2.7-2.2-9.3-.5-.8L196 45.3l-1.8-6.3 1.3-.7 3.7 5.5 2.3-.5c-1.195-7.03.195.085-1.203-7.067z"/><path id="path1605" class="s13" d="m243.4 162.7-8.7 12.3h-5.5l-2.3 6.2 2.5 7.5-4 6.1 2 8.2h9.8l11.8-33.2z"/><path id="path1607" class="s13" d="m174.9 180.5 9.2 13.4"/><path id="path1609" class="s13" d="m148.1 118 8.5-3.3"/></g></g></g><g id="g1821"><g id="g1719"><path id="path1617" class="s1" d="m249.5 93.3-.8 10.5-12.2 16.9-3.4 1.3-8.9 10.7-3-3.9 1.2-3.7-.6-6.1 1.9-2.6 6-4 3.2 1.1 8.5-9-12.4-2.7-2.8-6.1-.1-.3 1.8-.4 4.2 3.5 5-3.3z"/><path id="path1619" class="s1" d="m243.4 162.7 5.6 7.1-11.8 33.2h-9.8l-2-8.2 4-6.1-2.5-7.5 2.3-6.2h5.5z"/><path id="path1621" class="s2" d="m241.4 104.5-8.5 9-3.2-1.1-6 4-4-1.2-4.5 2.3-10.7-6.4-5.5-7.8 8.8-16.4v-.6l6.7-2 9 6.5.8.4-.8 4.1 1.4.4 1.2-.3.1.3 2.8 6.1z"/><path id="path1623" class="s3" d="m227.9 95-1.8.4-1.2.3-1.4-.4.8-4.1 2.2-1.1.2 4z"/><path id="path1625" class="s4" d="m226.5 90.1-2.2 1.1-.8-.4-9-6.5-6.7 2v-6.5l6.7-4.1 1.8 7.7z"/><path id="path1627" class="s5" d="m221.2 128.8 3 3.9-7.6 9.1-6.3-6.2-8.9-5.3 1.6-1.7-2-1.8 3.9-4.8-3.3-6.8 2.9-4.1 10.7 6.4 4.5-2.3 4 1.2-1.9 2.6.6 6.1z"/><path id="path1629" class="s5" d="M219.8 158.1V174l-13.4 9.1-3.1-4.5 2.1-3.8-.2-2.5 1.2-1-2.8-3-1.3-4 .7-1v-1.8l3-.4 1.6 1.1z"/><path id="path1631" class="s6" d="m214.6 144.2 5.2 13.9-12.2 4.1-1.6-1.1-3 .4-.8-.5-.4-5.3-1.8.3-2.1-.7-6-2.3-.9-5.3-2.2-1.5v-4.5l-.2-.5 3.8-3.1-2.4-3.5 2.4-.6-1.2-2.8h-.2l3.6-.5h.1l.2 4.9 5.4-.4-1.3-2.3 2.4-2.6 8.9 5.3 6.3 6.2z"/><path id="path1633" class="s7" d="m181.3 112.5-9.2-9.2-4.2-8.7-2.2-4.7 3.1-8.4 2.3-.6-.2-10.7 2.9-1.6-.1-5.4h33.8l.4-.3.5.8 2.2 9.3 3.9 2.7-6.7 4.1v7.1l-8.8 16.4 5.5 7.8-2.9 4.1-9.3 1.7-3.9-2.8-4.6.8z"/><path id="path1635" class="s1" d="m196 45.3 11.9 17.6-.4.3h-33.8l-.8-32 10.8 3.6 3.1-2 9 .6 1.7.1 2.9 3 .5 2.9.6 3.9-2.3.5-3.7-5.5-1.3.7z"/><path id="path1637" class="s4" d="m203.6 168.3 2.8 3-1.2 1 .2 2.5-2.1 3.8-2.2-2.3-.8-2.1 1.2-2.2-.9-1.4-2.3-.3-.9-1.5v-6.1l1.2-2.9-.7-4.5 2.1.7 1 6.3-1 1.5 1.8 5.2 1.1.8z"/><path id="path1639" class="s6" d="m203.3 178.6 3.1 4.5-4.9 3.3-5.4-.1.6-8.9 4.4-1.1z"/><path id="path1641" class="s4" d="m201.6 115.2 3.3 6.8-3.9 4.8-6.4 1.1.1 2.8h-.1l-3.6.5-3-.5 3.1-6.3 1.2-7.5z"/><path id="path1643" class="s16" d="m202.3 164.3 1.3 4-.7 1.5-1.1-.8-1.8-5.2 1-1.5-1-6.3 1.8-.3.4 5.3.8.5v1.8z"/><path id="path1645" class="s16" d="m203 128.6-1.6 1.7-2.4 2.6 1.3 2.3-5.4.4-.2-4.9-.1-2.8 6.4-1.1z"/><path id="path1647" class="s6" d="m201.5 186.4 1.4 13.5-9.2 4.1-2.4-.7 1.2-2.3-1-7.1 3.3-3.3v-2.7l1.3-1.6z"/><path id="path1649" class="s6" d="m200.6 170.6.9 1.4-1.2 2.2.8 2.1-4.4 1.1-6-2.2-1.4-1.7v-1.8l8.1-2.9.9 1.5z"/><path id="path1651" class="s2" d="m197.9 155.3.7 4.5-1.2 2.9v6.1l-8.1 2.9-3.3-4.1 2.8-2.6-3.5-11.8 4.2-1.6 2.4 1.4z"/><path id="path1653" class="s4" d="m196.7 177.4-.6 8.9-1.3 1.6v2.7l-3.3 3.3-5.9-.8-1.5.8-9.2-13.4h4.6l5.4-6 4.4-1 1.4 1.7z"/><path id="path1655" class="s2" d="m193.7 204 .8 4.5-5-1-.2-2.2 2-2z"/><path id="path1657" fill-rule="evenodd" class="s1" d="M194.5 208.5 178 228.8l-21.5 4.6-4-4.5.4-4.1-6-13.9 5.1 2.7 6.5-1.9.3-9.4 2.3 4.2 3.7-.2 2.5-3.7 6.8 1.4 6.3-8.3 3.7-1.8 1.5-.8 5.9.8 1 7.1-1.2 2.3-2 2 .2 2.2zm-10 8.2v-2.9l-1.6-1-3 .6-2.3 2.4 2.9 3.9z"/><path id="path1659" class="s5" d="m191.2 131.2 1.2 2.8-2.4.6-3.4 1 1.4-4.9 3 .5z"/><path id="path1661" class="s3" d="m190 134.6 2.4 3.5-3.8 3.1-.7-3.1-1.3-.4v-2.1z"/><path id="path1663" class="s1" d="m192.3 116.9-1.2 7.5-3.1 6.3-1.4 4.9V147l2.8 2.5.1 2.1-4.2 1.6 3.5 11.8-2.8 2.6-5.1-4.9-9.2-.9-.6-.1-5.5-5.9-1.1-6.6-5.7-1-1.5 2.4-4.7.7-2.7-6.2-12.2.6-1.7-2.4 4.1-2.1 4.9.6 4-4.3v-3.7l4-3.9 3.6-11.5v-3.7l1.8-1.6 12.7 1.2 10.2-1.8 2.5 2.4 4.6-.8z"/><path id="path1665" class="s16" d="m189.5 151.6-.1-2.1-2.8-2.5v-9.3l1.3.4.7 3.1.2.5v4.5l2.2 1.5.9 5.3z"/><path id="path1667" class="s8" d="M189.3 171.7v1.8l-4.4 1-5.4 6h-4.6l-1.6-1.4-3.7.3-1.3-1-2.7-2.1v-9.8h6v-4.4l.1-.3 9.2.9 5.1 4.9z"/><path id="path1669" class="s3" d="M184.5 213.8v2.9l-4 3-2.9-3.9 2.3-2.4 3-.6z"/><path id="path1671" class="s3" d="m174.9 180.5 9.2 13.4-3.7 1.8-6.3 8.3-6.8-1.4-2.5 3.7-3.7.2-2.3-4.2.4-10h2.3l1-9.6 7.8-.7 3-2.9z"/><path id="path1673" class="s4" d="m172.1 103.3 9.2 9.2-10.2 1.8-12.7-1.2-1.8 1.6-8.5 3.3-3.5-4.7.2-4 2.5-5.1 1.7 1.7 12.7-4.9 6.2-6.4z"/><path id="path1675" class="s5" d="m173.7 63.2.1 5.4-2.9 1.6-23.1-12.3-2.9 1.8-9.4-.7-4.6-9.8-1.8-11.7.8-.4 1.9-2.1 1.5-6.7 12.6 1.4.6 4.6 10.1 3.7 1.3-7.2 7.3-2.2 7.7 2.6z"/><path id="path1677" class="s5" d="m158.8 202.3-.3 9.4-6.5 1.9-5.1-2.7-3.5-8.2v-8.9l-7.6-12.6-.1-2.1 4-1.8 2.7 1.6 11.6-.3 2.5 1.4 4.4-.6 3 1.1 4.4-2.1 1.3 1 3.7-.3-3 2.9-7.8.7-1 9.6h-2.3z"/><path id="path1679" class="s6" d="m171.7 161.8-.1.3v4.4h-6v9.8l2.7 2.1-4.4 2.1-3-1.1-4.4.6-2.5-1.4-11.6.3-2.7-1.6-4 1.8-.4-6.9 6.2-8.6-3.8-17.9 12.2-.6 2.7 6.2 4.7-.7 1.5-2.4 5.7 1 1.1 6.6 5.5 5.9z"/><path id="path1681" class="s3" d="m170.9 70.2.2 10.7-2.3.6-3.1 8.4 2.2 4.7-6.2 6.4-12.7 4.9-1.7-1.7-3.5-3.4.2-2.2h3.8l-2.1-3.3-.3-2.8-.1-1.1-4.1-4.2v-3.3l5.8-5.3.8-11.1-2.9-7.8 2.9-1.8z"/><path id="path1683" class="s6" d="M156.6 114.7v3.7l-3.6 11.5-4 3.9v3.7l-4 4.3-4.9-.6-4.1 2.1-2.6-3.7 3-2v-2.3l3.1-1.3 2.5.8 2-4.5-3.9-9 8.4 1.5.5-3.6-.9-1.2z"/><path id="path1685" class="s8" d="m148.1 118 .9 1.2-.5 3.6-8.4-1.5-.3-.1h-8.5l.3-1-2.9-6.1 2.9-6.6 3 1.3 6.6-12.5 4.2-3.8.3 2.8 2.1 3.3H144l-.2 2.2 3.5 3.4-2.5 5.1-.2 4z"/><path id="path1687" class="s2" d="m144.9 59.7 2.9 7.8-.8 11.1-5.8 5.3v3.3l-4.2 2.1-9.1-.1-12.1-2-2.3 3.3 1 6-3.3 3.9.5 8.9-3 1.2-.2-.5-.5-10.9-2.4-4 1.5-2.3h2.7l-1-2.7-5.3-4.4.4-2.7 4.9.6 5.1-3.1.2-9L135.5 59z"/><path id="path1689" class="s4" d="m145.3 91.4.1 1.1-4.2 3.8-6.6 12.5-3-1.3-2.9 6.6-8.9 1.7-5.8-7.3-2.3.8-.5-8.9 3.3-3.9-1-6 2.3-3.3 12.1 2 9.1.1 4.2-2.1z"/><path id="path1691" class="s3" d="m140.1 121.3 3.9 9-2 4.5-2.5-.8-3.1 1.3v2.3l-3 2-5.6-7.8 2.3-6.8 4.3.4 1.1-4.2h4.3z"/><path id="path1693" class="s6" d="m130.9 49.2 4.6 9.8-21.4 12.5-27.6-19.6-8.5-6.1 4.6-4.3 6.8-2.8 5.4-5.7 4.1-1.5-.7-9.7 7.3-4.3 18.4-1.2 1.4-.4-1.3 9.6 5.1 12z"/><path id="path1695" class="s2" d="m135.5 121.2-1.1 4.2-4.3-.4 1.2-3.8z"/><path id="path1697" class="s8" d="m129.9 14.7 3.5 7.3-2.7 2.1 2.6 4.2-1.5 6.7-1.9 2.1-.8.4-5.1-12 1.3-9.6z"/><path id="path1699" class="s5" d="m114.1 71.5-.2 9-5.1 3.1-4.9-.6-1.8-.2L87 96.3h-4.6l-1.1-.3-17.9-5.9-.4-.1-7.1 2.1-2.4-8.8 3.3-4.9 9.7 4.4 21.8-2.3-1.9-28.4.1-.2z"/><path id="path1701" class="s4" d="m108.8 90.1 1 2.7h-2.7l-1.5 2.3 2.4 4 .5 10.9.2.5-3.1 1.1-.3-11.4-2.9-5.6-6.8.8v3.1l-.2.6-8.4-2.8 15.1-13.5 1.8.2-.4 2.7z"/><path id="path1703" class="s3" d="m105.3 100.2.3 11.4-7.3 2.7-3.1-2.2.4-7.8v-5.1l-.2-.1.2-.6v-3.1l6.8-.8z"/><path id="path1705" class="s2" d="m98.2 21.8.7 9.7-4.1 1.5-5.4 5.7-6.8 2.8-4.6 4.3H66l9.7-6.5-.6-3.7 3.5-9.3 5.6-.9 3.3-5.4 2.4 2.1z"/><path id="path1707" class="s6" d="M95.6 99.2v5.1l-.4 7.8-13.5 2.2-.1-4.3-2.4-1.4.7-2.9v-.5l.1.1 1.2-9 .1-.3 1.1.3H87l8.4 2.8z"/><path id="path1709" class="s1" d="m86.4 52.1 1.9 28.4-21.8 2.3-9.7-4.4-1.7-13.6L66 64l3.1-13.7h8.7l.2-4.5 8.5 6.1z"/><path id="path1711" class="s8" d="m81.6 110 .1 4.3-11.3-6.8 3.8-5.4 2.8 2.7 2.9.4v.5l-.7 2.9z"/><path id="path1713" class="s3" d="m81.3 96-.1.3-1.2 9-.1-.1-2.9-.4-2.8-2.7-3.8 5.4-3.8-2.3-8-9.8 4.3-1.2.5-4.1z"/><path id="path1715" class="s4" d="m78 45.8-.2 4.5h-8.7L66 64l-10.9.8 10.9-19z"/><path id="path1717" class="s6" d="m63 90 .4.1-.5 4.1-4.3 1.2-2.7-3.3z"/></g><g id="g1819"><path id="path1721" class="s12" d="M66 45.8h12l4.6-4.3 6.8-2.8 5.4-5.7 4.1-1.5-.7-9.7M78.001 45.99l36.189 25.833 21.082-12.788-4.418-9.989-1.802-11.72-5.072-11.834 1.312-9.315"/><path id="path1723" class="s12" d="m129.9 37.1 1.9-2.1 1.5-6.7"/><path id="path1725" class="s12" d="m86.4 52.1 1.9 28.4-21.8 2.3-9.7-4.4"/><path id="path1727" class="s12" d="m78 45.8-.2 4.5h-8.7L66 64l-10.9.8"/><path id="path1729" class="s12" d="M55.9 92.1 63 90l.4.1L81.3 96l1.1.3H87l15.1-13.5 1.8.2 4.9.6 5.1-3.1.2-9"/><path id="path1731" class="s12" d="m58.6 95.4 4.3-1.2.5-4.1"/><path id="path1733" class="s12" d="m70.4 107.5 3.8-5.4 2.8 2.7 2.9.4.1.1 1.2-9"/><path id="path1735" class="s12" d="m79.9 105.7-.7 2.9 2.4 1.4.1 4.3"/><path id="path1737" class="s12" d="m87 96.3 8.4 2.8.2.1v5.1l-.4 7.8"/><path id="path1739" class="s12" d="M95.6 98.5v-3.1l6.8-.8 2.9 5.6.3 11.4"/><path id="path1741" class="s12" d="m108.5 110-.5-10.9-2.4-4 1.5-2.3h2.7l-1-2.7-5.3-4.4.4-2.7"/><path id="path1743" class="s12" d="m111.7 109.3-.5-8.9 3.3-3.9-1-6 2.3-3.3 12.1 2 9.1.1 4.2-2.1v-3.3l5.8-5.3.8-11.1-2.9-7.8-9.4-.7"/><path id="path1745" class="s12" d="m144.9 59.7 2.9-1.8 23.1 12.3 2.9-1.6-.1-5.4-.8-32"/><path id="path1747" class="s12" d="m141.2 87.2 4.1 4.2.1 1.1.3 2.8 2.1 3.3H144l-.2 2.2 3.5 3.4 1.7 1.7 12.7-4.9 6.2-6.4-2.2-4.7 3.1-8.4 2.3-.6-.2-10.7"/><path id="path1749" class="s12" d="m128.7 114.1 2.9-6.6 3 1.3 6.6-12.5 4.2-3.8"/><path id="path1751" class="s12" d="M131.3 121.2h8.5l.3.1 8.4 1.5.5-3.6-.9-1.2-3.5-4.7.2-4 2.5-5.1"/><path id="path1753" class="s12" d="m130.1 125 4.3.4 1.1-4.2"/><path id="path1755" class="s12" d="m133.4 139.6 3-2v-2.3l3.1-1.3 2.5.8 2-4.5-3.9-9"/><path id="path1757" class="s12" d="m136 143.3 4.1-2.1 4.9.6 4-4.3v-3.7l4-3.9 3.6-11.5v-3.7l1.8-1.6 12.7 1.2 10.2-1.8.3-.1"/><path id="path1759" class="s12" d="m167.9 94.6 4.2 8.7 9.2 9.2 2.5 2.4 4.6-.8 3.9 2.8 9.3-1.7 2.9-4.1-5.5-7.8 8.8-16.4v-7.1l6.7-4.1"/><path id="path1761" class="s12" d="M173.7 63.2h33.8"/><path id="path1763" class="s12" d="m137.7 145.7 12.2-.6 2.7 6.2 4.7-.7 1.5-2.4 5.7 1 1.1 6.6 5.5 5.9.6.1 9.2.9 5.1 4.9 2.8-2.6-3.5-11.8 4.2-1.6.2-.1"/><path id="path1765" class="s12" d="M171.6 162.1v4.4h-6v9.8l2.7 2.1 1.3 1 3.7-.3 1.6 1.4h4.6l5.4-6 4.4-1v-1.8l8.1-2.9v-6.1l1.2-2.9-.7-4.5 2.1.7"/><path id="path1767" class="s12" d="m200 156 1.8-.3.4 5.3.8.5v1.8l-.7 1 1.3 4-.7 1.5-1.1-.8-1.8-5.2 1-1.5z"/><path id="path1769" class="s12" d="m203 161.5 3-.4 1.6 1.1 12.2-4.1"/><path id="path1771" class="s12" d="m197.4 168.8.9 1.5 2.3.3.9 1.4-1.2 2.2.8 2.1 2.2 2.3 2.1-3.8-.2-2.5 1.2-1-2.8-3"/><path id="path1773" class="s12" d="m189.3 173.5 1.4 1.7 6 2.2-.6 8.9-1.3 1.6v2.7l-3.3 3.3 1 7.1-1.2 2.3 2.4.7"/><path id="path1775" class="s12" d="m194.5 208.5-5-1-.2-2.2 2-2"/><path id="path1777" class="s12" d="m191.5 193.9-5.9-.8-1.5.8-3.7 1.8-6.3 8.3-6.8-1.4-2.5 3.7-3.7.2-2.3-4.2-.2-.4"/><path id="path1779" class="s12" d="m146.9 210.9 5.1 2.7 6.5-1.9.3-9.4.4-10h2.3l1-9.6 7.8-.7 3-2.9"/><path id="path1781" class="s12" d="m135.7 179.1 4-1.8 2.7 1.6 11.6-.3 2.5 1.4 4.4-.6 3 1.1 4.4-2.1"/><path id="path1783" class="s12" d="m177.6 215.8 2.3-2.4 3-.6 1.6 1v2.9l-4 3z"/><path id="path1785" class="s12" d="m201 126.8-6.4 1.1.1 2.8.2 4.9 5.4-.4-1.3-2.3 2.4-2.6 1.6-1.7z"/><path id="path1787" class="s13" d="m188.6 141.2 3.8-3.1-2.4-3.5-3.4 1v2.1"/><path id="path1789" class="s13" d="M186.6 135.7v-.1l1.4-4.9 3 .5h.2l1.2 2.8-2.4.6"/><path id="path1791" class="s12" d="m194.6 130.7-3.6.5"/><path id="path1793" class="s12" d="m188 130.7 3.1-6.3 1.2-7.5"/><path id="path1795" class="s12" d="m201 126.8 3.9-4.8-3.3-6.8"/><path id="path1797" class="s12" d="m204.5 111.1 10.7 6.4 4.5-2.3 4 1.2 6-4 3.2 1.1 8.5-9-12.4-2.7-2.8-6.1"/><path id="path1799" class="s12" d="m227.9 95-1.8.4-1.2.3-1.4-.4.8-4.1 2.2-1.1"/><path id="path1801" class="s12" d="m223.5 90.8-9-6.5-6.7 2"/><path id="path1803" class="s12" d="m224.2 132.7-3-3.9 1.2-3.7-.6-6.1 1.9-2.6"/><path id="path1805" class="s12" d="m216.6 141.8-6.3-6.2-8.9-5.3"/><path id="path1807" class="s12" d="m197.5 33.5 2.9 3 .5 2.9.6 3.9"/><path id="path1811" class="s13" d="m200.25 36.52-2.704-3.085L186.8 32.8l-3.1 2-10.8-3.6-7.7-2.6-7.3 2.2-1.3 7.2-10.1-3.7-.6-4.6-12.6-1.4-2.6-4.2 2.7-2.1-3.5-7.3-4.6 1.2-1.4.4-18.4 1.2-7.3 4.3-8.3.3-2.4-2.1-3.3 5.4-5.6.9-3.5 9.3.6 3.7-9.7 6.5-10.9 19 1.7 13.6-3.3 4.9 2.4 8.8 2.7 3.3 8 9.8 3.8 2.3 11.3 6.8 13.5-2.2 3.1 2.2 7.3-2.7 3.1-1.1 3-1.2 2.3-.8 5.8 7.3 8.9-1.7 2.9 6.1-.3 1-1.2 3.8-2.3 6.8 5.6 7.8 2.6 3.7 1.7 2.4 3.8 17.9-6.2 8.6.4 6.9.1 2.1 7.6 12.6v8.9l3.5 8.2 6 13.9-.4 4.1 4 4.5 21.5-4.6 16.5-20.3-.8-4.5 9.2-4.1-1.4-13.5 4.9-3.3 13.4-9.1v-15.9l-5.2-13.9 2-2.4 7.6-9.1 8.9-10.7 3.4-1.3 12.2-16.9.8-10.5-12.4 1.9-5 3.3-4.2-3.5-1.2-.9-.2-4-10.2-6.7-1.8-7.7-3.9-2.7-2.2-9.3-.5-.8L196 45.3l-1.8-6.3 1.3-.7 3.7 5.5 2.3-.5c-1.232-6.803.028-.054-1.25-6.78z"/><path id="path1813" class="s13" d="m243.4 162.7-8.7 12.3h-5.5l-2.3 6.2 2.5 7.5-4 6.1 2 8.2h9.8l11.8-33.2z"/><path id="path1815" class="s12" d="m174.9 180.5 9.2 13.4"/><path id="path1817" class="s12" d="m148.1 118 8.5-3.3"/></g></g><path id="path1823" d="m203.3 178.6 3.2 4.6" style="fill:#b6eaff;stroke:#163568;stroke-linecap:round;stroke-linejoin:round;stroke-width:.6"/></g></g></g><text xml:space="preserve" style="fill:#000;fill-rule:evenodd" x="218.651" y="25.754" id="text6330"/></svg>