<svg version="1.2" width="790" height="600" id="svg1645" xmlns="http://www.w3.org/2000/svg"><style id="style480">.s0{fill:#b6eaff}.s1{fill:#6bdff9}.s2{fill:#fad22a}.s3{fill:#9ded68}.s4{fill:#d94a6d}.s5{fill:#0e8b9f}.s6{fill:#ea5947}.s7{fill:#ad96a6}.s8,.s9{fill:none;stroke:#1d1d1b;stroke-width:.5}.s9{stroke-dasharray:2,2}.s11,.s12{fill:none;stroke:#163568;stroke-width:.6}.s12{stroke-linecap:round;stroke-linejoin:round}.s13{fill:#163568}</style><g id="OBJECTS"><g id="g1642"><g id="g1640"><g id="&lt;Group&gt;"><path id="path484" class="s1" d="m491.1 400.1-26.8-9.3-6-8.9-5-7.6h-10.7l-7.4-7.8-5.1-5.3-27.7-6.6-15.3 13.4-4.8-5.4-8.8 1.6-6.5-4.5 1.9-9.4s-.9-1-2-2.2h-.1c-1.7-2-3.9-4.6-4-5-.3-.6-10 0-10 0l2.9-5.6 4.9-9.4-11-.1-3.8 8.1h-11.4l-6-10 1.9-13.8 8.2-11.1 30.6-1.7 8 17.3 3.5-4.5-.2-1.6-2-15.5 16.9-12.7 9.8-20.5 8.9-2 2-9.2 11.3-1.5 14.6-2 1.6-6.2-9.5-1.1-3-13 16.8 1 4.7-3.7.7-.3 8.4-3.9-16.8-37.6-9.7 9.8-3.2-3.7v-11.8l-17.4-7.8-5.1 16.7v12.9l-9.4 4.5.3 13.6-3.4 4.1-5.5-6.3 1.7-12.3-22.6-12.2-.2-17.2 32.5-28.6 6.6 3.3 9-12.3-10.6-5.9-26.2 4.5-11.6-5-8-3.5-9.2-.9-14.5-1.6v-6.5l-19.9-17.8-22.3 8.7-6.2-9.4-4.6-3.9-26.9-23.1-37 12.9 6.6 18.9-7 1.7-3.6-5.7-12.8 4 .7 10.5 12.1-.8-2.9 9h-11.2l-10.2 9.3 3 18.6 7.8 3.6-3.1 7.5-36.7 16.7v2.8l27.3-8.1 25.1-14.4.6-5.6 14.2-7.6 18.6 12.5 7.6 5 7.6 30.1 5.5 27.1 1.2 5.7-9.3 29.8 6.6 26.4 7.7 4.9 3 19.4 11.3 14.7 3.5-.2-11.2-22.5-.6-5.9 3.7 1.7 20.8 34.3-1.3 5.5 25.4 13.5 3.9-1.9 7.5 3.2 6.7 2.9 6.4 2.7 3 6.2 1.4 2.8 8 4.1 3.4 1.7 2.3 1.2 5.9-1.8 2.5 2.9 1.9 11.1-4.5 6.5-6.8 9.8 2.2 6 10.7 30.1 20.5 13.5-3.9 63.4 2.3 39.2 3.6 8.6 7.1 16.4 15.4 5.3 4.1-2.2 3.4-1.7-8.6-5.3-3.1-6.2-1.1-7.8 6.3-9.5 4.4-33.3 10-1.3 4.1-6.2-2.4-6.4 9.3-1.4 13.2-23.6-.2-5 18.5-9.6 6.5-27.7 11-13.7-1.7-10.4z"/><path id="path486" class="s1" d="m339.4 95 8.4-8 10.2-4.6-.6-4.9-14.8-3.6-1 3.9-11.1 10.5 1.9 7.2z"/><path id="path488" class="s1" d="m371.3 90.2-3.8 10.6-1.7-.3 1.2-9.4-8.1-4.6-17.3 11.3-.3 5.4 10.8 4.6-1.6 1.5-10.4-3-.7 4.8 2.1 2.5 4.1 4.9 7.7 1.3 7.6-2.4 11.5 6 3.2-6.4-3-9.4 4.6-12.1z"/><path id="path490" class="s1" d="m367.5 65-5.4 5.1 4.5 8.6 6 1.6 3.3-2.7 9 2.2 5.5-5.9-2-5-2.6-.1 1.2-4.5-3.9-1.5-2.2 2.9-.3 6-3.9-.4-1.8-9.7z"/><path id="path492" class="s1" d="m396.1 96.9 3-2.2-.8-4.9-9.4 1.7-.6 6.8-3-4.3-2.9 2.8 4.5 13 8.4-4.8z"/><path id="path494" class="s1" d="m393.5 76.2 7.5 1.2-.5 1.2-4 .4-.6 3.3 6.7 2.4 6.9-11.9-5.8-5.7-9.1-.3z"/><path id="path496" class="s1" d="m401.5 105.4 4.8-1.1 7.1-7.9-9.3-4.3-5 5-2.6 9.8-8.3 6.4-.8 6.4 6.5 4.7 5.2-4.1-.7-10.1 1-1.4z"/><path id="path498" class="s1" d="m451 159.1 2.7 2.2 8.9-8.7-12.9-14.2 4.2-3.2-7.4-16.8-6.1-8.6-.9-6.7-7.2-2.5-8.1-1.2-7.7-.5-11 14.4 1.6 8.9 17.1 8.7 4.5-5.9 9 16.3-1.3 5.3-6.4 4.7v2.7h-9.3l-2.8 2.4 1.3 3.4 9.8.4 1.9 6.2 11.5 9.4 1.5-1.8-4.9-9.1 7.6 6.2 4-1.4-1.4-7.9-4.8-8.5 2.7-2z"/><path id="path500" class="s1" d="m418.4 68.6-5.8.6-.8 6.5 5.1 1.4v4.2l-2.6 2.5-.9 5 7 4.6 14 2.8 6.2-3.4-.7-4.6-5-2.9-3 .2-6.1.4-4.6-5.6 3.6-1.2 6.9 2.9 6.7-1 4.1 3.7 7.4-4-1.6-4 13.2-9.9 1.1-.8 5.8-8.5 5.9-.3 16.5-9.5.5-2.9 7.8-2.2 1.6-9.1-13.8-7.6-19.5-1.1-18 5.7-3.2 9.8 6.1 5.4 10.7 1.1-1.5 2.4h-6.2l-6.8-2.7-2.6 3.7-1.1 9.5-5.2.8-3.5 4.8 2.2 4.6-8.6 3.6-4.6 2.2-6.4-2.4z"/><path id="path502" class="s1" d="m429.9 53.7-3.5 4 1.1 5.3 5.7 1.3 4.2-6.7h5l1.5-7.9 2.3-4.6-2.7-1.1-.3-8.2-2.1-1.5-1.2 2.9-2.5-.6-3.4 6.6-2.4.8-3 7.3 3.8 1.1v1.4z"/><path id="path504" class="s1" d="m409.5 57.6-.8 2.1 2.5 2.9 3.6-6.9.4-7.6-4.8-4.4s-5.5 8.9-5.6 9c-.2.1 4.7 4.9 4.7 4.9z"/><path id="path506" class="s1" d="m422.4 58.9-3-5.1-2.8 4.9V63h5.8z"/><path id="path508" class="s1" d="m393.5 53.1-9.9-2.4-1.5 4 5.2 4.1z"/><path id="path510" class="s1" d="m398.2 45.5-7.8-.6-1.6 4 5.7 2.4z"/><path id="path512" class="s1" d="m365.2 59.4 1.9 2.2 6.4-1.8 2.8-8.7-5.1.2-15.4 5.8-.3 2.5L361 63z"/><path id="path514" class="s1" d="m554.2 118.2 13-6.9-2-21 6.7-15.3L584 62l-6.8-7.3-15 8.3 4.3-8.3-4.1-2.9-7.5 2-2.9-4.5 18-1.6-3.1-8.5-23.5-4.9-14 2.7-2.2 14-9.3-3-2.5-8.2-12.5 7.2-.1.1-24.9 20.4-13.4 3.4.9 18.9 20.3 6.4 1.3 29.5 5.2 6.5-3 12-6.7 4.5.4 27.1 12.8 13.4 15.5-26.5 13.5-3.4 8.5-11.3 14.5-1.7 9.8-13z"/><path id="path516" class="s1" d="m464.4 242.9 2.2-5.6-4.4-7.3-4.8-1.1 2.7-3.8-5.7 1.4-6.3 11.2 9.1 1.2h4.2v2.4z"/><path id="path518" class="s1" d="m395.6 330.8-15.2-9.1-3.8-.6-1.7-.2-7.9 3.2.4 1.7 8.9-1 8.9 4.7 1.1 2.4 4.3 1.8z"/><path id="path520" class="s1" d="m385.8 339.5 3.1-1.4-2.1-1.5-4.1.6z"/><path id="path522" class="s1" d="m383.6 310.3 1 2 2.2-1.2 1.5 2 1.1-1.5-1.8-2.1z"/><path id="path524" class="s1" d="m391.4 315.5-1.6-.8-.4 1.4 1.1.9z"/><path id="path526" class="s1" d="m393 317.7-1.3 1.1 1.3 2.1.6-1z"/><path id="path528" class="s1" d="m384.9 317 .5 1.4 2-.2-1.6-1.8z"/><path id="path530" class="s1" d="m394.5 323 .9 1.2 1.7-1-1.5-1z"/><path id="path532" class="s1" d="m400.6 338 1.3 1.5 3.8-1.8 5.7.3v-3.2l-5.3-2.6-4.4.8h-.2l-1.8-1-2.1 1 2.1 1.7-.4 1-5 .9 1.3 2.1z"/><path id="path534" class="s1" d="M414.6 337.7v2.1l4.5-.5V337h-3.7z"/><path id="path536" class="s1" d="M425.5 339.2h1.8l-.2-2-1.8.3z"/><path id="path538" class="s1" d="m427.9 340.5.9 1.3 1.7-.3-.8-1.5z"/><path id="path540" class="s1" d="m432.6 343.6-.9-1-1.4 1.1.5.9z"/><path id="path542" class="s1" d="m433 348.8-1.6-2.5-.6 1.3.9 2.2z"/><path id="path544" class="s1" d="m433.4 352.3-.8-1.4-1.2.4.3 1.5z"/><path id="path546" class="s1" d="m437.6 353.4-.9-1.6-1.4 1 .9 1.8z"/><path id="path548" class="s1" d="M435.9 361v-2.3l-2.7.7.4 2z"/><path id="path550" class="s1" d="m399.2 329.3-1.3-1.3-1.4.6.9 1.2z"/></g><g id="g1334"><g id="g664"><g id="g660"><path id="path553" class="s2" d="M573.2 50.7 580 58l-12.1 13-6.7 15.3 2 21-13 6.9 3.3 15.1-9.8 13-14.5 1.7-8.5 11.3-13.5 3.4-15.5 26.5-12.8-13.4-.4-27.1 6.7-4.5 3-12-5.2-6.5-1.3-29.5-20.3-6.4-.9-18.9 13.4-3.4 24.9-20.4.1-.1 12.5-7.2 2.5 8.2 9.3 3 2.2-14 14-2.7 23.5 4.9 3.1 8.5-18 1.6 2.9 4.5 7.5-2 4.1 2.9-4.3 8.3z"/><path id="path555" class="s2" d="m500.6 404.7 1.7 10.4-11 13.7-6.5 27.7-18.5 9.6.2 5-13.2 23.6-9.3 1.4-3.9-4.5 1-12.3 10-9.2-1.1-6.2-.7-3.9-3.3-1.7-1.1-4.2h-6l-1.7-7.3 2.2-3.7-4-7.5h-3.9l-1.8-6.9-12.5-4-3.3-7.6-9.8 4.8-.5.1-7.5-4.1-6-8.1 4.3-7.5 4.5-1.6 3.1-2.9.1-.5-.5-9.4 7.3-5.9 4.6 4.2 7-4.5-3-6.4 4.1 1 7.2-3.3.4.3 2 3.7-1 3.9 3.5 3.7 6.8-2.4.7-.2 5.8-2.2.3.5 2 2.7 5-5.1 6 8.9 26.8 9.3z"/><path id="path557" class="s3" d="m496.7 29.5-1.6 9.1-7.8 2.2-.5 2.9-16.5 9.5-5.9.3-5.8 8.5-1.1.8-13.2 9.9 1.6 4-7.4 4-4.1-3.7-6.7 1-6.9-2.9.3-3.4 4.6-2.2 8.6-3.6-2.2-4.6 3.5-4.8 5.2-.8 1.1-9.5 2.6-3.7 6.8 2.7h6.2l1.5-2.4-10.7-1.1-6.1-5.4 3.2-9.8 18-5.7 19.5 1.1z"/><path id="path559" class="s3" d="m458.2 226 4.4 7.3-2.1 5.6-3.1-1.6v-2.4h-4.2l-9.1-1.2 6.3-11.2 5.7-1.4-2.7 3.8z"/><path id="path561" class="s3" d="m445.7 134.4 12.9 14.2-8.9 8.7-2.7-2.2-3.9-7.8-2.7 2 4.8 8.5 1.4 7.9-4 1.4-7.6-6.2 4.9 9.1-1.5 1.8-11.4-9.4-2-6.2-9.8-.4-1.2-3.4 2.7-2.4h9.3v-2.7l6.4-4.7 1.3-5.3-9-16.3-4.5 5.9-17.1-8.7-1.6-8.9 11-14.4 7.7.5 8.1 1.2 7.2 2.5.9 6.7 6.1 8.6 7.4 16.8z"/><path id="path563" class="s3" d="m440.8 178.5 16.8 37.6-8.4 3.9-.7.3-4.7 3.7-16.8-1 3 13 9.5 1.1-1.6 6.2-14.5 2-2.6-10.8h-4.7L410 242h-9.9l-4.5 2.5-7.8 1.3-1.9-3.8-1.4-6-9.5-2.3-3.6-7.7-4.5-1.3-6 3.8-.3-.4-94-13.3-5.5-27.1-7.6-30.1-7.5-5 35.3-62.7 4.6 3.9 6.2 9.4 22.3-8.7 19.9 17.8v6.5l14.5 1.6 9.2.9 8 3.5 11.6 5 26.2-4.5 10.6 5.9-9 12.3-6.6-3.3-32.5 28.6.2 17.2 22.6 12.2-1.7 12.3 5.5 6.3 3.4-4.1-.3-13.6 9.4-4.5v-12.9l5.1-16.7 17.4 7.8v11.8l3.2 3.7z"/><path id="path565" class="s4" d="m449.3 370.3 5 7.6-5 5.1-2-2.7-.3-.5-.3-5.5z"/><path id="path567" class="s3" d="m450 463.9 1.1 6.2-10 9.2-1 12.3 3.9 4.5 2.4 6.4-4.1 6.2-10 1.3-4.4 33.3-7.9 11.9 2.7 5.4H415l-5.5-8.5 1.7-13.8-5.8-21.5 1.9-5.6-1-4.4 2.4-13.4-1.7-9 1.8-21.6 3.1-2 2.6-6.9h10.8l5.7 6.3 9 2.8-2.2 7.2 7.6.9 4.6-7.2z"/><path id="path569" class="s5" d="m449.3 460 .7 3.9-4.6 7.2-7.6-.9 2.2-7.2-9-2.8-5.7-6.3 1.1-7.1 7.2-2.5 3.6 2.5 1.7 7.3h6l1.1 4.2z"/><path id="path571" class="s5" d="m449.3 370.3-2.6 4 .3 5.5-5.8 2.2-.7.2-3.5-7.9 1.6-4z"/><path id="path573" class="s3" d="m442.2 41.1-2.3 4.6-1.5 7.9h-5l-4.2 6.7-5.7-1.3-1.1-5.3 3.5-4 2.5.1v-1.4l-3.8-1.1 3-7.3 2.4-.8 3.4-6.6 2.5.6 1.2-2.9 2.1 1.5.3 8.2z"/><path id="path575" class="s6" d="m437 374.3 3.5 7.9-6.8 2.4-3.5-3.7 1-3.9-2-3.7-.4-.3-1.1-4.4 3.5-6.1 7.4 7.8z"/><path id="path577" class="s6" d="m435.4 435.6 4 7.5-2.2 3.7-3.6-2.5-7.2 2.5-1.1 7.1h-10.8l-2.6 6.9-3.1 2-1.8 21.6 1.7 9-2.4 13.4 1 4.4-1.9 5.6 5.8 21.5-1.7 13.8-5.1 2.2-3.6-8.6-2.3-39.2 3.9-63.4 4.1-5.3-1.9-4.1-1-11.7.5-.1 9.8-4.8 3.3 7.6 12.5 4 1.8 6.9z"/><path id="path579" class="s3" d="m436 84.2.6 4.6-6.1 3.4-14-2.8-7.1-4.6.9-5 2.6-2.5v-4.2l-5.1-1.4.8-6.5 5.8-.6.3 4.7 6.4 2.4-.3 3.4-3.6 1.2 4.6 5.6 6.1-.4 3.1-.2z"/><path id="path581" class="s3" d="m434.4 572.1-3.4 1.7-5.2-1-1.3-2.5 1.3-3.5z"/><path id="path583" class="s5" d="m432.7 347.8.9 1.6-1.4 1.2-.9-1.8z"/><path id="path585" class="s5" d="M431.9 354.7v2.3l-2.3.4-.4-2z"/><path id="path587" class="s3" d="m426.1 357.2 5.1 5.3-3.5 6.1 1.1 4.4-7.2 3.3-4.1-1 3 6.4-7 4.5-4.6-4.2-1.2-12.7-11.4-3.2-3.7-6.3 5.4-5.3.4-3.9z"/><path id="path589" class="s5" d="m431 573.8-4.1 2.2-15.4-5.3-7.1-16.4 5.1-2.2 5.5 8.5h7.7l3.1 6.2-1.3 3.5 1.3 2.5z"/><path id="path591" class="s5" d="m425.7 336 .8 1.5-1.7.3-.9-1.3z"/><path id="path593" class="s7" d="m420.8 234.5 2.6 10.8-11.4 1.5-2-4.8 6.1-7.5z"/><path id="path595" class="s5" d="m423.1 333.2.2 2h-1.8l-.2-1.7z"/><path id="path597" class="s3" d="M418.4 54.9V59h-5.8v-4.3l2.8-4.9z"/><path id="path599" class="s5" d="M415.1 333v2.3l-4.5.5v-2.1l.9-.7z"/><path id="&lt;Compound Path&gt;" fill-rule="evenodd" class="s6" d="m410 242 2 4.8-2 9.2-8.9 2-9.8 20.5-16.9 12.7 2 15.5.2 1.6-3.5 4.5-8-17.3-30.6 1.7-8.2 11.1-7.9-12.6-3.6-.4-4 3.3-7.9-10.3h-14l-9.4-6.1-6.7-.6-7.7-4.9-6.6-26.4 9.3-29.8-1.2-5.7 94 13.3.3.4-6.6 4.1 4.6 1.6 7.2-2.5 1.8 4.1-5.8 10.5 1.2 6.9 4-3 5.3-12.1 3.8 1.7 2 7.3 7.5-5.1 1.9 3.8-1.3 2 7.4 1 1.7-4.3 4.5-2.5zm-31.5 13.1 10.4-4.5-3-1-9.2 2.1-1.2 1.5z"/><path id="path602" class="s3" d="m411.2 44.1-.4 7.6-3.6 6.9-2.5-2.9.8-2.1s-4.9-4.8-4.7-4.9c.1-.1 5.6-9 5.6-9z"/><path id="path604" class="s3" d="m409.4 92.4-7.1 7.9-4.8 1.1-2.1 3.4-2.9-1.9 2.6-9.8 5-5z"/><path id="path606" class="s6" d="m407.7 369.3 1.2 12.7-7.3 5.9.5 9.4-9.1-2.3-5-6.2-1.7-.7-10.5-4.4 4.5-6.5-1.9-11.1 4.7-2.1 15.3-13.4-.4 3.9-5.4 5.3 3.7 6.3z"/><path id="path608" class="s3" d="M407.4 330.8v3.2l-5.7-.3-3.8 1.8-1.3-1.5 1.4-3-.3-2 4.4-.8z"/><path id="path610" class="s3" d="m404.6 433.7 1.9 4.1-4.1 5.3-20.5-13.5-10.7-30.1 3.7 2.8 4.1-4.1 7.1-6.1v-3.5l.2-.5 1.7.7 5 6.2 9.1 2.3-.1.5-3.1 2.9-4.5 1.6-4.3 7.5 6 8.1 7.5 4.1z"/><path id="path612" class="s3" d="m405.5 68.8-6.9 11.9-6.6-2.4.5-3.3 4-.4.5-1.2-7.5-1.2 1.1-9.4 9.1.3z"/><path id="path614" class="s2" d="m397.7 329 .3 2-1.4 3-5 .7-1.3-2.1 5-.9.4-1-2.1-1.7 2.1-1 1.8 1h.2z"/><path id="path616" class="s3" d="m395.4 104.8-.9 1.4.6 10.1-5.1 4.1-6.5-4.7.7-6.4 8.3-6.4z"/><path id="path618" class="s3" d="m394.3 85.8.8 4.9-3 2.2-.8 8.1-8.3 4.8-4.5-13 2.8-2.8 3 4.3.7-6.8z"/><path id="path620" class="s3" d="m394.2 41.5-3.7 5.8-5.7-2.4 1.7-4z"/><path id="path622" class="s5" d="m391.6 326.8-5 2.9-4.3-1.8-1.1-2.4-8.9-4.7-8.9 1-.4-1.7 7.9-3.2 1.7.2 3.9.6z"/><path id="path624" class="s3" d="m389.5 49.1-6.2 5.7-5.2-4.1 1.5-4z"/><path id="path626" class="s3" d="m387.5 311.5-1 1.5-1.1-.9.4-1.4z"/><path id="path628" class="s3" d="m384.4 64.9 2.1 5-5.6 5.9-8.9-2.2-3.4 2.7-6-1.6-4.5-8.6 5.4-5.1 7.5-3.4 1.7 9.7 3.9.4.3-6 2.2-2.9 3.9 1.5-1.2 4.5z"/><path id="path630" class="s5" d="m386.3 388.1-.2.5v3.5l-7.1 6.1-4.1 4.1-3.7-2.8-2.2-6 6.8-9.8z"/><path id="path632" class="s3" d="m383.6 305.5 1.8 2.1-1.1 1.5-1.5-2-2.2 1.2-1-2z"/><path id="path634" class="s4" d="m385 334.1-3.2 1.4-3.1-2.3 4.1-.6z"/><path id="path636" class="s5" d="m378.3 358.6 4.8 5.4-4.7 2.1-2.5-2.9-5.9 1.8-2.3-1.2-3.4-1.7 5.2-1.9z"/><path id="path638" class="s3" d="m373.2 91.5-4.6 12.1 3 9.4-3.2 6.4-11.4-6-7.7 2.4-7.7-1.3-4.1-4.9-2.1-2.5.7-4.8 10.4 3 1.6-1.5-10.8-4.6.3-5.4 17.3-11.3 8.1 4.6-1.2 9.4 1.7.3 3.8-10.6z"/><path id="path640" class="s3" d="m372.3 47.1-2.8 8.7-6.4 1.8-1.9-2.2L357 59l-5.5-3.4.3-2.5 15.4-5.8z"/><path id="path642" class="s4" d="m369.5 360.2-5.2 1.9-8-4.1-1.4-2.8 8.1.5z"/><path id="path644" class="s5" d="m364.9 346.3-1.9 9.4-8.1-.5-3-6.2 11-4.9c1.1 1.2 2 2.2 2 2.2z"/><path id="path646" class="s2" d="m362.9 344.1-11 4.9-6.4-2.7 3-6.7.3-.5s9.7-.6 10 0c.1.4 2.3 3 4.1 5z"/><path id="path648" class="s3" d="m356.6 324.1-4.9 9.4-3.7 1.1-5.2.4-1-2.9 3.8-8.1z"/><path id="path650" class="s3" d="m353.5 73.5.5 4.9-10.2 4.6-8.3 8-7 .5-2-7.2 11.1-10.5 1-3.9z"/><path id="path652" class="s4" d="m351.7 333.5-2.9 5.6-.3.5-.1-.1-.4-4.9z"/><path id="path654" class="s6" d="m348.5 339.6-3 6.7-6.7-2.9 4.7-3.9-1.7-2.2 1-2.3 5.2-.4.4 4.9z"/><path id="path656" class="s3" d="m341.8 337.3 1.7 2.2-4.7 3.9-7.5-3.2-3.9 1.9-25.4-13.5 1.3-5.5-20.8-34.3-3.7-1.7.6 5.9 11.2 22.5-3.5.2-11.3-14.7-3-19.4 6.7.6 9.4 6.1h14l7.9 10.3 4-3.3 3.6.4 7.9 12.6-1.9 13.8 6 10h11.4l1 2.9z"/><path id="path658" class="s5" d="M281.3 89.9 246 152.6l-18.7-12.5-14.2 7.6-.6 5.6-25.1 14.4-27.3 8.1V173l36.7-16.7 3.1-7.5-7.8-3.6-3-18.6 10.2-9.3h11.2l2.9-9-12.1.8-.7-10.5 12.8-4 3.6 5.7 7-1.7-6.6-18.9 37-12.9z"/></g></g><path id="path666" class="s8" d="m189.1 126.6 10.1-9.3h11.3l2.9-9-12.2.8-.6-10.5 12.8-4 3.6 5.7 7-1.7-6.6-18.9 37-12.9 31.5 27 6.2 9.4 22.3-8.7 19.8 17.8v6.5l23.8 2.5 19.6 8.5 26.1-4.5 10.7 5.9-9 12.3-6.7-3.3-32.5 28.6.3 17.2 22.6 12.2-1.7 12.3 5.5 6.3 3.3-4.1-.2-13.6 9.4-4.5v-12.9l5.1-16.7 17.4 7.8v11.8l3.2 3.7 9.6-9.8 16.9 37.6-9.1 4.2-4.8 3.7-16.7-1 3 13 9.5 1.1-1.6 6.2-25.9 3.5-2 9.2-8.9 2-9.9 20.5-16.8 12.7 2.2 17.1-3.5 4.5-8-17.3-30.6 1.7-8.3 11.1-1.8 13.8 6 10h11.3l3.9-8.1 11 .1-7.9 15s9.8-.6 10 0c.3.6 6.2 7.2 6.2 7.2l-1.9 9.4 6.5 4.5 8.7-1.6 4.9 5.4 15.3-13.4 27.7 6.6 12.5 13.1h10.6l11 16.5 26.9 9.3 13.5 8.6 1.6 10.4-11 13.7-6.5 27.7-18.5 9.6.3 5-13.3 23.6-9.2 1.4 2.4 6.4-4.2 6.2-10 1.3-4.3 33.3-7.9 11.9 5.7 11.6 8.7 5.3-7.5 3.9-15.4-5.3-10.8-25-2.2-39.2 3.9-63.4-20.5-13.5-12.9-36.1 11.2-16.3-1.8-11.1-2.5-2.9-5.9 1.8-13.8-7-4.3-9-20.7-8.8-3.8 1.9-25.4-13.5 1.2-5.5-20.7-34.3-3.8-1.7.7 5.9 11.2 22.5-3.5.2-11.4-14.7-3-19.4-7.6-4.9-6.6-26.4 9.2-29.8-6.6-32.8-7.6-30.1-26.3-17.5-14.1 7.6-.6 5.6-25.1 14.4-27.3 8.1V173l36.6-16.7 3.2-7.5-7.8-3.6z"/><path id="path668" class="s8" d="m326.5 84.2 2 7.3 7-.5 8.3-8 10.2-4.6-.5-4.9-14.9-3.6-1 3.9z"/><path id="path670" class="s8" d="m354.9 82.5-17.3 11.3-.3 5.4 10.8 4.5-1.6 1.5-10.4-2.9-.7 4.8 6.2 7.4 7.6 1.3 7.8-2.4 11.4 6 3.2-6.4-3-9.4 4.6-12.1-5.9-5.3-3.8 10.5-1.7-.2 1.2-9.4z"/><path id="path672" class="s8" d="m376.6 67.7-3.9-.5-1.7-9.6-7.5 3.4-5.4 5.1 4.5 8.6 6 1.5 3.4-2.6 8.9 2.2 5.6-5.9-2.1-5-2.6-.2 1.2-4.5-3.9-1.4-2.2 2.9z"/><path id="path674" class="s8" d="m394.3 85.8-9.3 1.7-.7 6.7-3-4.2-2.8 2.8 4.5 13 8.3-4.8.8-8.1 3-2.2z"/><path id="path676" class="s8" d="m390.6 62.7-1.1 9.5 7.5 1.2-.5 1.2-4 .4-.5 3.3 6.6 2.4 6.9-11.9-5.8-5.7z"/><path id="path678" class="s8" d="m409.4 92.4-7.1 7.8-4.8 1.2-3 4.8.6 10-5.1 4.2-6.5-4.7.7-6.5 8.3-6.3 2.6-9.8 5-5z"/><path id="path680" class="s8" d="m420.2 95.4-7.7-.5-11 14.4 1.6 8.9 17.1 8.7 4.5-5.9 9 16.2-1.3 5.4-6.4 4.7v2.7h-9.3l-2.7 2.4 1.2 3.3 9.8.5 2 6.2 11.4 9.4 1.5-1.8-4.9-9.1 7.6 6.2 4-1.4-1.4-8-4.8-8.5 2.7-2 3.9 7.9 2.7 2.1 8.9-8.6-12.9-14.2 4.2-3.2-7.4-16.8-6.1-8.6-.9-6.7-7.2-2.5z"/><path id="path682" class="s8" d="M412.9 73.1v4.2l-2.6 2.5-.9 5 7.1 4.6 14 2.8 6.1-3.4-.6-4.6-5-2.9-9.2.6-4.6-5.7 3.6-1.1 6.9 2.9 6.7-1 4.1 3.7 7.4-4-1.6-4L458.6 62l5.8-8.5 5.9-.4 16.4-9.5.6-2.8 7.8-2.2 1.6-9.1-13.8-7.6-19.5-1.1-18 5.7-3.2 9.8 6 5.4 10.8 1.1-1.5 2.4h-6.2l-6.8-2.7-2.6 3.7-1.2 9.5-5.1.8-3.5 4.8 2.1 4.6-8.5 3.6-4.6 2.2-6.4-2.4-.3-4.7-5.8.5-.8 6.6z"/><path id="path684" class="s8" d="m424.6 47.3 3-7.3 2.4-.8 3.4-6.6 2.5.5 1.2-2.8 2.1 1.5.3 8.2 2.7 1.1-2.3 4.5-1.5 8h-5l-4.2 6.7-5.7-1.3-1.1-5.3 3.5-4 2.5.1v-1.4z"/><path id="path686" class="s8" d="M406.4 39.6s-5.5 9-5.7 9.1c-.1.1 4.8 4.9 4.8 4.9l-.8 2 2.5 3 3.6-6.9.4-7.6z"/><path id="path688" class="s8" d="m415.4 49.8-2.8 4.8V59h5.8v-4.1z"/><path id="path690" class="s8" d="m389.5 49.1-6.3 5.7-5.1-4.2 1.5-4z"/><path id="path692" class="s8" d="m386.5 40.9-1.7 4 5.7 2.4 3.7-5.8z"/><path id="path694" class="s8" d="m372.3 47.1-2.8 8.7-6.4 1.8-1.9-2.2L357 59l-5.5-3.4.2-2.6 15.5-5.7z"/><path id="path696" class="s8" d="m473.9 63.5-13.4 3.4.9 18.9 20.3 6.4 1.3 29.5 5.2 6.5-3 12-6.7 4.5.4 27.1 12.8 13.4 15.5-26.5 13.5-3.4 8.5-11.3 14.5-1.7 9.8-13-3.3-15.1 13-6.9-2-21 6.7-15.3L580 58l-6.8-7.3-15 8.3 4.3-8.3-4.1-2.9-7.5 2-2.9-4.5 18-1.6-3.1-8.5-23.5-4.9-14 2.7-2.2 14-9.3-3-2.5-8.2-12.5 7.2z"/><g id="g706"><g id="g704"><path id="path698" class="s8" d="m245.9 152.5.5-.8"/><path id="path700" class="s9" d="m247.4 149.9 32.9-58.3"/><path id="path702" class="s8" d="m280.8 90.7.4-.8"/></g></g><path id="path708" class="s9" d="m266.6 214.8 94 13.3"/><path id="path710" class="s8" d="m366.9 224.7-12.7 7.9 4.7 1.6 7.2-2.5 1.8 4.1-5.8 10.5 1.1 6.9 4-3 5.4-12.1 3.8 1.7 2 7.3 7.5-5.1-1.4-6-9.5-2.3-3.6-7.7z"/><path id="path712" class="s8" d="m395.6 244.5-7.9 1.3-1.2 2 7.4 1z"/><path id="path714" class="s8" d="m388.9 250.6-3-1-9.3 2.1-1.1 1.5 3 1.9z"/><path id="path716" d="m385.9 242 1.8 3.8" style="fill:none;stroke:#1d1d1b;stroke-width:.5;stroke-dasharray:6,2"/><path id="path718" class="s9" d="m395.6 244.5 4.5-2.5h9.9l6.1-7.5h4.6l2.6 10.8"/><path id="path720" class="s9" d="m272.7 281.6 6.8.6 9.4 6.1h14l7.8 10.3 4-3.3 3.7.4 7.8 12.6"/><path id="path722" class="s9" d="m338.8 343.4 4.7-3.9-1.7-2.3 1-2.2 5.2-.4v4.4"/><path id="path724" class="s9" d="m348.5 334.6 3.2-1.1"/><path id="path726" class="s9" d="m345.5 346.2 3.2-7.1"/><path id="path728" class="s9" d="m351.9 349 11-5"/><path id="path730" class="s9" d="m354.9 355.2 8.1.5"/><path id="path732" class="s9" d="m369.5 360.2-5.2 1.9"/><path id="path734" class="s9" d="m378.4 366.1 4.7-2.1"/><path id="path736" class="s9" d="m398.4 350.6-.4 3.9-5.4 5.2 3.7 6.4 11.4 3.1 1.2 12.8-7.3 5.9.5 9.3-9.1-2.2-5-6.2-12.2-5.1"/><path id="path738" class="s9" d="M386.1 388.6v3.5l-7.1 6.1-4.1 4.1-3.8-2.8"/><path id="path740" class="s9" d="m402 397.8-3.1 2.9-4.5 1.6-4.3 7.4 6 8.2 7.5 4.1 1 11.7 1.9 4-4.1 5.4"/><path id="path742" class="s9" d="m404.1 421.9 9.8-4.8 3.3 7.6 12.5 4 1.8 6.9h3.9l4 7.5-2.2 3.7-3.6-2.5-7.2 2.5-1.1 7.1h-10.8l-2.6 6.8-3.1 2-1.8 21.7 1.7 9-2.4 13.4 1 4.4-1.9 5.5 5.8 21.6-1.7 13.8 5.5 8.5h7.7"/><path id="path744" class="s9" d="m425.7 566.8-1.2 3.5 1.2 2.5 5.3 1"/><path id="path746" class="s9" d="m444 496.1-3.9-4.5 1-12.3 10-9.2-1.8-10.1-3.3-1.7-1.1-4.2h-6l-1.7-7.3"/><path id="path748" class="s9" d="m425.3 453.9 5.7 6.3 9 2.8-2.2 7.2 7.6.9 4.6-7.2"/><path id="path750" class="s9" d="m408.9 382 4.6 4.2 7-4.5-3-6.4 4.1.9 7.2-3.2-1.1-4.4 3.4-6.1"/><path id="path752" class="s9" d="m429.2 373.3 1.9 3.7-.9 3.9 3.5 3.7 6.8-2.4-3.5-7.9 1.6-4"/><path id="path754" class="s9" d="m441.2 382 5.8-2.3-.3-5.4 2.5-4"/><path id="path756" class="s9" d="m447.3 380.2 1.9 2.8 5.1-5.1"/><path id="path762" class="s8" d="m456.1 221.1-5.7 1.4-6.3 11.2 9.1 1.2h4.2v2.4l3.1 1.6 2.1-5.7-4.4-7.2-4.8-1.1z"/><path id="path764" class="s8" d="m363.4 321.8-.4-1.7 7.9-3.2 5.6.8 15.1 9.1-5 2.9-4.3-1.8-1.1-2.4-8.9-4.8z"/><path id="path766" class="s8" d="m378.7 333.2 4.1-.6 2.2 1.4-3.2 1.5z"/><path id="path768" class="s8" d="m379.6 306.2 4-.7 1.8 2.1-1.1 1.5-1.5-2-2.2 1.2z"/><path id="path770" class="s8" d="m385.8 310.7-.4 1.4 1.1.9 1-1.5z"/><path id="path772" class="s8" d="m389 313.7-1.3 1 1.3 2.2.6-1z"/><path id="path774" class="s8" d="m381.8 312.4-.9.6.5 1.4 2.1-.2z"/><path id="path776" class="s8" d="m391.6 318.2-1.1.8.9 1.2 1.7-1z"/><path id="path778" class="s8" d="m395.7 328-2.1 1 2.1 1.7-.5 1-4.9.9 1.3 2.1 5-.7 1.3 1.5 3.8-1.8 5.7.3v-3.2l-5.3-2.6-4.6.8z"/><path id="path780" class="s8" d="M415.1 333h-3.6l-.9.7v2.1l4.5-.5z"/><path id="path782" class="s8" d="m423.1 333.2-1.8.3.2 1.7h1.8z"/><path id="path784" class="s8" d="m425.7 336-1.8.5.9 1.2 1.7-.2z"/><path id="path786" class="s8" d="m427.7 338.6-1.4 1.1.4.9 1.9-1z"/><path id="path788" class="s8" d="m427.5 342.2-.7 1.4.9 2.2 1.3-1z"/><path id="path790" class="s8" d="m428.6 346.9-1.1.4.2 1.4 1.7-.5z"/><path id="path792" class="s8" d="m432.7 347.8-1.4.9.9 1.9 1.4-1.2z"/><path id="path794" class="s8" d="m431.9 354.7-2.7.7.4 2 2.3-.4z"/><path id="path796" class="s8" d="m393.9 324-1.4.6.9 1.1 1.8-.5z"/><path id="path798" class="s9" d="m397.7 329 .3 2-1.4 3"/><g id="g1032"><g id="g908"><path id="path800" class="s2" d="M573.2 50.7 580 58l-12.1 13-6.7 15.3 2 21-13 6.9 3.3 15.1-9.8 13-14.5 1.7-8.5 11.3-13.5 3.4-15.5 26.5-12.8-13.4-.4-27.1 6.7-4.5 3-12-5.2-6.5-1.3-29.5-20.3-6.4-.9-18.9 13.4-3.4 24.9-20.4.1-.1 12.5-7.2 2.5 8.2 9.3 3 2.2-14 14-2.7 23.5 4.9 3.1 8.5-18 1.6 2.9 4.5 7.5-2 4.1 2.9-4.3 8.3z"/><path id="path802" class="s2" d="m500.6 404.7 1.7 10.4-11 13.7-6.5 27.7-18.5 9.6.2 5-13.2 23.6-9.3 1.4-3.9-4.5 1-12.3 10-9.2-1.1-6.2-.7-3.9-3.3-1.7-1.1-4.2h-6l-1.7-7.3 2.2-3.7-4-7.5h-3.9l-1.8-6.9-12.5-4-3.3-7.6-9.8 4.8-.5.1-7.5-4.1-6-8.1 4.3-7.5 4.5-1.6 3.1-2.9.1-.5-.5-9.4 7.3-5.9 4.6 4.2 7-4.5-3-6.4 4.1 1 7.2-3.3.4.3 2 3.7-1 3.9 3.5 3.7 6.8-2.4.7-.2 5.8-2.2.3.5 2 2.7 5-5.1 6 8.9 26.8 9.3z"/><path id="path804" class="s3" d="m496.7 29.5-1.6 9.1-7.8 2.2-.5 2.9-16.5 9.5-5.9.3-5.8 8.5-1.1.8-13.2 9.9 1.6 4-7.4 4-4.1-3.7-6.7 1-6.9-2.9.3-3.4 4.6-2.2 8.6-3.6-2.2-4.6 3.5-4.8 5.2-.8 1.1-9.5 2.6-3.7 6.8 2.7h6.2l1.5-2.4-10.7-1.1-6.1-5.4 3.2-9.8 18-5.7 19.5 1.1z"/><path id="path806" class="s3" d="m458.2 226 4.4 7.3-2.1 5.6-3.1-1.6v-2.4h-4.2l-9.1-1.2 6.3-11.2 5.7-1.4-2.7 3.8z"/><path id="path808" class="s3" d="m445.7 134.4 12.9 14.2-8.9 8.7-2.7-2.2-3.9-7.8-2.7 2 4.8 8.5 1.4 7.9-4 1.4-7.6-6.2 4.9 9.1-1.5 1.8-11.4-9.4-2-6.2-9.8-.4-1.2-3.4 2.7-2.4h9.3v-2.7l6.4-4.7 1.3-5.3-9-16.3-4.5 5.9-17.1-8.7-1.6-8.9 11-14.4 7.7.5 8.1 1.2 7.2 2.5.9 6.7 6.1 8.6 7.4 16.8z"/><path id="path810" class="s3" d="m440.8 178.5 16.8 37.6-8.4 3.9-.7.3-4.7 3.7-16.8-1 3 13 9.5 1.1-1.6 6.2-14.5 2-2.6-10.8h-4.7L410 242h-9.9l-4.5 2.5-7.8 1.3-1.9-3.8-1.4-6-9.5-2.3-3.6-7.7-4.5-1.3-6 3.8-.3-.4-94-13.3-5.5-27.1-7.6-30.1-7.5-5 35.3-62.7 4.6 3.9 6.2 9.4 22.3-8.7 19.9 17.8v6.5l14.5 1.6 9.2.9 8 3.5 11.6 5 26.2-4.5 10.6 5.9-9 12.3-6.6-3.3-32.5 28.6.2 17.2 22.6 12.2-1.7 12.3 5.5 6.3 3.4-4.1-.3-13.6 9.4-4.5v-12.9l5.1-16.7 17.4 7.8v11.8l3.2 3.7z"/><path id="path812" class="s4" d="m449.3 370.3 5 7.6-5 5.1-2-2.7-.3-.5-.3-5.5z"/><path id="path814" class="s3" d="m450 463.9 1.1 6.2-10 9.2-1 12.3 3.9 4.5 2.4 6.4-4.1 6.2-10 1.3-4.4 33.3-7.9 11.9 2.7 5.4H415l-5.5-8.5 1.7-13.8-5.8-21.5 1.9-5.6-1-4.4 2.4-13.4-1.7-9 1.8-21.6 3.1-2 2.6-6.9h10.8l5.7 6.3 9 2.8-2.2 7.2 7.6.9 4.6-7.2z"/><path id="path816" class="s5" d="m449.3 460 .7 3.9-4.6 7.2-7.6-.9 2.2-7.2-9-2.8-5.7-6.3 1.1-7.1 7.2-2.5 3.6 2.5 1.7 7.3h6l1.1 4.2z"/><path id="path818" class="s5" d="m449.3 370.3-2.6 4 .3 5.5-5.8 2.2-.7.2-3.5-7.9 1.6-4z"/><path id="path820" class="s3" d="m442.2 41.1-2.3 4.6-1.5 7.9h-5l-4.2 6.7-5.7-1.3-1.1-5.3 3.5-4 2.5.1v-1.4l-3.8-1.1 3-7.3 2.4-.8 3.4-6.6 2.5.6 1.2-2.9 2.1 1.5.3 8.2z"/><path id="path822" class="s6" d="m437 374.3 3.5 7.9-6.8 2.4-3.5-3.7 1-3.9-2-3.7-.4-.3-1.1-4.4 3.5-6.1 7.4 7.8z"/><path id="path824" class="s6" d="m435.4 435.6 4 7.5-2.2 3.7-3.6-2.5-7.2 2.5-1.1 7.1h-10.8l-2.6 6.9-3.1 2-1.8 21.6 1.7 9-2.4 13.4 1 4.4-1.9 5.6 5.8 21.5-1.7 13.8-5.1 2.2-3.6-8.6-2.3-39.2 3.9-63.4 4.1-5.3-1.9-4.1-1-11.7.5-.1 9.8-4.8 3.3 7.6 12.5 4 1.8 6.9z"/><path id="path826" class="s3" d="m436 84.2.6 4.6-6.1 3.4-14-2.8-7.1-4.6.9-5 2.6-2.5v-4.2l-5.1-1.4.8-6.5 5.8-.6.3 4.7 6.4 2.4-.3 3.4-3.6 1.2 4.6 5.6 6.1-.4 3.1-.2z"/><path id="path828" class="s3" d="m434.4 572.1-3.4 1.7-5.2-1-1.3-2.5 1.3-3.5z"/><path id="path830" class="s5" d="m432.7 347.8.9 1.6-1.4 1.2-.9-1.8z"/><path id="path832" class="s5" d="M431.9 354.7v2.3l-2.3.4-.4-2z"/><path id="path834" class="s3" d="m426.1 357.2 5.1 5.3-3.5 6.1 1.1 4.4-7.2 3.3-4.1-1 3 6.4-7 4.5-4.6-4.2-1.2-12.7-11.4-3.2-3.7-6.3 5.4-5.3.4-3.9z"/><path id="path836" class="s5" d="m431 573.8-4.1 2.2-15.4-5.3-7.1-16.4 5.1-2.2 5.5 8.5h7.7l3.1 6.2-1.3 3.5 1.3 2.5z"/><path id="path838" class="s5" d="m425.7 336 .8 1.5-1.7.3-.9-1.3z"/><path id="path840" class="s7" d="m420.8 234.5 2.6 10.8-11.4 1.5-2-4.8 6.1-7.5z"/><path id="path842" class="s5" d="m423.1 333.2.2 2h-1.8l-.2-1.7z"/><path id="path844" class="s3" d="M418.4 54.9V59h-5.8v-4.3l2.8-4.9z"/><path id="path846" class="s5" d="M415.1 333v2.3l-4.5.5v-2.1l.9-.7z"/><path id="path848" fill-rule="evenodd" class="s7" d="m410 242 2 4.8-2 9.2-8.9 2-9.8 20.5-16.9 12.7 2 15.5.2 1.6-3.5 4.5-8-17.3-30.6 1.7-8.2 11.1-7.9-12.6-3.6-.4-4 3.3-7.9-10.3h-14l-9.4-6.1-6.7-.6-7.7-4.9-6.6-26.4 9.3-29.8-1.2-5.7 94 13.3.3.4-6.6 4.1 4.6 1.6 7.2-2.5 1.8 4.1-5.8 10.5 1.2 6.9 4-3 5.3-12.1 3.8 1.7 2 7.3 7.5-5.1 1.9 3.8-1.3 2 7.4 1 1.7-4.3 4.5-2.5zm-31.5 13.1 10.4-4.5-3-1-9.2 2.1-1.2 1.5z"/><path id="path850" class="s3" d="m411.2 44.1-.4 7.6-3.6 6.9-2.5-2.9.8-2.1s-4.9-4.8-4.7-4.9c.1-.1 5.6-9 5.6-9z"/><path id="path852" class="s3" d="m409.4 92.4-7.1 7.9-4.8 1.1-2.1 3.4-2.9-1.9 2.6-9.8 5-5z"/><path id="path854" class="s6" d="m407.7 369.3 1.2 12.7-7.3 5.9.5 9.4-9.1-2.3-5-6.2-1.7-.7-10.5-4.4 4.5-6.5-1.9-11.1 4.7-2.1 15.3-13.4-.4 3.9-5.4 5.3 3.7 6.3z"/><path id="path856" class="s3" d="M407.4 330.8v3.2l-5.7-.3-3.8 1.8-1.3-1.5 1.4-3-.3-2 4.4-.8z"/><path id="path858" class="s3" d="m404.6 433.7 1.9 4.1-4.1 5.3-20.5-13.5-10.7-30.1 3.7 2.8 4.1-4.1 7.1-6.1v-3.5l.2-.5 1.7.7 5 6.2 9.1 2.3-.1.5-3.1 2.9-4.5 1.6-4.3 7.5 6 8.1 7.5 4.1z"/><path id="path860" class="s3" d="m405.5 68.8-6.9 11.9-6.6-2.4.5-3.3 4-.4.5-1.2-7.5-1.2 1.1-9.4 9.1.3z"/><path id="path862" class="s2" d="m397.7 329 .3 2-1.4 3-5 .7-1.3-2.1 5-.9.4-1-2.1-1.7 2.1-1 1.8 1h.2z"/><path id="path864" class="s3" d="m395.4 104.8-.9 1.4.6 10.1-5.1 4.1-6.5-4.7.7-6.4 8.3-6.4z"/><path id="path866" class="s3" d="m394.3 85.8.8 4.9-3 2.2-.8 8.1-8.3 4.8-4.5-13 2.8-2.8 3 4.3.7-6.8z"/><path id="path868" class="s3" d="m394.2 41.5-3.7 5.8-5.7-2.4 1.7-4z"/><path id="path870" class="s5" d="m391.6 326.8-5 2.9-4.3-1.8-1.1-2.4-8.9-4.7-8.9 1-.4-1.7 7.9-3.2 1.7.2 3.9.6z"/><path id="path872" class="s3" d="m389.5 49.1-6.2 5.7-5.2-4.1 1.5-4z"/><path id="path874" class="s3" d="m387.5 311.5-1 1.5-1.1-.9.4-1.4z"/><path id="path876" class="s3" d="m384.4 64.9 2.1 5-5.6 5.9-8.9-2.2-3.4 2.7-6-1.6-4.5-8.6 5.4-5.1 7.5-3.4 1.7 9.7 3.9.4.3-6 2.2-2.9 3.9 1.5-1.2 4.5z"/><path id="path878" class="s5" d="m386.3 388.1-.2.5v3.5l-7.1 6.1-4.1 4.1-3.7-2.8-2.2-6 6.8-9.8z"/><path id="path880" class="s3" d="m383.6 305.5 1.8 2.1-1.1 1.5-1.5-2-2.2 1.2-1-2z"/><path id="path882" class="s4" d="m385 334.1-3.2 1.4-3.1-2.3 4.1-.6z"/><path id="path884" class="s5" d="m378.3 358.6 4.8 5.4-4.7 2.1-2.5-2.9-5.9 1.8-2.3-1.2-3.4-1.7 5.2-1.9z"/><path id="path886" class="s3" d="m373.2 91.5-4.6 12.1 3 9.4-3.2 6.4-11.4-6-7.7 2.4-7.7-1.3-4.1-4.9-2.1-2.5.7-4.8 10.4 3 1.6-1.5-10.8-4.6.3-5.4 17.3-11.3 8.1 4.6-1.2 9.4 1.7.3 3.8-10.6z"/><path id="path888" class="s3" d="m372.3 47.1-2.8 8.7-6.4 1.8-1.9-2.2L357 59l-5.5-3.4.3-2.5 15.4-5.8z"/><path id="path890" class="s4" d="m369.5 360.2-5.2 1.9-8-4.1-1.4-2.8 8.1.5z"/><path id="path892" class="s5" d="m364.9 346.3-1.9 9.4-8.1-.5-3-6.2 11-4.9c1.1 1.2 2 2.2 2 2.2z"/><path id="path894" class="s2" d="m362.9 344.1-11 4.9-6.4-2.7 3-6.7.3-.5s9.7-.6 10 0c.1.4 2.3 3 4.1 5z"/><path id="path896" class="s3" d="m356.6 324.1-4.9 9.4-3.7 1.1-5.2.4-1-2.9 3.8-8.1z"/><path id="path898" class="s3" d="m353.5 73.5.5 4.9-10.2 4.6-8.3 8-7 .5-2-7.2 11.1-10.5 1-3.9z"/><path id="path900" class="s4" d="m351.7 333.5-2.9 5.6-.3.5-.1-.1-.4-4.9z"/><path id="path902" class="s6" d="m348.5 339.6-3 6.7-6.7-2.9 4.7-3.9-1.7-2.2 1-2.3 5.2-.4.4 4.9z"/><path id="path904" class="s3" d="m341.8 337.3 1.7 2.2-4.7 3.9-7.5-3.2-3.9 1.9-25.4-13.5 1.3-5.5-20.8-34.3-3.7-1.7.6 5.9 11.2 22.5-3.5.2-11.3-14.7-3-19.4 6.7.6 9.4 6.1h14l7.9 10.3 4-3.3 3.6.4 7.9 12.6-1.9 13.8 6 10h11.4l1 2.9z"/><path id="path906" class="s7" d="M281.3 89.9 246 152.6l-18.7-12.5-14.2 7.6-.6 5.6-25.1 14.4-27.3 8.1V173l36.7-16.7 3.1-7.5-7.8-3.6-3-18.6 10.2-9.3h11.2l2.9-9-12.1.8-.7-10.5 12.8-4 3.6 5.7 7-1.7-6.6-18.9 37-12.9z"/></g><g id="g1030"><path id="path910" class="s11" d="m246 152.6 35.3-62.7"/><path id="path912" class="s11" d="m266.6 214.8 94 13.3"/><path id="path914" class="s11" d="m385.9 242 1.9 3.8"/><path id="path916" class="s11" d="m395.6 244.5 4.5-2.5h9.9l6.1-7.5h4.7l2.6 10.8"/><path id="path918" class="s11" d="m272.8 281.6 6.7.6 9.4 6.1h14l7.9 10.3 4-3.3 3.6.4 7.9 12.6"/><path id="path920" class="s11" d="m338.8 343.4 4.7-3.9-1.7-2.2 1-2.3 5.2-.4.4 4.9"/><path id="path922" class="s11" d="m348 334.6 3.7-1.1"/><path id="path924" class="s11" d="m354.9 355.2 8.1.5"/><path id="path926" class="s11" d="m369.5 360.2-5.2 1.9"/><path id="path928" class="s11" d="m378.4 366.1 4.7-2.1"/><path id="path930" class="s12" d="m386.3 388.1-10.5-4.4"/><path id="path932" class="s11" d="m398.4 350.6-.4 3.9-5.4 5.3 3.7 6.3 11.4 3.2 1.2 12.7-7.3 5.9.5 9.4-9.1-2.3-5-6.2-1.7-.7"/><path id="path934" class="s11" d="M386.1 388.6v3.5l-7.1 6.1-4.1 4.1-3.7-2.8"/><path id="path936" class="s11" d="m402 397.8-3.1 2.9-4.5 1.6-4.3 7.5 6 8.1 7.5 4.1 1 11.7 1.9 4.1-4.1 5.3"/><path id="path938" class="s11" d="m404.1 421.9 9.8-4.8 3.3 7.6 12.5 4 1.8 6.9h3.9l4 7.5-2.2 3.7-3.6-2.5-7.2 2.5-1.1 7.1h-10.8l-2.6 6.9-3.1 2-1.8 21.6 1.7 9-2.4 13.4 1 4.4-1.9 5.6 5.8 21.5-1.7 13.8 5.5 8.5h7.7"/><path id="path940" class="s11" d="m425.8 566.8-1.3 3.5 1.3 2.5 5.2 1"/><path id="path942" class="s11" d="m444 496.1-3.9-4.5 1-12.3 10-9.2-1.1-6.2-.7-3.9-3.3-1.7-1.1-4.2h-6l-1.7-7.3"/><path id="path944" class="s11" d="m425.3 453.9 5.7 6.3 9 2.8-2.2 7.2 7.6.9 4.6-7.2"/><path id="path946" class="s11" d="m408.9 382 4.6 4.2 7-4.5-3-6.4 4.1 1 7.2-3.3-1.1-4.4 3.5-6.1"/><path id="path948" class="s11" d="m429.2 373.3 2 3.7-1 3.9 3.5 3.7 6.8-2.4-3.5-7.9 1.6-4"/><path id="path950" class="s11" d="m441.2 382 5.8-2.2-.3-5.5 2.6-4"/><path id="path952" class="s11" d="m447.3 380.3 2 2.7 5-5.1"/><path id="path954" class="s12" d="m378.4 366.1-2.5-2.9-5.9 1.8-2.3-1.2-3.4-1.7-8-4.1-1.4-2.8-3-6.2-6.4-2.7-6.7-2.9-7.5-3.2-3.9 1.9-25.4-13.5 1.3-5.5-20.8-34.3-3.7-1.7.6 5.9 11.2 22.5-3.5.2-11.3-14.7-3-19.4-7.7-4.9-6.6-26.4 9.3-29.8-1.2-5.7-5.5-27.1-7.6-30.1-7.5-5-18.7-12.5-14.2 7.6-.6 5.6-25.1 14.4-27.3 8.1V173l36.7-16.7 3.1-7.5-7.8-3.6-3-18.6 10.2-9.3h11.2l2.9-9-12.1.8-.7-10.5 12.8-4 3.6 5.7 7-1.7-6.6-18.9 37-12.9 26.9 23.1 4.6 3.9 6.2 9.4 22.3-8.7 19.9 17.8v6.5l14.5 1.6 9.2.9 8 3.5 11.6 5 26.2-4.5 10.6 5.9-9 12.3-6.6-3.3-32.5 28.6.2 17.2 22.6 12.2-1.7 12.3 5.5 6.3 3.4-4.1-.3-13.6 9.4-4.5v-12.9l5.1-16.7 17.4 7.8v11.8l3.2 3.7 9.7-9.8 16.8 37.6-8.4 3.9-.7.3-4.7 3.7-16.8-1 3 13 9.5 1.1-1.6 6.2-14.5 2-11.4 1.5-2 9.2-8.9 2-9.8 20.5-16.9 12.7 2 15.5.2 1.6-3.5 4.5-8-17.3-30.6 1.7-8.2 11.1-1.9 13.8 6 10h11.4l3.8-8.1 11 .1-4.9 9.4-2.9 5.6s9.7-.6 10 0c.1.4 2.3 3 4.1 5 1.1 1.2 2 2.2 2 2.2l-1.9 9.4 6.5 4.5 8.8-1.6 4.8 5.4 15.3-13.4 27.7 6.6 5.1 5.3 7.4 7.8h10.7l5 7.6 6 8.9 26.8 9.3 13.5 8.6 1.7 10.4-11 13.7-6.5 27.7-18.5 9.6.2 5-13.2 23.6-9.3 1.4 2.4 6.4-4.1 6.2-10 1.3-4.4 33.3-7.9 11.9 2.7 5.4 3.1 6.2 8.6 5.3-3.4 1.7-4.1 2.2-15.4-5.3-7.1-16.4-3.6-8.6-2.3-39.2 3.9-63.4-20.5-13.5-10.7-30.1-2.2-6 6.8-9.8 4.5-6.5z"/><path id="path956" class="s12" d="m326.5 84.3 2 7.2 7-.5 8.3-8 10.2-4.6-.5-4.9-14.9-3.6-1 3.9z"/><path id="path958" class="s12" d="m368.4 119.4 3.2-6.4-3-9.4 4.6-12.1-5.9-5.3-3.8 10.6-1.7-.3 1.2-9.4-8.1-4.6-17.3 11.3-.3 5.4 10.8 4.6-1.6 1.5-10.4-3-.7 4.8 2.1 2.5 4.1 4.9 7.7 1.3 7.7-2.4z"/><path id="path960" class="s12" d="m376.6 67.7-3.9-.4-1.7-9.7-7.5 3.4-5.4 5.1 4.5 8.6 6 1.6 3.4-2.7 8.9 2.2 5.6-5.9-2.1-5-2.6-.1 1.2-4.5-3.9-1.5-2.2 2.9z"/><path id="path962" class="s12" d="m394.3 85.8-9.3 1.7-.7 6.8-3-4.3-2.8 2.8 4.5 13 8.3-4.8.8-8.1 3-2.2z"/><path id="path964" class="s12" d="m390.6 62.8-1.1 9.4 7.5 1.2-.5 1.2-4 .4-.5 3.3 6.6 2.4 6.9-11.9-5.8-5.7z"/><path id="path966" class="s12" d="m392.5 102.9 2.6-9.8 5-5 9.3 4.3-7.1 7.9-4.8 1.1-2.1 3.4-.9 1.4.6 10.1-5.1 4.1-6.5-4.7.7-6.4z"/><path id="path968" class="s12" d="m420.2 95.4-7.7-.5-11 14.4 1.6 8.9 17.1 8.7 4.5-5.9 9 16.3-1.3 5.3-6.4 4.7v2.7h-9.3l-2.7 2.4 1.2 3.4 9.8.4 2 6.2 11.4 9.4 1.5-1.8-4.9-9.1 7.6 6.2 4-1.4-1.4-7.9-4.8-8.5 2.7-2 3.9 7.8 2.7 2.2 8.9-8.7-12.9-14.2 4.2-3.2-7.4-16.8-6.1-8.6-.9-6.7-7.2-2.5z"/><path id="path970" class="s12" d="m421.1 71.7-6.4-2.4-.3-4.7-5.8.6-.8 6.5 5.1 1.4v4.2l-2.6 2.5-.9 5 7.1 4.6 14 2.8 6.1-3.4-.6-4.6-5-2.9-3.1.2-6.1.4-4.6-5.6 3.6-1.2 6.9 2.9 6.7-1 4.1 3.7 7.4-4-1.6-4 13.2-9.9 1.1-.8 5.8-8.5 5.9-.3 16.5-9.5.5-2.9 7.8-2.2 1.6-9.1-13.8-7.6-19.5-1.1-18 5.7-3.2 9.8 6.1 5.4 10.7 1.1-1.5 2.4h-6.2l-6.8-2.7-2.6 3.7-1.1 9.5-5.2.8-3.5 4.8 2.2 4.6-8.6 3.6z"/><path id="path972" class="s12" d="m424.6 47.3 3-7.3 2.4-.8 3.4-6.6 2.5.6 1.2-2.9 2.1 1.5.3 8.2 2.7 1.1-2.3 4.6-1.5 7.9h-5l-4.2 6.7-5.7-1.3-1.1-5.3 3.5-4 2.5.1v-1.4z"/><path id="path974" class="s12" d="M406.4 39.7s-5.5 8.9-5.6 9c-.2.1 4.7 4.9 4.7 4.9l-.8 2.1 2.5 2.9 3.6-6.9.4-7.6z"/><path id="path976" class="s12" d="m415.4 49.8-2.8 4.9V59h5.8v-4.1z"/><path id="path978" class="s12" d="m389.5 49.1-6.2 5.7-5.2-4.1 1.5-4z"/><path id="path980" class="s12" d="m386.5 40.9-1.7 4 5.7 2.4 3.7-5.8z"/><path id="path982" class="s12" d="m372.3 47.1-2.8 8.7-6.4 1.8-1.9-2.2L357 59l-5.5-3.4.3-2.5 15.4-5.8z"/><path id="path984" class="s12" d="m498.8 43.1-24.9 20.4-13.4 3.4.9 18.9 20.3 6.4 1.3 29.5 5.2 6.5-3 12-6.7 4.5.4 27.1 12.8 13.4 15.5-26.5 13.5-3.4 8.5-11.3 14.5-1.7 9.8-13-3.3-15.1 13-6.9-2-21 6.7-15.3L580 58l-6.8-7.3-15 8.3 4.3-8.3-4.1-2.9-7.5 2-2.9-4.5 18-1.6-3.1-8.5-23.5-4.9-14 2.7-2.2 14-9.3-3-2.5-8.2-12.5 7.2z"/><path id="path986" class="s12" d="m385.9 242-1.4-6-9.5-2.3-3.6-7.7-4.5-1.3-6 3.8-6.6 4.1 4.6 1.6 7.2-2.5 1.8 4.1-5.8 10.5 1.2 6.9 4-3 5.3-12.1 3.8 1.7 2 7.3z"/><path id="path988" class="s12" d="m395.6 244.5-7.8 1.3-1.3 2 7.4 1z"/><path id="path990" class="s12" d="m388.9 250.6-3-1-9.3 2.1-1.1 1.5 3 1.9z"/><path id="path992" class="s12" d="m444.1 233.7 9.1 1.2h4.2v2.4l3.1 1.6 2.1-5.6-4.4-7.3-4.8-1.1 2.7-3.8-5.7 1.4z"/><path id="path994" class="s12" d="m391.6 326.8-5 2.9-4.3-1.8-1.1-2.4-8.9-4.7-8.9 1-.4-1.7 7.9-3.2 1.7.2 3.9.6z"/><path id="path996" class="s12" d="m378.7 333.2 4.1-.6 2.2 1.5-3.2 1.4z"/><path id="path998" class="s12" d="m379.6 306.3 4-.8 1.8 2.1-1.1 1.5-1.5-2-2.2 1.2z"/><path id="path1000" class="s12" d="m385.8 310.7-.4 1.4 1.1.9 1-1.5z"/><path id="path1002" class="s12" d="m389 313.7-1.3 1.1 1.3 2.1.6-1z"/><path id="path1004" class="s12" d="m381.8 312.4-.9.6.5 1.4 2.1-.2z"/><path id="path1006" class="s12" d="m391.4 320.2 1.7-1-1.5-1-1.1.8z"/><path id="path1008" class="s12" d="M397.7 329h-.2l-1.8-1-2.1 1 2.1 1.7-.4 1-5 .9 1.3 2.1 5-.7 1.3 1.5 3.8-1.8 5.7.3v-3.2l-5.3-2.6z"/><path id="path1010" class="s12" d="M415.1 333h-3.6l-.9.7v2.1l4.5-.5z"/><path id="path1012" class="s12" d="m423.1 333.2-1.8.3.2 1.7h1.8z"/><path id="path1014" class="s12" d="m425.7 336-1.8.5.9 1.3 1.7-.3z"/><path id="path1016" class="s12" d="m427.7 338.6-1.4 1.1.5.9 1.8-1z"/><path id="path1018" class="s12" d="m427.5 342.3-.7 1.3.9 2.2 1.3-1z"/><path id="path1020" class="s12" d="m428.6 346.9-1.1.4.2 1.5 1.7-.5z"/><path id="path1022" class="s12" d="m432.7 347.8-1.4 1 .9 1.8 1.4-1.2z"/><path id="path1024" class="s12" d="m431.9 354.7-2.7.7.4 2 2.3-.4z"/><path id="path1026" class="s12" d="m393.9 324-1.4.6.9 1.2 1.8-.5z"/><path id="path1028" class="s12" d="m397.7 329 .3 2-1.4 3"/></g></g><g id="g1090"><path id="path1034" class="s13" d="m393.4 323.1-1.3.6c-.3.2-.5.4-.5.7-.1.3 0 .6.1.8l.9 1.2c.2.2.5.4.8.4q.1 0 .2-.1l1.8-.5c.4-.1.6-.4.7-.7.1-.3 0-.7-.2-1l-1.3-1.3c-.2-.1-.5-.2-.7-.2q-.3-.1-.5.1z"/><path id="path1036" class="s13" d="M431.9 353.7h-.3l-2.6.7c-.6.1-.9.6-.8 1.2l.4 2q.1.4.5.6.2.2.5.2h.2l2.3-.5c.4-.1.8-.5.8-.9v-2.3c0-.3-.2-.6-.4-.8q-.3-.2-.6-.2z"/><path id="path1038" class="s13" d="m434.5 348.9-.9-1.6c-.2-.2-.4-.4-.7-.5h-.2q-.3 0-.5.2l-1.5.9q-.2.2-.3.5 0-.4-.1-.7l-.9-1.3q-.1-.3-.3-.4l.5-.4c.4-.3.5-.9.2-1.3l-1.5-2.6c-.1-.2-.4-.4-.7-.4l1.5-.8c.2-.2.4-.4.5-.7 0-.3-.1-.6-.3-.8l-.9-1.1c-.2-.2-.4-.3-.7-.3h-.2q0-.3-.1-.5l-.8-1.6c-.2-.3-.5-.5-.9-.5q-.1-.1-.3 0l-1.1.4v-.3l-.2-2q-.1-.4-.4-.7-.3-.2-.6-.2h-.2l-1.8.3c-.5.1-.9.6-.8 1.1l.2 1.7c.1.5.5.9 1 .9h1.5c-.1.3-.1.7.1.9l.9 1.2c.2.3.5.5.8.5q.1 0 .1-.1l1.2-.1-.4.3c-.4.3-.5.8-.3 1.2l.4.9c.1.3.4.5.6.6h.3c0 .1-.1.2-.2.2l-.6 1.4c-.1.3-.1.6 0 .8l.9 2.2q.1.1.2.3c-.4.2-.6.6-.5 1l.2 1.4c0 .3.2.5.4.7q.3.2.6.2.1 0 .2-.1l1.8-.5c.3-.1.5-.3.6-.5q0 .2.1.5l.9 1.8c.1.3.4.5.7.5q.1.1.2.1.3 0 .6-.3l1.5-1.2c.3-.3.4-.8.2-1.2z"/><path id="path1040" class="s13" d="M411.5 332q-.4 0-.7.3l-.8.6c-.3.2-.4.5-.4.8v2.1c0 .3.1.5.3.7q.3.3.7.3l4.6-.5c.5-.1.9-.5.9-1V333c0-.5-.4-1-1-1z"/><path id="path1042" class="s13" d="M390.8 335.2c.1.3.5.5.8.5h.1l4.5-.6 1 1.1c.2.2.5.3.7.3q.3 0 .5-.1l3.5-1.7s5.4.3 5.5.3q.4 0 .7-.2c.2-.2.3-.5.3-.8v-3.2c0-.4-.2-.7-.6-.9l-5.3-2.6q-.2-.1-.4-.1h-.2l-4.2.8-1.6-.9q-.2-.1-.4-.1-.3 0-.5.1l-2 .9c-.3.2-.6.5-.6.8 0 .3.1.7.3.9l1.4 1.2-4.2.7c-.3 0-.6.3-.7.6-.2.3-.2.6 0 .9z"/><path id="path1044" class="s13" d="M392.2 317.4q-.3-.2-.6-.2t-.6.2l-1 .7q-.4.3-.5.7 0 .4.2.7l.8 1.2c.2.3.6.5.9.5q.2 0 .5-.2l1.7-.9c.3-.2.5-.5.5-.9 0-.3-.2-.6-.5-.8z"/><path id="path1046" class="s13" d="M382.6 311.7c-.2-.2-.5-.3-.8-.3q-.3 0-.5.2l-.9.5c-.4.3-.6.8-.4 1.2l.4 1.4c.2.4.5.7 1 .7h.1l2.1-.2c.3-.1.7-.3.8-.7.1-.3 0-.7-.2-1z"/><path id="path1048" class="s13" d="M390 313.5c-.1-.4-.3-.6-.7-.7q-.1-.1-.3-.1-.3 0-.6.2l-1.3 1.1c-.4.3-.5.8-.2 1.3l1.3 2.1c.2.3.5.5.8.5h.1c.3 0 .6-.2.8-.5l.6-1q.2-.4.1-.8z"/><path id="path1050" class="s13" d="m387.9 310.6-1.6-.8q-.2-.1-.5-.1h-.3c-.3.2-.5.4-.6.7l-.5 1.4c-.1.4 0 .9.4 1.1l1.1.9q.3.2.6.2h.2c.3-.1.5-.2.7-.5l.9-1.4c.1-.3.2-.6.1-.8-.1-.3-.2-.5-.5-.7z"/><path id="path1052" class="s13" d="M384.3 304.8c-.2-.2-.4-.3-.7-.3h-.2l-4 .8c-.3 0-.6.2-.7.5-.2.3-.2.6 0 .9l1 2.1c.1.2.4.4.6.5h.3q.3 0 .5-.1l1.4-.8 1 1.3c.2.3.5.4.8.4.4 0 .7-.1.9-.4l1-1.5c.2-.4.2-.9-.1-1.2z"/><path id="path1054" class="s13" d="M382.8 331.6h-.2l-4 .6c-.4 0-.8.3-.9.7-.1.4.1.8.4 1.1l3.1 2.3q.3.2.6.2.2 0 .4-.1l3.2-1.4c.3-.2.5-.5.5-.9.1-.3-.1-.7-.4-.9l-2.1-1.5q-.3-.1-.6-.1z"/><path id="path1056" class="s13" d="M386.6 330.7q.3 0 .5-.2l5-2.8c.3-.2.5-.5.5-.9 0-.3-.2-.6-.5-.8l-15.1-9.2q-.2-.1-.4-.1l-5.6-.8h-.1q-.2 0-.4.1l-7.9 3.2c-.4.1-.7.6-.6 1.1l.4 1.7c.1.5.5.8 1 .8h.1l8.6-1 8.3 4.4 1 2.1q.1.4.5.5l4.3 1.8q.2.1.4.1z"/><path id="path1058" class="s13" d="m456.9 238.2 3.1 1.6q.2.1.5.1.1 0 .3-.1c.3-.1.5-.3.6-.5l2.1-5.7c.2-.3.1-.6 0-.9l-4.4-7.2c-.2-.3-.4-.4-.7-.5l-3.3-.7 1.8-2.6c.3-.4.3-.8.1-1.2-.2-.2-.5-.4-.9-.4h-.2l-5.8 1.4c-.2.1-.5.3-.6.5l-6.2 11.2c-.2.3-.2.6-.1.9.2.3.5.5.8.6l9.2 1.2h3.2v1.4c0 .4.2.7.5.9z"/><path id="path1060" class="s13" d="m544.5 142.9 9.8-13c.2-.2.3-.5.2-.8l-3.2-14.4 12.4-6.5c.3-.2.5-.6.5-1l-2-20.7 6.5-15 12.1-12.8c.3-.4.3-1 0-1.4l-6.9-7.3c-.2-.2-.4-.3-.7-.3q-.2 0-.5.1l-12.1 6.7 2.8-5.4c.3-.4.1-1-.3-1.3l-4.2-2.8q-.2-.2-.5-.2-.2 0-.3.1l-6.8 1.8-1.6-2.6 16.4-1.4c.3-.1.6-.2.8-.5.1-.3.2-.6.1-.9l-3.2-8.5c-.1-.3-.4-.5-.7-.6l-23.5-4.8q-.1-.1-.2-.1h-.2l-14 2.7c-.4.1-.8.4-.8.8l-2 12.9-7.7-2.5-2.4-7.7c-.1-.3-.3-.5-.6-.6q-.1-.1-.3-.1-.3 0-.5.2l-12.7 7.2-24.8 20.4-13.1 3.3c-.5.2-.8.6-.8 1.1l.9 18.9c0 .4.3.8.7.9l19.6 6.1 1.3 28.8q0 .3.2.6l4.9 6.1-2.8 11.2-6.3 4.2c-.3.2-.5.5-.5.9l.4 27.1q0 .4.2.7l12.9 13.4c.2.2.4.3.7.3h.1c.3-.1.6-.3.8-.5l15.3-26.2 13.1-3.2q.3-.1.5-.4l8.3-11 14-1.6c.3 0 .5-.1.7-.4z"/><path id="path1062" class="s13" d="M356.5 59.9q.2.1.5.1.4 0 .6-.2l3.5-3 1.3 1.4c.2.3.4.4.7.4q.2 0 .3-.1l6.4-1.8c.3-.1.5-.3.6-.6l2.8-8.7c.1-.3.1-.7-.1-.9-.2-.3-.5-.4-.8-.4l-5.2.2q-.1 0-.3.1l-15.4 5.7c-.4.1-.6.5-.6.8l-.3 2.6c0 .3.1.7.5.9z"/><path id="path1064" class="s13" d="m384.4 45.8 5.7 2.4q.2.1.4.1c.3 0 .6-.1.8-.4L395 42c.2-.3.2-.7.1-1-.2-.3-.5-.5-.8-.5l-7.8-.6c-.5 0-.8.2-1 .6l-1.6 4c-.2.5 0 1.1.5 1.3z"/><path id="path1066" class="s13" d="M382.6 55.6q.3.2.6.2.4 0 .7-.3l6.3-5.6c.3-.3.4-.7.3-1-.1-.4-.4-.7-.7-.8l-10-2.4h-.3c-.4 0-.7.2-.9.6l-1.5 4c-.1.4 0 .9.3 1.1z"/><path id="path1068" class="s13" d="M411.6 54.7V59c0 .6.5 1 1 1h5.8c.5 0 1-.4 1-1v-4.1q0-.3-.2-.5l-3-5.1c-.2-.3-.5-.5-.8-.5-.4 0-.7.2-.9.5l-2.8 4.9q-.1.2-.1.5z"/><path id="path1070" class="s13" d="m404.3 53.8-.5 1.5c-.2.3-.1.7.1 1l2.5 2.9c.2.2.5.4.8.4h.1c.3-.1.6-.3.8-.6l3.6-6.8q.1-.2.1-.4l.4-7.7c0-.3-.1-.5-.3-.7l-4.9-4.5q-.2-.2-.6-.2h-.2c-.3 0-.5.2-.7.4-1.9 3.2-5.1 8.4-5.5 9q-.2.2-.3.5c0 .6 0 .8 4.6 5.2z"/><path id="path1072" class="s13" d="m423.3 59.9 5.7 1.3q.1.1.2.1c.3 0 .7-.2.8-.5l3.9-6.2h4.5c.5 0 .9-.4 1-.8l1.4-7.8 2.3-4.5c.1-.2.1-.5 0-.8-.1-.2-.3-.4-.5-.5l-2.1-.9-.3-7.5c0-.3-.2-.6-.4-.8l-2.1-1.5q-.2-.2-.6-.2-.1 0-.2.1c-.3 0-.6.3-.7.5l-.9 2.1-1.6-.4h-.3c-.3 0-.7.2-.9.5l-3.2 6.3-2.1.7c-.2.1-.5.3-.6.5l-3 7.3c-.1.3-.1.5 0 .8.2.3.4.5.7.5l1.6.5c-.3 0-.5.1-.7.4l-3.5 4c-.2.2-.3.5-.3.8l1.1 5.2c.1.4.4.7.8.8z"/><path id="path1074" class="s13" d="M415.4 64.5c-.1-.3-.2-.5-.4-.7q-.3-.2-.6-.2c-.1 0-5.9.6-5.9.6-.5 0-.9.4-.9.8l-.8 6.6c0 .5.3 1 .8 1.1l4.3 1.2v3l-2.3 2.2q-.2.2-.3.6l-.9 5c-.1.3.1.8.4 1l7.1 4.6q.2.1.4.1l14 2.8h.2q.2 0 .4-.2l6.2-3.3c.4-.2.6-.6.5-1l-.7-4.7c0-.3-.2-.5-.5-.7l-5-2.8q-.2-.2-.4-.2c-.1 0-8.8.6-8.8.6l-3.3-4.1 1.8-.6 6.6 2.7q.2.1.4.1h.2l6.2-1 3.8 3.5q.3.2.6.2t.5-.1l7.4-4.1c.4-.2.6-.7.4-1.2l-1.3-3.3 13.7-10.2q.1-.1.2-.3l5.5-8 5.5-.4q.2 0 .4-.1l16.4-9.5c.3-.1.5-.4.5-.7l.5-2.2 7.1-2.1c.4-.1.7-.4.7-.8l1.7-9.1c.1-.4-.2-.8-.5-1L483.4 21q-.2-.1-.4-.1l-19.6-1.1h-.3l-18 5.8c-.3.1-.5.3-.6.6l-3.3 9.8c-.1.4 0 .8.3 1.1l6.1 5.4q.2.2.6.2l9.1.9-.4.6h-5.4l-6.6-2.7h-.4c-.3 0-.6.1-.8.4l-2.7 3.7q-.1.2-.1.5l-1.1 8.7-4.3.7c-.3 0-.5.2-.7.4l-3.5 4.8c-.2.3-.2.7-.1 1l1.7 3.7-7.6 3.2-4.2 2-5.5-2z"/><path id="path1076" class="s13" d="m447.2 134.5 3.3-2.5c.3-.3.5-.8.3-1.2l-7.4-16.8q0-.1-.1-.2l-6-8.3-.8-6.5c0-.4-.3-.7-.6-.9l-7.5-2.5-8.1-1.2s-7.7-.5-7.8-.5c-.3 0-.6.2-.8.4l-11 14.4c-.1.2-.2.5-.2.8l1.6 8.8c.1.4.3.6.6.8l17.1 8.7q.2.1.4.1c.3 0 .6-.1.8-.4l3.6-4.7 8 14.6-1.1 4.6-6.1 4.5c-.2.2-.4.5-.4.8v1.7h-8.3q-.4 0-.6.2l-2.8 2.5c-.3.2-.4.7-.3 1.1l1.3 3.3c.1.4.5.6.9.6l9.1.4 1.7 5.6q.1.3.3.5l11.4 9.4q.3.2.7.2h.1q.4 0 .6-.3l1.5-1.9c.3-.3.3-.7.2-1.1l-2.6-4.7 3.8 3.1q.3.2.6.2.2 0 .3-.1l4-1.4c.5-.1.8-.6.7-1.1l-1.4-7.9q0-.2-.1-.3l-4.4-7.8 1.1-.7 3.3 6.7q.1.2.3.4l2.7 2.1q.3.3.6.3.4 0 .7-.3l8.9-8.7c.4-.4.4-1 0-1.4z"/><path id="path1078" fill-rule="evenodd" class="s13" d="m398.2 102.3-2.7 4.1.6 9.8c0 .3-.1.6-.3.8l-5.2 4.2q-.3.2-.6.2-.4 0-.6-.2l-6.5-4.7c-.3-.2-.5-.6-.4-.9l.7-6.5q.1-.4.4-.6l8.1-6.2.1-.5-8.3 4.9q-.3.1-.5.1h-.4c-.3-.1-.5-.4-.6-.6l-4.5-13c-.1-.4 0-.8.2-1.1l2.9-2.8q.3-.3.7-.3h.1c.3.1.5.2.7.5l1.5 2 .4-4.1c0-.5.3-.8.8-.9l9.3-1.7h.2q.3 0 .6.2.3.3.4.7l.8 4.8v.2l3.3-3.3q.3-.3.7-.3.2 0 .5.1l9.2 4.3c.3.1.5.4.6.7 0 .3-.1.6-.3.9l-7.1 7.8q-.2.2-.5.3zm-4-9.4.2-.4-1.2 1-.6 5.7z"/><path id="path1080" class="s13" d="m391.5 74.8-.5 3.4c-.1.4.2.9.6 1.1l6.7 2.4h.3c.4 0 .7-.2.9-.5l6.9-11.9c.2-.4.2-.9-.2-1.2l-5.8-5.7q-.3-.3-.7-.3l-9.1-.3c-.5 0-.9.3-1 .8l-1.1 9.5c0 .5.3 1 .9 1.1l4.3.7-1.3.1c-.4 0-.8.4-.9.8z"/><path id="path1082" class="s13" d="M371.4 56.7q-.2-.1-.4-.1-.3 0-.5.1l-7.4 3.4q-.1.1-.3.2l-5.4 5.1c-.3.3-.4.8-.2 1.2l4.5 8.5c.2.3.4.5.7.5l6 1.6q.1.1.2.1.4-.1.6-.3l3-2.3 8.4 2.1h.3c.2 0 .5-.1.7-.3l5.6-5.9c.2-.3.3-.7.2-1.1l-2.1-5c-.2-.3-.5-.6-.9-.6l-1.3-.1.9-3.3c.1-.5-.1-1-.6-1.2l-3.9-1.4q-.2-.1-.4-.1c-.3 0-.6.2-.8.4l-2.2 2.8q-.2.3-.2.6l-.2 5-2.1-.3-1.7-8.9c0-.3-.2-.6-.5-.7z"/><path id="path1084" class="s13" d="m373.9 90.7-5.9-5.3q-.3-.2-.7-.2h-.3c-.3.1-.5.3-.7.6l-3.4 9.6 1.1-8.2c.1-.4-.1-.8-.5-1l-8.1-4.6q-.3-.1-.5-.1-.3 0-.6.2L337.1 93c-.3.2-.5.5-.5.8l-.3 5.3c0 .4.2.8.6 1l9.4 4-9.9-2.7q-.1-.1-.3-.1-.3 0-.5.2c-.2.1-.4.4-.5.7l-.7 4.7c-.1.3 0 .6.2.8l6.2 7.4q.2.3.6.4l7.7 1.3h.4l7.4-2.3 11 5.8q.2.1.5.1h.3q.4-.2.6-.5l3.2-6.5q.2-.3.1-.7l-2.9-9.1 4.4-11.8c.2-.3.1-.8-.2-1.1z"/><path id="path1086" class="s13" d="M328.4 92.5c.1 0 7.1-.5 7.1-.5q.4 0 .6-.3l8.3-7.9 10-4.5c.4-.1.6-.5.6-1l-.6-4.9c0-.4-.3-.8-.7-.9l-14.9-3.6h-.2c-.4 0-.8.3-1 .8l-.9 3.6-10.9 10.2c-.2.3-.3.7-.2 1l1.9 7.2c.1.5.5.8.9.8z"/><path id="path1088" class="s13" d="m501.1 403.9-13.4-8.7q-.1 0-.2-.1l-26.6-9.1-10.8-16.2q-.1-.2-.3-.3h-.1q0-.1-.1-.1t-.3-.1H439l-12.1-12.8q-.2-.2-.5-.3l-27.8-6.6H398q0 .1-.1.1t-.2.1l-14.5 12.7-4.2-4.6c-.2-.2-.5-.3-.8-.3h-.1l-8.4 1.6-5.6-3.9 1.8-8.8c0-.3-.1-.6-.3-.8-.7-.8-1.4-1.6-2-2.4h-.1c-1.9-2.2-3.6-4.2-3.8-4.6-.3-.7-1-.9-3.7-.9-1.8 0-4 .1-5.5.2l7-13.4c.2-.4.1-.7 0-1-.2-.3-.5-.5-.9-.5l-11-.1c-.4 0-.7.2-.9.5l-3.6 7.6h-10.2l-5.5-9.2 1.8-13.2 7.8-10.5 29.5-1.7 7.7 16.7c.2.4.5.6.8.6h.1c.3 0 .6-.1.8-.4l3.5-4.5q.3-.3.2-.7l-2.2-16.5 16.5-12.5.3-.3 9.6-20.1 8.4-1.9c.4-.1.7-.4.8-.7l1.8-8.5 25.2-3.4c.4 0 .7-.3.8-.7l1.7-6.3c0-.2 0-.5-.2-.8-.1-.2-.4-.4-.7-.4l-8.8-1.1-2.5-11 15.4 1q.4-.1.7-.3l4.6-3.5 9-4.2c.5-.2.7-.8.5-1.3L441.7 178c-.2-.3-.4-.5-.8-.5h-.2q-.4 0-.7.3l-8.8 9.1-2.3-2.7v-11.4c0-.4-.3-.7-.6-.9l-17.4-7.9h-.8c-.3.2-.5.4-.6.7l-5.1 16.7v12.5l-8.8 4.3c-.4.2-.6.5-.6.9l.2 13.3-2.3 2.9-4.5-5.2 1.7-11.7c.1-.5-.1-.9-.5-1.1l-22.1-11.9-.2-16.1 31.6-27.9 6 2.9q.2.2.5.2c.3 0 .6-.2.8-.5l9-12.2c.1-.2.2-.5.1-.8 0-.3-.2-.5-.4-.7l-10.7-5.8q-.2-.2-.5-.2h-.1l-25.9 4.5-19.3-8.4q-.2 0-.3-.1l-22.9-2.4v-5.6c0-.3-.1-.5-.3-.7L315 93.7q-.3-.2-.6-.2h-.4l-21.5 8.5-5.8-8.7-.2-.2-31.5-27q-.3-.3-.6-.3-.2 0-.4.1l-37 12.9q-.3.1-.5.5t-.1.7l6.3 17.9-5.2 1.3-3.3-5.2c-.2-.3-.5-.4-.8-.4h-.3l-12.8 4c-.4.2-.7.6-.7 1l.7 10.6q0 .4.3.6.3.3.6.3c.1 0 10.8-.7 10.8-.7l-2.2 6.9h-10.6q-.3 0-.6.3l-10.1 9.2c-.3.3-.4.6-.4.9l3 18.7c.1.3.3.6.6.7l6.9 3.2-2.6 6.3-36.3 16.4c-.3.2-.6.6-.6 1v2.8c0 .3.2.6.4.8q.3.2.6.2h.3l27.3-8.1q.1-.1.2-.1l25.1-14.4c.3-.2.4-.4.5-.8l.6-5.1 13.1-7 25.4 16.9 7.5 29.7 5.5 27.2 1.1 5.3-9.2 29.6v.6l6.7 26.4q.1.3.4.6l7.2 4.6 3 18.9q0 .3.2.5l11.3 14.7c.2.3.5.4.8.4.1 0 3.6-.3 3.6-.3.3 0 .6-.2.8-.5.1-.2.2-.6 0-.9l-11.2-22.3-.4-4 1.9.9 20.4 33.7-1.2 5c-.1.5.1.9.5 1.2l25.4 13.5q.2.1.5.1.2 0 .4-.1l3.5-1.7 13.8 5.9 6 2.5 4.3 8.7q.1.3.4.4l13.7 7q.3.1.5.2.1 0 .3-.1l5.2-1.5 1.9 2.1 1.8 10.5-11 15.9c-.2.2-.3.6-.2.9l12.9 36.1q.1.3.4.5l20 13.2-3.8 62.9 2.3 39.3v.3l10.8 25c.1.3.3.5.6.6l15.3 5.2q.2.1.4.1t.4-.2l7.5-3.8c.3-.2.6-.5.6-.9 0-.3-.2-.7-.5-.9l-8.4-5.1-2.9-5.9-2.5-4.9 7.6-11.4.2-.4 4.2-32.7 9.3-1.1c.3 0 .5-.2.7-.4l4.1-6.3c.2-.3.2-.6.1-.9l-1.9-5.2 8-1.2c.3 0 .6-.2.7-.5l13.3-23.6q.1-.3.1-.6l-.2-4.3 17.9-9.4c.3-.1.5-.3.5-.6l6.5-27.4 10.8-13.6c.2-.2.3-.5.2-.8l-1.6-10.3c0-.3-.2-.6-.5-.7z"/></g><g id="g1332"><g id="g1206"><path id="path1092" class="s2" d="M573.2 50.7 580 58l-12.1 13-6.7 15.3 2 21-13 6.9 3.3 15.1-9.8 13-14.5 1.7-8.5 11.3-13.5 3.4-15.5 26.5-12.8-13.4-.4-27.1 6.7-4.5 3-12-5.2-6.5-1.3-29.5-20.3-6.4-.9-18.9 13.4-3.4 24.9-20.4.1-.1 12.5-7.2 2.5 8.2 9.3 3 2.2-14 14-2.7 23.5 4.9 3.1 8.5-18 1.6 2.9 4.5 7.5-2 4.1 2.9-4.3 8.3z"/><path id="path1094" class="s2" d="m500.6 404.7 1.7 10.4-11 13.7-6.5 27.7-18.5 9.6.2 5-13.2 23.6-9.3 1.4-3.9-4.5 1-12.3 10-9.2-1.1-6.2-.7-3.9-3.3-1.7-1.1-4.2h-6l-1.7-7.3 2.2-3.7-4-7.5h-3.9l-1.8-6.9-12.5-4-3.3-7.6-9.8 4.8-.5.1-7.5-4.1-6-8.1 4.3-7.5 4.5-1.6 3.1-2.9.1-.5-.5-9.4 7.3-5.9 4.6 4.2 7-4.5-3-6.4 4.1 1 7.2-3.3.4.3 2 3.7-1 3.9 3.5 3.7 6.8-2.4.7-.2 5.8-2.2.3.5 2 2.7 5-5.1 6 8.9 26.8 9.3z"/><path id="path1096" class="s3" d="m496.7 29.5-1.6 9.1-7.8 2.2-.5 2.9-16.5 9.5-5.9.3-5.8 8.5-1.1.8-13.2 9.9 1.6 4-7.4 4-4.1-3.7-6.7 1-6.9-2.9.3-3.4 4.6-2.2 8.6-3.6-2.2-4.6 3.5-4.8 5.2-.8 1.1-9.5 2.6-3.7 6.8 2.7h6.2l1.5-2.4-10.7-1.1-6.1-5.4 3.2-9.8 18-5.7 19.5 1.1z"/><path id="path1098" class="s3" d="m458.2 226 4.4 7.3-2.1 5.6-3.1-1.6v-2.4h-4.2l-9.1-1.2 6.3-11.2 5.7-1.4-2.7 3.8z"/><path id="path1100" class="s3" d="m445.7 134.4 12.9 14.2-8.9 8.7-2.7-2.2-3.9-7.8-2.7 2 4.8 8.5 1.4 7.9-4 1.4-7.6-6.2 4.9 9.1-1.5 1.8-11.4-9.4-2-6.2-9.8-.4-1.2-3.4 2.7-2.4h9.3v-2.7l6.4-4.7 1.3-5.3-9-16.3-4.5 5.9-17.1-8.7-1.6-8.9 11-14.4 7.7.5 8.1 1.2 7.2 2.5.9 6.7 6.1 8.6 7.4 16.8z"/><path id="path1102" class="s3" d="m440.8 178.5 16.8 37.6-8.4 3.9-.7.3-4.7 3.7-16.8-1 3 13 9.5 1.1-1.6 6.2-14.5 2-2.6-10.8h-4.7L410 242h-9.9l-4.5 2.5-7.8 1.3-1.9-3.8-1.4-6-9.5-2.3-3.6-7.7-4.5-1.3-5.3 3.3-95-13.2-5.5-27.1-7.6-30.1-7.5-5 35.3-62.7 4.6 3.9 6.2 9.4 22.3-8.7 19.9 17.8v6.5l14.5 1.6 9.2.9 8 3.5 11.6 5 26.2-4.5 10.6 5.9-9 12.3-6.6-3.3-32.5 28.6.2 17.2 22.6 12.2-1.7 12.3 5.5 6.3 3.4-4.1-.3-13.6 9.4-4.5v-12.9l5.1-16.7 17.4 7.8v11.8l3.2 3.7z"/><path id="path1104" class="s4" d="m449.3 370.3 5 7.6-5 5.1-2-2.7-.3-.5-.3-5.5z"/><path id="path1106" class="s3" d="m450 463.9 1.1 6.2-10 9.2-1 12.3 3.9 4.5 2.4 6.4-4.1 6.2-10 1.3-4.4 33.3-7.9 11.9 2.7 5.4H415l-5.5-8.5 1.7-13.8-5.8-21.5 1.9-5.6-1-4.4 2.4-13.4-1.7-9 1.8-21.6 3.1-2 2.6-6.9h10.8l5.7 6.3 9 2.8-2.2 7.2 7.6.9 4.6-7.2z"/><path id="path1108" class="s5" d="m449.3 460 .7 3.9-4.6 7.2-7.6-.9 2.2-7.2-9-2.8-5.7-6.3 1.1-7.1 7.2-2.5 3.6 2.5 1.7 7.3h6l1.1 4.2z"/><path id="path1110" class="s5" d="m449.3 370.3-2.6 4 .3 5.5-5.8 2.2-.7.2-3.5-7.9 1.6-4z"/><path id="path1112" class="s3" d="m442.2 41.1-2.3 4.6-1.5 7.9h-5l-4.2 6.7-5.7-1.3-1.1-5.3 3.5-4 2.5.1v-1.4l-3.8-1.1 3-7.3 2.4-.8 3.4-6.6 2.5.6 1.2-2.9 2.1 1.5.3 8.2z"/><path id="path1114" class="s6" d="m437 374.3 3.5 7.9-6.8 2.4-3.5-3.7 1-3.9-2-3.7-.4-.3-1.1-4.4 3.5-6.1 7.4 7.8z"/><path id="path1116" class="s6" d="m435.4 435.6 4 7.5-2.2 3.7-3.6-2.5-7.2 2.5-1.1 7.1h-10.8l-2.6 6.9-3.1 2-1.8 21.6 1.7 9-2.4 13.4 1 4.4-1.9 5.6 5.8 21.5-1.7 13.8-5.1 2.2-3.6-8.6-2.3-39.2 3.9-63.4 4.1-5.3-1.9-4.1-1-11.7.5-.1 9.8-4.8 3.3 7.6 12.5 4 1.8 6.9z"/><path id="path1118" class="s3" d="m436 84.2.6 4.6-6.1 3.4-14-2.8-7.1-4.6.9-5 2.6-2.5v-4.2l-5.1-1.4.8-6.5 5.8-.6.3 4.7 6.4 2.4-.3 3.4-3.6 1.2 4.6 5.6 6.1-.4 3.1-.2z"/><path id="path1120" class="s3" d="m434.4 572.1-3.4 1.7-5.2-1-1.3-2.5 1.3-3.5z"/><path id="path1122" class="s5" d="m432.7 347.8.9 1.6-1.4 1.2-.9-1.8z"/><path id="path1124" class="s5" d="M431.9 354.7v2.3l-2.3.4-.4-2z"/><path id="path1126" class="s3" d="m426.1 357.2 5.1 5.3-3.5 6.1 1.1 4.4-7.2 3.3-4.1-1 3 6.4-7 4.5-4.6-4.2-1.2-12.7-11.4-3.2-3.7-6.3 5.4-5.3.4-3.9z"/><path id="path1128" class="s5" d="m431 573.8-4.1 2.2-15.4-5.3-7.1-16.4 5.1-2.2 5.5 8.5h7.7l3.1 6.2-1.3 3.5 1.3 2.5z"/><path id="path1130" class="s5" d="m425.7 336 .8 1.5-1.7.3-.9-1.3z"/><path id="path1132" class="s7" d="m420.8 234.5 2.6 10.8-11.4 1.5-2-4.8 6.1-7.5z"/><path id="path1134" class="s5" d="m423.1 333.2.2 2h-1.8l-.2-1.7z"/><path id="path1136" class="s3" d="M418.4 54.9V59h-5.8v-4.3l2.8-4.9z"/><path id="path1138" class="s5" d="M415.1 333v2.3l-4.5.5v-2.1l.9-.7z"/><path id="path1140" fill-rule="evenodd" class="s7" d="m410 242 2 4.8-2 9.2-8.9 2-9.8 20.5-16.9 12.7 2 15.5.2 1.6-3.5 4.5-8-17.3-30.6 1.7-8.2 11.1-7.9-12.6-3.6-.4-4 3.3-7.9-10.3h-14l-9.4-6.1-6.7-.6-7.7-4.9-6.6-26.4 9.3-29.8-1.2-5.7 95 13.2-7.3 4.6 4.6 1.6 7.2-2.5 1.8 4.1-5.8 10.5 1.2 6.9 4-3 5.3-12.1 3.8 1.7 2 7.3 7.5-5.1 1.9 3.8-1.3 2 7.4 1 1.7-4.3 4.5-2.5zm-31.5 13.1 10.4-4.5-3-1-9.2 2.1-1.2 1.5z"/><path id="path1142" class="s3" d="m411.2 44.1-.4 7.6-3.6 6.9-2.5-2.9.8-2.1s-4.9-4.8-4.7-4.9c.1-.1 5.6-9 5.6-9z"/><path id="path1144" class="s3" d="m409.4 92.4-7.1 7.9-4.8 1.1-2.1 3.4-2.9-1.9 2.6-9.8 5-5z"/><path id="path1146" class="s6" d="m407.7 369.3 1.2 12.7-7.3 5.9.5 9.4-9.1-2.3-5-6.2-1.7-.7-10.5-4.4 4.5-6.5-1.9-11.1 4.7-2.1 15.3-13.4-.4 3.9-5.4 5.3 3.7 6.3z"/><path id="path1148" class="s3" d="M407.4 330.8v3.2l-5.7-.3-3.8 1.8-1.3-1.5 1.4-3-.3-2 4.4-.8z"/><path id="path1150" class="s3" d="m404.6 433.7 1.9 4.1-4.1 5.3-20.5-13.5-10.7-30.1 3.7 2.8 4.1-4.1 7.1-6.1v-3.5l.2-.5 1.7.7 5 6.2 9.1 2.3-.1.5-3.1 2.9-4.5 1.6-4.3 7.5 6 8.1 7.5 4.1z"/><path id="path1152" class="s3" d="m405.5 68.8-6.9 11.9-6.6-2.4.5-3.3 4-.4.5-1.2-7.5-1.2 1.1-9.4 9.1.3z"/><path id="path1154" class="s2" d="m397.7 329 .3 2-1.4 3-5 .7-1.3-2.1 5-.9.4-1-2.1-1.7 2.1-1 1.8 1h.2z"/><path id="path1156" class="s0" d="m395.6 244.5-1.7 4.3-7.4-1 1.3-2z"/><path id="path1158" class="s3" d="m395.4 104.8-.9 1.4.6 10.1-5.1 4.1-6.5-4.7.7-6.4 8.3-6.4z"/><path id="path1160" class="s3" d="m394.3 85.8.8 4.9-3 2.2-.8 8.1-8.3 4.8-4.5-13 2.8-2.8 3 4.3.7-6.8z"/><path id="path1162" class="s3" d="m394.2 41.5-3.7 5.8-5.7-2.4 1.7-4z"/><path id="path1164" class="s5" d="m391.6 326.8-5 2.9-4.3-1.8-1.1-2.4-8.9-4.7-8.9 1-.4-1.7 7.9-3.2 1.7.2 3.9.6z"/><path id="path1166" class="s3" d="m389.5 49.1-6.2 5.7-5.2-4.1 1.5-4z"/><path id="path1168" class="s0" d="m388.9 250.6-10.4 4.5-3-1.9 1.1-1.5 9.3-2.1z"/><path id="path1170" class="s3" d="m387.5 311.5-1 1.5-1.1-.9.4-1.4z"/><path id="path1172" class="s3" d="m384.4 64.9 2.1 5-5.6 5.9-8.9-2.2-3.4 2.7-6-1.6-4.5-8.6 5.4-5.1 7.5-3.4 1.7 9.7 3.9.4.3-6 2.2-2.9 3.9 1.5-1.2 4.5z"/><path id="path1174" class="s5" d="m386.3 388.1-.2.5v3.5l-7.1 6.1-4.1 4.1-3.7-2.8-2.2-6 6.8-9.8z"/><path id="path1176" class="s0" d="m384.5 236 1.4 6-7.5 5.1-2-7.3-3.8-1.7-5.3 12.1-4 3-1.2-6.9 5.8-10.5-1.8-4.1-7.2 2.5-4.6-1.6 7.3-4.6 5.3-3.3 4.5 1.3 3.6 7.7z"/><path id="path1178" class="s3" d="m383.6 305.5 1.8 2.1-1.1 1.5-1.5-2-2.2 1.2-1-2z"/><path id="path1180" class="s4" d="m385 334.1-3.2 1.4-3.1-2.3 4.1-.6z"/><path id="path1182" class="s5" d="m378.3 358.6 4.8 5.4-4.7 2.1-2.5-2.9-5.9 1.8-2.3-1.2-3.4-1.7 5.2-1.9z"/><path id="path1184" class="s3" d="m373.2 91.5-4.6 12.1 3 9.4-3.2 6.4-11.4-6-7.7 2.4-7.7-1.3-4.1-4.9-2.1-2.5.7-4.8 10.4 3 1.6-1.5-10.8-4.6.3-5.4 17.3-11.3 8.1 4.6-1.2 9.4 1.7.3 3.8-10.6z"/><path id="path1186" class="s3" d="m372.3 47.1-2.8 8.7-6.4 1.8-1.9-2.2L357 59l-5.5-3.4.3-2.5 15.4-5.8z"/><path id="path1188" class="s4" d="m369.5 360.2-5.2 1.9-8-4.1-1.4-2.8 8.1.5z"/><path id="path1190" class="s5" d="m364.9 346.3-1.9 9.4-8.1-.5-3-6.2 11-4.9c1.1 1.2 2 2.2 2 2.2z"/><path id="path1192" class="s2" d="m362.9 344.1-11 4.9-6.4-2.7 3-6.7.3-.5s9.7-.6 10 0c.1.4 2.3 3 4.1 5z"/><path id="path1194" class="s3" d="m356.6 324.1-4.9 9.4-3.7 1.1-5.2.4-1-2.9 3.8-8.1z"/><path id="path1196" class="s3" d="m353.5 73.5.5 4.9-10.2 4.6-8.3 8-7 .5-2-7.2 11.1-10.5 1-3.9z"/><path id="path1198" class="s4" d="m351.7 333.5-2.9 5.6-.3.5-.1-.1-.4-4.9z"/><path id="path1200" class="s6" d="m348.5 339.6-3 6.7-6.7-2.9 4.7-3.9-1.7-2.2 1-2.3 5.2-.4.4 4.9z"/><path id="path1202" class="s3" d="m341.8 337.3 1.7 2.2-4.7 3.9-7.5-3.2-3.9 1.9-25.4-13.5 1.3-5.5-20.8-34.3-3.7-1.7.6 5.9 11.2 22.5-3.5.2-11.3-14.7-3-19.4 6.7.6 9.4 6.1h14l7.9 10.3 4-3.3 3.6.4 7.9 12.6-1.9 13.8 6 10h11.4l1 2.9z"/><path id="path1204" class="s7" d="M281.3 89.9 246 152.6l-18.7-12.5-14.2 7.6-.6 5.6-25.1 14.4-27.3 8.1V173l36.7-16.7 3.1-7.5-7.8-3.6-3-18.6 10.2-9.3h11.2l2.9-9-12.1.8-.7-10.5 12.8-4 3.6 5.7 7-1.7-6.6-18.9 37-12.9z"/></g><g id="g1330"><path id="path1208" class="s12" d="m246 152.6 35.3-62.7"/><path id="path1210" class="s12" d="m266.6 214.8 95 13.2"/><path id="path1212" class="s12" d="m385.9 242 1.9 3.8"/><path id="path1214" class="s12" d="m395.6 244.5 4.5-2.5h9.9l6.1-7.5h4.7l2.6 10.8"/><path id="path1216" class="s12" d="m272.8 281.6 6.7.6 9.4 6.1h14l7.9 10.3 4-3.3 3.6.4 7.9 12.6"/><path id="path1218" class="s12" d="m338.8 343.4 4.7-3.9-1.7-2.2 1-2.3 5.2-.4.4 4.9"/><path id="path1220" class="s12" d="m348 334.6 3.7-1.1"/><path id="path1222" class="s12" d="m345.5 346.3 3-6.7.3-.5"/><path id="path1224" class="s12" d="m351.9 349 11-4.9"/><path id="path1226" class="s12" d="m354.9 355.2 8.1.5"/><path id="path1228" class="s12" d="m369.5 360.2-5.2 1.9"/><path id="path1230" class="s12" d="m378.4 366.1 4.7-2.1"/><path id="path1232" class="s12" d="m398.4 350.6-.4 3.9-5.4 5.3 3.7 6.3 11.4 3.2 1.2 12.7-7.3 5.9.5 9.4-9.1-2.3-5-6.2-1.7-.7-10.5-4.4"/><path id="path1234" class="s12" d="M386.1 388.6v3.5l-7.1 6.1-4.1 4.1-3.7-2.8"/><path id="path1236" class="s12" d="m402 397.8-3.1 2.9-4.5 1.6-4.3 7.5 6 8.1 7.5 4.1 1 11.7 1.9 4.1-4.1 5.3"/><path id="path1238" class="s12" d="m404.1 421.9 9.8-4.8 3.3 7.6 12.5 4 1.8 6.9h3.9l4 7.5-2.2 3.7-3.6-2.5-7.2 2.5-1.1 7.1h-10.8l-2.6 6.9-3.1 2-1.8 21.6 1.7 9-2.4 13.4 1 4.4-1.9 5.6 5.8 21.5-1.7 13.8 5.5 8.5h7.7"/><path id="path1240" class="s12" d="m425.8 566.8-1.3 3.5 1.3 2.5 5.2 1"/><path id="path1242" class="s12" d="m444 496.1-3.9-4.5 1-12.3 10-9.2-1.1-6.2-.7-3.9-3.3-1.7-1.1-4.2h-6l-1.7-7.3"/><path id="path1244" class="s12" d="m425.3 453.9 5.7 6.3 9 2.8-2.2 7.2 7.6.9 4.6-7.2"/><path id="path1246" class="s12" d="m408.9 382 4.6 4.2 7-4.5-3-6.4 4.1 1 7.2-3.3-1.1-4.4 3.5-6.1"/><path id="path1248" class="s12" d="m429.2 373.3 2 3.7-1 3.9 3.5 3.7 6.8-2.4-3.5-7.9 1.6-4"/><path id="path1250" class="s12" d="m441.2 382 5.8-2.2-.3-5.5 2.6-4"/><path id="path1252" class="s12" d="m447.3 380.3 2 2.7 5-5.1"/><path id="path1254" class="s12" d="m378.4 366.1-2.5-2.9-5.9 1.8-2.3-1.2-3.4-1.7-8-4.1-1.4-2.8-3-6.2-6.4-2.7-6.7-2.9-7.5-3.2-3.9 1.9-25.4-13.5 1.3-5.5-20.8-34.3-3.7-1.7.6 5.9 11.2 22.5-3.5.2-11.3-14.7-3-19.4-7.7-4.9-6.6-26.4 9.3-29.8-1.2-5.7-5.5-27.1-7.6-30.1-7.5-5-18.7-12.5-14.2 7.6-.6 5.6-25.1 14.4-27.3 8.1V173l36.7-16.7 3.1-7.5-7.8-3.6-3-18.6 10.2-9.3h11.2l2.9-9-12.1.8-.7-10.5 12.8-4 3.6 5.7 7-1.7-6.6-18.9 37-12.9 26.9 23.1 4.6 3.9 6.2 9.4 22.3-8.7 19.9 17.8v6.5l14.5 1.6 9.2.9 8 3.5 11.6 5 26.2-4.5 10.6 5.9-9 12.3-6.6-3.3-32.5 28.6.2 17.2 22.6 12.2-1.7 12.3 5.5 6.3 3.4-4.1-.3-13.6 9.4-4.5v-12.9l5.1-16.7 17.4 7.8v11.8l3.2 3.7 9.7-9.8 16.8 37.6-8.4 3.9-.7.3-4.7 3.7-16.8-1 3 13 9.5 1.1-1.6 6.2-14.5 2-11.4 1.5-2 9.2-8.9 2-9.8 20.5-16.9 12.7 2 15.5.2 1.6-3.5 4.5-8-17.3-30.6 1.7-8.2 11.1-1.9 13.8 6 10h11.4l3.8-8.1 11 .1-4.9 9.4-2.9 5.6s9.7-.6 10 0c.1.4 2.3 3 4.1 5 1.1 1.2 2 2.2 2 2.2l-1.9 9.4 6.5 4.5 8.8-1.6 4.8 5.4 15.3-13.4 27.7 6.6 5.1 5.3 7.4 7.8h10.7l5 7.6 6 8.9 26.8 9.3 13.5 8.6 1.7 10.4-11 13.7-6.5 27.7-18.5 9.6.2 5-13.2 23.6-9.3 1.4 2.4 6.4-4.1 6.2-10 1.3-4.4 33.3-7.9 11.9 2.7 5.4 3.1 6.2 8.6 5.3-3.4 1.7-4.1 2.2-15.4-5.3-7.1-16.4-3.6-8.6-2.3-39.2 3.9-63.4-20.5-13.5-10.7-30.1-2.2-6 6.8-9.8 4.5-6.5z"/><path id="path1256" class="s12" d="m326.5 84.3 2 7.2 7-.5 8.3-8 10.2-4.6-.5-4.9-14.9-3.6-1 3.9z"/><path id="path1258" class="s12" d="m368.4 119.4 3.2-6.4-3-9.4 4.6-12.1-5.9-5.3-3.8 10.6-1.7-.3 1.2-9.4-8.1-4.6-17.3 11.3-.3 5.4 10.8 4.6-1.6 1.5-10.4-3-.7 4.8 2.1 2.5 4.1 4.9 7.7 1.3 7.7-2.4z"/><path id="path1260" class="s12" d="m376.6 67.7-3.9-.4-1.7-9.7-7.5 3.4-5.4 5.1 4.5 8.6 6 1.6 3.4-2.7 8.9 2.2 5.6-5.9-2.1-5-2.6-.1 1.2-4.5-3.9-1.5-2.2 2.9z"/><path id="path1262" class="s12" d="m394.3 85.8-9.3 1.7-.7 6.8-3-4.3-2.8 2.8 4.5 13 8.3-4.8.8-8.1 3-2.2z"/><path id="path1264" class="s12" d="m390.6 62.8-1.1 9.4 7.5 1.2-.5 1.2-4 .4-.5 3.3 6.6 2.4 6.9-11.9-5.8-5.7z"/><path id="path1266" class="s12" d="m392.5 102.9 2.6-9.8 5-5 9.3 4.3-7.1 7.9-4.8 1.1-2.1 3.4-.9 1.4.6 10.1-5.1 4.1-6.5-4.7.7-6.4z"/><path id="path1268" class="s12" d="m420.2 95.4-7.7-.5-11 14.4 1.6 8.9 17.1 8.7 4.5-5.9 9 16.3-1.3 5.3-6.4 4.7v2.7h-9.3l-2.7 2.4 1.2 3.4 9.8.4 2 6.2 11.4 9.4 1.5-1.8-4.9-9.1 7.6 6.2 4-1.4-1.4-7.9-4.8-8.5 2.7-2 3.9 7.8 2.7 2.2 8.9-8.7-12.9-14.2 4.2-3.2-7.4-16.8-6.1-8.6-.9-6.7-7.2-2.5z"/><path id="path1270" class="s12" d="m421.1 71.7-6.4-2.4-.3-4.7-5.8.6-.8 6.5 5.1 1.4v4.2l-2.6 2.5-.9 5 7.1 4.6 14 2.8 6.1-3.4-.6-4.6-5-2.9-3.1.2-6.1.4-4.6-5.6 3.6-1.2 6.9 2.9 6.7-1 4.1 3.7 7.4-4-1.6-4 13.2-9.9 1.1-.8 5.8-8.5 5.9-.3 16.5-9.5.5-2.9 7.8-2.2 1.6-9.1-13.8-7.6-19.5-1.1-18 5.7-3.2 9.8 6.1 5.4 10.7 1.1-1.5 2.4h-6.2l-6.8-2.7-2.6 3.7-1.1 9.5-5.2.8-3.5 4.8 2.2 4.6-8.6 3.6z"/><path id="path1272" class="s12" d="m424.6 47.3 3-7.3 2.4-.8 3.4-6.6 2.5.6 1.2-2.9 2.1 1.5.3 8.2 2.7 1.1-2.3 4.6-1.5 7.9h-5l-4.2 6.7-5.7-1.3-1.1-5.3 3.5-4 2.5.1v-1.4z"/><path id="path1274" class="s12" d="M406.4 39.7s-5.5 8.9-5.6 9c-.2.1 4.7 4.9 4.7 4.9l-.8 2.1 2.5 2.9 3.6-6.9.4-7.6z"/><path id="path1276" class="s12" d="m415.4 49.8-2.8 4.9V59h5.8v-4.1z"/><path id="path1278" class="s12" d="m389.5 49.1-6.2 5.7-5.2-4.1 1.5-4z"/><path id="path1280" class="s12" d="m386.5 40.9-1.7 4 5.7 2.4 3.7-5.8z"/><path id="path1282" class="s12" d="m372.3 47.1-2.8 8.7-6.4 1.8-1.9-2.2L357 59l-5.5-3.4.3-2.5 15.4-5.8z"/><path id="path1284" class="s12" d="m498.8 43.1-24.9 20.4-13.4 3.4.9 18.9 20.3 6.4 1.3 29.5 5.2 6.5-3 12-6.7 4.5.4 27.1 12.8 13.4 15.5-26.5 13.5-3.4 8.5-11.3 14.5-1.7 9.8-13-3.3-15.1 13-6.9-2-21 6.7-15.3L580 58l-6.8-7.3-15 8.3 4.3-8.3-4.1-2.9-7.5 2-2.9-4.5 18-1.6-3.1-8.5-23.5-4.9-14 2.7-2.2 14-9.3-3-2.5-8.2-12.5 7.2z"/><path id="path1286" class="s12" d="m385.9 242-1.4-6-9.5-2.3-3.6-7.7-4.5-1.3-5.3 3.3-7.3 4.6 4.6 1.6 7.2-2.5 1.8 4.1-5.8 10.5 1.2 6.9 4-3 5.3-12.1 3.8 1.7 2 7.3z"/><path id="path1288" class="s12" d="m395.6 244.5-7.8 1.3-1.3 2 7.4 1z"/><path id="path1290" class="s12" d="m388.9 250.6-3-1-9.3 2.1-1.1 1.5 3 1.9z"/><path id="path1292" class="s12" d="m444.1 233.7 9.1 1.2h4.2v2.4l3.1 1.6 2.1-5.6-4.4-7.3-4.8-1.1 2.7-3.8-5.7 1.4z"/><path id="path1294" class="s12" d="m391.6 326.8-5 2.9-4.3-1.8-1.1-2.4-8.9-4.7-8.9 1-.4-1.7 7.9-3.2 1.7.2 3.9.6z"/><path id="path1296" class="s12" d="m378.7 333.2 4.1-.6 2.2 1.5-3.2 1.4z"/><path id="path1298" class="s12" d="m379.6 306.3 4-.8 1.8 2.1-1.1 1.5-1.5-2-2.2 1.2z"/><path id="path1300" class="s12" d="m385.8 310.7-.4 1.4 1.1.9 1-1.5z"/><path id="path1302" class="s12" d="m389 313.7-1.3 1.1 1.3 2.1.6-1z"/><path id="path1304" class="s12" d="m381.8 312.4-.9.6.5 1.4 2.1-.2z"/><path id="path1306" class="s12" d="m391.4 320.2 1.7-1-1.5-1-1.1.8z"/><path id="path1308" class="s12" d="M397.7 329h-.2l-1.8-1-2.1 1 2.1 1.7-.4 1-5 .9 1.3 2.1 5-.7 1.3 1.5 3.8-1.8 5.7.3v-3.2l-5.3-2.6z"/><path id="path1310" class="s12" d="M415.1 333h-3.6l-.9.7v2.1l4.5-.5z"/><path id="path1312" class="s12" d="m423.1 333.2-1.8.3.2 1.7h1.8z"/><path id="path1314" class="s12" d="m425.7 336-1.8.5.9 1.3 1.7-.3z"/><path id="path1316" class="s12" d="m427.7 338.6-1.4 1.1.5.9 1.8-1z"/><path id="path1318" class="s12" d="m427.5 342.3-.7 1.3.9 2.2 1.3-1z"/><path id="path1320" class="s12" d="m428.6 346.9-1.1.4.2 1.5 1.7-.5z"/><path id="path1322" class="s12" d="m432.7 347.8-1.4 1 .9 1.8 1.4-1.2z"/><path id="path1324" class="s12" d="m431.9 354.7-2.7.7.4 2 2.3-.4z"/><path id="path1326" class="s12" d="m393.9 324-1.4.6.9 1.2 1.8-.5z"/><path id="path1328" class="s12" d="m397.7 329 .3 2-1.4 3"/></g></g></g><g id="g1568"><g id="g1444"><path id="path1336" class="s2" d="M573.2 50.7 580 58l-12.1 13-6.7 15.3 2 21-13 6.9 3.3 15.1-9.8 13-14.5 1.7-8.5 11.3-13.5 3.4-15.5 26.5-12.8-13.4-.4-27.1 6.7-4.5 3-12-5.2-6.5-1.3-29.5-20.3-6.4-.9-18.9 13.4-3.4 24.9-20.4.1-.1 12.5-7.2 2.5 8.2 9.3 3 2.2-14 14-2.7 23.5 4.9 3.1 8.5-18 1.6 2.9 4.5 7.5-2 4.1 2.9-4.3 8.3z"/><path id="path1338" class="s2" d="m500.6 404.7 1.7 10.4-11 13.7-6.5 27.7-18.5 9.6.2 5-13.2 23.6-9.3 1.4-3.9-4.5 1-12.3 10-9.2-1.1-6.2-.7-3.9-3.3-1.7-1.1-4.2h-6l-1.7-7.3 2.2-3.7-4-7.5h-3.9l-1.8-6.9-12.5-4-3.3-7.6-9.8 4.8-.5.1-7.5-4.1-6-8.1 4.3-7.5 4.5-1.6 3.1-2.9.1-.5-.5-9.4 7.3-5.9 4.6 4.2 7-4.5-3-6.4 4.1 1 7.2-3.3.4.3 2 3.7-1 3.9 3.5 3.7 6.8-2.4.7-.2 5.8-2.2.3.5 2 2.7 5-5.1 6 8.9 26.8 9.3z"/><path id="path1340" class="s3" d="m496.7 29.5-1.6 9.1-7.8 2.2-.5 2.9-16.5 9.5-5.9.3-5.8 8.5-1.1.8-13.2 9.9 1.6 4-7.4 4-4.1-3.7-6.7 1-6.9-2.9.3-3.4 4.6-2.2 8.6-3.6-2.2-4.6 3.5-4.8 5.2-.8 1.1-9.5 2.6-3.7 6.8 2.7h6.2l1.5-2.4-10.7-1.1-6.1-5.4 3.2-9.8 18-5.7 19.5 1.1z"/><path id="path1342" class="s3" d="m458.2 226 4.4 7.3-2.1 5.6-3.1-1.6v-2.4h-4.2l-9.1-1.2 6.3-11.2 5.7-1.4-2.7 3.8z"/><path id="path1344" class="s3" d="m445.7 134.4 12.9 14.2-8.9 8.7-2.7-2.2-3.9-7.8-2.7 2 4.8 8.5 1.4 7.9-4 1.4-7.6-6.2 4.9 9.1-1.5 1.8-11.4-9.4-2-6.2-9.8-.4-1.2-3.4 2.7-2.4h9.3v-2.7l6.4-4.7 1.3-5.3-9-16.3-4.5 5.9-17.1-8.7-1.6-8.9 11-14.4 7.7.5 8.1 1.2 7.2 2.5.9 6.7 6.1 8.6 7.4 16.8z"/><path id="path1346" class="s3" d="m440.8 178.5 16.8 37.6-8.4 3.9-.7.3-4.7 3.7-16.8-1 3 13 9.5 1.1-1.6 6.2-14.5 2-2.6-10.8h-4.7L410 242h-9.9l-4.5 2.5-7.8 1.3-1.9-3.8-1.4-6-9.5-2.3-3.6-7.7-4.5-1.3-5.3 3.3-95-13.2-5.5-27.1-7.6-30.1-7.5-5 35.3-62.7 4.6 3.9 6.2 9.4 22.3-8.7 19.9 17.8v6.5l14.5 1.6 9.2.9 8 3.5 11.6 5 26.2-4.5 10.6 5.9-9 12.3-6.6-3.3-32.5 28.6.2 17.2 22.6 12.2-1.7 12.3 5.5 6.3 3.4-4.1-.3-13.6 9.4-4.5v-12.9l5.1-16.7 17.4 7.8v11.8l3.2 3.7z"/><path id="path1348" class="s4" d="m449.3 370.3 5 7.6-5 5.1-2-2.7-.3-.5-.3-5.5z"/><path id="path1350" class="s3" d="m450 463.9 1.1 6.2-10 9.2-1 12.3 3.9 4.5 2.4 6.4-4.1 6.2-10 1.3-4.4 33.3-7.9 11.9 2.7 5.4H415l-5.5-8.5 1.7-13.8-5.8-21.5 1.9-5.6-1-4.4 2.4-13.4-1.7-9 1.8-21.6 3.1-2 2.6-6.9h10.8l5.7 6.3 9 2.8-2.2 7.2 7.6.9 4.6-7.2z"/><path id="path1352" class="s5" d="m449.3 460 .7 3.9-4.6 7.2-7.6-.9 2.2-7.2-9-2.8-5.7-6.3 1.1-7.1 7.2-2.5 3.6 2.5 1.7 7.3h6l1.1 4.2z"/><path id="path1354" class="s5" d="m449.3 370.3-2.6 4 .3 5.5-5.8 2.2-.7.2-3.5-7.9 1.6-4z"/><path id="path1356" class="s3" d="m442.2 41.1-2.3 4.6-1.5 7.9h-5l-4.2 6.7-5.7-1.3-1.1-5.3 3.5-4 2.5.1v-1.4l-3.8-1.1 3-7.3 2.4-.8 3.4-6.6 2.5.6 1.2-2.9 2.1 1.5.3 8.2z"/><path id="path1358" class="s6" d="m437 374.3 3.5 7.9-6.8 2.4-3.5-3.7 1-3.9-2-3.7-.4-.3-1.1-4.4 3.5-6.1 7.4 7.8z"/><path id="path1360" class="s6" d="m435.4 435.6 4 7.5-2.2 3.7-3.6-2.5-7.2 2.5-1.1 7.1h-10.8l-2.6 6.9-3.1 2-1.8 21.6 1.7 9-2.4 13.4 1 4.4-1.9 5.6 5.8 21.5-1.7 13.8-5.1 2.2-3.6-8.6-2.3-39.2 3.9-63.4 4.1-5.3-1.9-4.1-1-11.7.5-.1 9.8-4.8 3.3 7.6 12.5 4 1.8 6.9z"/><path id="path1362" class="s3" d="m436 84.2.6 4.6-6.1 3.4-14-2.8-7.1-4.6.9-5 2.6-2.5v-4.2l-5.1-1.4.8-6.5 5.8-.6.3 4.7 6.4 2.4-.3 3.4-3.6 1.2 4.6 5.6 6.1-.4 3.1-.2z"/><path id="path1364" class="s3" d="m434.4 572.1-3.4 1.7-5.2-1-1.3-2.5 1.3-3.5z"/><path id="path1366" class="s5" d="m432.7 347.8.9 1.6-1.4 1.2-.9-1.8z"/><path id="path1368" class="s5" d="M431.9 354.7v2.3l-2.3.4-.4-2z"/><path id="path1370" class="s3" d="m426.1 357.2 5.1 5.3-3.5 6.1 1.1 4.4-7.2 3.3-4.1-1 3 6.4-7 4.5-4.6-4.2-1.2-12.7-11.4-3.2-3.7-6.3 5.4-5.3.4-3.9z"/><path id="path1372" class="s5" d="m431 573.8-4.1 2.2-15.4-5.3-7.1-16.4 5.1-2.2 5.5 8.5h7.7l3.1 6.2-1.3 3.5 1.3 2.5z"/><path id="path1374" class="s5" d="m425.7 336 .8 1.5-1.7.3-.9-1.3z"/><path id="path1376" class="s7" d="m420.8 234.5 2.6 10.8-11.4 1.5-2-4.8 6.1-7.5z"/><path id="path1378" class="s5" d="m423.1 333.2.2 2h-1.8l-.2-1.7z"/><path id="path1380" class="s3" d="M418.4 54.9V59h-5.8v-4.3l2.8-4.9z"/><path id="path1382" class="s5" d="M415.1 333v2.3l-4.5.5v-2.1l.9-.7z"/><path id="path1384" fill-rule="evenodd" class="s7" d="m410 242 2 4.8-2 9.2-8.9 2-9.8 20.5-16.9 12.7 2 15.5.2 1.6-3.5 4.5-8-17.3-30.6 1.7-8.2 11.1-7.9-12.6-3.6-.4-4 3.3-7.9-10.3h-14l-9.4-6.1-6.7-.6-7.7-4.9-6.6-26.4 9.3-29.8-1.2-5.7 95 13.2-7.3 4.6 4.6 1.6 7.2-2.5 1.8 4.1-5.8 10.5 1.2 6.9 4-3 5.3-12.1 3.8 1.7 2 7.3 7.5-5.1 1.9 3.8-1.3 2 7.4 1 1.7-4.3 4.5-2.5zm-31.5 13.1 10.4-4.5-3-1-9.2 2.1-1.2 1.5z"/><path id="path1386" class="s3" d="m411.2 44.1-.4 7.6-3.6 6.9-2.5-2.9.8-2.1s-4.9-4.8-4.7-4.9c.1-.1 5.6-9 5.6-9z"/><path id="path1388" class="s3" d="m409.4 92.4-7.1 7.9-4.8 1.1-2.1 3.4-2.9-1.9 2.6-9.8 5-5z"/><path id="path1390" class="s6" d="m407.7 369.3 1.2 12.7-7.3 5.9.5 9.4-9.1-2.3-5-6.2-1.7-.7-10.5-4.4 4.5-6.5-1.9-11.1 4.7-2.1 15.3-13.4-.4 3.9-5.4 5.3 3.7 6.3z"/><path id="path1392" class="s3" d="M407.4 330.8v3.2l-5.7-.3-3.8 1.8-1.3-1.5 1.4-3-.3-2 4.4-.8z"/><path id="path1394" class="s3" d="m404.6 433.7 1.9 4.1-4.1 5.3-20.5-13.5-10.7-30.1 3.7 2.8 4.1-4.1 7.1-6.1v-3.5l.2-.5 1.7.7 5 6.2 9.1 2.3-.1.5-3.1 2.9-4.5 1.6-4.3 7.5 6 8.1 7.5 4.1z"/><path id="path1396" class="s3" d="m405.5 68.8-6.9 11.9-6.6-2.4.5-3.3 4-.4.5-1.2-7.5-1.2 1.1-9.4 9.1.3z"/><path id="path1398" class="s2" d="m397.7 329 .3 2-1.4 3-5 .7-1.3-2.1 5-.9.4-1-2.1-1.7 2.1-1 1.8 1h.2z"/><path id="path1400" class="s3" d="m395.4 104.8-.9 1.4.6 10.1-5.1 4.1-6.5-4.7.7-6.4 8.3-6.4z"/><path id="path1402" class="s3" d="m394.3 85.8.8 4.9-3 2.2-.8 8.1-8.3 4.8-4.5-13 2.8-2.8 3 4.3.7-6.8z"/><path id="path1404" class="s3" d="m394.2 41.5-3.7 5.8-5.7-2.4 1.7-4z"/><path id="path1406" class="s5" d="m391.6 326.8-5 2.9-4.3-1.8-1.1-2.4-8.9-4.7-8.9 1-.4-1.7 7.9-3.2 1.7.2 3.9.6z"/><path id="path1408" class="s3" d="m389.5 49.1-6.2 5.7-5.2-4.1 1.5-4z"/><path id="path1410" class="s3" d="m387.5 311.5-1 1.5-1.1-.9.4-1.4z"/><path id="path1412" class="s3" d="m384.4 64.9 2.1 5-5.6 5.9-8.9-2.2-3.4 2.7-6-1.6-4.5-8.6 5.4-5.1 7.5-3.4 1.7 9.7 3.9.4.3-6 2.2-2.9 3.9 1.5-1.2 4.5z"/><path id="path1414" class="s5" d="m386.3 388.1-.2.5v3.5l-7.1 6.1-4.1 4.1-3.7-2.8-2.2-6 6.8-9.8z"/><path id="path1416" class="s3" d="m383.6 305.5 1.8 2.1-1.1 1.5-1.5-2-2.2 1.2-1-2z"/><path id="path1418" class="s4" d="m385 334.1-3.2 1.4-3.1-2.3 4.1-.6z"/><path id="path1420" class="s5" d="m378.3 358.6 4.8 5.4-4.7 2.1-2.5-2.9-5.9 1.8-2.3-1.2-3.4-1.7 5.2-1.9z"/><path id="path1422" class="s3" d="m373.2 91.5-4.6 12.1 3 9.4-3.2 6.4-11.4-6-7.7 2.4-7.7-1.3-4.1-4.9-2.1-2.5.7-4.8 10.4 3 1.6-1.5-10.8-4.6.3-5.4 17.3-11.3 8.1 4.6-1.2 9.4 1.7.3 3.8-10.6z"/><path id="path1424" class="s3" d="m372.3 47.1-2.8 8.7-6.4 1.8-1.9-2.2L357 59l-5.5-3.4.3-2.5 15.4-5.8z"/><path id="path1426" class="s4" d="m369.5 360.2-5.2 1.9-8-4.1-1.4-2.8 8.1.5z"/><path id="path1428" class="s5" d="m364.9 346.3-1.9 9.4-8.1-.5-3-6.2 11-4.9c1.1 1.2 2 2.2 2 2.2z"/><path id="path1430" class="s2" d="m362.9 344.1-11 4.9-6.4-2.7 3-6.7.3-.5s9.7-.6 10 0c.1.4 2.3 3 4.1 5z"/><path id="path1432" class="s3" d="m356.6 324.1-4.9 9.4-3.7 1.1-5.2.4-1-2.9 3.8-8.1z"/><path id="path1434" class="s3" d="m353.5 73.5.5 4.9-10.2 4.6-8.3 8-7 .5-2-7.2 11.1-10.5 1-3.9z"/><path id="path1436" class="s4" d="m351.7 333.5-2.9 5.6-.3.5-.1-.1-.4-4.9z"/><path id="path1438" class="s6" d="m348.5 339.6-3 6.7-6.7-2.9 4.7-3.9-1.7-2.2 1-2.3 5.2-.4.4 4.9z"/><path id="path1440" class="s3" d="m341.8 337.3 1.7 2.2-4.7 3.9-7.5-3.2-3.9 1.9-25.4-13.5 1.3-5.5-20.8-34.3-3.7-1.7.6 5.9 11.2 22.5-3.5.2-11.3-14.7-3-19.4 6.7.6 9.4 6.1h14l7.9 10.3 4-3.3 3.6.4 7.9 12.6-1.9 13.8 6 10h11.4l1 2.9z"/><path id="path1442" class="s7" d="M281.3 89.9 246 152.6l-18.7-12.5-14.2 7.6-.6 5.6-25.1 14.4-27.3 8.1V173l36.7-16.7 3.1-7.5-7.8-3.6-3-18.6 10.2-9.3h11.2l2.9-9-12.1.8-.7-10.5 12.8-4 3.6 5.7 7-1.7-6.6-18.9 37-12.9z"/></g><g id="g1566"><path id="path1446" class="s11" d="m246 152.6 35.3-62.7"/><path id="path1448" class="s11" d="m266.6 214.8 95 13.2"/><path id="path1450" class="s11" d="m385.9 242 1.9 3.8"/><path id="path1452" class="s11" d="m395.6 244.5 4.5-2.5h9.9l6.1-7.5h4.7l2.6 10.8"/><path id="path1454" class="s11" d="m272.8 281.6 6.7.6 9.4 6.1h14l7.9 10.3 4-3.3 3.6.4 7.9 12.6"/><path id="path1456" class="s11" d="m338.8 343.4 4.7-3.9-1.7-2.2 1-2.3 5.2-.4.4 4.9"/><path id="path1458" class="s11" d="m348 334.6 3.7-1.1"/><path id="path1460" class="s11" d="m354.9 355.2 8.1.5"/><path id="path1462" class="s11" d="m369.5 360.2-5.2 1.9"/><path id="path1464" class="s11" d="m378.4 366.1 4.7-2.1"/><path id="path1466" class="s12" d="m386.3 388.1-10.5-4.4"/><path id="path1468" class="s11" d="m398.4 350.6-.4 3.9-5.4 5.3 3.7 6.3 11.4 3.2 1.2 12.7-7.3 5.9.5 9.4-9.1-2.3-5-6.2-1.7-.7"/><path id="path1470" class="s11" d="M386.1 388.6v3.5l-7.1 6.1-4.1 4.1-3.7-2.8"/><path id="path1472" class="s11" d="m402 397.8-3.1 2.9-4.5 1.6-4.3 7.5 6 8.1 7.5 4.1 1 11.7 1.9 4.1-4.1 5.3"/><path id="path1474" class="s11" d="m404.1 421.9 9.8-4.8 3.3 7.6 12.5 4 1.8 6.9h3.9l4 7.5-2.2 3.7-3.6-2.5-7.2 2.5-1.1 7.1h-10.8l-2.6 6.9-3.1 2-1.8 21.6 1.7 9-2.4 13.4 1 4.4-1.9 5.6 5.8 21.5-1.7 13.8 5.5 8.5h7.7"/><path id="path1476" class="s11" d="m425.8 566.8-1.3 3.5 1.3 2.5 5.2 1"/><path id="path1478" class="s11" d="m444 496.1-3.9-4.5 1-12.3 10-9.2-1.1-6.2-.7-3.9-3.3-1.7-1.1-4.2h-6l-1.7-7.3"/><path id="path1480" class="s11" d="m425.3 453.9 5.7 6.3 9 2.8-2.2 7.2 7.6.9 4.6-7.2"/><path id="path1482" class="s11" d="m408.9 382 4.6 4.2 7-4.5-3-6.4 4.1 1 7.2-3.3-1.1-4.4 3.5-6.1"/><path id="path1484" class="s11" d="m429.2 373.3 2 3.7-1 3.9 3.5 3.7 6.8-2.4-3.5-7.9 1.6-4"/><path id="path1486" class="s11" d="m441.2 382 5.8-2.2-.3-5.5 2.6-4"/><path id="path1488" class="s11" d="m447.3 380.3 2 2.7 5-5.1"/><path id="path1490" class="s12" d="m378.4 366.1-2.5-2.9-5.9 1.8-2.3-1.2-3.4-1.7-8-4.1-1.4-2.8-3-6.2-6.4-2.7-6.7-2.9-7.5-3.2-3.9 1.9-25.4-13.5 1.3-5.5-20.8-34.3-3.7-1.7.6 5.9 11.2 22.5-3.5.2-11.3-14.7-3-19.4-7.7-4.9-6.6-26.4 9.3-29.8-1.2-5.7-5.5-27.1-7.6-30.1-7.5-5-18.7-12.5-14.2 7.6-.6 5.6-25.1 14.4-27.3 8.1V173l36.7-16.7 3.1-7.5-7.8-3.6-3-18.6 10.2-9.3h11.2l2.9-9-12.1.8-.7-10.5 12.8-4 3.6 5.7 7-1.7-6.6-18.9 37-12.9 26.9 23.1 4.6 3.9 6.2 9.4 22.3-8.7 19.9 17.8v6.5l14.5 1.6 9.2.9 8 3.5 11.6 5 26.2-4.5 10.6 5.9-9 12.3-6.6-3.3-32.5 28.6.2 17.2 22.6 12.2-1.7 12.3 5.5 6.3 3.4-4.1-.3-13.6 9.4-4.5v-12.9l5.1-16.7 17.4 7.8v11.8l3.2 3.7 9.7-9.8 16.8 37.6-8.4 3.9-.7.3-4.7 3.7-16.8-1 3 13 9.5 1.1-1.6 6.2-14.5 2-11.4 1.5-2 9.2-8.9 2-9.8 20.5-16.9 12.7 2 15.5.2 1.6-3.5 4.5-8-17.3-30.6 1.7-8.2 11.1-1.9 13.8 6 10h11.4l3.8-8.1 11 .1-4.9 9.4-2.9 5.6s9.7-.6 10 0c.1.4 2.3 3 4.1 5 1.1 1.2 2 2.2 2 2.2l-1.9 9.4 6.5 4.5 8.8-1.6 4.8 5.4 15.3-13.4 27.7 6.6 5.1 5.3 7.4 7.8h10.7l5 7.6 6 8.9 26.8 9.3 13.5 8.6 1.7 10.4-11 13.7-6.5 27.7-18.5 9.6.2 5-13.2 23.6-9.3 1.4 2.4 6.4-4.1 6.2-10 1.3-4.4 33.3-7.9 11.9 2.7 5.4 3.1 6.2 8.6 5.3-3.4 1.7-4.1 2.2-15.4-5.3-7.1-16.4-3.6-8.6-2.3-39.2 3.9-63.4-20.5-13.5-10.7-30.1-2.2-6 6.8-9.8 4.5-6.5z"/><path id="path1492" class="s12" d="m326.5 84.3 2 7.2 7-.5 8.3-8 10.2-4.6-.5-4.9-14.9-3.6-1 3.9z"/><path id="path1494" class="s12" d="m368.4 119.4 3.2-6.4-3-9.4 4.6-12.1-5.9-5.3-3.8 10.6-1.7-.3 1.2-9.4-8.1-4.6-17.3 11.3-.3 5.4 10.8 4.6-1.6 1.5-10.4-3-.7 4.8 2.1 2.5 4.1 4.9 7.7 1.3 7.7-2.4z"/><path id="path1496" class="s12" d="m376.6 67.7-3.9-.4-1.7-9.7-7.5 3.4-5.4 5.1 4.5 8.6 6 1.6 3.4-2.7 8.9 2.2 5.6-5.9-2.1-5-2.6-.1 1.2-4.5-3.9-1.5-2.2 2.9z"/><path id="path1498" class="s12" d="m394.3 85.8-9.3 1.7-.7 6.8-3-4.3-2.8 2.8 4.5 13 8.3-4.8.8-8.1 3-2.2z"/><path id="path1500" class="s12" d="m390.6 62.8-1.1 9.4 7.5 1.2-.5 1.2-4 .4-.5 3.3 6.6 2.4 6.9-11.9-5.8-5.7z"/><path id="path1502" class="s12" d="m392.5 102.9 2.6-9.8 5-5 9.3 4.3-7.1 7.9-4.8 1.1-2.1 3.4-.9 1.4.6 10.1-5.1 4.1-6.5-4.7.7-6.4z"/><path id="path1504" class="s12" d="m420.2 95.4-7.7-.5-11 14.4 1.6 8.9 17.1 8.7 4.5-5.9 9 16.3-1.3 5.3-6.4 4.7v2.7h-9.3l-2.7 2.4 1.2 3.4 9.8.4 2 6.2 11.4 9.4 1.5-1.8-4.9-9.1 7.6 6.2 4-1.4-1.4-7.9-4.8-8.5 2.7-2 3.9 7.8 2.7 2.2 8.9-8.7-12.9-14.2 4.2-3.2-7.4-16.8-6.1-8.6-.9-6.7-7.2-2.5z"/><path id="path1506" class="s12" d="m421.1 71.7-6.4-2.4-.3-4.7-5.8.6-.8 6.5 5.1 1.4v4.2l-2.6 2.5-.9 5 7.1 4.6 14 2.8 6.1-3.4-.6-4.6-5-2.9-3.1.2-6.1.4-4.6-5.6 3.6-1.2 6.9 2.9 6.7-1 4.1 3.7 7.4-4-1.6-4 13.2-9.9 1.1-.8 5.8-8.5 5.9-.3 16.5-9.5.5-2.9 7.8-2.2 1.6-9.1-13.8-7.6-19.5-1.1-18 5.7-3.2 9.8 6.1 5.4 10.7 1.1-1.5 2.4h-6.2l-6.8-2.7-2.6 3.7-1.1 9.5-5.2.8-3.5 4.8 2.2 4.6-8.6 3.6z"/><path id="path1508" class="s12" d="m424.6 47.3 3-7.3 2.4-.8 3.4-6.6 2.5.6 1.2-2.9 2.1 1.5.3 8.2 2.7 1.1-2.3 4.6-1.5 7.9h-5l-4.2 6.7-5.7-1.3-1.1-5.3 3.5-4 2.5.1v-1.4z"/><path id="path1510" class="s12" d="M406.4 39.7s-5.5 8.9-5.6 9c-.2.1 4.7 4.9 4.7 4.9l-.8 2.1 2.5 2.9 3.6-6.9.4-7.6z"/><path id="path1512" class="s12" d="m415.4 49.8-2.8 4.9V59h5.8v-4.1z"/><path id="path1514" class="s12" d="m389.5 49.1-6.2 5.7-5.2-4.1 1.5-4z"/><path id="path1516" class="s12" d="m386.5 40.9-1.7 4 5.7 2.4 3.7-5.8z"/><path id="path1518" class="s12" d="m372.3 47.1-2.8 8.7-6.4 1.8-1.9-2.2L357 59l-5.5-3.4.3-2.5 15.4-5.8z"/><path id="path1520" class="s12" d="m498.8 43.1-24.9 20.4-13.4 3.4.9 18.9 20.3 6.4 1.3 29.5 5.2 6.5-3 12-6.7 4.5.4 27.1 12.8 13.4 15.5-26.5 13.5-3.4 8.5-11.3 14.5-1.7 9.8-13-3.3-15.1 13-6.9-2-21 6.7-15.3L580 58l-6.8-7.3-15 8.3 4.3-8.3-4.1-2.9-7.5 2-2.9-4.5 18-1.6-3.1-8.5-23.5-4.9-14 2.7-2.2 14-9.3-3-2.5-8.2-12.5 7.2z"/><path id="path1522" class="s12" d="m385.9 242-1.4-6-9.5-2.3-3.6-7.7-4.5-1.3-5.3 3.3-7.3 4.6 4.6 1.6 7.2-2.5 1.8 4.1-5.8 10.5 1.2 6.9 4-3 5.3-12.1 3.8 1.7 2 7.3z"/><path id="path1524" class="s12" d="m395.6 244.5-7.8 1.3-1.3 2 7.4 1z"/><path id="path1526" class="s12" d="m388.9 250.6-3-1-9.3 2.1-1.1 1.5 3 1.9z"/><path id="path1528" class="s12" d="m444.1 233.7 9.1 1.2h4.2v2.4l3.1 1.6 2.1-5.6-4.4-7.3-4.8-1.1 2.7-3.8-5.7 1.4z"/><path id="path1530" class="s12" d="m391.6 326.8-5 2.9-4.3-1.8-1.1-2.4-8.9-4.7-8.9 1-.4-1.7 7.9-3.2 1.7.2 3.9.6z"/><path id="path1532" class="s12" d="m378.7 333.2 4.1-.6 2.2 1.5-3.2 1.4z"/><path id="path1534" class="s12" d="m379.6 306.3 4-.8 1.8 2.1-1.1 1.5-1.5-2-2.2 1.2z"/><path id="path1536" class="s12" d="m385.8 310.7-.4 1.4 1.1.9 1-1.5z"/><path id="path1538" class="s12" d="m389 313.7-1.3 1.1 1.3 2.1.6-1z"/><path id="path1540" class="s12" d="m381.8 312.4-.9.6.5 1.4 2.1-.2z"/><path id="path1542" class="s12" d="m391.4 320.2 1.7-1-1.5-1-1.1.8z"/><path id="path1544" class="s12" d="M397.7 329h-.2l-1.8-1-2.1 1 2.1 1.7-.4 1-5 .9 1.3 2.1 5-.7 1.3 1.5 3.8-1.8 5.7.3v-3.2l-5.3-2.6z"/><path id="path1546" class="s12" d="M415.1 333h-3.6l-.9.7v2.1l4.5-.5z"/><path id="path1548" class="s12" d="m423.1 333.2-1.8.3.2 1.7h1.8z"/><path id="path1550" class="s12" d="m425.7 336-1.8.5.9 1.3 1.7-.3z"/><path id="path1552" class="s12" d="m427.7 338.6-1.4 1.1.5.9 1.8-1z"/><path id="path1554" class="s12" d="m427.5 342.3-.7 1.3.9 2.2 1.3-1z"/><path id="path1556" class="s12" d="m428.6 346.9-1.1.4.2 1.5 1.7-.5z"/><path id="path1558" class="s12" d="m432.7 347.8-1.4 1 .9 1.8 1.4-1.2z"/><path id="path1560" class="s12" d="m431.9 354.7-2.7.7.4 2 2.3-.4z"/><path id="path1562" class="s12" d="m393.9 324-1.4.6.9 1.2 1.8-.5z"/><path id="path1564" class="s12" d="m397.7 329 .3 2-1.4 3"/></g></g></g></g></g></svg>