<svg version="1.2" width="553" height="420" id="svg1069" xmlns="http://www.w3.org/2000/svg"><style id="style4">.s0{fill:#b6eaff}.s1{fill:#6bdff9}.s2{fill:#ad96a6}.s3{fill:#fad22a}.s4{fill:#86da37}.s5{fill:#ea5947}.s6{fill:#0e8b9f}.s7{fill:#d94a6d}.s8{fill:#6f5967}.s9{fill:#9ded68}.s10,.s11{fill:none;stroke:#1d1d1b;stroke-width:.5}.s11{stroke-dasharray:2,2}.s12,.s13{fill:none;stroke:#163568;stroke-width:.6}.s13{stroke-linecap:round;stroke-linejoin:round}.s14{fill:#163568}</style><g id="OBJECTS" transform="translate(-24)"><g id="g1066"><g id="g1062"><g id="&lt;Group&gt;"><path id="path8" class="s1" d="m487.7 56.8 5-2 1.7 2.5 7.8-2.8s-7.3-15.2-7.8-15.2c-.4.1-43.2-4.8-43.2-4.8l-8.6 5 3.7 6.2L444 47l-6.3-7.2-3.1 2.1-.6 3.4-9.8 2.4-.8 3.7h-3.8L408 40.8l-12.3 6.6-15-8.7-20.2 5 3.2 7.8-2.2 4.4-4-2.1-9.4 5.1v3.4l-11.7-6.2-.9-5.6-13.6-2.5-.5 3.8-8.4 2.8-3.9-2.9-19.1 6.9-3.3 6.2-2.2-2.4 6.9-22.3-13.6-9.4-6.6 6.1-.4-5.5-10.6-2-2.2 7.1 4.5 5L240 57.3l-2.1 6.8 4.2 3.4-1 4H232l-3 2.8 3.9 5 5.6 2.1-3 3.9-7.3-5.1-3 3.6 1.6 6-3.2-.5-3.9-10.5-1.6 1.2 1.5 7.3-1.8 1.5 3.5 5.8 5.7 9.2 5.5-.6 2.1-.3 3.4 3.5-1.5 3.5-3.8-5.2-5.1 2.1 2.1 6.5-2.3 7.2-6.9-.8-.4-2.2 4.5-.2 2-5.8-2.6-6.7-8.2-14.2-.7-8.8-8.9-.3.9 8.9-2.8 2.2 2.6 6.4 8.2 7.9-.5 4.7-12.8-8.4-5.9.4-7-3.9-.6 2.9 8.8 6.7-3.5 3-2.5-2.6-15.3 4-9.8 10.1-14.1 8.4-.9.6.1 4.4-3.6 4-7.4-2-.8-7.4-5.5-6.3 2.6-.7 6.6 5.3 7-1.1 3.5-7.4-14.9-9.4-15.2-2.2 3-2.9-5.4-3.7-8.174-2.237.074 7.262 2.093 2.28-.685 4.6 6.31 11.91.404 4.36 2.73 8.848-4.292 11.203-2.75 10.598 3.935 17.708 9.851 1.662 1.746 2.09-1.341 3.698 3.189 3.519 11.179 3.432 3.577 5.902 9.206.479 1.678 7.036-8.856 4.682 2.107 6.303 3.59 12.107-2.163-10.045-10.718-.83-5.41 5.078-8.51-4.97-8.435 3.458-2.005 6.753 6.735 15.518 2.944 2.982 9.815 2.495 13.476.019c11.193-.595 3.914 8.665 1.2 15.2l-1.7-.1c1.193 3.447 1.364 7.374 3.4 10.4l2.3-.5-4.23-35.015-7.653 22 15.326 20.84 3.66 15.284 6.446 12.204 5.494 10.448 16.957-.361 14.7-6.4 3.8-3.4 9.7-4.8 7.8-13.2-10.3-8-1-.7-7.7 2.5-5.1-.7-10.4-12.8-.4-2.8 1.6-1.1 1.1-.8 15.2 10.8 7-2.2 1.9 5 12.5 2.5 2.4.5 12.8-1.3 3.2 4.5h.1l6.6 9.3 4.2-.3 2.6-5.1 3.3 15.6 12.7 28 3.7-.6 4.7-6.8.7-15.1 17.8-15.8-.4-3 11.5-2.8 4.7 8 6.4 12.7 4.3-1.4 2.3-3.7 2.6 2.4 4.4 13.4-1.3 5.7v6.8l6.6 5.7v5.7l4.2 5.5 6.7 4.3 1.5-1.7-3.1-6.8-.1-4.5-3.5-2.5-5.4-3.8-1.1-4.5-3.8-3.3.1-.1 3.6-8.7 6.6 3 2.1.9 5.2 10.3 10.2-6.3 2.9-7.5-3.2-9.8-6.9-4.3-2.3-6.6 3.5-5 2.8-.2 3.6-.2 10.2-5.6 5.6 1 10.2-8.3V277l5.1-7.9-1.5-7.6-10.4-14 3.9-7.2 5-1.4-1.9-2.6-4.7-.9-.9-.2-2.8 2.8-5.9-5.9 8.8-9.6 2 1.4-.2 6.9h2.1l5.5-4.6 4 9.2 2.6-.7 2.9 6.3 1.4 6.6 3.1-1.5 3 .7 2.1-1.9-1.7-8.8-5-4.9-4-4 5.3-6.1-.7-6.3 9.1-2.5 7.3-14.1 2.6-15.3-6.8-22.6-7-4.5-5.6 3.1-2.4-3.1-4.3-1.4 6.3-15.6 1.5-10 18.3-8.5 5.5 1.7 1.8 1.7 5.7-2.4-1.9-15.4 7.7-3.5 1.7 3.7 3.3 1.2 1.7-7.5-1.5-5.3 5-1.2 2 13.1-3.6 4.1-1.3 16.8-2.4 9.2 15.6 28.9 2.2.4 2.1-12.7-1.6-22.4-6.1-7.4-1.4-11.8 9.7-7.6 4.3 3.4 2-.7 2.8-16.1 4.6-4.6h5.9l-1.8-6.1-13.6-8-3 1-.3-4 5.4 1.4 1.8-2.4-1.8-8.5-3.4-2.3 1-4z"/><path id="path10" class="s1" d="M359.4 360 341 346.5l-4.9-2-.5 2.9 10.2 10.8 5.7 12.1 10.6 9.1 5.2-4.3z"/><path id="path12" class="s1" d="m394.3 385.9-8.7-3.6-3-2.4-4.1 2.4-9.3-3.9-3.7 3.3L378 386l15.8 2.3z"/><path id="path14" class="s1" d="m393 373.3 8-13-1.7-13.3-.8-5.5-11.9 9.6-5.4 5.7-3-1.2-3.6 3.8 1.5 3.9 2.7 7z"/><path id="path16" class="s1" d="m410.4 303.7-3.5 1.6-2 10.8 3.6 7 5-2 3 2 .9 4.2-1.9 2.8 1.9 1.4 3-1.5.6-3.8 2.5.4-1.6-6.1-10.9-5.3 1.6-6.5z"/><path id="path18" class="s1" d="m421.4 333.5-5.3 1.8-4.3 3.7.5 2.5 1.3.6 2.3-3.3 2.5.3.6 4.1 4.5.8 3.3-4.2-.8-7.4-2.8-.6z"/><path id="path20" class="s1" d="m405.1 372.2.3 5.5h1.9l1-5 3 1.7 3.6 3.3 1.9-5.2-4.4-5.3 4.3-2.7-1.1-2.6-5.5 4-1.5-4.7 1.3-1.9 5.9.8 1.6.2 5-1.6-.9-2-4.4 1.8-8.1-.9-4.3 6.1z"/><path id="path22" class="s1" d="m468.2 369-9.7-2.7-6 4.9-2.6-.7-.1-3.3-3.7-1.5-.2-2.4-6.7 1.5 1 3.3 5.7.7-.8 4.5h4.6l3.7 2.7 6.1.8 2.9 5.8 4.5 5.4z"/><path id="path24" class="s1" d="m291 333.1-2.5 4.8 2.5 6.6 7.5-1.8-2.7-7.4z"/><path id="path26" class="s1" d="M428.7 245.6 427 248l-2.3 3.2 3.8 9 3.2-4.7.2-7.6 9 2.4 13.6-9.5-1-7.9V225l-4.1-8.3-.3.1-3.2 1.4.8 12.1-7.5 10.7-8.2 1.3z"/><path id="path28" class="s1" d="m452.5 212.9 5.2-7.2-12.3-7h-1.9l3.4 7.1-3.4 2.7v3.8l3.9.6-1-2.2h1z"/><path id="path30" class="s1" d="m448.7 181-10-13-4.2-9.7-3.3-3.5h-1.7l1.7 4.5.7 1.7 6.1 15.2 3.5 12.1 3 5.7 3.2-2.2-6-11.8 4.7 2.7z"/></g><g id="g760"><g id="g129"><g id="g125"><path id="path33" class="s2" d="m498.2 50.5-7.8 2.8-1.7-2.5-5 2-4.1-3.8-1 4 3.4 2.3 1.8 8.5-1.8 2.4-5.4-1.4.3 4 3-1 13.6 8 1.8 6.1h-5.9l-4.6 4.6-2.8 16.1-2 .7-4.3-3.4-9.7 7.6 1.4 11.8 6.1 7.4 1.6 22.4-2.1 12.7-2.2-.4-15.6-28.9 2.4-9.2 1.3-16.8 3.6-4.1-2-13.1-5 1.2 1.5 5.3-1.7 7.5-3.3-1.2-1.7-3.7-7.7 3.5 1.9 15.4-5.7 2.4-1.8-1.7-5.5-1.7-18.3 8.5-1.5 10-6.3 15.6 4.3 1.4 2.4 3.1 5.6-3.1 7 4.5 6.8 22.6-2.6 15.3-7.3 14.1-9.1 2.5.1-1.9.5-7.2 2.8-1.5 2.9-14.9-5-2.7-3.4 4.5-4.6-1-1.7-3.8-8.8-3.8-8.8-14-8.1-2.4-7.6 2.7 2.5 5.5-1.7 2.7.8 7.7-4.1 1.6-.8.4-8.2-.7-13.8 4.8-7.6-3.7-11.3.5-2.5-4.5-9.1-2.1-1.6 3.8 1.6 5.5-8.9.2-8.6-3-10 8.2-2.4-2.5-3.1 1.2-6.7-5.6-9.3 1.3-14.2-14.5-5.2 5-15-7.3-19.2 8.3-.1 7.7 3.4 3.6-3.7 3.1-4.8-2.4-8 1.9-5.2-3.4-5.2-.4-4.8 3.7-1.5 4.8-3.5-1.2-1.4 6.3 8.3 7.8-5.5 4.1 2 6.5 5 5.8-8 3.2-4.4-1.2-.9 1.4-6.9-4.2-9.7-7.4-2.2-6.1 2.4-4-1.8-.5 3.6-3.5-.5-2.8 1.4-1.1-1-2-11.2-1.5-5.4-7.3-7.2-.4v-.4l2.7-4.8-4.5-4.3-1.6-4-6.9.3v-.3l-2-6.9-1.5-5.4 3-3.5-.9-4.6 6.1-12.6-6.1-12.1.5-2.2-2.9-6.6.7-2-3.7-4.9 1.4-5.6-1.4-.9.9-1.3 15.2 2.2 14.9 9.4-3.5 7.4-7 1.1-6.6-5.3-2.6.7 5.5 6.3.8 7.4 7.4 2 3.6-4-.1-4.4.9-.6 14.1-8.4 9.8-10.1 15.3-4 2.5 2.6 3.5-3-8.8-6.7.6-2.9 7 3.9 5.9-.4 12.8 8.4.5-4.7-8.2-7.9-2.6-6.4 2.8-2.2-.9-8.9 8.9.3.7 8.8 8.2 14.2 2.6 6.7-2 5.8-4.5.2.4 2.2 6.9.8 2.3-7.2-2.1-6.5 5.1-2.1 3.8 5.2 1.5-3.5-3.4-3.5-2.1.3-5.5.6-5.7-9.2-3.5-5.8 1.8-1.5-1.5-7.3 1.6-1.2 3.9 10.5 3.2.5-1.6-6 3-3.6 7.3 5.1 3-3.9-5.6-2.1-3.9-5 3-2.8h9.1l1-4-4.2-3.4 2.1-6.8 22.5-15.9-4.5-5 2.2-7.1 10.6 2 .4 5.5 6.6-6.1 13.6 9.4-6.9 22.3 2.2 2.4 3.3-6.2 19.1-6.9 3.9 2.9 8.4-2.8.5-3.8 13.6 2.5.9 5.6 11.7 6.2v-3.4l9.4-5.1 4 2.1 2.2-4.4-3.2-7.8 20.2-5 15 8.7 12.3-6.6 11.6 10.6h3.8l.8-3.7 9.8-2.4.6-3.4 3.1-2.1L440 43l2.3-1.3-3.7-6.2 8.6-5s42.8 4.9 43.2 4.8c.5 0 7.8 15.2 7.8 15.2z"/><path id="path35" class="s3" d="m464.2 365-1.3 19-4.5-5.4-2.9-5.8-6.1-.8-3.7-2.7h-4.6l.8-4.5-5.7-.7-1-3.3 6.7-1.5.2 2.4 3.7 1.5.1 3.3 2.6.7 6-4.9z"/><path id="path37" class="s4" d="m453.7 201.7-5.2 7.2-5.1-2.2h-1l1 2.2-3.9-.6v-3.8l3.4-2.7-3.4-7.1h1.9z"/><path id="path39" class="s4" d="m449.5 228.9 1 7.9-13.6 9.5-9-2.4-3.2-2.3 2.3-3.3 8.2-1.3 7.5-10.7-.8-12.1 3.2-1.4.3-.1 4.1 8.3z"/><path id="path41" class="s2" d="m434.7 164 10 13-2.3 1.7-4.7-2.7 6 11.8-3.2 2.2-3-5.7-3.5-12.1-6.1-15.2-.7-1.7-1.7-4.5h1.7l3.3 3.5z"/><path id="path43" class="s4" d="m427.9 243.9-.2 7.6-3.2 4.7-3.8-9 2.3-3.2 1.7-2.4z"/><path id="path45" class="s4" d="m422 328.4.8 7.4-3.3 4.2-4.5-.8-.6-4.1-2.5-.3-2.3 3.3-1.3-.6-.5-2.5 4.3-3.7 5.3-1.8 1.8-1.7z"/><path id="path47" class="s4" d="m417.9 316.5 1.6 6.1-2.5-.4-.6 3.8-3 1.5-1.9-1.4 1.9-2.8-.9-4.2-3-2-5 2-3.6-7 2-10.8 3.5-1.6 2.2 5-1.6 6.5z"/><path id="path49" class="s5" d="m418.8 185.3-2.9 14.9-2.8 1.5-.5 7.2-4.6 2.9-1.2 3.6-3.2-.3-4.1 7.1-5.5 4.6h-2.1l.2-6.9-2-1.4-8.8 9.6 5.9 5.9 2.8-2.8.9.2 4.7.9 1.9 2.6-5 1.4-3.9 7.2 10.4 14 1.5 7.6-5.1 7.9v6.3l-10.2 8.3-5.6-1-10.2 5.6-3.6.2-4.6-5.4-5.9-2.2-.9 1.7-6.3 1.1-.9.2-1.8 3.7-5.4-4.8-6.4-4.8 2.7-5.6-3.2-6.6-5.9-4.2-11.1 5.2-5.3-1.4-7.6 2-3.1-2-3.6.5-5.9-4.5-11.4-4.2-2.4-5.6-3.8-8.3-10-7.5-4.1-1.2-5.8 3-1.3-6h-2l-1.1 4.2-5.9.4-.4-.4.9-4.1-2.3-3.3 4.6-2 2.1-3.4h3.6l.5-2.6-4.7-1.8 1.2-1.2 6.7-2.7 13.7-.8 4.7 2.5.8-4.2-2.6-6.3 5.9-.7-.2-7.3 7.8-1.6-.6-3.3 2.3-3.9 11.7 4.8 1.8 8.9 13.6 2.8 4.4 7.7 14.7-2.4 10 4.3 10.3-3.8 7.1-6.8-3.8-3 .8-2.4 5.4 1.4 15.6-9.3-4.1-6.4-8.5 2.3 1.7-8.4.8-.4 4.1-1.6-.8-7.7 1.7-2.7-2.5-5.5 7.6-2.7 8.1 2.4 8.8 14 8.8 3.8 1.7 3.8 4.6 1 3.4-4.5z"/><path id="path51" class="s6" d="m416.9 232.1 1.7 8.8-2.1 1.9-3-.7-3.1 1.5-1.4-6.6-2.9-6.3 5.8-3.5z"/><path id="path53" class="s4" d="m417.5 352.7.9 2-5 1.6-1.6-.2-5.9-.8-1.3 1.9 1.5 4.7 5.5-4 1.1 2.6-4.3 2.7 4.4 5.3-1.9 5.2-3.6-3.3-3-1.7-1 5h-1.9l-.3-5.5-.4-8.5 4.3-6.1 8.1.9z"/><path id="path55" class="s7" d="m412.5 210.8.7 6.3-5.3 6.1 4 4-5.8 3.5-2.6.7-4-9.2 4.1-7.1 3.2.3 1.2-3.6 4.6-2.9z"/><path id="path57" class="s4" d="m395.3 343 1.7 13.3-8 13-14.2-3-2.7-7 11.7-5.9z"/><path id="path59" class="s2" d="m394.5 337.5.8 5.5-11.5 10.4-11.7 5.9-1.5-3.9 3.6-3.8 3 1.2 5.4-5.7z"/><path id="path61" class="s4" d="m390.3 381.9-.5 2.4L374 382l-12.5-4.3 3.7-3.3 9.3 3.9 4.1-2.4 3 2.4z"/><path id="path63" class="s4" d="m374.3 188.8 4.1 6.4-15.6 9.3-5.4-1.4-.8 2.4 3.8 3-7.1 6.8-10.3 3.8-10-4.3-14.7 2.4-4.4-7.7-13.6-2.8-1.8-8.9-11.7-4.8.7-1.3 10-8.2 8.6 3 8.9-.2-1.6-5.5 1.6-3.8 9.1 2.1 2.5 4.5 11.3-.5 7.6 3.7 13.8-4.8 8.2.7-1.7 8.4z"/><path id="path65" class="s3" d="m368.7 308.5 3.2 9.8-2.9 7.5-10.2 6.3.7-6.4 6.3-6.2-1-6.8-.7-4.2-3.6-2.3 1.3-2z"/><path id="path67" class="s6" d="m361.2 287 4.6 5.4-2.8.2-3.5 5 2.3 6.6-1.3 2-1.5-.9-1-3-9.9-14.7 6.3-1.1.9-1.7z"/><path id="path69" class="s8" d="m364.8 312.7 1 6.8-6.3 6.2-.7 6.4-5.2-10.3-2.1-.9V316l1.4-2.4 5.3-.4 3.6 2.2z"/><path id="path71" class="s3" d="m364.1 308.5.7 4.2-3 2.7-3.6-2.2 1.1-3.3-2.5-2.3 2.2-2.3 1.5.9z"/><path id="path73" class="s4" d="m355.4 356 7.9 15.1-5.2 4.3-10.6-9.1-5.7-12.1-10.2-10.8.5-2.9 4.9 2z"/><path id="path75" class="s2" d="m359.3 309.9-1.1 3.3-5.3.4-1.4 2.4v4.9l-6.6-3-9.3-16.1 2.2-4.8 4.4-1.8 4.6 7.8 4.7-.5 5.3 5.1z"/><path id="path77" class="s3" d="m358 302.3 1 3-2.2 2.3-5.3-5.1-4.7.5-4.6-7.8 3.2-3.7 1.8-3.7.9-.2z"/><path id="path79" class="s8" d="m355.1 345.3 3.1 6.8-1.5 1.7-6.7-4.3-4.2-5.5v-5.7h5.7l3.5 2.5z"/><path id="path81" class="s2" d="M351.5 338.3h-5.7l-6.6-5.7v-6.8l1.6.6.5.2-.1.1 3.8 3.3 1.1 4.5z"/><path id="path83" class="s9" d="m345.4 291.5-3.2 3.7-4.4 1.8-2.2 4.8 9.3 16.1-3.6 8.7-.5-.2-1.6-.6 1.3-5.7-4.4-13.4-2.6-2.4-2.3 3.7-4.3 1.4-6.4-12.7-4.7-8-11.5 2.8.4 3-17.8 15.8-.7 15.1-4.7 6.8-3.7.6-12.7-28-3.3-15.6-2.6 5.1-4.2.3-6.6-9.3 8.7-2.3-5.3-8.9 2.9-2.8 3.1 1.3L267 257l.6-.3 3.9-2.4 5.3 1.2 2.4 5.6 11.4 4.2 5.9 4.5 3.6-.5 3.1 2 7.6-2 5.3 1.4 11.1-5.2 5.9 4.2 3.2 6.6-2.7 5.6 6.4 4.8z"/><path id="path85" class="s3" d="m291.8 331.3 2.7 7.4-7.5 1.8-2.5-6.6 2.5-4.8z"/><path id="path87" class="s9" d="m285.1 189.2 2.4 2.5-.7 1.3-2.3 3.9.6 3.3-7.8 1.6.2 7.3-5.9.7 2.6 6.3-.8 4.2-4.7-2.5-13.7.8-6.7 2.7-1.2 1.2-3.8 3.8-6.2-.6-5.5-8.5-8.8.1-4.4-1.8v-6.8l-5.4 1.1v2.3l-7.5 1.2 2.9 13.6-6.4-3.5-4.2 1.6-.6-1.9-8.2-7.3 7.5-4.5-1.1-5.1h-5.5l-4 2.9-8.3-7.8 1.4-6.3 3.5 1.2 1.5-4.8 4.8-3.7 5.2.4 5.2 3.4 8-1.9 4.8 2.4 3.7-3.1-3.4-3.6.1-7.7 19.2-8.3 15 7.3 5.2-5 14.2 14.5 9.3-1.3 6.7 5.6z"/><path id="path89" class="s3" d="m273 247.2 3.8 8.3-5.3-1.2-3.9 2.4-.6.3-11.1-13.1 7.1-4.2z"/><path id="path91" class="s6" d="M255.9 243.9 267 257l-9.2 15.6-3.1-1.3-2.9 2.8 5.3 8.9-8.7 2.3h-.1l-3.2-4.5-12.8 1.3-2.4-.5.1-.4 4.1-6-6.6-8.2h11.9l9.2-8.2 4.7-7.3.2-6.2z"/><path id="path93" class="s4" d="m263 239.7-7.1 4.2-2.4 1.4-.2 6.2-4.7 7.3-9.2 8.2h-11.9l-2.6-20.5 7.7-1.5 2.5-4.2 3.5-1.1h3.8l.4.4 5.9-.4 1.1-4.2h2l1.3 6 5.8-3z"/><path id="path95" class="s3" d="m251.8 224.3-.5 2.6h-3.6l-2.1 3.4-4.6 2 2.3 3.3-.9 4.1h-3.8v-2l-12.8-6.5-1.3-4.9-9.6-4.1-4.5 1.4v3.3h-2l-2.9-13.6 7.5-1.2v3.4h5.4l4.4 1.8 8.8-.1 5.5 8.5 6.2.6 3.8-3.8z"/><path id="path97" class="s2" d="M238.6 237.7v2l-3.5 1.1-2.5 4.2-7.7 1.5v-.4l-.1-.1-.1-2.1-12.2-5.1-9.3 3.5-5.4-17.3 4.2-1.6 6.4 3.5h2v-3.3l4.5-1.4 9.6 4.1 1.3 4.9z"/><path id="path99" class="s3" d="m227.5 267 6.6 8.2-4.1 6-.1.4-12.5-2.5-1.9-5-7 2.2-15.2-10.8-1.1.8-3.6-7.8-4.5-2-2.7-3.4 1.4-5-5-5.8-2.1-7.6 1.9-1 2.7 2.2 1.3 1.1 7.9-1.3-.3 2.3 6.2 5.9h8.3l-.5-1.6 9.3-3.5 12.2 5.1.1 2.1.1.1v.4z"/><path id="path101" class="s9" d="m225.5 289.9-7.8 13.2-9.7 4.8-4.1-8.6 7.8-3v-6.9l2.5-8.2 1 .7z"/><path id="path103" class="s8" d="m214.2 281.2-2.5 8.2-8.6-.9-1.7-5.5 5.1.7z"/><path id="path105" class="s2" d="M211.7 289.4v6.9l-7.8 3-.9.4-10 3.1-4 5.4-9.1-4.2-.6 3-1.8 1.8-5-8.3-5.2-3.5-3.2-11.5-3.1-.7-7.5-12.5-.6-3.9h.3l2.1-2.6-2.4-4.4 1.2-4.3.1-.1.1.1 3.1 2.4 5.7-4 1.1 3 17.8 11.7 3.1-.4h.3l.1 1 5.5-.6 10.4 12.8 1.7 5.5z"/><path id="path107" class="s6" d="m203.9 299.3 4.1 8.6-3.8 3.4-14.7 6.4-8.8.2-3.2-9.1 1.8-1.8.6-3 9.1 4.2 4-5.4 10-3.1z"/><path id="path109" class="s9" d="m188.6 258.5 3.6 7.8-1.6 1.1-3.4-1.7-2.1 2.1.3 2h-.3l-3.1.4-17.8-11.7-1.1-3 5.9-4.2-.6-5.5 2.6-1.5V242.7l6.8-.4 5 5.8-1.4 5 2.7 3.4z"/><path id="path111" class="s8" d="m191 270.2-5.5.6-.1-1-.3-2 2.1-2.1 3.4 1.7-1.2.9z"/><path id="path113" class="s9" d="m187.4 225.5 2.8 3.2-.7 7-7.9 1.3-1.3-1.1-.9-7.2z"/><path id="path115" class="s8" d="m179.4 228.7.9 7.2-2.7-2.2-1.9 1-2.6-4.4 1-1.4.9-1.4z"/><path id="path117" class="s5" d="m175.7 234.7 2.1 7.6-6.8.4v.2l-6.5 1-.6 1.4-2.8-1.4-4.3 1.2-2.7 3.2v-3.6l-5.8 2.6-9.4.1-7.9-2.1-3.8-5.6-1.6-5.8-1.5-3.6h1.8l.9-3.5 3.4-2 2.3 3.9h7.7l4.5-2.8 7.5.6 3.1 2.2h9.6l2.3-4 6.9 4.2-1 1.4z"/><path id="path119" class="s6" d="M171 242.9v1.4l-2.6 1.5.6 5.5-5.9 4.2-5.7 4-3.1-2.4-.1-.1 2.6-3.5-2.7-2.2v-3l2.7-3.2 4.3-1.2 2.8 1.4.6-1.4z"/><path id="path121" class="s3" d="m156.8 253.5-2.6 3.5-.1.1-1.9-1.1 1.9-4.7z"/><path id="path123" class="s8" d="m152.9 261.4 2.4 4.4-2.1 2.6h-.3l-.5-2.9-2.9-3 2.7-6.5 1.9 1.1z"/></g></g><path id="path131" class="s3" d="m126.8 226.8 3.4-2.1"/><path id="path133" class="s10" d="m332.1 340.5-.5 2.9 10.2 10.8 5.7 12 10.6 9.2 5.2-4.3-7.9-15.1-18.4-13.5Z"/><path id="path135" class="s10" d="m365.2 374.4 9.3 3.9 4.1-2.4 3 2.4 8.7 3.6-.5 2.3L374 382l-12.5-4.3z"/><path id="path137" class="s10" d="m374.2 351.6-3.6 3.8 4.2 10.9 14.2 3 8-13.1-2.5-18.7-11.9 9.6-5.4 5.7z"/><path id="path139" class="s10" d="m402.9 301.3-2 10.8 3.6 7 5-2 3 2 .9 4.2-1.9 2.8 1.9 1.4 3-1.5.6-3.8 2.5.4-1.6-6.1-10.9-5.3 1.6-6.5-2.2-5z"/><path id="path141" class="s10" d="m419.2 327.8-1.8 1.7-5.3 1.8-4.3 3.7.4 2.5 1.4.6 2.3-3.3 2.5.3.6 4 4.5.9 3.3-4.2-.8-7.4z"/><path id="path143" class="s10" d="m417.5 352.6-4.4 1.9-8.1-1-4.3 6.1.4 8.6.3 5.5h1.8l1.1-5.1 2.9 1.8 3.7 3.3 1.8-5.2-4.3-5.3 4.3-2.7-1.1-2.6-5.5 4-1.5-4.8 1.3-1.8 7.5 1 5-1.6z"/><path id="path145" class="s10" d="m441.9 359.3-6.7 1.5 1 3.3 5.7.7-.8 4.5h4.6l3.7 2.7 6.1.8 2.9 5.8 4.5 5.4 1.203-19.004-9.603-2.696-6 4.8-2.6-.6-.1-3.3-3.7-1.6z"/><path id="path151" class="s10" d="m287 329.1-2.5 4.8 2.5 6.6 7.5-1.8-2.8-7.4z"/><path id="path177" class="s11" d="m149.5 262.5 2.9 3 1.1 6.7"/><path id="path179" class="s11" d="m153.2 268.4 2.1-2.6-2.4-4.4 1.2-4.3-1.9-1.1"/><path id="path181" class="s11" d="m154.1 251.2 2.7 2.3-2.7 3.6"/><path id="path183" class="s11" d="m154.3 257.1 3.1 2.4 11.6-8.3-.6-5.5 2.6-1.4v-1.4l-6.5 1-.6 1.3-2.8-1.3-4.3 1.2-2.7 3.1"/><path id="path185" class="s11" d="m171 242.7 6.8-.4 5 5.8-1.4 5 2.7 3.4 4.5 2 3.6 7.8"/><path id="path187" class="s11" d="m190.6 267.4-3.4-1.7-2.1 2 .4 3 5.5-.5"/><path id="path189" class="s11" d="m163.1 255.5 1.1 3 17.8 11.7 3.1-.4"/><path id="path191" class="s11" d="m214.2 281.2-2.5 8.2"/><path id="path193" class="s11" d="m203.9 299.3 4.1 8.6"/><path id="path197" class="s10" d="M195.4 206.2h-5.5l-9.5 7 2 6.5 7.8 9-1 9.3 6.2 5.9h8.3l-6.5-20.8-8.2-7.3 7.5-4.5z"/><path id="path199" class="s10" d="M213 215.5h5.4v-6.8l-5.4 1.1z"/><path id="path207" class="s11" d="m124.8 158.8-3.1 3.5 1.5 5.3"/><path id="path209" class="s11" d="m185.8 209.1-8.2-7.9 1.4-6.2 3.5 1.2 1.5-4.8 4.8-3.8 5.2.5 5.2 3.4 8-1.9 4.8 2.4 3.7-3.1-3.4-3.7.1-7.6 19.2-8.4 15 7.4 5.2-5 14.2 14.5 9.3-1.4 6.7 5.7 3.1-1.2 2.4 2.5-3 5.2.6 3.3-7.8 1.6.2 7.3-5.9.6 2.6 6.4-.8 4.1-4.7-2.4-13.7.8-6.7 2.7-5 4.9-6.2-.5-5.5-8.5h-8.8l-4.4-1.7"/><path id="path211" class="s11" d="m213 212.1-7.5 1.1 2.9 13.7h2v-3.3l4.5-1.4 9.6 4 1.3 5 12.8 6.5v2l-3.5 1-2.5 4.3-7.7 1.5-.2-2.6-12.2-5.1-9.3 3.5"/><path id="path213" class="s11" d="m197.8 225 4.2-1.6 6.4 3.5"/><path id="path215" class="s11" d="M238.6 239.7h3.8l.9-4.1-2.3-3.4 4.6-1.9 2.1-3.4h3.6l.5-2.7-4.7-1.7"/><path id="path217" class="s11" d="m242.8 240.1 5.9-.4 1.1-4.2h2l1.3 6 5.8-3 4.1 1.2-9.5 5.6-.2 6.2-4.7 7.3-9.2 8.2h-11.9l-2.7-21"/><path id="path219" class="s11" d="m230 281.2 4.1-6-6.6-8.2"/><path id="path221" class="s11" d="m248.3 285.3 8.8-2.3-5.3-8.9 2.9-2.9 3.1 1.4L267 257l-11.1-13.1"/><path id="path223" class="s11" d="m267.6 256.7 3.9-2.4 5.3 1.2-3.8-8.3-10-7.5"/><path id="path225" class="s11" d="m177.8 242.3-2.1-7.7 1.9-.9 4 3.3 7.9-1.3"/><path id="path227" class="s11" d="m175.9 233.7-2.8-3.4 1.9-2.8 4.4 1.2.9 7.2"/><path id="path229" class="s11" d="m179.9 228.7 7.5-3.2"/><path id="path231" class="s11" d="m167.2 224.7 6.9 4.1"/><path id="path233" class="s11" d="m276.8 255.5 2.4 5.6 11.4 4.1 5.9 4.5 3.6-.5 3.1 2 7.6-1.9 5.3 1.4 11.1-5.2 5.9 4.2 3.2 6.5-2.7 5.7 6.4 4.8 5.4 4.8 1.8-3.8 7.2-1.2.9-1.8 5.9 2.3 4.6 5.4"/><path id="path237" class="s11" d="m358.8 332.1.7-6.4 6.3-6.2-1.7-11-5.1-3.3-1-3-10-14.6"/><path id="path239" class="s11" d="M351.4 320.9V316l1.5-2.4 5.3-.4 3.6 2.2 3-2.7"/><path id="path241" class="s11" d="M359.3 313.2v-3.3l-7.8-7.4-4.7.5-4.6-7.2 2.6-4.1"/><path id="path243" class="s11" d="m340.8 326.4-1.6-.6"/><path id="path245" class="s11" d="m344.9 317.9-9.3-16.2 2.2-4.7 4.4-1.8"/><path id="path247" class="s11" d="m287.5 191.7 10-8.2 8.6 3 8.9-.2-1.6-5.5 1.6-3.8 9.1 2.1 2.5 4.5 11.3-.5 7.6 3.7 13.7-4.8 8.3.7-1.7 8.4 8.4-2.3 4.2 6.4-15.7 9.3-5.3-1.4-.8 2.4 3.8 3-7.2 6.8-10.2 3.8-10-4.3-14.8 2.4-4.3-7.7-13.7-2.8-1.7-9-11.8-4.7"/><path id="path249" class="s11" d="m368.2 182.3 4.2-1.6-.8-7.7 1.6-2.7-2.5-5.5 7.7-2.7 8.1 2.4 8.7 14 8.9 3.8 1.6 3.8 4.7 1 3.3-4.5 5 2.7-2.8 14.9-2.8 1.5-.6 9.1"/><path id="path251" class="s11" d="m399.5 222.2 4.1-7.1 3.2.3 1.2-3.6 4.6-3"/><path id="path253" class="s11" d="m406.1 230.7 5.8-3.6"/><path id="path255" class="s10" d="m424.5 256.2-3.8-9 6.3-8.9 8.2-1.3 7.5-10.7-.8-12.1 3.5-1.5 4.1 8.3v7.9l1 7.9-13.6 9.5-9-2.4-.2 7.6z"/><path id="path257" class="s10" d="m443.4 208.8-1-2.1h1l5.1 2.1 5.2-7.1-12.3-7h-1.9l3.4 7.1-3.4 2.7v3.8z"/><path id="path259" class="s10" d="m440.5 190 3.2-2.2-6-11.8 4.7 2.7 2.3-1.7-10-13-4.2-9.7-3.3-3.5h-1.7l2.4 6.2 6.1 15.2 3.5 12.1z"/><path id="path261" class="s11" d="m462.9 384 1.3-19.1"/><g id="g493"><g id="g353"><path id="path263" class="s2" d="m498.2 50.5-7.8 2.8-1.7-2.5-5 2-4.1-3.8-1 4 3.4 2.3 1.8 8.5-1.8 2.4-5.4-1.4.3 4 3-1 13.6 8 1.8 6.1h-5.9l-4.6 4.6-2.8 16.1-2 .7-4.3-3.4-9.7 7.6 1.4 11.8 6.1 7.4 1.6 22.4-2.1 12.7-2.2-.4-15.6-28.9 2.4-9.2 1.3-16.8 3.6-4.1-2-13.1-5 1.2 1.5 5.3-1.7 7.5-3.3-1.2-1.7-3.7-7.7 3.5 1.9 15.4-5.7 2.4-1.8-1.7-5.5-1.7-18.3 8.5-1.5 10-6.3 15.6 4.3 1.4 2.4 3.1 5.6-3.1 7 4.5 6.8 22.6-2.6 15.3-7.3 14.1-9.1 2.5.1-1.9.5-7.2 2.8-1.5 2.9-14.9-5-2.7-3.4 4.5-4.6-1-1.7-3.8-8.8-3.8-8.8-14-8.1-2.4-7.6 2.7 2.5 5.5-1.7 2.7.8 7.7-4.1 1.6-.8.4-8.2-.7-13.8 4.8-7.6-3.7-11.3.5-2.5-4.5-9.1-2.1-1.6 3.8 1.6 5.5-8.9.2-8.6-3-10 8.2-2.4-2.5-3.1 1.2-6.7-5.6-9.3 1.3-14.2-14.5-5.2 5-15-7.3-19.2 8.3-.1 7.7 3.4 3.6-3.7 3.1-4.8-2.4-8 1.9-5.2-3.4-5.2-.4-4.8 3.7-1.5 4.8-3.5-1.2-1.4 6.3 8.3 7.8-5.5 4.1 2 6.5 5 5.8-8 3.2-4.4-1.2-.9 1.4-6.9-4.2-9.7-7.4-2.2-6.1 2.4-4-1.8-.5 3.6-3.5-.5-2.8 1.4-1.1-1-2-11.2-1.5-5.4-7.3-7.2-.4v-.4l2.7-4.8-4.5-4.3-1.6-4-6.9.3v-.3l-2-6.9-1.5-5.4 3-3.5-.9-4.6 6.1-12.6-6.1-12.1.5-2.2-2.9-6.6.7-2-3.7-4.9 1.4-5.6-1.4-.9.9-1.3 15.2 2.2 14.9 9.4-3.5 7.4-7 1.1-6.6-5.3-2.6.7 5.5 6.3.8 7.4 7.4 2 3.6-4-.1-4.4.9-.6 14.1-8.4 9.8-10.1 15.3-4 2.5 2.6 3.5-3-8.8-6.7.6-2.9 7 3.9 5.9-.4 12.8 8.4.5-4.7-8.2-7.9-2.6-6.4 2.8-2.2-.9-8.9 8.9.3.7 8.8 8.2 14.2 2.6 6.7-2 5.8-4.5.2.4 2.2 6.9.8 2.3-7.2-2.1-6.5 5.1-2.1 3.8 5.2 1.5-3.5-3.4-3.5-2.1.3-5.5.6-5.7-9.2-3.5-5.8 1.8-1.5-1.5-7.3 1.6-1.2 3.9 10.5 3.2.5-1.6-6 3-3.6 7.3 5.1 3-3.9-5.6-2.1-3.9-5 3-2.8h9.1l1-4-4.2-3.4 2.1-6.8 22.5-15.9-4.5-5 2.2-7.1 10.6 2 .4 5.5 6.6-6.1 13.6 9.4-6.9 22.3 2.2 2.4 3.3-6.2 19.1-6.9 3.9 2.9 8.4-2.8.5-3.8 13.6 2.5.9 5.6 11.7 6.2v-3.4l9.4-5.1 4 2.1 2.2-4.4-3.2-7.8 20.2-5 15 8.7 12.3-6.6 11.6 10.6h3.8l.8-3.7 9.8-2.4.6-3.4 3.1-2.1L440 43l2.3-1.3-3.7-6.2 8.6-5s42.8 4.9 43.2 4.8c.5 0 7.8 15.2 7.8 15.2z"/><path id="path265" class="s3" d="m464.2 365-1.3 19-4.5-5.4-2.9-5.8-6.1-.8-3.7-2.7h-4.6l.8-4.5-5.7-.7-1-3.3 6.7-1.5.2 2.4 3.7 1.5.1 3.3 2.6.7 6-4.9z"/><path id="path267" class="s4" d="m453.7 201.7-5.2 7.2-5.1-2.2h-1l1 2.2-3.9-.6v-3.8l3.4-2.7-3.4-7.1h1.9z"/><path id="path269" class="s4" d="m449.5 228.9 1 7.9-13.6 9.5-9-2.4-3.2-2.3 2.3-3.3 8.2-1.3 7.5-10.7-.8-12.1 3.2-1.4.3-.1 4.1 8.3z"/><path id="path271" class="s2" d="m434.7 164 10 13-2.3 1.7-4.7-2.7 6 11.8-3.2 2.2-3-5.7-3.5-12.1-6.1-15.2-.7-1.7-1.7-4.5h1.7l3.3 3.5z"/><path id="path273" class="s4" d="m427.9 243.9-.2 7.6-3.2 4.7-3.8-9 2.3-3.2 1.7-2.4z"/><path id="path275" class="s4" d="m422 328.4.8 7.4-3.3 4.2-4.5-.8-.6-4.1-2.5-.3-2.3 3.3-1.3-.6-.5-2.5 4.3-3.7 5.3-1.8 1.8-1.7z"/><path id="path277" class="s4" d="m417.9 316.5 1.6 6.1-2.5-.4-.6 3.8-3 1.5-1.9-1.4 1.9-2.8-.9-4.2-3-2-5 2-3.6-7 2-10.8 3.5-1.6 2.2 5-1.6 6.5z"/><path id="path279" class="s5" d="m418.8 185.3-2.9 14.9-2.8 1.5-.5 7.2-4.6 2.9-1.2 3.6-3.2-.3-4.1 7.1-5.5 4.6h-2.1l.2-6.9-2-1.4-8.8 9.6 5.9 5.9 2.8-2.8.9.2 4.7.9 1.9 2.6-5 1.4-3.9 7.2 10.4 14 1.5 7.6-5.1 7.9v6.3l-10.2 8.3-5.6-1-10.2 5.6-3.6.2-4.6-5.4-5.9-2.2-.9 1.7-6.3 1.1-.9.2-1.8 3.7-5.4-4.8-6.4-4.8 2.7-5.6-3.2-6.6-5.9-4.2-11.1 5.2-5.3-1.4-7.6 2-3.1-2-3.6.5-5.9-4.5-11.4-4.2-2.4-5.6-3.8-8.3-10-7.5-4.1-1.2-5.8 3-1.3-6h-2l-1.1 4.2-5.9.4-.4-.4.9-4.1-2.3-3.3 4.6-2 2.1-3.4h3.6l.5-2.6-4.7-1.8 1.2-1.2 6.7-2.7 13.7-.8 4.7 2.5.8-4.2-2.6-6.3 5.9-.7-.2-7.3 7.8-1.6-.6-3.3 2.3-3.9 11.7 4.8 1.8 8.9 13.6 2.8 4.4 7.7 14.7-2.4 10 4.3 10.3-3.8 7.1-6.8-3.8-3 .8-2.4 5.4 1.4 15.6-9.3-4.1-6.4-8.5 2.3 1.7-8.4.8-.4 4.1-1.6-.8-7.7 1.7-2.7-2.5-5.5 7.6-2.7 8.1 2.4 8.8 14 8.8 3.8 1.7 3.8 4.6 1 3.4-4.5z"/><path id="path281" class="s6" d="m416.9 232.1 1.7 8.8-2.1 1.9-3-.7-3.1 1.5-1.4-6.6-2.9-6.3 5.8-3.5z"/><path id="path283" class="s4" d="m417.5 352.7.9 2-5 1.6-1.6-.2-5.9-.8-1.3 1.9 1.5 4.7 5.5-4 1.1 2.6-4.3 2.7 4.4 5.3-1.9 5.2-3.6-3.3-3-1.7-1 5h-1.9l-.3-5.5-.4-8.5 4.3-6.1 8.1.9z"/><path id="path285" class="s7" d="m412.5 210.8.7 6.3-5.3 6.1 4 4-5.8 3.5-2.6.7-4-9.2 4.1-7.1 3.2.3 1.2-3.6 4.6-2.9z"/><path id="path287" class="s4" d="m395.3 343 1.7 13.3-8 13-14.2-3-2.7-7 11.7-5.9z"/><path id="path289" class="s2" d="m394.5 337.5.8 5.5-11.5 10.4-11.7 5.9-1.5-3.9 3.6-3.8 3 1.2 5.4-5.7z"/><path id="path291" class="s4" d="m390.3 381.9-.5 2.4L374 382l-12.5-4.3 3.7-3.3 9.3 3.9 4.1-2.4 3 2.4z"/><path id="path293" class="s4" d="m374.3 188.8 4.1 6.4-15.6 9.3-5.4-1.4-.8 2.4 3.8 3-7.1 6.8-10.3 3.8-10-4.3-14.7 2.4-4.4-7.7-13.6-2.8-1.8-8.9-11.7-4.8.7-1.3 10-8.2 8.6 3 8.9-.2-1.6-5.5 1.6-3.8 9.1 2.1 2.5 4.5 11.3-.5 7.6 3.7 13.8-4.8 8.2.7-1.7 8.4z"/><path id="path295" class="s3" d="m368.7 308.5 3.2 9.8-2.9 7.5-10.2 6.3.7-6.4 6.3-6.2-1-6.8-.7-4.2-3.6-2.3 1.3-2z"/><path id="path297" class="s6" d="m361.2 287 4.6 5.4-2.8.2-3.5 5 2.3 6.6-1.3 2-1.5-.9-1-3-9.9-14.7 6.3-1.1.9-1.7z"/><path id="path299" class="s8" d="m364.8 312.7 1 6.8-6.3 6.2-.7 6.4-5.2-10.3-2.1-.9V316l1.4-2.4 5.3-.4 3.6 2.2z"/><path id="path301" class="s3" d="m364.1 308.5.7 4.2-3 2.7-3.6-2.2 1.1-3.3-2.5-2.3 2.2-2.3 1.5.9z"/><path id="path303" class="s4" d="m355.4 356 7.9 15.1-5.2 4.3-10.6-9.1-5.7-12.1-10.2-10.8.5-2.9 4.9 2z"/><path id="path305" class="s2" d="m359.3 309.9-1.1 3.3-5.3.4-1.4 2.4v4.9l-6.6-3-9.3-16.1 2.2-4.8 4.4-1.8 4.6 7.8 4.7-.5 5.3 5.1z"/><path id="path307" class="s3" d="m358 302.3 1 3-2.2 2.3-5.3-5.1-4.7.5-4.6-7.8 3.2-3.7 1.8-3.7.9-.2z"/><path id="path309" class="s8" d="m355.1 345.3 3.1 6.8-1.5 1.7-6.7-4.3-4.2-5.5v-5.7h5.7l3.5 2.5z"/><path id="path311" class="s2" d="M351.5 338.3h-5.7l-6.6-5.7v-6.8l1.6.6.5.2-.1.1 3.8 3.3 1.1 4.5z"/><path id="path313" class="s9" d="m345.4 291.5-3.2 3.7-4.4 1.8-2.2 4.8 9.3 16.1-3.6 8.7-.5-.2-1.6-.6 1.3-5.7-4.4-13.4-2.6-2.4-2.3 3.7-4.3 1.4-6.4-12.7-4.7-8-11.5 2.8.4 3-17.8 15.8-.7 15.1-4.7 6.8-3.7.6-12.7-28-3.3-15.6-2.6 5.1-4.2.3-6.6-9.3 8.7-2.3-5.3-8.9 2.9-2.8 3.1 1.3L267 257l.6-.3 3.9-2.4 5.3 1.2 2.4 5.6 11.4 4.2 5.9 4.5 3.6-.5 3.1 2 7.6-2 5.3 1.4 11.1-5.2 5.9 4.2 3.2 6.6-2.7 5.6 6.4 4.8z"/><path id="path315" class="s3" d="m291.8 331.3 2.7 7.4-7.5 1.8-2.5-6.6 2.5-4.8z"/><path id="path317" class="s9" d="m285.1 189.2 2.4 2.5-.7 1.3-2.3 3.9.6 3.3-7.8 1.6.2 7.3-5.9.7 2.6 6.3-.8 4.2-4.7-2.5-13.7.8-6.7 2.7-1.2 1.2-3.8 3.8-6.2-.6-5.5-8.5-8.8.1-4.4-1.8v-6.8l-5.4 1.1v2.3l-7.5 1.2 2.9 13.6-6.4-3.5-4.2 1.6-.6-1.9-8.2-7.3 7.5-4.5-1.1-5.1h-5.5l-4 2.9-8.3-7.8 1.4-6.3 3.5 1.2 1.5-4.8 4.8-3.7 5.2.4 5.2 3.4 8-1.9 4.8 2.4 3.7-3.1-3.4-3.6.1-7.7 19.2-8.3 15 7.3 5.2-5 14.2 14.5 9.3-1.3 6.7 5.6z"/><path id="path319" class="s8" d="m273 247.2 3.8 8.3-5.3-1.2-3.9 2.4-.6.3-11.1-13.1 7.1-4.2z"/><path id="path321" class="s6" d="M255.9 243.9 267 257l-9.2 15.6-3.1-1.3-2.9 2.8 5.3 8.9-8.7 2.3h-.1l-3.2-4.5-12.8 1.3-2.4-.5.1-.4 4.1-6-6.6-8.2h11.9l9.2-8.2 4.7-7.3.2-6.2z"/><path id="path323" class="s4" d="m263 239.7-7.1 4.2-2.4 1.4-.2 6.2-4.7 7.3-9.2 8.2h-11.9l-2.6-20.5 7.7-1.5 2.5-4.2 3.5-1.1h3.8l.4.4 5.9-.4 1.1-4.2h2l1.3 6 5.8-3z"/><path id="path325" class="s3" d="m251.8 224.3-.5 2.6h-3.6l-2.1 3.4-4.6 2 2.3 3.3-.9 4.1h-3.8v-2l-12.8-6.5-1.3-4.9-9.6-4.1-4.5 1.4v3.3h-2l-2.9-13.6 7.5-1.2v3.4h5.4l4.4 1.8 8.8-.1 5.5 8.5 6.2.6 3.8-3.8z"/><path id="path327" class="s2" d="M238.6 237.7v2l-3.5 1.1-2.5 4.2-7.7 1.5v-.4l-.1-.1-.1-2.1-12.2-5.1-9.3 3.5-5.4-17.3 4.2-1.6 6.4 3.5h2v-3.3l4.5-1.4 9.6 4.1 1.3 4.9z"/><path id="path329" class="s3" d="m227.5 267 6.6 8.2-4.1 6-.1.4-12.5-2.5-1.9-5-7 2.2-15.2-10.8-1.1.8-3.6-7.8-4.5-2-2.7-3.4 1.4-5-5-5.8-2.1-7.6 1.9-1 2.7 2.2 1.3 1.1 7.9-1.3-.3 2.3 6.2 5.9h8.3l-.5-1.6 9.3-3.5 12.2 5.1.1 2.1.1.1v.4z"/><path id="path331" class="s9" d="m225.5 289.9-7.8 13.2-9.7 4.8-4.1-8.6 7.8-3v-6.9l2.5-8.2 1 .7z"/><path id="path333" class="s8" d="m214.2 281.2-2.5 8.2-8.6-.9-1.7-5.5 5.1.7z"/><path id="path335" class="s2" d="M211.7 289.4v6.9l-7.8 3-.9.4-10 3.1-4 5.4-9.1-4.2-.6 3-1.8 1.8-5-8.3-5.2-3.5-3.2-11.5-3.1-.7-7.5-12.5-.6-3.9h.3l2.1-2.6-2.4-4.4 1.2-4.3.1-.1.1.1 3.1 2.4 5.7-4 1.1 3 17.8 11.7 3.1-.4h.3l.1 1 5.5-.6 10.4 12.8 1.7 5.5z"/><path id="path337" class="s6" d="m203.9 299.3 4.1 8.6-3.8 3.4-14.7 6.4-8.8.2-3.2-9.1 1.8-1.8.6-3 9.1 4.2 4-5.4 10-3.1z"/><path id="path339" class="s9" d="m188.6 258.5 3.6 7.8-1.6 1.1-3.4-1.7-2.1 2.1.3 2h-.3l-3.1.4-17.8-11.7-1.1-3 5.9-4.2-.6-5.5 2.6-1.5V242.7l6.8-.4 5 5.8-1.4 5 2.7 3.4z"/><path id="path341" class="s8" d="m191 270.2-5.5.6-.1-1-.3-2 2.1-2.1 3.4 1.7-1.2.9z"/><path id="path343" class="s9" d="m187.4 225.5 2.8 3.2-.7 7-7.9 1.3-1.3-1.1-.9-7.2z"/><path id="path345" class="s8" d="m179.4 228.7.9 7.2-2.7-2.2-1.9 1-2.6-4.4 1-1.4.9-1.4z"/><path id="path347" class="s5" d="m175.7 234.7 2.1 7.6-6.8.4v.2l-6.5 1-.6 1.4-2.8-1.4-4.3 1.2-2.7 3.2v-3.6l-5.8 2.6-9.4.1-7.9-2.1-3.8-5.6-1.6-5.8-1.5-3.6h1.8l.9-3.5 3.4-2 2.3 3.9h7.7l4.5-2.8 7.5.6 3.1 2.2h9.6l2.3-4 6.9 4.2-1 1.4z"/><path id="path349" class="s6" d="M171 242.9v1.4l-2.6 1.5.6 5.5-5.9 4.2-5.7 4-3.1-2.4-.1-.1 2.6-3.5-2.7-2.2v-3l2.7-3.2 4.3-1.2 2.8 1.4.6-1.4z"/><path id="path351" class="s8" d="m152.9 261.4 2.4 4.4-2.1 2.6h-.3l-.5-2.9-2.9-3 2.7-6.5 1.9 1.1z"/></g><g id="g491"><path id="path355" class="s12" d="m149.5 262.5 2.9 3 .5 2.9.6 3.9"/><path id="path357" class="s12" d="m153.2 268.4 2.1-2.6-2.4-4.4 1.2-4.3-1.9-1.1"/><path id="path359" class="s12" d="m154.1 251.3 2.7 2.2-2.6 3.5-.1.1"/><path id="path361" class="s12" d="m154.3 257.1 3.1 2.4 5.7-4 5.9-4.2-.6-5.5 2.6-1.5v-1.4l-6.5 1-.6 1.4-2.8-1.4-4.3 1.2-2.7 3.2"/><path id="path363" class="s12" d="m171 242.7 6.8-.4 5 5.8-1.4 5 2.7 3.4 4.5 2 3.6 7.8"/><path id="path365" class="s12" d="m190.6 267.4-3.4-1.7-2.1 2.1.3 2 .1 1 5.5-.6"/><path id="path367" class="s12" d="m163.1 255.5 1.1 3 17.8 11.7 3.1-.4"/><path id="path369" class="s12" d="m214.2 281.2-2.5 8.2"/><path id="path371" class="s12" d="m203.9 299.3 4.1 8.6"/><path id="path379" class="s12" d="m124.8 158.8-3 3.5 1.5 5.4"/><path id="path381" class="s12" d="m185.9 209.1-8.3-7.8 1.4-6.3 3.5 1.2 1.5-4.8 4.8-3.7 5.2.4 5.2 3.4 8-1.9 4.8 2.4 3.7-3.1-3.4-3.6.1-7.7 19.2-8.3 15 7.3 5.2-5 14.2 14.5 9.3-1.3 6.7 5.6 3.1-1.2 2.4 2.5-.7 1.3-2.3 3.9.6 3.3-7.8 1.6.2 7.3-5.9.7 2.6 6.3-.8 4.2-4.7-2.5-13.7.8-6.7 2.7-1.2 1.2-3.8 3.8-6.2-.6-5.5-8.5-8.8.1-4.4-1.8"/><path id="path383" class="s12" d="m224.8 246-.1-2.1-12.2-5.1-9.3 3.5"/><path id="path385" class="s12" d="m213 212.1-7.5 1.2 2.9 13.6h2v-3.3l4.5-1.4 9.6 4.1 1.3 4.9 12.8 6.5v2l-3.5 1.1-2.5 4.2-7.7 1.5v-.4"/><path id="path387" class="s12" d="m197.8 225 4.2-1.6 6.4 3.5"/><path id="path389" class="s12" d="M238.6 239.7h3.8l.9-4.1-2.3-3.3 4.6-2 2.1-3.4h3.6l.5-2.6-4.7-1.8"/><path id="path391" class="s12" d="m242.8 240.1 5.9-.4 1.1-4.2h2l1.3 6 5.8-3 4.1 1.2-7.1 4.2-2.4 1.4-.2 6.2-4.7 7.3-9.2 8.2h-11.9l-2.6-20.5v-.4l-.1-.1"/><path id="path393" class="s12" d="m230 281.2 4.1-6-6.6-8.2"/><path id="path395" class="s12" d="m267 257-11.1-13.1"/><path id="path397" class="s13" d="m248.4 285.3 8.7-2.3-5.3-8.9 2.9-2.8 3.1 1.3L267 257"/><path id="path399" class="s12" d="m267.6 256.7 3.9-2.4 5.3 1.2-3.8-8.3-10-7.5"/><path id="path401" class="s12" d="m180.3 235.9 1.3 1.1 7.9-1.3"/><path id="path403" class="s12" d="m177.8 242.3-2.1-7.6 1.9-1 2.7 2.2"/><path id="path405" class="s12" d="m175.7 234.7-2.6-4.4 1-1.4.9-1.4 4.4 1.2.9 7.2"/><path id="path407" class="s12" d="m179.4 228.7 8-3.2"/><path id="path409" class="s12" d="m167.2 224.7 6.9 4.2"/><path id="path411" class="s12" d="m276.8 255.5 2.4 5.6 11.4 4.2 5.9 4.5 3.6-.5 3.1 2 7.6-2 5.3 1.4 11.1-5.2 5.9 4.2 3.2 6.6-2.7 5.6 6.4 4.8 5.4 4.8 1.8-3.7.9-.2 6.3-1.1.9-1.7 5.9 2.2 4.6 5.4"/><path id="path413" class="s12" d="m358.8 332.1.7-6.4 6.3-6.2-1-6.8-.7-4.2-3.6-2.3-1.5-.9-1-3-9.9-14.7"/><path id="path415" class="s12" d="M351.5 320.9V316l1.4-2.4 5.3-.4 3.6 2.2 3-2.7"/><path id="path417" class="s12" d="m358.2 313.2 1.1-3.3-2.5-2.3-5.3-5.1-4.7.5-4.6-7.8 3.2-3.7"/><path id="path419" class="s12" d="m340.8 326.4-1.6-.6"/><path id="path421" class="s12" d="m344.9 317.9-9.3-16.1 2.2-4.8 4.4-1.8"/><path id="path423" class="s12" d="m287.5 191.7 10-8.2 8.6 3 8.9-.2-1.6-5.5 1.6-3.8 9.1 2.1 2.5 4.5 11.3-.5 7.6 3.7 13.8-4.8 8.2.7-1.7 8.4 8.5-2.3 4.1 6.4-15.6 9.3-5.4-1.4-.8 2.4 3.8 3-7.1 6.8-10.3 3.8-10-4.3-14.7 2.4-4.4-7.7-13.6-2.8-1.8-8.9-11.7-4.8"/><path id="path425" class="s12" d="m368.3 182.3 4.1-1.6-.8-7.7 1.7-2.7-2.5-5.5 7.6-2.7 8.1 2.4 8.8 14 8.8 3.8 1.7 3.8 4.6 1 3.4-4.5 5 2.7-2.9 14.9-2.8 1.5-.5 7.2-.1 1.9"/><path id="path427" class="s12" d="m399.5 222.2 4.1-7.1 3.2.3 1.2-3.6 4.6-2.9"/><path id="path429" class="s12" d="m406.1 230.7 5.8-3.5"/><path id="path431" class="s12" d="m462.9 384 1.3-19"/><path id="path433" class="s13" d="m124.1 230.3 1.5 3.6 1.6 5.8 3.8 5.6 7.9 2.1 9.4-.1 5.8-2.6v6.6l-1.9 4.7-2.7 6.5c33.372-5.383-2.17 12.135 4 9.8l7.5 12.5 3.1.7 3.2 11.5 5.2 3.5 5 8.3 3.2 9.1 8.8-.2 14.7-6.4 3.8-3.4 9.7-4.8 7.8-13.2-10.3-8-1-.7-7.7 2.5-5.1-.7-10.4-12.8-1.6-1.9 1.2-.9 1.6-1.1 1.1-.8 15.2 10.8 7-2.2 1.9 5 12.5 2.5 2.4.5 12.8-1.3 3.2 4.5h.1l6.6 9.3 4.2-.3 2.6-5.1 3.3 15.6 12.7 28 3.7-.6 4.7-6.8.7-15.1 17.8-15.8-.4-3 11.5-2.8 4.7 8 6.4 12.7 4.3-1.4 2.3-3.7 2.6 2.4 4.4 13.4-1.3 5.7v6.8l6.6 5.7v5.7l4.2 5.5 6.7 4.3 1.5-1.7-3.1-6.8-.1-4.5-3.5-2.5-5.4-3.8-1.1-4.5-3.8-3.3.1-.1 3.6-8.7 6.6 3 2.1.9 5.2 10.3 10.2-6.3 2.9-7.5-3.2-9.8-6.9-4.3-2.3-6.6 3.5-5 2.8-.2 3.6-.2 10.2-5.6 5.6 1 10.2-8.3V273l5.1-7.9-1.5-7.6-10.4-14 3.9-7.2 5-1.4-1.9-2.6-4.7-.9-.9-.2-2.8 2.8-5.9-5.9 8.8-9.6 2 1.4-.2 6.9h2.1l5.5-4.6 4 9.2 2.6-.7 2.9 6.3 1.4 6.6 3.1-1.5 3 .7 2.1-1.9-1.7-8.8-5-4.9-4-4 5.3-6.1-.7-6.3 9.1-2.5 7.3-14.1 2.6-15.3-6.8-22.6-7-4.5-5.6 3.1-2.4-3.1-4.3-1.4 6.3-15.6 1.5-10 18.3-8.5 5.5 1.7 1.8 1.7 5.7-2.4-1.9-15.4 7.7-3.5 1.7 3.7 3.3 1.2 1.7-7.5-1.5-5.3 5-1.2 2 13.1-3.6 4.1-1.3 16.8-2.4 9.2 15.6 28.9 2.2.4 2.1-12.7-1.6-22.4-6.1-7.4-1.4-11.8 9.7-7.6 4.3 3.4 2-.7 2.8-16.1 4.6-4.6h5.9l-1.8-6.1-13.6-8-3 1-.3-4 5.4 1.4 1.8-2.4-1.8-8.5-3.4-2.3 1-4 4.1 3.8 5-2 1.7 2.5 7.8-2.8s-7.3-15.2-7.8-15.2c-.4.1-43.2-4.8-43.2-4.8l-8.6 5 3.7 6.2L440 43l-6.3-7.2-3.1 2.1-.6 3.4-9.8 2.4-.8 3.7h-3.8L404 36.8l-12.3 6.6-15-8.7-20.2 5 3.2 7.8-2.2 4.4-4-2.1-9.4 5.1v3.4l-11.7-6.2-.9-5.6-13.6-2.5-.5 3.8-8.4 2.8-3.9-2.9-19.1 6.9-3.3 6.2-2.2-2.4 6.9-22.3-13.6-9.4-6.6 6.1-.4-5.5-10.6-2-2.2 7.1 4.5 5L236 53.3l-2.1 6.8 4.2 3.4-1 4H228l-3 2.8 3.9 5 5.6 2.1-3 3.9-7.3-5.1-3 3.6 1.6 6-3.2-.5-3.9-10.5-1.6 1.2 1.5 7.3-1.8 1.5 3.5 5.8 5.7 9.2 5.5-.6 2.1-.3 3.4 3.5-1.5 3.5-3.8-5.2-5.1 2.1 2.1 6.5-2.3 7.2-6.9-.8-.4-2.2 4.5-.2 2-5.8-2.6-6.7-8.2-14.2-.7-8.8-8.9-.3.9 8.9-2.8 2.2 2.6 6.4 8.2 7.9-.5 4.7-12.8-8.4-5.9.4-7-3.9-.6 2.9 8.8 6.7-3.5 3-2.5-2.6-15.3 4-9.8 10.1-14.1 8.4-.9.6.1 4.4-3.6 4-7.4-2-.8-7.4-5.5-6.3 2.6-.7 6.6 5.3 7-1.1 3.5-7.4-14.9-9.4-15.2-2.2c27.32 28.1 3.974 59.936 4.5 48.2l.9 4.6c135.188 75.931-11.022 74.492-.7 71.5z"/><path id="path435" class="s13" d="m332.1 340.5-.5 2.9 10.2 10.8 5.7 12.1 10.6 9.1 5.2-4.3-7.9-15.1-18.4-13.5Z"/><path id="path437" class="s13" d="m365.2 374.4 9.3 3.9 4.1-2.4 3 2.4 8.7 3.6-.5 2.4L374 382l-12.5-4.3z"/><path id="path439" class="s13" d="m395.3 343-.8-5.5-11.9 9.6-5.4 5.7-3-1.2-3.6 3.8 1.5 3.9 2.7 7 14.2 3 8-13z"/><path id="path441" class="s13" d="m402.9 301.3-2 10.8 3.6 7 5-2 3 2 .9 4.2-1.9 2.8 1.9 1.4 3-1.5.6-3.8 2.5.4-1.6-6.1-10.9-5.3 1.6-6.5-2.2-5z"/><path id="path443" class="s13" d="m419.2 327.8-1.8 1.7-5.3 1.8-4.3 3.7.5 2.5 1.3.6 2.3-3.3 2.5.3.6 4.1 4.5.8 3.3-4.2-.8-7.4z"/><path id="path445" class="s13" d="m411.8 356.1 1.6.2 5-1.6-.9-2-4.4 1.8-8.1-.9-4.3 6.1.4 8.5.3 5.5h1.9l1-5 3 1.7 3.6 3.3 1.9-5.2-4.4-5.3 4.3-2.7-1.1-2.6-5.5 4-1.5-4.7 1.3-1.9z"/><path id="path447" class="s13" d="m464.2 365-9.7-2.7-6 4.9-2.6-.7-.1-3.3-3.7-1.5-.2-2.4-6.7 1.5 1 3.3 5.7.7-.8 4.5h4.6l3.7 2.7 6.1.8 2.9 5.8 4.5 5.4z"/><path id="path453" class="s13" d="m287 329.1-2.5 4.8 2.5 6.6 7.5-1.8-2.7-7.4z"/><path id="path475" class="s13" d="m197.8 225-.6-1.9-8.2-7.3 7.5-4.5-1.1-5.1h-5.5l-4 2.9-5.5 4.1 2 6.5 5 5.8 2.8 3.2-.7 7-.3 2.3 6.2 5.9h8.3l-.5-1.6z"/><path id="path477" class="s13" d="M213 212.1v3.4h5.4v-6.8l-5.4 1.1z"/><path id="path479" class="s13" d="m445.1 212.8.3-.1 4.1 8.3v7.9l1 7.9-13.6 9.5-9-2.4-.2 7.6-3.2 4.7-3.8-9 2.3-3.2 1.7-2.4 2.3-3.3 8.2-1.3 7.5-10.7-.8-12.1z"/><path id="path481" class="s13" d="m443.4 208.9-1-2.2h1l5.1 2.2 5.2-7.2-12.3-7h-1.9l3.4 7.1-3.4 2.7v3.8z"/><path id="path483" class="s13" d="m440.5 190 3.2-2.2-6-11.8 4.7 2.7 2.3-1.7-10-13-4.2-9.7-3.3-3.5h-1.7l1.7 4.5.7 1.7 6.1 15.2 3.5 12.1z"/><path id="path487" class="s12" d="m372.1 359.3 11.7-5.9 11.5-10.4"/><path id="path489" class="s12" d="M345.8 338.3h5.7"/></g></g><g id="g516"><path id="path495" class="s14" d="m435.6 163.5-4.2-9.6q0-.1-.1-.3l-3.4-3.5c-.2-.2-.4-.3-.7-.3h-1.7c-.3 0-.6.2-.8.5-.2.2-.2.6-.1.9l2.3 6.2 6.2 15 3.5 12.2v.2l3 5.7c.2.2.4.4.7.5h.2q.3 0 .6-.2l3.2-2.1c.4-.3.5-.9.3-1.3l-4.5-8.9 1.8 1q.2.2.5.2t.6-.2l2.3-1.7c.2-.2.4-.4.4-.7q.1-.4-.2-.8z"/><path id="path497" class="s14" d="M448.5 209.9c.3 0 .6-.2.8-.5l5.2-7.1c.2-.3.2-.6.2-.8-.1-.3-.2-.6-.5-.7l-12.3-7q-.3-.1-.5-.1h-1.9c-.3 0-.6.1-.8.4-.2.3-.2.7-.1 1l3 6.4-2.7 2.2c-.2.2-.4.5-.4.8v3.8c0 .5.4 1 .9 1l3.8.5q.1.1.2.1c.3 0 .6-.2.8-.5.2-.2.2-.6.1-1l-.2-.3 4 1.7q.2.1.4.1z"/><path id="path499" class="s14" d="m426.2 237.8-4 5.6-2.3 3.2c-.2.3-.2.6-.1 1l3.8 9c.2.3.5.5.8.6h.1c.4 0 .7-.2.9-.5l3.1-4.6q.2-.3.2-.6l.1-6.3 7.8 2.1h.3q.3 0 .5-.1l13.7-9.5c.3-.3.5-.6.4-1l-1-7.8V221q0-.2-.1-.5l-4.1-8.3c-.2-.3-.6-.5-.9-.5q-.2 0-.5.1l-.2.1-3.2 1.4c-.4.1-.7.5-.6.9l.8 11.8-7.1 10.1-7.7 1.2c-.3.1-.5.2-.7.5z"/><path id="path501" class="s14" d="M292.7 331q-.2-.4-.5-.6l-4.8-2.2q-.2-.1-.4-.1c-.4 0-.7.2-.9.5l-2.5 4.8c-.1.3-.1.6 0 .8l2.5 6.6c.1.4.5.7.9.7h.2l7.5-1.8c.3-.1.5-.3.7-.5.1-.3.1-.6 0-.8z"/><path id="&lt;Compound Path&gt;" fill-rule="evenodd" class="s14" d="m399.9 359.1 4.3-6.1c.2-.3.5-.4.8-.4h.1l7.8.8 4.2-1.7h.4c.4 0 .7.2.9.5l.9 2.1c.2.3.2.6 0 .8-.1.3-.3.5-.6.6l-5 1.6h-.4l-1-.1q.1.1.2.3l1.1 2.5c.2.5 0 1-.4 1.3l-3.3 2.1 3.6 4.4c.2.3.3.7.2 1l-1.9 5.2c-.1.4-.4.6-.7.7h-.2q-.4 0-.7-.3l-3.5-3.2-1.7-1-.8 3.7c-.1.5-.5.8-.9.8h-1.9c-.5 0-.9-.4-1-.9l-.3-5.5-.4-8.6q0-.3.2-.6zm5.8-1.8 1 3s4.3-3.3 4.4-3.3l-4.7-.6z"/><path id="path504" class="s14" d="m422.2 327.4-2.8-.6h-.2q-.4 0-.7.2l-1.7 1.6-5.1 1.8q-.2.1-.3.2l-4.2 3.6c-.3.2-.4.6-.4.9l.5 2.6c0 .3.2.6.5.7l1.4.6q.2.1.4.1c.3 0 .6-.2.8-.4l2-2.8 1.1.1.5 3.3c.1.4.4.8.8.8l4.5.9h.2c.3 0 .6-.1.8-.4l3.3-4.2q.2-.3.2-.7l-.8-7.4c-.1-.4-.4-.8-.8-.9z"/><path id="path506" class="s14" d="m409.5 304.3-2.2-5q-.2-.4-.6-.5-.1-.1-.3-.1-.2 0-.4.1l-3.5 1.6c-.3.2-.6.4-.6.7l-2 10.8q-.1.3.1.6l3.6 7c.2.4.5.6.9.6q.2 0 .4-.1l4.5-1.8 2.2 1.5.7 3.4-1.6 2.4c-.3.5-.2 1.1.2 1.4l1.9 1.4.6.2q.2 0 .4-.2l3-1.5c.3-.1.5-.4.6-.7l.4-2.8 1.5.3h.2c.3 0 .5-.1.7-.4.3-.2.3-.6.3-.9l-1.7-6.1c0-.3-.2-.5-.5-.7l-10.1-4.8 1.4-5.7q.1-.4-.1-.7z"/><path id="path508" class="s14" d="m374.6 367.3 14.1 3h.3c.3 0 .6-.1.8-.4l8-13.1q.2-.3.1-.7l-2.4-18.7c0-.4-.3-.7-.6-.8q-.2-.1-.4-.1-.3 0-.6.2l-12 9.7-4.9 5.2-2.4-1h-.4c-.3 0-.5.1-.7.3l-3.6 3.8c-.3.3-.4.7-.2 1.1l4.2 10.9c.1.3.4.5.7.6z"/><path id="path510" class="s14" d="M389.8 385.3c.5 0 .9-.4 1-.8l.5-2.4c.1-.5-.2-.9-.6-1.1l-8.6-3.5-2.9-2.4q-.2-.2-.6-.2-.3 0-.5.1l-3.7 2.2-8.8-3.7q-.2-.1-.4-.1-.4 0-.7.3l-3.6 3.2c-.3.3-.4.6-.4 1 .1.3.4.6.7.7l12.6 4.4 15.8 2.2q.1.1.2.1z"/><path id="path512" class="s14" d="m364.2 370.6-7.9-15.1-.3-.3-18.4-13.5q-.1-.1-.2-.1l-4.9-2q-.2-.1-.4-.1t-.5.1c-.2.2-.4.4-.5.7l-.5 2.9c0 .4.1.7.3.9l10.1 10.6 5.6 12q.1.2.3.3l10.6 9.2q.2.2.6.2.4 0 .7-.2l5.1-4.3c.4-.3.5-.9.3-1.3z"/><path id="path514" fill-rule="evenodd" class="s14" d="M499.1 50.9c-.1.2-.3.4-.6.5l-7.8 2.8c-.133.067-.233.1-.3.1-.4 0-.7-.2-.9-.5l-1.2-1.8-4.2 1.7a.888.888 0 0 1-.4.1 2.222 2.222 0 0 1-.7-.3l-2.8-2.6-.5 1.7 2.8 1.9a.97.97 0 0 1 .4.6l1.9 8.5c0 .3 0 .6-.2.8l-1.8 2.4c-.2.2-.5.4-.8.4-.067 0-.133-.033-.2-.1l-4.1-1 .1 1.3 1.8-.5c.067-.067.167-.1.3-.1.133 0 .3.067.5.2l13.6 8c.2.133.333.3.4.5l1.8 6.1c.1.3.1.7-.1.9-.2.3-.5.4-.8.4h-5.5l-4.1 4.1-2.7 15.7c0 .4-.3.7-.7.8l-2 .7c-.133.067-.233.1-.3.1a2.223 2.223 0 0 1-.7-.3l-3.6-2.8-8.7 6.7 1.3 11 5.9 7.1c.133.2.2.4.2.6l1.7 22.4v.3l-2.1 12.6c-.1.5-.5.9-1 .9l-.1-.1-2.3-.3c-.3 0-.5-.2-.7-.5L454.3 133a1.128 1.128 0 0 1-.1-.8l2.4-9.1 1.3-16.7c0-.2.067-.4.2-.6l3.4-3.7-1.8-11.6-2.9.7 1.1 4.3c.067.133.067.3 0 .5l-1.6 7.5c-.1.2-.3.5-.5.6-.2.133-.367.2-.5.2s-.233-.033-.3-.1l-3.3-1.2a.895.895 0 0 1-.6-.5l-1.3-2.8-6.1 2.8 1.7 14.6c.1.5-.1.9-.6 1.1l-5.6 2.4a.887.887 0 0 1-.4.1.96.96 0 0 1-.7-.3l-1.6-1.5-5-1.6-17.4 8.2-1.4 9.5c0 .067-.033.133-.1.2l-5.9 14.6 3.3 1.1c.2.067.367.167.5.3l1.9 2.4 4.8-2.6c.2-.133.367-.2.5-.2.2 0 .367.067.5.2l7 4.4a.895.895 0 0 1 .5.6l6.7 22.6c.067.133.067.3 0 .5l-2.5 15.2c-.067.133-.1.233-.1.3l-7.3 14.2c-.1.2-.4.4-.6.5l-8.4 2.3.7 5.4c0 .3-.1.5-.2.8l-4.8 5.3 8.4 8.3c.133.133.233.3.3.5l1.7 8.8c.1.4-.1.7-.3 1l-2.1 1.8c-.2.133-.433.233-.7.3-.067 0-.133-.033-.2-.1l-2.7-.6-2.8 1.4a.887.887 0 0 1-.4.1c-.2 0-.367-.033-.5-.1-.2-.2-.4-.4-.5-.7l-1.4-6.5-2.4-5.4-1.8.5h-.3c-.4 0-.7-.2-.9-.6l-3.5-8-4.5 3.7c-.2.133-.4.233-.6.3h-2.1c-.3 0-.5-.1-.7-.3-.2-.2-.3-.4-.3-.7l.2-6.4-.8-.6-7.6 8.3 4.5 4.5 2.1-2.1c.2-.2.5-.3.7-.3h.2l5.6 1.2c.267 0 .467.1.6.3l1.9 2.6c.2.3.3.6.2.9-.1.3-.4.6-.7.7l-4.7 1.3-3.3 6.2 10 13.5c.067.133.1.267.1.4l1.5 7.6c.067.267.033.5-.1.7l-4.9 7.7v6c0 .2-.2.5-.4.7l-10.2 8.3c-.133.2-.333.3-.6.3h-.2l-5.2-1-9.9 5.4c-.133.133-.3.2-.5.2l-5.8.3-3 4.2 2 5.8 6.6 4.1c.2.133.367.333.5.6l3.1 9.7c.067.267.067.5 0 .7l-2.9 7.5c-.067.2-.2.367-.4.5l-10.2 6.3v.1c-.133.067-.3.1-.5.1H358.5c0-.067-.033-.1-.1-.1s-.133-.033-.2-.1l-.1-.1c-.067-.067-.1-.133-.1-.2-.067 0-.1-.033-.1-.1l-5-9.9-7.5-3.4-3 7.2 3.3 2.8c.133.133.233.333.3.6l1 4.1 8.5 6.1c.3.2.4.5.5.8l.1 4.2 3 6.7c.2.3.1.8-.1 1.1l-1.5 1.6c-.2.2-.5.4-.8.4a.679.679 0 0 1-.5-.2l-6.8-4.3-.2-.2-4.2-5.5c-.133-.2-.2-.4-.2-.6v-5.3l-6.2-5.4c-.3-.2-.4-.4-.4-.7v-7l1.2-5.5-4.1-12.9-1.6-1.4-1.6 2.7a.97.97 0 0 1-.6.4l-4.3 1.5h-.3c-.4 0-.8-.2-.9-.5l-6.4-12.8-4.3-7.3-9.9 2.4.3 2.2c0 .3-.1.6-.3.8l-17.5 15.5-.7 14.8c0 .133-.067.3-.2.5l-4.6 6.7c-.2.267-.433.433-.7.5l-3.7.6h-.2c-.4 0-.8-.2-.9-.6l-12.7-28v-.2l-2.8-12.8-1.3 2.6c-.2.3-.5.5-.8.5l-4.3.3c-.3 0-.6-.2-.8-.4l-9.5-13.3-12.4 1.2h-.2l-14.9-3c-.4-.1-.6-.3-.8-.6l-1.5-4.2-6.2 1.9c-.067.067-.133.1-.2.1a3.101 3.101 0 0 1-.6-.2l-14.6-10.4-2.5 1.8 11.1 13.6 4.5.5 7.5-2.4H214.5c.133.067.233.133.3.2h.1l11.2 8.7c.4.3.5.9.2 1.3l-7.7 13.2c-.133.2-.267.333-.4.4l-9.7 4.7-3.879 3.301c-.066.067-15.211 7.01-15.211 7.01l-9.45.206-3.52-9.737-4.883-7.971-5.324-3.337-3.04-11.298-2.759-.666-8.112-14.006-.598-6.183-3.81-3.354 5.087-11.66.15-4.843-4.665 2.293-9.457.288-9.036-2.483-4.194-6.394-3.274-10.9 2.098-.501.741-2.928 4.908-3.157 2.925 5.057 6.067.014 4.617-3.262 8.47.987 2.884 2.051 8.763.036 1.269-2.218-9.23-6.984-2.502-6.992 1.787-2.769-2.095-1.448 4.652-4.162-.193-2.88.71-.75-.278-.52-10.662-1.168-4.939-7.362-7.738-1.214c0-.066-.044-1.212-.044-1.212l2.635-4.626c-.067-.066-4.347-4.074-4.347-4.074l-1.269-3.475-7.001.526c0-.267-2.69-8.729-2.49-8.929l.246-.085-1.576-5.605 2.788-3.096-.927-4.685 5.863-12.024-5.734-12.048.627-2.332-2.923-6.361.621-1.946-3.757-4.872c0-.266 1.323-4.919 1.39-5.119l-1.62-1.061 1.466-2.708L134.8 107.2c.133 0 .233.033.3.1l15 9.4c.4.3.5.8.3 1.3l-3.5 7.4c-.1.3-.4.5-.7.6l-7 1.1h-.2c-.2 0-.4-.067-.6-.2l-6.3-5-.5.1 4.4 5.1c.133.133.233.3.3.5l.7 6.8 6.1 1.6 3-3.2-.1-4c-.1-.4.1-.7.4-.9l14.9-8.9 9.8-10c.133-.133.267-.233.4-.3l15.4-4h.2c.3 0 .6.1.8.3l1.8 1.9 1.8-1.5-7.8-6c-.3-.3-.5-.7-.4-1l.6-2.9c.1-.3.3-.6.6-.7a.888.888 0 0 1 .4-.1c.133 0 .3.033.5.1l6.7 3.8 5.7-.4c.2 0 .367.033.5.1l11.5 7.5.3-2.5-7.9-7.6a.654.654 0 0 1-.3-.3l-2.5-6.5c-.2-.4-.1-.9.3-1.1l2.4-1.8-.9-8.4c0-.3.1-.6.3-.8.2-.2.4-.3.7-.3l9 .3c.5.1.9.4.9 1l.7 8.5 8 14 2.7 6.8c.133.267.167.5.1.7l-2 5.8c-.2.4-.5.6-.9.7l-3.4.1.1.4 5.3.6 2-6.1-2-6.2c-.2-.5 0-1 .5-1.2l3.6-1.5-3.6.4h-.2c-.3 0-.6-.1-.8-.4l-5.8-9.3-3.5-5.7c-.2-.5-.1-1 .2-1.3l1.4-1.2-1.4-6.7c0-.4.1-.8.4-1l1.6-1.2c.2-.133.4-.2.6-.2.133 0 .233.033.3.1.3.1.5.3.6.6l3.7 9.9 1.1.2-1.2-4.5c0-.3 0-.7.2-.9l3-3.7c.2-.2.5-.3.8-.3.2 0 .4.067.6.2l6.5 4.6 1.6-2.1-4.4-1.6a.601.601 0 0 1-.4-.4l-3.9-5c-.3-.5-.2-1 .1-1.4l3-2.7c.2-.2.433-.3.7-.3h8.3l.7-2.6-3.8-3c-.3-.3-.4-.7-.3-1.1L235 53a.971.971 0 0 1 .4-.6L257 37.2l-3.7-4.1c-.2-.3-.3-.6-.2-1l2.2-7.1c.1-.4.5-.7.9-.7h.2l10.6 2c.4.1.8.5.8 1l.2 3.3 5.1-4.7c.2-.133.433-.2.7-.2.2 0 .4.033.6.1l13.5 9.5c.4.2.6.7.4 1.1l-6.7 21.7.9 1 2.6-5c.067-.2.233-.367.5-.5l19.2-6.9h.3c.267 0 .467.067.6.2l3.4 2.6 7.4-2.4.4-3.2c0-.3.2-.6.4-.7.133-.133.333-.2.6-.2h.2l13.5 2.5c.4.1.8.4.8.8l.9 5.1 9.8 5.2v-1.7c0-.4.2-.7.5-.9l9.4-5.1c.133-.067.3-.1.5-.1.133 0 .267.033.4.1l3.1 1.6 1.6-3.1-3-7.4c-.1-.2-.1-.5 0-.8.2-.2.4-.4.7-.5l20.2-5h.2c.2 0 .367.033.5.1l14.5 8.5 11.9-6.4a.888.888 0 0 1 .4-.1c.267 0 .5.1.7.3L416 46.4h2.6l.6-2.9c.1-.4.4-.7.8-.8l9.2-2.3.4-2.7c.1-.2.2-.5.5-.6l3.1-2.1c.133-.133.3-.2.5-.2.3 0 .6.1.8.4l5.7 6.5.7-.4-3.1-5.3c-.2-.267-.267-.533-.2-.8.133-.267.3-.467.5-.6l8.6-5c.133-.067.3-.1.5-.1h.1c16.5 1.9 41.4 4.7 43 4.8h.1c.7 0 1.1 0 8.7 15.8.1.2.1.5 0 .8zm-269.6 49.2 2.8 3.8.5-1.3-2.6-2.6z"/></g><g id="g754"><g id="g616"><path id="path518" class="s2" d="m498.2 50.5-7.8 2.8-1.7-2.5-5 2-4.1-3.8-1 4 3.4 2.3 1.8 8.5-1.8 2.4-5.4-1.4.3 4 3-1 13.6 8 1.8 6.1h-5.9l-4.6 4.6-2.8 16.1-2 .7-4.3-3.4-9.7 7.6 1.4 11.8 6.1 7.4 1.6 22.4-2.1 12.7-2.2-.4-15.6-28.9 2.4-9.2 1.3-16.8 3.6-4.1-2-13.1-5 1.2 1.5 5.3-1.7 7.5-3.3-1.2-1.7-3.7-7.7 3.5 1.9 15.4-5.7 2.4-1.8-1.7-5.5-1.7-18.3 8.5-1.5 10-6.3 15.6 4.3 1.4 2.4 3.1 5.6-3.1 7 4.5 6.8 22.6-2.6 15.3-7.3 14.1-9.1 2.5.1-1.9.5-7.2 2.8-1.5 2.9-14.9-5-2.7-3.4 4.5-4.6-1-1.7-3.8-8.8-3.8-8.8-14-8.1-2.4-7.6 2.7 2.5 5.5-1.7 2.7.8 7.7-4.9 2-8.2-.7-13.8 4.8-7.6-3.7-11.3.5-2.5-4.5-9.1-2.1-1.6 3.8 1.6 5.5-8.9.2-8.6-3-10 8.2-2.4-2.5-3.1 1.2-6.7-5.6-9.3 1.3-14.2-14.5-5.2 5-15-7.3-19.2 8.3-.1 7.7 3.4 3.6-3.7 3.1-4.8-2.4-8 1.9-5.2-3.4-5.2-.4-4.8 3.7-1.5 4.8-3.5-1.2-1.4 6.3 8.3 7.8-5.5 4.1 2 6.5 5 5.8-8 3.2-4.4-1.2-.9 1.4-6.9-4.2-9.7-7.4-2.2-6.1 2.4-4-1.8-.5 3.6-3.5-.5-2.8 1.4-1.1-1-2-11.2-1.5-5.4-7.3-7.2-.4v-.4l2.7-4.8-4.5-4.3-1.6-4-6.9.3v-.3l-2-6.9-1.5-5.4 3-3.5-.9-4.6 6.1-12.6-6.1-12.1.5-2.2-2.9-6.6.7-2-3.7-4.9 1.4-5.6-1.4-.9.9-1.3 15.2 2.2 14.9 9.4-3.5 7.4-7 1.1-6.6-5.3-2.6.7 5.5 6.3.8 7.4 7.4 2 3.6-4-.1-4.4.9-.6 14.1-8.4 9.8-10.1 15.3-4 2.5 2.6 3.5-3-8.8-6.7.6-2.9 7 3.9 5.9-.4 12.8 8.4.5-4.7-8.2-7.9-2.6-6.4 2.8-2.2-.9-8.9 8.9.3.7 8.8 8.2 14.2 2.6 6.7-2 5.8-4.5.2.4 2.2 6.9.8 2.3-7.2-2.1-6.5 5.1-2.1 3.8 5.2 1.5-3.5-3.4-3.5-2.1.3-5.5.6-5.7-9.2-3.5-5.8 1.8-1.5-1.5-7.3 1.6-1.2 3.9 10.5 3.2.5-1.6-6 3-3.6 7.3 5.1 3-3.9-5.6-2.1-3.9-5 3-2.8h9.1l1-4-4.2-3.4 2.1-6.8 22.5-15.9-4.5-5 2.2-7.1 10.6 2 .4 5.5 6.6-6.1 13.6 9.4-6.9 22.3 2.2 2.4 3.3-6.2 19.1-6.9 3.9 2.9 8.4-2.8.5-3.8 13.6 2.5.9 5.6 11.7 6.2v-3.4l9.4-5.1 4 2.1 2.2-4.4-3.2-7.8 20.2-5 15 8.7 12.3-6.6 11.6 10.6h3.8l.8-3.7 9.8-2.4.6-3.4 3.1-2.1L440 43l2.3-1.3-3.7-6.2 8.6-5s42.8 4.9 43.2 4.8c.5 0 7.8 15.2 7.8 15.2z"/><path id="path520" class="s3" d="m464.2 365-1.3 19-4.5-5.4-2.9-5.8-6.1-.8-3.7-2.7h-4.6l.8-4.5-5.7-.7-1-3.3 6.7-1.5.2 2.4 3.7 1.5.1 3.3 2.6.7 6-4.9z"/><path id="path522" class="s4" d="m453.7 201.7-5.2 7.2-5.1-2.2h-1l1 2.2-3.9-.6v-3.8l3.4-2.7-3.4-7.1h1.9z"/><path id="path524" class="s4" d="m449.5 228.9 1 7.9-13.6 9.5-9-2.4-3.2-2.3 2.3-3.3 8.2-1.3 7.5-10.7-.8-12.1 3.2-1.4.3-.1 4.1 8.3z"/><path id="path526" class="s2" d="m434.7 164 10 13-2.3 1.7-4.7-2.7 6 11.8-3.2 2.2-3-5.7-3.5-12.1-6.1-15.2-.7-1.7-1.7-4.5h1.7l3.3 3.5z"/><path id="path528" class="s4" d="m427.9 243.9-.2 7.6-3.2 4.7-3.8-9 2.3-3.2 1.7-2.4z"/><path id="path530" class="s4" d="m422 328.4.8 7.4-3.3 4.2-4.5-.8-.6-4.1-2.5-.3-2.3 3.3-1.3-.6-.5-2.5 4.3-3.7 5.3-1.8 1.8-1.7z"/><path id="path532" class="s4" d="m417.9 316.5 1.6 6.1-2.5-.4-.6 3.8-3 1.5-1.9-1.4 1.9-2.8-.9-4.2-3-2-5 2-3.6-7 2-10.8 3.5-1.6 2.2 5-1.6 6.5z"/><path id="path534" class="s5" d="m418.8 185.3-2.9 14.9-2.8 1.5-.5 7.2-4.6 2.9-1.2 3.6-3.2-.3-4.1 7.1-5.5 4.6h-2.1l.2-6.9-2-1.4-8.8 9.6 5.9 5.9 2.8-2.8.9.2 4.7.9 1.9 2.6-5 1.4-3.9 7.2 10.4 14 1.5 7.6-5.1 7.9v6.3l-10.2 8.3-5.6-1-10.2 5.6-3.6.2-4.6-5.4-5.9-2.2-.9 1.7-6.3 1.1-.9.2-1.8 3.7-5.4-4.8-6.4-4.8 2.7-5.6-3.2-6.6-5.9-4.2-11.1 5.2-5.3-1.4-7.6 2-3.1-2-3.6.5-5.9-4.5-11.4-4.2-2.4-5.6-3.8-8.3-10-7.5-4.1-1.2-5.8 3-1.3-6h-2l-1.1 4.2h-6.3l.9-4.1-2.3-3.3 4.6-2 2.1-3.4h3.6l.5-2.6-4.7-1.8 1.2-1.2 6.7-2.7 13.7-.8 4.7 2.5.8-4.2-2.6-6.3 5.9-.7-.2-7.3 7.8-1.6-.6-3.3 2.3-3.9 11.7 4.8 1.8 8.9 13.6 2.8 4.4 7.7 14.7-2.4 10 4.3 10.3-3.8 7.1-6.8-3.8-3 .8-2.4 5.4 1.4 15.6-9.3-4.1-6.4-8.5 2.3 1.7-8.4 4.9-2-.8-7.7 1.7-2.7-2.5-5.5 7.6-2.7 8.1 2.4 8.8 14 8.8 3.8 1.7 3.8 4.6 1 3.4-4.5z"/><path id="path536" class="s6" d="m416.9 232.1 1.7 8.8-2.1 1.9-3-.7-3.1 1.5-1.4-6.6-2.9-6.3 5.8-3.5z"/><path id="path538" class="s4" d="m417.5 352.7.9 2-5 1.6-1.6-.2-5.9-.8-1.3 1.9 1.5 4.7 5.5-4 1.1 2.6-4.3 2.7 4.4 5.3-1.9 5.2-3.6-3.3-3-1.7-1 5h-1.9l-.3-5.5-.4-8.5 4.3-6.1 8.1.9z"/><path id="path540" class="s7" d="m412.5 210.8.7 6.3-5.3 6.1 4 4-5.8 3.5-2.6.7-4-9.2 4.1-7.1 3.2.3 1.2-3.6 4.6-2.9z"/><path id="path542" class="s4" d="m395.3 343 1.7 13.3-8 13-14.2-3-2.7-7 11.7-5.9z"/><path id="path544" class="s2" d="m394.5 337.5.8 5.5-11.5 10.4-11.7 5.9-1.5-3.9 3.6-3.8 3 1.2 5.4-5.7z"/><path id="path546" class="s4" d="m390.3 381.9-.5 2.4L374 382l-12.5-4.3 3.7-3.3 9.3 3.9 4.1-2.4 3 2.4z"/><path id="path548" class="s6" d="m374.3 188.8 4.1 6.4-15.6 9.3-5.4-1.4-.8 2.4 3.8 3-7.1 6.8-10.3 3.8-10-4.3-14.7 2.4-4.4-7.7-13.6-2.8-1.8-8.9-11.7-4.8.7-1.3 10-8.2 8.6 3 8.9-.2-1.6-5.5 1.6-3.8 9.1 2.1 2.5 4.5 11.3-.5 7.6 3.7 13.8-4.8 8.2.7-1.7 8.4z"/><path id="path550" class="s5" d="m368.7 308.5 3.2 9.8-2.9 7.5-10.2 6.3.7-6.4 6.3-6.2-1-6.8-.7-4.2-3.6-2.3 1.3-2z"/><path id="path552" class="s6" d="m361.2 287 4.6 5.4-2.8.2-3.5 5 2.3 6.6-1.3 2-1.5-.9-1-3-9.9-14.7 6.3-1.1.9-1.7z"/><path id="path554" class="s8" d="m364.8 312.7 1 6.8-6.3 6.2-.7 6.4-5.2-10.3-2.1-.9V316l1.4-2.4 5.3-.4 3.6 2.2z"/><path id="path556" class="s3" d="m364.1 308.5.7 4.2-3 2.7-3.6-2.2 1.1-3.3-2.5-2.3 2.2-2.3 1.5.9z"/><path id="path558" class="s4" d="m355.4 356 7.9 15.1-5.2 4.3-10.6-9.1-5.7-12.1-10.2-10.8.5-2.9 4.9 2z"/><path id="path560" class="s2" d="m359.3 309.9-1.1 3.3-5.3.4-1.4 2.4v4.9l-6.6-3-9.3-16.1 2.2-4.8 4.4-1.8 4.6 7.8 4.7-.5 5.3 5.1z"/><path id="path562" class="s3" d="m358 302.3 1 3-2.2 2.3-5.3-5.1-4.7.5-4.6-7.8 3.2-3.7 1.8-3.7.9-.2z"/><path id="path564" class="s8" d="m355.1 345.3 3.1 6.8-1.5 1.7-6.7-4.3-4.2-5.5v-5.7h5.7l3.5 2.5z"/><path id="path566" class="s2" d="M351.5 338.3h-5.7l-6.6-5.7v-6.8l1.6.6.5.2-.1.1 3.8 3.3 1.1 4.5z"/><path id="path568" class="s9" d="m345.4 291.5-3.2 3.7-4.4 1.8-2.2 4.8 9.3 16.1-3.6 8.7-.5-.2-1.6-.6 1.3-5.7-4.4-13.4-2.6-2.4-2.3 3.7-4.3 1.4-6.4-12.7-4.7-8-11.5 2.8.4 3-17.8 15.8-.7 15.1-4.7 6.8-3.7.6-12.7-28-3.3-15.6-2.6 5.1-4.2.3-6.6-9.3 8.7-2.3-5.3-8.9 2.9-2.8 3.1 1.3L267 257l4.5-2.7 5.3 1.2 2.4 5.6 11.4 4.2 5.9 4.5 3.6-.5 3.1 2 7.6-2 5.3 1.4 11.1-5.2 5.9 4.2 3.2 6.6-2.7 5.6 6.4 4.8z"/><path id="path570" class="s3" d="m291.8 331.3 2.7 7.4-7.5 1.8-2.5-6.6 2.5-4.8z"/><path id="path572" class="s9" d="m285.1 189.2 2.4 2.5-.7 1.3-2.3 3.9.6 3.3-7.8 1.6.2 7.3-5.9.7 2.6 6.3-.8 4.2-4.7-2.5-13.7.8-6.7 2.7-1.2 1.2-3.8 3.8-6.2-.6-5.5-8.5-8.8.1-4.4-1.8v-6.8l-5.4 1.1v2.3l-7.5 1.2 2.9 13.6-6.4-3.5-4.2 1.6-.6-1.9-8.2-7.3 7.5-4.5-1.1-5.1h-5.5l-4 2.9-8.3-7.8 1.4-6.3 3.5 1.2 1.5-4.8 4.8-3.7 5.2.4 5.2 3.4 8-1.9 4.8 2.4 3.7-3.1-3.4-3.6.1-7.7 19.2-8.3 15 7.3 5.2-5 14.2 14.5 9.3-1.3 6.7 5.6z"/><path id="path574" class="s8" d="m273 247.2 3.8 8.3-5.3-1.2-4.5 2.7-11.1-13.1 7.1-4.2z"/><path id="path576" class="s6" d="M255.9 243.9 267 257l-9.2 15.6-3.1-1.3-2.9 2.8 5.3 8.9-8.7 2.3h-.1l-3.2-4.5-12.8 1.3-2.3-.5 4.1-6.4-6.6-8.2h11.9l9.2-8.2 4.7-7.3.2-6.2z"/><path id="path578" class="s4" d="m263 239.7-7.1 4.2-2.4 1.4-.2 6.2-4.7 7.3-9.2 8.2h-11.9l-2.6-20.5 7.7-1.5 2.5-4.2 3.5-1.1h10.1l1.1-4.2h2l1.3 6 5.8-3z"/><path id="path580" class="s3" d="m251.8 224.3-.5 2.6h-3.6l-2.1 3.4-4.6 2 2.3 3.3-.9 4.1h-3.8v-2l-12.8-6.5-1.3-4.9-9.6-4.1-4.5 1.4v3.3h-2l-2.9-13.6 7.5-1.2v3.4h5.4l4.4 1.8 8.8-.1 5.5 8.5 6.2.6 3.8-3.8z"/><path id="path582" class="s2" d="M238.6 237.7v2l-3.5 1.1-2.5 4.2-7.7 1.5v-.4l-.1-.1-.1-2.1-12.2-5.1-9.3 3.5-5.4-17.3 4.2-1.6 6.4 3.5h2v-3.3l4.5-1.4 9.6 4.1 1.3 4.9z"/><path id="path584" class="s3" d="m227.5 267 6.6 8.2-4.1 6.4-12.6-2.5-1.9-5-7 2.2-15.2-10.8-1.1.8-3.6-7.8-4.5-2-2.7-3.4 1.4-5-5-5.8-2.1-7.6 1.9-1 2.5 2.1 1.5 1.2 7.9-1.3-.3 2.3 6.2 5.9h8.3l-.5-1.6 9.3-3.5 12.2 5.1.1 2.1.1.1v.4z"/><path id="path586" class="s9" d="m225.5 289.9-7.8 13.2-9.7 4.8-4.1-8.6 7.8-3v-6.9l2.5-8.2 1 .7z"/><path id="path588" class="s0" d="M218.4 208.7v6.8H213V209.8z"/><path id="path590" class="s8" d="m214.2 281.2-2.5 8.2-8.6-.9-1.7-5.5 5.1.7z"/><path id="path592" class="s2" d="M211.7 289.4v6.9l-7.8 3-.9.4-10 3.1-4 5.4-9.1-4.2-.6 3-1.8 1.8-5-8.3-5.2-3.5-3.2-11.5-3.1-.7-7.5-12.5-.6-3.9h.3l2.1-2.6-2.4-4.4 1.2-4.3.1-.1.1.1 3.1 2.4 5.7-4 1.1 3 17.8 11.7 3.1-.4h.3l.1 1 5.5-.6 10.4 12.8 1.7 5.5z"/><path id="path594" class="s6" d="m203.9 299.3 4.1 8.6-3.8 3.4-14.7 6.4-8.8.2-3.2-9.1 1.8-1.8.6-3 9.1 4.2 4-5.4 10-3.1z"/><path id="path596" class="s0" d="m203.2 242.3.5 1.6h-8.3l-6.2-5.9.3-2.3.7-7-2.8-3.2-5-5.8-2-6.5 5.5-4.1 4-2.9h5.5l1.1 5.1-7.5 4.5 8.2 7.3.6 1.9z"/><path id="path598" class="s9" d="m188.6 258.5 3.6 7.8-1.6 1.1-3.4-1.7-2.1 2.1.3 2h-.3l-3.1.4-17.8-11.7-1.1-3 5.9-4.2-.6-5.5 2.6-1.5v-1.4h.1l6.7-.6 5 5.8-1.4 5 2.7 3.4z"/><path id="path600" class="s8" d="m191 270.2-5.5.6-.1-1-.3-2 2.1-2.1 3.4 1.7-1.2.9z"/><path id="path602" class="s9" d="m187.4 225.5 2.8 3.2-.7 7-7.9 1.3-1.5-1.2-.7-7.1z"/><path id="path604" class="s8" d="m180.1 235.8-2.5-2.1-1.9 1-2.6-4.4 1-1.4.9-1.4 4.4 1.2z"/><path id="path606" class="s5" d="m175.7 234.7 2.1 7.6-6.7.6h-.1l-6.5 1-.6 1.4-2.8-1.4-4.3 1.2-2.7 3.2v-3.6l-5.8 2.6-9.4.1-7.9-2.1-3.8-5.6-1.6-5.8-1.5-3.6h1.8l.9-3.5 3.4-2 2.3 3.9h7.7l4.5-2.8 7.5.6 3.1 2.2h9.6l2.3-4 6.9 4.2-1 1.4z"/><path id="path608" class="s6" d="M171 242.9v1.4l-2.6 1.5.6 5.5-5.9 4.2-5.7 4-3.1-2.4-.1-.1 2.6-3.5-2.7-2.2v-3l2.7-3.2 4.3-1.2 2.8 1.4.6-1.4z"/><path id="path612" class="s3" d="m156.8 253.5-2.6 3.5-.1.1-1.9-1.1 1.9-4.7z"/><path id="path614" class="s8" d="m152.9 261.4 2.4 4.4-2.1 2.6h-.3l-.5-2.9-2.9-3 2.7-6.5 1.9 1.1z"/></g><g id="g752"><path id="path618" class="s13" d="m149.5 262.5 2.9 3 .5 2.9.6 3.9"/><path id="path620" class="s13" d="m153.2 268.4 2.1-2.6-2.4-4.4 1.2-4.3"/><path id="path622" class="s13" d="m152.2 256 1.9 1.1.1-.1 2.6-3.5-2.7-2.2"/><path id="path624" class="s13" d="m154.3 257.1 3.1 2.4 5.7-4 5.9-4.2-.6-5.5 2.6-1.5v-1.4l-6.5 1-.6 1.4-2.8-1.4-4.3 1.2-2.7 3.2"/><path id="path626" class="s13" d="m171.1 242.9 6.7-.6 5 5.8-1.4 5 2.7 3.4 4.5 2 3.6 7.8"/><path id="path628" class="s13" d="m190.6 267.4-3.4-1.7-2.1 2.1.3 2 .1 1 5.5-.6"/><path id="path630" class="s13" d="m163.1 255.5 1.1 3 17.8 11.7 3.1-.4"/><path id="path632" class="s13" d="m177.5 308.8 1.8-1.8.6-3 9.1 4.2 4-5.4 10-3.1.9-.4 7.8-3v-6.9l-8.6-.9-1.7-5.5"/><path id="path634" class="s13" d="m214.2 281.2-2.5 8.2"/><path id="path636" class="s13" d="m203.9 299.3 4.1 8.6"/><path id="path646" class="s13" d="m124.8 158.8-3 3.5 1.5 5.4"/><path id="path648" class="s13" d="m185.9 209.1-8.3-7.8 1.4-6.3 3.5 1.2 1.5-4.8 4.8-3.7 5.2.4 5.2 3.4 8-1.9 4.8 2.4 3.7-3.1-3.4-3.6.1-7.7 19.2-8.3 15 7.3 5.2-5 14.2 14.5 9.3-1.3 6.7 5.6 3.1-1.2 2.4 2.5-.7 1.3-2.3 3.9.6 3.3-7.8 1.6.2 7.3-5.9.7 2.6 6.3-.8 4.2-4.7-2.5-13.7.8-6.7 2.7-1.2 1.2-3.8 3.8-6.2-.6-5.5-8.5-8.8.1-4.4-1.8"/><path id="path650" class="s13" d="m224.8 246-.1-2.1-12.2-5.1-9.3 3.5"/><path id="path652" class="s13" d="m213 212.1-7.5 1.2 2.9 13.6h2v-3.3l4.5-1.4 9.6 4.1 1.3 4.9 12.8 6.5v2l-3.5 1.1-2.5 4.2-7.7 1.5v-.4"/><path id="path654" class="s13" d="m197.8 225 4.2-1.6 6.4 3.5"/><path id="path656" class="s13" d="M238.6 239.7h3.8l.9-4.1-2.3-3.3 4.6-2 2.1-3.4h3.6l.5-2.6-4.7-1.8"/><path id="path658" class="s13" d="M242.4 239.7h6.3l1.1-4.2h2l1.3 6 5.8-3 4.1 1.2-7.1 4.2-2.4 1.4-.2 6.2-4.7 7.3-9.2 8.2h-11.9l-2.6-20.5v-.4l-.1-.1"/><path id="path660" class="s13" d="m229.8 281.8.2-.2 4.1-6.4-6.6-8.2"/><path id="path662" class="s13" d="m248.4 285.3 8.7-2.3-5.3-8.9 2.9-2.8 3.1 1.3L267 257l-11.1-13.1"/><path id="path664" class="s13" d="m267 257 4.5-2.7 5.3 1.2-3.8-8.3-10-7.5"/><path id="path666" class="s13" d="m177.8 242.3-2.1-7.6 1.9-1 2.5 2.1 1.5 1.2 7.9-1.3"/><path id="path668" class="s13" d="m175.7 234.7-2.6-4.4 1-1.4.9-1.4 4.4 1.2.7 7.1"/><path id="path670" class="s13" d="m179.4 228.7 8-3.2"/><path id="path672" class="s13" d="m167.2 224.7 6.9 4.2"/><path id="path674" class="s13" d="m276.8 255.5 2.4 5.6 11.4 4.2 5.9 4.5 3.6-.5 3.1 2 7.6-2 5.3 1.4 11.1-5.2 5.9 4.2 3.2 6.6-2.7 5.6 6.4 4.8 5.4 4.8 1.8-3.7.9-.2 6.3-1.1.9-1.7 5.9 2.2 4.6 5.4"/><path id="path676" class="s13" d="m358.8 332.1.7-6.4 6.3-6.2-1-6.8-.7-4.2-3.6-2.3-1.5-.9-1-3-9.9-14.7"/><path id="path678" class="s13" d="M351.5 320.9V316l1.4-2.4 5.3-.4 3.6 2.2 3-2.7"/><path id="path680" class="s13" d="m358.2 313.2 1.1-3.3-2.5-2.3-5.3-5.1-4.7.5-4.6-7.8 3.2-3.7"/><path id="path682" class="s13" d="m340.8 326.4-1.6-.6"/><path id="path684" class="s13" d="m344.9 317.9-9.3-16.1 2.2-4.8 4.4-1.8"/><path id="path686" class="s13" d="m287.5 191.7 10-8.2 8.6 3 8.9-.2-1.6-5.5 1.6-3.8 9.1 2.1 2.5 4.5 11.3-.5 7.6 3.7 13.8-4.8 8.2.7-1.7 8.4 8.5-2.3 4.1 6.4-15.6 9.3-5.4-1.4-.8 2.4 3.8 3-7.1 6.8-10.3 3.8-10-4.3-14.7 2.4-4.4-7.7-13.6-2.8-1.8-8.9-11.7-4.8"/><path id="path688" class="s13" d="m367.5 182.7 4.9-2-.8-7.7 1.7-2.7-2.5-5.5 7.6-2.7 8.1 2.4 8.8 14 8.8 3.8 1.7 3.8 4.6 1 3.4-4.5 5 2.7-2.9 14.9-2.8 1.5-.5 7.2-.1 1.9"/><path id="path690" class="s13" d="m399.5 222.2 4.1-7.1 3.2.3 1.2-3.6 4.6-2.9"/><path id="path692" class="s13" d="m406.1 230.7 5.8-3.5"/><path id="path694" class="s13" d="m462.9 384 1.3-19"/><path id="path696" class="s13" d="m124.1 230.3 1.5 3.6 1.6 5.8 3.8 5.6 7.9 2.1 9.4-.1 5.8-2.6v6.6l-1.9 4.7-2.7 6.5 2.419 2.585.81 2.85.771 4.365 7.5 12.5 3.1.7 3.2 11.5 5.2 3.5 5 8.3 3.2 9.1 8.8-.2 14.7-6.4 3.8-3.4 9.7-4.8 7.8-13.2-10.3-8-1-.7-7.7 2.5-5.1-.7-10.4-12.8-1.6-1.9 1.2-.9 1.6-1.1 1.1-.8 15.2 10.8 7-2.2 1.9 5 12.6 2.5 2.3.5 12.8-1.3 3.2 4.5h.1l6.6 9.3 4.2-.3 2.6-5.1 3.3 15.6 12.7 28 3.7-.6 4.7-6.8.7-15.1 17.8-15.8-.4-3 11.5-2.8 4.7 8 6.4 12.7 4.3-1.4 2.3-3.7 2.6 2.4 4.4 13.4-1.3 5.7v6.8l6.6 5.7v5.7l4.2 5.5 6.7 4.3 1.5-1.7-3.1-6.8-.1-4.5-3.5-2.5-5.4-3.8-1.1-4.5-3.8-3.3.1-.1 3.6-8.7 6.6 3 2.1.9 5.2 10.3 10.2-6.3 2.9-7.5-3.2-9.8-6.9-4.3-2.3-6.6 3.5-5 2.8-.2 3.6-.2 10.2-5.6 5.6 1 10.2-8.3V273l5.1-7.9-1.5-7.6-10.4-14 3.9-7.2 5-1.4-1.9-2.6-4.7-.9-.9-.2-2.8 2.8-5.9-5.9 8.8-9.6 2 1.4-.2 6.9h2.1l5.5-4.6 4 9.2 2.6-.7 2.9 6.3 1.4 6.6 3.1-1.5 3 .7 2.1-1.9-1.7-8.8-5-4.9-4-4 5.3-6.1-.7-6.3 9.1-2.5 7.3-14.1 2.6-15.3-6.8-22.6-7-4.5-5.6 3.1-2.4-3.1-4.3-1.4 6.3-15.6 1.5-10 18.3-8.5 5.5 1.7 1.8 1.7 5.7-2.4-1.9-15.4 7.7-3.5 1.7 3.7 3.3 1.2 1.7-7.5-1.5-5.3 5-1.2 2 13.1-3.6 4.1-1.3 16.8-2.4 9.2 15.6 28.9 2.2.4 2.1-12.7-1.6-22.4-6.1-7.4-1.4-11.8 9.7-7.6 4.3 3.4 2-.7 2.8-16.1 4.6-4.6h5.9l-1.8-6.1-13.6-8-3 1-.3-4 5.4 1.4 1.8-2.4-1.8-8.5-3.4-2.3 1-4 4.1 3.8 5-2 1.7 2.5 7.8-2.8s-7.3-15.2-7.8-15.2c-.4.1-43.2-4.8-43.2-4.8l-8.6 5 3.7 6.2L440 43l-6.3-7.2-3.1 2.1-.6 3.4-9.8 2.4-.8 3.7h-3.8L404 36.8l-12.3 6.6-15-8.7-20.2 5 3.2 7.8-2.2 4.4-4-2.1-9.4 5.1v3.4l-11.7-6.2-.9-5.6-13.6-2.5-.5 3.8-8.4 2.8-3.9-2.9-19.1 6.9-3.3 6.2-2.2-2.4 6.9-22.3-13.6-9.4-6.6 6.1-.4-5.5-10.6-2-2.2 7.1 4.5 5L236 53.3l-2.1 6.8 4.2 3.4-1 4H228l-3 2.8 3.9 5 5.6 2.1-3 3.9-7.3-5.1-3 3.6 1.6 6-3.2-.5-3.9-10.5-1.6 1.2 1.5 7.3-1.8 1.5 3.5 5.8 5.7 9.2 5.5-.6 2.1-.3 3.4 3.5-1.5 3.5-3.8-5.2-5.1 2.1 2.1 6.5-2.3 7.2-6.9-.8-.4-2.2 4.5-.2 2-5.8-2.6-6.7-8.2-14.2-.7-8.8-8.9-.3.9 8.9-2.8 2.2 2.6 6.4 8.2 7.9-.5 4.7-12.8-8.4-5.9.4-7-3.9-.6 2.9 8.8 6.7-3.5 3-2.5-2.6-15.3 4-9.8 10.1-14.1 8.4-.9.6.1 4.4-3.6 4-7.4-2-.8-7.4-5.5-6.3 2.6-.7 6.6 5.3 7-1.1 3.5-7.4-14.9-9.4-15.2-2.2c5.178 10.349 36.158 64.162 4.5 48.2l.9 4.6c115.664 96.184 20.068 79.775-.7 71.5z"/><path id="path698" class="s13" d="m332.1 340.5-.5 2.9 10.2 10.8 5.7 12.1 10.6 9.1 5.2-4.3-7.9-15.1-18.4-13.5Z"/><path id="path700" class="s13" d="m365.2 374.4 9.3 3.9 4.1-2.4 3 2.4 8.7 3.6-.5 2.4L374 382l-12.5-4.3z"/><path id="path702" class="s13" d="m395.3 343-.8-5.5-11.9 9.6-5.4 5.7-3-1.2-3.6 3.8 1.5 3.9 2.7 7 14.2 3 8-13z"/><path id="path704" class="s13" d="m402.9 301.3-2 10.8 3.6 7 5-2 3 2 .9 4.2-1.9 2.8 1.9 1.4 3-1.5.6-3.8 2.5.4-1.6-6.1-10.9-5.3 1.6-6.5-2.2-5z"/><path id="path706" class="s13" d="m419.2 327.8-1.8 1.7-5.3 1.8-4.3 3.7.5 2.5 1.3.6 2.3-3.3 2.5.3.6 4.1 4.5.8 3.3-4.2-.8-7.4z"/><path id="path708" class="s13" d="m411.8 356.1 1.6.2 5-1.6-.9-2-4.4 1.8-8.1-.9-4.3 6.1.4 8.5.3 5.5h1.9l1-5 3 1.7 3.6 3.3 1.9-5.2-4.4-5.3 4.3-2.7-1.1-2.6-5.5 4-1.5-4.7 1.3-1.9z"/><path id="path710" class="s13" d="m464.2 365-9.7-2.7-6 4.9-2.6-.7-.1-3.3-3.7-1.5-.2-2.4-6.7 1.5 1 3.3 5.7.7-.8 4.5h4.6l3.7 2.7 6.1.8 2.9 5.8 4.5 5.4z"/><path id="path716" class="s13" d="m287 329.1-2.5 4.8 2.5 6.6 7.5-1.8-2.7-7.4z"/><path id="path738" class="s13" d="m197.8 225-.6-1.9-8.2-7.3 7.5-4.5-1.1-5.1h-5.5l-4 2.9-5.5 4.1 2 6.5 5 5.8 2.8 3.2-.7 7-.3 2.3 6.2 5.9h8.3l-.5-1.6z"/><path id="path740" class="s13" d="M213 212.1v3.4h5.4v-6.8l-5.4 1.1z"/><path id="path742" class="s13" d="m445.1 212.8.3-.1 4.1 8.3v7.9l1 7.9-13.6 9.5-9-2.4-.2 7.6-3.2 4.7-3.8-9 2.3-3.2 1.7-2.4 2.3-3.3 8.2-1.3 7.5-10.7-.8-12.1z"/><path id="path744" class="s13" d="m443.4 208.9-1-2.2h1l5.1 2.2 5.2-7.2-12.3-7h-1.9l3.4 7.1-3.4 2.7v3.8z"/><path id="path746" class="s13" d="m440.5 190 3.2-2.2-6-11.8 4.7 2.7 2.3-1.7-10-13-4.2-9.7-3.3-3.5h-1.7l1.7 4.5.7 1.7 6.1 15.2 3.5 12.1z"/><path id="path748" class="s13" d="m372.1 359.3 11.7-5.9 11.5-10.4"/><path id="path750" class="s13" d="M345.8 338.3h5.7"/></g></g><path id="path756" class="s13" d="m360.6 306.1 1.4-2.2"/><path id="path758" class="s13" d="m119.6 105.7-1.4 1.4"/></g><g id="g988"><g id="g852"><path id="path762" class="s2" d="m498.2 50.5-7.8 2.8-1.7-2.5-5 2-4.1-3.8-1 4 3.4 2.3 1.8 8.5-1.8 2.4-5.4-1.4.3 4 3-1 13.6 8 1.8 6.1h-5.9l-4.6 4.6-2.8 16.1-2 .7-4.3-3.4-9.7 7.6 1.4 11.8 6.1 7.4 1.6 22.4-2.1 12.7-2.2-.4-15.6-28.9 2.4-9.2 1.3-16.8 3.6-4.1-2-13.1-5 1.2 1.5 5.3-1.7 7.5-3.3-1.2-1.7-3.7-7.7 3.5 1.9 15.4-5.7 2.4-1.8-1.7-5.5-1.7-18.3 8.5-1.5 10-6.3 15.6 4.3 1.4 2.4 3.1 5.6-3.1 7 4.5 6.8 22.6-2.6 15.3-7.3 14.1-9.1 2.5.1-1.9.5-7.2 2.8-1.5 2.9-14.9-5-2.7-3.4 4.5-4.6-1-1.7-3.8-8.8-3.8-8.8-14-8.1-2.4-7.6 2.7 2.5 5.5-1.7 2.7.8 7.7-4.1 1.6-.8.4-8.2-.7-13.8 4.8-7.6-3.7-11.3.5-2.5-4.5-9.1-2.1-1.6 3.8 1.6 5.5-8.9.2-8.6-3-10 8.2-2.4-2.5-3.1 1.2-6.7-5.6-9.3 1.3-14.2-14.5-5.2 5-15-7.3-19.2 8.3-.1 7.7 3.4 3.6-3.7 3.1-4.8-2.4-8 1.9-5.2-3.4-5.2-.4-4.8 3.7-1.5 4.8-3.5-1.2-1.4 6.3 8.3 7.8-5.5 4.1 2 6.5 5 5.8-8 3.2-4.4-1.2-.9 1.4-6.9-4.2-9.7-7.4-2.2-6.1 2.4-4-1.8-.5 3.6-3.5-.5-2.8 1.4-1.1-1-2-11.2-1.5-5.4-7.3-7.2-.4v-.4l2.7-4.8-4.5-4.3-1.6-4-6.9.3v-.3l-2-6.9-1.5-5.4 3-3.5-.9-4.6 6.1-12.6-6.1-12.1.5-2.2-2.9-6.6.7-2-3.7-4.9 1.4-5.6-1.4-.9.9-1.3 15.2 2.2 14.9 9.4-3.5 7.4-7 1.1-6.6-5.3-2.6.7 5.5 6.3.8 7.4 7.4 2 3.6-4-.1-4.4.9-.6 14.1-8.4 9.8-10.1 15.3-4 2.5 2.6 3.5-3-8.8-6.7.6-2.9 7 3.9 5.9-.4 12.8 8.4.5-4.7-8.2-7.9-2.6-6.4 2.8-2.2-.9-8.9 8.9.3.7 8.8 8.2 14.2 2.6 6.7-2 5.8-4.5.2.4 2.2 6.9.8 2.3-7.2-2.1-6.5 5.1-2.1 3.8 5.2 1.5-3.5-3.4-3.5-2.1.3-5.5.6-5.7-9.2-3.5-5.8 1.8-1.5-1.5-7.3 1.6-1.2 3.9 10.5 3.2.5-1.6-6 3-3.6 7.3 5.1 3-3.9-5.6-2.1-3.9-5 3-2.8h9.1l1-4-4.2-3.4 2.1-6.8 22.5-15.9-4.5-5 2.2-7.1 10.6 2 .4 5.5 6.6-6.1 13.6 9.4-6.9 22.3 2.2 2.4 3.3-6.2 19.1-6.9 3.9 2.9 8.4-2.8.5-3.8 13.6 2.5.9 5.6 11.7 6.2v-3.4l9.4-5.1 4 2.1 2.2-4.4-3.2-7.8 20.2-5 15 8.7 12.3-6.6 11.6 10.6h3.8l.8-3.7 9.8-2.4.6-3.4 3.1-2.1L440 43l2.3-1.3-3.7-6.2 8.6-5s42.8 4.9 43.2 4.8c.5 0 7.8 15.2 7.8 15.2z"/><path id="path764" class="s3" d="m464.2 365-1.3 19-4.5-5.4-2.9-5.8-6.1-.8-3.7-2.7h-4.6l.8-4.5-5.7-.7-1-3.3 6.7-1.5.2 2.4 3.7 1.5.1 3.3 2.6.7 6-4.9z"/><path id="path766" class="s4" d="m453.7 201.7-5.2 7.2-5.1-2.2h-1l1 2.2-3.9-.6v-3.8l3.4-2.7-3.4-7.1h1.9z"/><path id="path768" class="s4" d="m449.5 228.9 1 7.9-13.6 9.5-9-2.4-3.2-2.3 2.3-3.3 8.2-1.3 7.5-10.7-.8-12.1 3.2-1.4.3-.1 4.1 8.3z"/><path id="path770" class="s2" d="m434.7 164 10 13-2.3 1.7-4.7-2.7 6 11.8-3.2 2.2-3-5.7-3.5-12.1-6.1-15.2-.7-1.7-1.7-4.5h1.7l3.3 3.5z"/><path id="path772" class="s4" d="m427.9 243.9-.2 7.6-3.2 4.7-3.8-9 2.3-3.2 1.7-2.4z"/><path id="path774" class="s4" d="m422 328.4.8 7.4-3.3 4.2-4.5-.8-.6-4.1-2.5-.3-2.3 3.3-1.3-.6-.5-2.5 4.3-3.7 5.3-1.8 1.8-1.7z"/><path id="path776" class="s4" d="m417.9 316.5 1.6 6.1-2.5-.4-.6 3.8-3 1.5-1.9-1.4 1.9-2.8-.9-4.2-3-2-5 2-3.6-7 2-10.8 3.5-1.6 2.2 5-1.6 6.5z"/><path id="path778" class="s5" d="m418.8 185.3-2.9 14.9-2.8 1.5-.5 7.2-4.6 2.9-1.2 3.6-3.2-.3-4.1 7.1-5.5 4.6h-2.1l.2-6.9-2-1.4-8.8 9.6 5.9 5.9 2.8-2.8.9.2 4.7.9 1.9 2.6-5 1.4-3.9 7.2 10.4 14 1.5 7.6-5.1 7.9v6.3l-10.2 8.3-5.6-1-10.2 5.6-3.6.2-4.6-5.4-5.9-2.2-.9 1.7-6.3 1.1-.9.2-1.8 3.7-5.4-4.8-6.4-4.8 2.7-5.6-3.2-6.6-5.9-4.2-11.1 5.2-5.3-1.4-7.6 2-3.1-2-3.6.5-5.9-4.5-11.4-4.2-2.4-5.6-3.8-8.3-10-7.5-4.1-1.2-5.8 3-1.3-6h-2l-1.1 4.2-5.9.4-.4-.4.9-4.1-2.3-3.3 4.6-2 2.1-3.4h3.6l.5-2.6-4.7-1.8 1.2-1.2 6.7-2.7 13.7-.8 4.7 2.5.8-4.2-2.6-6.3 5.9-.7-.2-7.3 7.8-1.6-.6-3.3 2.3-3.9 11.7 4.8 1.8 8.9 13.6 2.8 4.4 7.7 14.7-2.4 10 4.3 10.3-3.8 7.1-6.8-3.8-3 .8-2.4 5.4 1.4 15.6-9.3-4.1-6.4-8.5 2.3 1.7-8.4.8-.4 4.1-1.6-.8-7.7 1.7-2.7-2.5-5.5 7.6-2.7 8.1 2.4 8.8 14 8.8 3.8 1.7 3.8 4.6 1 3.4-4.5z"/><path id="path780" class="s6" d="m416.9 232.1 1.7 8.8-2.1 1.9-3-.7-3.1 1.5-1.4-6.6-2.9-6.3 5.8-3.5z"/><path id="path782" class="s4" d="m417.5 352.7.9 2-5 1.6-1.6-.2-5.9-.8-1.3 1.9 1.5 4.7 5.5-4 1.1 2.6-4.3 2.7 4.4 5.3-1.9 5.2-3.6-3.3-3-1.7-1 5h-1.9l-.3-5.5-.4-8.5 4.3-6.1 8.1.9z"/><path id="path784" class="s7" d="m412.5 210.8.7 6.3-5.3 6.1 4 4-5.8 3.5-2.6.7-4-9.2 4.1-7.1 3.2.3 1.2-3.6 4.6-2.9z"/><path id="path786" class="s4" d="m395.3 343 1.7 13.3-8 13-14.2-3-2.7-7 11.7-5.9z"/><path id="path788" class="s2" d="m394.5 337.5.8 5.5-11.5 10.4-11.7 5.9-1.5-3.9 3.6-3.8 3 1.2 5.4-5.7z"/><path id="path790" class="s4" d="m390.3 381.9-.5 2.4L374 382l-12.5-4.3 3.7-3.3 9.3 3.9 4.1-2.4 3 2.4z"/><path id="path792" class="s4" d="m374.3 188.8 4.1 6.4-15.6 9.3-5.4-1.4-.8 2.4 3.8 3-7.1 6.8-10.3 3.8-10-4.3-14.7 2.4-4.4-7.7-13.6-2.8-1.8-8.9-11.7-4.8.7-1.3 10-8.2 8.6 3 8.9-.2-1.6-5.5 1.6-3.8 9.1 2.1 2.5 4.5 11.3-.5 7.6 3.7 13.8-4.8 8.2.7-1.7 8.4z"/><path id="path794" class="s3" d="m368.7 308.5 3.2 9.8-2.9 7.5-10.2 6.3.7-6.4 6.3-6.2-1-6.8-.7-4.2-3.6-2.3 1.3-2z"/><path id="path796" class="s6" d="m361.2 287 4.6 5.4-2.8.2-3.5 5 2.3 6.6-1.3 2-1.5-.9-1-3-9.9-14.7 6.3-1.1.9-1.7z"/><path id="path798" class="s8" d="m364.8 312.7 1 6.8-6.3 6.2-.7 6.4-5.2-10.3-2.1-.9V316l1.4-2.4 5.3-.4 3.6 2.2z"/><path id="path800" class="s3" d="m364.1 308.5.7 4.2-3 2.7-3.6-2.2 1.1-3.3-2.5-2.3 2.2-2.3 1.5.9z"/><path id="path802" class="s4" d="m355.4 356 7.9 15.1-5.2 4.3-10.6-9.1-5.7-12.1-10.2-10.8.5-2.9 4.9 2z"/><path id="path804" class="s2" d="m359.3 309.9-1.1 3.3-5.3.4-1.4 2.4v4.9l-6.6-3-9.3-16.1 2.2-4.8 4.4-1.8 4.6 7.8 4.7-.5 5.3 5.1z"/><path id="path806" class="s3" d="m358 302.3 1 3-2.2 2.3-5.3-5.1-4.7.5-4.6-7.8 3.2-3.7 1.8-3.7.9-.2z"/><path id="path808" class="s8" d="m355.1 345.3 3.1 6.8-1.5 1.7-6.7-4.3-4.2-5.5v-5.7h5.7l3.5 2.5z"/><path id="path810" class="s2" d="M351.5 338.3h-5.7l-6.6-5.7v-6.8l1.6.6.5.2-.1.1 3.8 3.3 1.1 4.5z"/><path id="path812" class="s9" d="m345.4 291.5-3.2 3.7-4.4 1.8-2.2 4.8 9.3 16.1-3.6 8.7-.5-.2-1.6-.6 1.3-5.7-4.4-13.4-2.6-2.4-2.3 3.7-4.3 1.4-6.4-12.7-4.7-8-11.5 2.8.4 3-17.8 15.8-.7 15.1-4.7 6.8-3.7.6-12.7-28-3.3-15.6-2.6 5.1-4.2.3-6.6-9.3 8.7-2.3-5.3-8.9 2.9-2.8 3.1 1.3L267 257l.6-.3 3.9-2.4 5.3 1.2 2.4 5.6 11.4 4.2 5.9 4.5 3.6-.5 3.1 2 7.6-2 5.3 1.4 11.1-5.2 5.9 4.2 3.2 6.6-2.7 5.6 6.4 4.8z"/><path id="path814" class="s3" d="m291.8 331.3 2.7 7.4-7.5 1.8-2.5-6.6 2.5-4.8z"/><path id="path816" class="s9" d="m285.1 189.2 2.4 2.5-.7 1.3-2.3 3.9.6 3.3-7.8 1.6.2 7.3-5.9.7 2.6 6.3-.8 4.2-4.7-2.5-13.7.8-6.7 2.7-1.2 1.2-3.8 3.8-6.2-.6-5.5-8.5-8.8.1-4.4-1.8v-6.8l-5.4 1.1v2.3l-7.5 1.2 2.9 13.6-6.4-3.5-4.2 1.6-.6-1.9-8.2-7.3 7.5-4.5-1.1-5.1h-5.5l-4 2.9-8.3-7.8 1.4-6.3 3.5 1.2 1.5-4.8 4.8-3.7 5.2.4 5.2 3.4 8-1.9 4.8 2.4 3.7-3.1-3.4-3.6.1-7.7 19.2-8.3 15 7.3 5.2-5 14.2 14.5 9.3-1.3 6.7 5.6z"/><path id="path818" class="s8" d="m273 247.2 3.8 8.3-5.3-1.2-3.9 2.4-.6.3-11.1-13.1 7.1-4.2z"/><path id="path820" class="s6" d="M255.9 243.9 267 257l-9.2 15.6-3.1-1.3-2.9 2.8 5.3 8.9-8.7 2.3h-.1l-3.2-4.5-12.8 1.3-2.4-.5.1-.4 4.1-6-6.6-8.2h11.9l9.2-8.2 4.7-7.3.2-6.2z"/><path id="path822" class="s4" d="m263 239.7-7.1 4.2-2.4 1.4-.2 6.2-4.7 7.3-9.2 8.2h-11.9l-2.6-20.5 7.7-1.5 2.5-4.2 3.5-1.1h3.8l.4.4 5.9-.4 1.1-4.2h2l1.3 6 5.8-3z"/><path id="path824" class="s3" d="m251.8 224.3-.5 2.6h-3.6l-2.1 3.4-4.6 2 2.3 3.3-.9 4.1h-3.8v-2l-12.8-6.5-1.3-4.9-9.6-4.1-4.5 1.4v3.3h-2l-2.9-13.6 7.5-1.2v3.4h5.4l4.4 1.8 8.8-.1 5.5 8.5 6.2.6 3.8-3.8z"/><path id="path826" class="s2" d="M238.6 237.7v2l-3.5 1.1-2.5 4.2-7.7 1.5v-.4l-.1-.1-.1-2.1-12.2-5.1-9.3 3.5-5.4-17.3 4.2-1.6 6.4 3.5h2v-3.3l4.5-1.4 9.6 4.1 1.3 4.9z"/><path id="path828" class="s3" d="m227.5 267 6.6 8.2-4.1 6-.1.4-12.5-2.5-1.9-5-7 2.2-15.2-10.8-1.1.8-3.6-7.8-4.5-2-2.7-3.4 1.4-5-5-5.8-2.1-7.6 1.9-1 2.7 2.2 1.3 1.1 7.9-1.3-.3 2.3 6.2 5.9h8.3l-.5-1.6 9.3-3.5 12.2 5.1.1 2.1.1.1v.4z"/><path id="path830" class="s9" d="m225.5 289.9-7.8 13.2-9.7 4.8-4.1-8.6 7.8-3v-6.9l2.5-8.2 1 .7z"/><path id="path832" class="s8" d="m214.2 281.2-2.5 8.2-8.6-.9-1.7-5.5 5.1.7z"/><path id="path834" class="s2" d="M211.7 289.4v6.9l-7.8 3-.9.4-10 3.1-4 5.4-9.1-4.2-.6 3-1.8 1.8-5-8.3-5.2-3.5-3.2-11.5-3.1-.7-7.5-12.5-.6-3.9h.3l2.1-2.6-2.4-4.4 1.2-4.3.1-.1.1.1 3.1 2.4 5.7-4 1.1 3 17.8 11.7 3.1-.4h.3l.1 1 5.5-.6 10.4 12.8 1.7 5.5z"/><path id="path836" class="s6" d="m203.9 299.3 4.1 8.6-3.8 3.4-14.7 6.4-8.8.2-3.2-9.1 1.8-1.8.6-3 9.1 4.2 4-5.4 10-3.1z"/><path id="path838" class="s9" d="m188.6 258.5 3.6 7.8-1.6 1.1-3.4-1.7-2.1 2.1.3 2h-.3l-3.1.4-17.8-11.7-1.1-3 5.9-4.2-.6-5.5 2.6-1.5V242.7l6.8-.4 5 5.8-1.4 5 2.7 3.4z"/><path id="path840" class="s8" d="m191 270.2-5.5.6-.1-1-.3-2 2.1-2.1 3.4 1.7-1.2.9z"/><path id="path842" class="s9" d="m187.4 225.5 2.8 3.2-.7 7-7.9 1.3-1.3-1.1-.9-7.2z"/><path id="path844" class="s8" d="m179.4 228.7.9 7.2-2.7-2.2-1.9 1-2.6-4.4 1-1.4.9-1.4z"/><path id="path846" class="s5" d="m175.7 234.7 2.1 7.6-6.8.4v.2l-6.5 1-.6 1.4-2.8-1.4-4.3 1.2-2.7 3.2v-3.6l-5.8 2.6-9.4.1-7.9-2.1-3.8-5.6-1.6-5.8-1.5-3.6h1.8l.9-3.5 3.4-2 2.3 3.9h7.7l4.5-2.8 7.5.6 3.1 2.2h9.6l2.3-4 6.9 4.2-1 1.4z"/><path id="path848" class="s6" d="M171 242.9v1.4l-2.6 1.5.6 5.5-5.9 4.2-5.7 4-3.1-2.4-.1-.1 2.6-3.5-2.7-2.2v-3l2.7-3.2 4.3-1.2 2.8 1.4.6-1.4z"/><path id="path850" class="s8" d="m152.9 261.4 2.4 4.4-2.1 2.6h-.3l-.5-2.9-2.9-3 2.7-6.5 1.9 1.1z"/></g><g id="g986"><path id="path854" class="s12" d="m149.5 262.5 2.9 3 .5 2.9.6 3.9"/><path id="path856" class="s12" d="m153.2 268.4 2.1-2.6-2.4-4.4 1.2-4.3-1.9-1.1"/><path id="path858" class="s12" d="m154.1 251.3 2.7 2.2-2.6 3.5-.1.1"/><path id="path860" class="s12" d="m154.3 257.1 3.1 2.4 5.7-4 5.9-4.2-.6-5.5 2.6-1.5v-1.4l-6.5 1-.6 1.4-2.8-1.4-4.3 1.2-2.7 3.2"/><path id="path862" class="s12" d="m171 242.7 6.8-.4 5 5.8-1.4 5 2.7 3.4 4.5 2 3.6 7.8"/><path id="path864" class="s12" d="m190.6 267.4-3.4-1.7-2.1 2.1.3 2 .1 1 5.5-.6"/><path id="path866" class="s12" d="m163.1 255.5 1.1 3 17.8 11.7 3.1-.4"/><path id="path868" class="s12" d="m214.2 281.2-2.5 8.2"/><path id="path870" class="s12" d="m203.9 299.3 4.1 8.6"/><path id="path878" class="s12" d="m124.8 158.8-3 3.5 1.5 5.4"/><path id="path880" class="s12" d="m185.9 209.1-8.3-7.8 1.4-6.3 3.5 1.2 1.5-4.8 4.8-3.7 5.2.4 5.2 3.4 8-1.9 4.8 2.4 3.7-3.1-3.4-3.6.1-7.7 19.2-8.3 15 7.3 5.2-5 14.2 14.5 9.3-1.3 6.7 5.6 3.1-1.2 2.4 2.5-.7 1.3-2.3 3.9.6 3.3-7.8 1.6.2 7.3-5.9.7 2.6 6.3-.8 4.2-4.7-2.5-13.7.8-6.7 2.7-1.2 1.2-3.8 3.8-6.2-.6-5.5-8.5-8.8.1-4.4-1.8"/><path id="path882" class="s12" d="m224.8 246-.1-2.1-12.2-5.1-9.3 3.5"/><path id="path884" class="s12" d="m213 212.1-7.5 1.2 2.9 13.6h2v-3.3l4.5-1.4 9.6 4.1 1.3 4.9 12.8 6.5v2l-3.5 1.1-2.5 4.2-7.7 1.5v-.4"/><path id="path886" class="s12" d="m197.8 225 4.2-1.6 6.4 3.5"/><path id="path888" class="s12" d="M238.6 239.7h3.8l.9-4.1-2.3-3.3 4.6-2 2.1-3.4h3.6l.5-2.6-4.7-1.8"/><path id="path890" class="s12" d="m242.8 240.1 5.9-.4 1.1-4.2h2l1.3 6 5.8-3 4.1 1.2-7.1 4.2-2.4 1.4-.2 6.2-4.7 7.3-9.2 8.2h-11.9l-2.6-20.5v-.4l-.1-.1"/><path id="path892" class="s12" d="m230 281.2 4.1-6-6.6-8.2"/><path id="path894" class="s12" d="m267 257-11.1-13.1"/><path id="path896" class="s13" d="m248.4 285.3 8.7-2.3-5.3-8.9 2.9-2.8 3.1 1.3L267 257"/><path id="path898" class="s12" d="m267.6 256.7 3.9-2.4 5.3 1.2-3.8-8.3-10-7.5"/><path id="path900" class="s12" d="m180.3 235.9 1.3 1.1 7.9-1.3"/><path id="path902" class="s12" d="m177.8 242.3-2.1-7.6 1.9-1 2.7 2.2"/><path id="path904" class="s12" d="m175.7 234.7-2.6-4.4 1-1.4.9-1.4 4.4 1.2.9 7.2"/><path id="path906" class="s12" d="m179.4 228.7 8-3.2"/><path id="path908" class="s12" d="m167.2 224.7 6.9 4.2"/><path id="path910" class="s12" d="m276.8 255.5 2.4 5.6 11.4 4.2 5.9 4.5 3.6-.5 3.1 2 7.6-2 5.3 1.4 11.1-5.2 5.9 4.2 3.2 6.6-2.7 5.6 6.4 4.8 5.4 4.8 1.8-3.7.9-.2 6.3-1.1.9-1.7 5.9 2.2 4.6 5.4"/><path id="path912" class="s12" d="m358.8 332.1.7-6.4 6.3-6.2-1-6.8-.7-4.2-3.6-2.3-1.5-.9-1-3-9.9-14.7"/><path id="path914" class="s12" d="M351.5 320.9V316l1.4-2.4 5.3-.4 3.6 2.2 3-2.7"/><path id="path916" class="s12" d="m358.2 313.2 1.1-3.3-2.5-2.3-5.3-5.1-4.7.5-4.6-7.8 3.2-3.7"/><path id="path918" class="s12" d="m340.8 326.4-1.6-.6"/><path id="path920" class="s12" d="m344.9 317.9-9.3-16.1 2.2-4.8 4.4-1.8"/><path id="path922" class="s12" d="m287.5 191.7 10-8.2 8.6 3 8.9-.2-1.6-5.5 1.6-3.8 9.1 2.1 2.5 4.5 11.3-.5 7.6 3.7 13.8-4.8 8.2.7-1.7 8.4 8.5-2.3 4.1 6.4-15.6 9.3-5.4-1.4-.8 2.4 3.8 3-7.1 6.8-10.3 3.8-10-4.3-14.7 2.4-4.4-7.7-13.6-2.8-1.8-8.9-11.7-4.8"/><path id="path924" class="s12" d="m368.3 182.3 4.1-1.6-.8-7.7 1.7-2.7-2.5-5.5 7.6-2.7 8.1 2.4 8.8 14 8.8 3.8 1.7 3.8 4.6 1 3.4-4.5 5 2.7-2.9 14.9-2.8 1.5-.5 7.2-.1 1.9"/><path id="path926" class="s12" d="m399.5 222.2 4.1-7.1 3.2.3 1.2-3.6 4.6-2.9"/><path id="path928" class="s12" d="m406.1 230.7 5.8-3.5"/><path id="path930" class="s12" d="m462.9 384 1.3-19"/><path id="path932" class="s13" d="m124.1 230.3 1.5 3.6 1.6 5.8 3.8 5.6 7.9 2.1 9.4-.1 5.8-2.6v6.6l-1.9 4.7-2.7 6.5 2.996 3.023 1.004 6.777 7.5 12.5 3.1.7 3.2 11.5 5.2 3.5 5 8.3 3.2 9.1 8.8-.2 14.7-6.4 3.8-3.4 9.7-4.8 7.8-13.2-10.3-8-1-.7-7.7 2.5-5.1-.7-10.4-12.8-1.6-1.9 1.2-.9 1.6-1.1 1.1-.8 15.2 10.8 7-2.2 1.9 5 12.5 2.5 2.4.5 12.8-1.3 3.2 4.5h.1l6.6 9.3 4.2-.3 2.6-5.1 3.3 15.6 12.7 28 3.7-.6 4.7-6.8.7-15.1 17.8-15.8-.4-3 11.5-2.8 4.7 8 6.4 12.7 4.3-1.4 2.3-3.7 2.6 2.4 4.4 13.4-1.3 5.7v6.8l6.6 5.7v5.7l4.2 5.5 6.7 4.3 1.5-1.7-3.1-6.8-.1-4.5-3.5-2.5-5.4-3.8-1.1-4.5-3.8-3.3.1-.1 3.6-8.7 6.6 3 2.1.9 5.2 10.3 10.2-6.3 2.9-7.5-3.2-9.8-6.9-4.3-2.3-6.6 3.5-5 2.8-.2 3.6-.2 10.2-5.6 5.6 1 10.2-8.3V273l5.1-7.9-1.5-7.6-10.4-14 3.9-7.2 5-1.4-1.9-2.6-4.7-.9-.9-.2-2.8 2.8-5.9-5.9 8.8-9.6 2 1.4-.2 6.9h2.1l5.5-4.6 4 9.2 2.6-.7 2.9 6.3 1.4 6.6 3.1-1.5 3 .7 2.1-1.9-1.7-8.8-5-4.9-4-4 5.3-6.1-.7-6.3 9.1-2.5 7.3-14.1 2.6-15.3-6.8-22.6-7-4.5-5.6 3.1-2.4-3.1-4.3-1.4 6.3-15.6 1.5-10 18.3-8.5 5.5 1.7 1.8 1.7 5.7-2.4-1.9-15.4 7.7-3.5 1.7 3.7 3.3 1.2 1.7-7.5-1.5-5.3 5-1.2 2 13.1-3.6 4.1-1.3 16.8-2.4 9.2 15.6 28.9 2.2.4 2.1-12.7-1.6-22.4-6.1-7.4-1.4-11.8 9.7-7.6 4.3 3.4 2-.7 2.8-16.1 4.6-4.6h5.9l-1.8-6.1-13.6-8-3 1-.3-4 5.4 1.4 1.8-2.4-1.8-8.5-3.4-2.3 1-4 4.1 3.8 5-2 1.7 2.5 7.8-2.8s-7.3-15.2-7.8-15.2c-.4.1-43.2-4.8-43.2-4.8l-8.6 5 3.7 6.2L440 43l-6.3-7.2-3.1 2.1-.6 3.4-9.8 2.4-.8 3.7h-3.8L404 36.8l-12.3 6.6-15-8.7-20.2 5 3.2 7.8-2.2 4.4-4-2.1-9.4 5.1v3.4l-11.7-6.2-.9-5.6-13.6-2.5-.5 3.8-8.4 2.8-3.9-2.9-19.1 6.9-3.3 6.2-2.2-2.4 6.9-22.3-13.6-9.4-6.6 6.1-.4-5.5-10.6-2-2.2 7.1 4.5 5L236 53.3l-2.1 6.8 4.2 3.4-1 4H228l-3 2.8 3.9 5 5.6 2.1-3 3.9-7.3-5.1-3 3.6 1.6 6-3.2-.5-3.9-10.5-1.6 1.2 1.5 7.3-1.8 1.5 3.5 5.8 5.7 9.2 5.5-.6 2.1-.3 3.4 3.5-1.5 3.5-3.8-5.2-5.1 2.1 2.1 6.5-2.3 7.2-6.9-.8-.4-2.2 4.5-.2 2-5.8-2.6-6.7-8.2-14.2-.7-8.8-8.9-.3.9 8.9-2.8 2.2 2.6 6.4 8.2 7.9-.5 4.7-12.8-8.4-5.9.4-7-3.9-.6 2.9 8.8 6.7-3.5 3-2.5-2.6-15.3 4-9.8 10.1-14.1 8.4-.9.6.1 4.4-3.6 4-7.4-2-.8-7.4-5.5-6.3 2.6-.7 6.6 5.3 7-1.1 3.5-7.4-14.9-9.4-15.2-2.2-1.045 1.396 1.174.794-1.677 5.616 3.794 4.734-.643 2.133 3.08 6.592-.74 2.124 6.181 12.037-6.281 12.503 1.01 4.47-2.684 3.078 1.37 5.678 2.06 8.151 6.856-.256 1.472 3.607 4.568 4.28-2.75 4.552-.073 1.07 7.553.494 5.225 7.055 11.324 1.573.515 1.5-1.283.732.656 2.998-4.773 3.929 2.52.796-2.023 3.349 2.205 6.557 10.076 6.913-2.32 3.968-9.518.076-2.847-2.065-7.725-.819-4.627 2.88-7.465.008-2.315-3.904-3.564 2.466-.753 3.156z"/><path id="path934" class="s13" d="m332.1 340.5-.5 2.9 10.2 10.8 5.7 12.1 10.6 9.1 5.2-4.3-7.9-15.1-18.4-13.5Z"/><path id="path936" class="s13" d="m365.2 374.4 9.3 3.9 4.1-2.4 3 2.4 8.7 3.6-.5 2.4L374 382l-12.5-4.3z"/><path id="path938" class="s13" d="m395.3 343-.8-5.5-11.9 9.6-5.4 5.7-3-1.2-3.6 3.8 1.5 3.9 2.7 7 14.2 3 8-13z"/><path id="path940" class="s13" d="m402.9 301.3-2 10.8 3.6 7 5-2 3 2 .9 4.2-1.9 2.8 1.9 1.4 3-1.5.6-3.8 2.5.4-1.6-6.1-10.9-5.3 1.6-6.5-2.2-5z"/><path id="path942" class="s13" d="m419.2 327.8-1.8 1.7-5.3 1.8-4.3 3.7.5 2.5 1.3.6 2.3-3.3 2.5.3.6 4.1 4.5.8 3.3-4.2-.8-7.4z"/><path id="path944" class="s13" d="m411.8 356.1 1.6.2 5-1.6-.9-2-4.4 1.8-8.1-.9-4.3 6.1.4 8.5.3 5.5h1.9l1-5 3 1.7 3.6 3.3 1.9-5.2-4.4-5.3 4.3-2.7-1.1-2.6-5.5 4-1.5-4.7 1.3-1.9z"/><path id="path946" class="s13" d="m464.2 365-9.7-2.7-6 4.9-2.6-.7-.1-3.3-3.7-1.5-.2-2.4-6.7 1.5 1 3.3 5.7.7-.8 4.5h4.6l3.7 2.7 6.1.8 2.9 5.8 4.5 5.4z"/><path id="path952" class="s13" d="m287 329.1-2.5 4.8 2.5 6.6 7.5-1.8-2.7-7.4z"/><path id="path974" class="s13" d="m197.8 225-.6-1.9-8.2-7.3 7.5-4.5-1.1-5.1h-5.5l-4 2.9-5.5 4.1 2 6.5 5 5.8 2.8 3.2-.7 7-.3 2.3 6.2 5.9h8.3l-.5-1.6z"/><path id="path976" class="s13" d="M213 212.1v3.4h5.4v-6.8l-5.4 1.1z"/><path id="path978" class="s13" d="m445.1 212.8.3-.1 4.1 8.3v7.9l1 7.9-13.6 9.5-9-2.4-.2 7.6-3.2 4.7-3.8-9 2.3-3.2 1.7-2.4 2.3-3.3 8.2-1.3 7.5-10.7-.8-12.1z"/><path id="path980" class="s13" d="m443.4 208.9-1-2.2h1l5.1 2.2 5.2-7.2-12.3-7h-1.9l3.4 7.1-3.4 2.7v3.8z"/><path id="path982" class="s12" d="m372.1 359.3 11.7-5.9 11.5-10.4"/><path id="path984" class="s12" d="M345.8 338.3h5.7"/></g></g></g></g></g></svg>