<svg version="1.2" width="237" height="180" id="svg993" xmlns="http://www.w3.org/2000/svg"><style id="style4">.s1{fill:#6bdff9}.s2{fill:#ad96a6}.s3{fill:#9ded68}.s4{fill:#fad22a}.s5{fill:#6f5967}.s6{fill:#ea5947}.s7{fill:#0e8b9f}.s8{fill:#d94a6d}.s10,.s9{fill:none;stroke:#1d1d1b;stroke-width:.5}.s10{stroke-dasharray:1.9493588689617927,1.9493588689617927}.s11,.s12{fill:none;stroke:#163568;stroke-width:.6}.s12{stroke-linecap:round;stroke-linejoin:round}.s13{fill:#163568}</style><g id="OBJECTS" transform="translate(0 4)"><g id="g990" transform="translate(-10)"><g id="g986"><g id="&lt;Group&gt;"><path id="path8" class="s1" d="m109.6 148.9 4.5-.5-1.5-7-3 .9z"/><path id="path10" class="s1" d="m112.4 134.7-2.8 1.7.3 3.3 2.5.4z"/><path id="path12" class="s1" d="m129.9 152.8-.9-1.5-1.5.7-6.1-.3.3 2.4 6.7 2.1z"/><path id="path14" class="s1" d="m59.2 50.6-2.7-8.8L46.2 40l-7.3 4.3-5-3.2-3.8 3.8 3.8 2.5 1.1 6.9 5 3.1z"/><path id="path16" class="s1" d="m200.71 23.442 21.876 7.97 11.908 27.505-4.09 22.156-15.195 6.923-2.236 17.282-3.133 4.995 2.47 6.118 5.28 3.254-6.36 4.613-3.673-5.671 3.088 11.14 10.345 5.52-11.252 5.115-3.49-.12-17.405-15.667L169.1 51.2l-.8-7-5.5-6 2.6-.7 6.6 5.1 5.397-2.27 5.103-5.83-14.9-8.9-15.2-2.1 3-2.8-5.4-3.5-4.2-.9-10.1 4.7-14.3 9.1-7.9 5 1.5 1.2 6.4-3.7v2.5l-4.4 6.3-1.7 8.2-10.4 10.5-7.4 3.5 1.8 12.1 3.5 4.8 6.7-2.1 3.5-2.5 5 9.2 2.8 2.6 1.2 1.2 5.3-1.4 3-11.2 2.2-3.3 12.8-2 .2.1 11.4-1.8.9 4.4h-11.9l-1.4 1.5-4.5 4.7-.2 8.7 4.1 4.2-5.8 2-7.8-1.1-6.3 3.2-1.4.6-5.8-2.4-5.8.3.2-4.1 5.8 1.3 2.2-3.3-3.2-.9-.2 1.8-2.9-1.3-.4-6.4-6.3 2.4.3 4.9.7 2.2 2 5.9-3.6.4-6.3.7-3.1 6.1-1.1 2-18.8 9.2 1 3.1 8.9 5.8-2.6 2.3.6 6-17.5-.8-3.2 3.3v8.9l-2 3.4 2.9 2.6-.6 2.7 4.9 1.2c3.342 3.876 3.477 3.687 7.4.9l5.8-.1 5.8-6.1-.3-3.3 8-6.5V133.9l2.6-1.6 5.2 2.3 3.9-2.1 3.4-1.8 4 .9v2.5l8.1 7.4 8.6 4.3-.7 5.2 2 1.4 2-5.6-1.6-3.4 1.6-.2 2.9 2.4v-2.4l-7.8-5.2-7.6-6.4-1-5.4 1.5.3 1.5.2.7.7 8.3 7.8 1.3.1 2.7.4 2.2 2.9.6.7 1.3 6.9.5.4v.1l3.6 3.2 1.1 3.9 4.4 2.3 3-4.6-4.2-8.6 7.6-1.3 2.859-5.45 2.215-1.935-.034-3.677 4.553-8.65 1.826-3.726 4.53 1.765-1.346 2.697 4.196 4.995 4.807-4.258-.949-1.885 7.115-8.36z"/><path id="path18" class="s1" d="m74.7 90.5 5.1 6.6-4.2 2.2-.1 6.8h3l-1 1.5-3.5 1.9.4 1.8 15.9-5.3.3-2.9-6.4-8.9-2.2-2.9-2.6-5.4-1.3-6.8h-4.3l-3.6 8.8 2.4 2.6z"/><path id="path20" class="s1" d="m61.7 94.8.9 4.5-3.1 3 2.8 2.8 4.9-1.4h3l1.7-7.5 1.3-2.9-5-2.9-3.4 2.7z"/></g><g id="g704"><g id="g137"><g id="g133"><path id="path37" class="s2" d="m208 104.2-1.4 6 8.3 7.5-5.5 3.8 2 6.2 5 5.5-8 3.1-4.4-1.2-.9 1.3-6.9-4-9.7-6.9-2.2-5.9 2.4-3.8-1.8-.4v-.1l3.6-3.3-.5-2.6 1.4-1-1-2-11.2-1.4-5.4-7-7.2-.3v-.4l2.7-4.6-4.5-4.1-1.6-3.8-6.9.4v-.4l-2-6.5-1.5-5.1 3-3.3-.9-4.4 6.1-12-6.1-11.5.5-2-2.9-6.4.7-1.9-3.7-4.6 1.4-5.3-1.4-.9.9-1.2 15.2 2.1 14.9 8.9-3.5 7-7 1.1-6.6-5.1-2.6.7 5.5 6 .8 7 7.4 1.9 3.6-3.8-.1-4.2.9-.5 14.1-8 9.8-9.6z"/><path id="path47" class="s4" d="m188.4 106.4 1 2-1.4 1 .5 2.6-3.6 3.3v.1l-2.4-.5-5.3 4.5 1.3 2.9-3.6 3.3-3.3-3 1.3-2.4-7-2-3.1 5.1-3.3-1.7-.1-.3.2-.1 1.2-2.4 2.6-.2-.5-1.6-2.8-1.7-.4-2.6-2.8-.4-2.6-1-1.7 2-4.7 1.2-2.2-1.5-2.9.6-1-1.3 3.9-8.1-1.4-4.1 5.6-.6 11.6 1.1 3.1-2.9 7.2.3 5.4 7z"/><path id="path53" class="s5" d="m167.3 92.7-2.7 4.6v.4l-3.1 2.9-11.6-1.1-5.6.6-.7-2.1 1.2-1.3-2.8-5.5 4.4 1 4.4-6.9 3.5-.1 6.9-.4 1.6 3.8z"/><path id="path55" class="s6" d="m162.9 117 .5 1.6-2.6.2-1.2 2.4-.2.1-.4.3-.8-3.8-4.4-4.8-1.2.3 1.7-2 2.6 1 2.8.4.4 2.6z"/><path id="path57" class="s7" d="m162.8 123.3-2.7 4.4-4.7-.6-2.3 1.3-8.9-.4-.3-1.6-2.6-2.2-3.7-3.9 5.2-6.7 2.9-.6 2.2 1.5 4.7-1.2 1.2-.3 4.4 4.8.8 3.8.4-.3.1.3z"/><path id="path59" class="s8" d="m160.1 127.7-1.9 3.2 1 1.7-3.4 1.9-1.3-.5-1.4 2-6.2.3-2.5-3.4.4-.1-.6-4.8 8.9.4 2.3-1.3z"/><path id="path61" class="s4" d="m152.9 42 6.1 11.5-6.1 12-11.4 1.8-6.1-2.6-1.7-9.8 2.9-4.7 5.1-8.1-4.4-1.7-.8-10.2-7.5-5 1.8-1.4 6.3 2.9 3.7-1.6v-2.2l.4-2.7 3.8-1 2.5 1.7 1.4.9-1.4 5.3 3.7 4.6-.7 1.9 2.9 6.4z"/><path id="path63" class="s4" d="m155.8 134.5-.9 3.3h-1.8l-7.6 1.3 4.2 8.6-3 4.6-4.4-2.3-1.1-3.9-3.6-3.2v-.1l3.1-3.8 6.2-2.7 6.2-.3 1.4-2z"/><path id="path65" class="s7" d="M154.3 84.8v.4l-3.5.1-4.4-2.7h-7.6l-3 2.2.2-8.7 4.5-4.7 3.8 4.3 8 2.6z"/><path id="path67" class="s6" d="m153.8 69.9-3 3.3 1.5 5.1-8-2.6-3.8-4.3 1.4-1.5z"/><path id="path69" class="s6" d="m151.4 16.9-3 2.8-.9 1.2-2.5-1.7-3.8 1-.4 2.7v2.2l-3.7 1.6-6.3-2.9-1.8 1.4-6.8 5.1-1.1 2.5-3.7-1.5v-2.5l-6.4 3.7-1.5-1.2 7.9-5 14.3-9.1 10.1-4.7 4.2.9z"/><path id="path71" class="s8" d="m150.8 85.3-4.4 6.9-4.4-1-1.2-2.6-5-3.8 3-2.2h7.6z"/><path id="path73" class="s6" d="m144.4 132.9 2.5 3.4-6.2 2.7-.9-4.2z"/><path id="path75" class="s3" d="m144.3 100.1 1.4 4.1-3.9 8.1-7 1-3.6 2.4-2.5-.8-.1-.4-.8-2.7-.1-.4 4.7-.2 2.1-2.9-4.7-2-7.9-3.5-1.9-9.7 6.3-3.2 7.8 1.1 6.7-2.4 1.2 2.6 2.8 5.5-1.2 1.3z"/><path id="path77" class="s3" d="m144.2 128 .6 4.8-.4.1-4.6 1.9-2.2-2.3 1-1.6-3.5-2.2-1.7-4.5.7-.2.4-2.8h.5l2.6-.9 3.7 3.9 2.6 2.2z"/><path id="path79" class="s8" d="m141.8 112.3 1 1.3-5.2 6.7-2.6.9h-5.7l-1.5-3.4-.6-.2 1.4-3.1.1.4 2.5.8 3.6-2.4z"/><path id="path81" class="s7" d="m139.8 134.8.9 4.2-3.1 3.8-.5-.4-1.3-6.9-.6-.7 2.4-2.3z"/><path id="path83" class="s5" d="m138.6 130.9-1 1.6-2.4 2.3-2.2-2.9 2.3-2.7-.2-.5z"/><path id="path85" class="s3" d="m136.5 30.2.8 10.2-.4-.1-3.9 3.9-.1 3.9L125 56l.2 6.2 4.3 5.5-3.2 4.8-3 11.2-5.3 1.4-1.2-1.2-2.8-2.6-5-9.2 3.4.2 1.6-9.6-1.9-2.4v-9.5l2.3-1 3.9-10.6 2.8-6.4 1.1-2.5 6.8-5.1z"/><path id="path87" class="s7" d="m135.1 128.7.2.5-2.3 2.7-2.7-.4V130l-5.2-5.3.8-1.1 4.4 1.3 3.1-.7z"/><path id="path89" class="s4" d="m134.5 108.3-2.1 2.9-4.7.2h-.7l-4.6-.8-1.3 1h-3.2l-2.6 3.7-6-.2-7.3-.2 1.8-3.9-7.4-1.8 2-3.3-1-3.1 3.8-3.9.4-4.4 3.6-.4-2-5.9 4-.7-.2 4.1 5.8-.3 5.8 2.4 1.4-.6 1.9 9.7 7.9 3.5z"/><path id="path91" class="s5" d="m134.5 121.2-.4 2.8-.7.2-3.1.7-4.4-1.3-.8 1.1 5.2 5.3v1.5l-1.3-.1-8.3-7.8 2.4-.4 3.2-3.7.9-1.9.6.2 1.5 3.4z"/><path id="path93" class="s7" d="M133.4 139.4v2.4l-2.9-2.4-1.6.2 1.6 3.4-2 5.6-2-1.4.7-5.2-8.6-4.3-8.1-7.4v-2.5l-4-.9-3.4 1.8-2.2-7.6-2.7-.9 3.4-4.3.4-1 7.3.2v.2l-.9 2 2.9 1 3.3-.7 3.3 1.9h1.2l-.6 3.2-1.5-.3 1 5.4 7.6 6.4z"/><path id="path99" class="s6" d="m127.8 111.8.8 2.7-1.4 3.1-.9 1.9h-8.4l-3.3-1.9-3.3.7-2.9-1 .9-2v-.2l6 .2 2.6-3.7h3.2l1.3-1 4.6.8h.7z"/><path id="path101" class="s8" d="m126.3 119.5-3.2 3.7-2.4.4-.7-.7-1.5-.2.6-3.2z"/><path id="path103" class="s7" d="m125 147.5.9 1.5-1.5 3.4-6.7-2.1-.3-2.4 6.1.3z"/><path id="path105" class="s6" d="m121.1 32.8-2.8 6.4-3.9 10.6-2.3 1v9.5l1.9 2.4-1.6 9.6-3.4-.2-3.5 2.5-6.7 2.1-3.5-4.8-1.8-12.1 7.4-3.5 10.4-10.5 1.7-8.2 4.4-6.3z"/><path id="path109" class="s7" d="m115.2 85.5-2.2 3.3-5.8-1.3-4 .7-.7-2.2-.3-4.9 6.3-2.4.4 6.4 2.9 1.3.2-1.8z"/><path id="path111" class="s7" d="m108.6 137.6 1.5 7-4.5.5v-6.6z"/><path id="path113" class="s5" d="M108.4 130.9v5.4l-2.5-.4-.3-3.3z"/><path id="path115" class="s5" d="m103.8 111-1.8 3.9-.4 1-3.4 4.3 2.7.9 2.2 7.6-3.9 2.1-5.2-2.3-2.6 1.6v2.7l-6.6-.6-4.6-2.5-.6-6 2.6-2.3-8.9-5.8-1-3.1 18.8-9.2 3.2 5.4 2.1.5z"/><path id="path117" class="s7" d="m101.6 94.5-.4 4.4-3.8 3.9-5.2-1.5 3.1-6.1z"/><path id="path119" class="s8" d="m97.4 102.8 1 3.1-2 3.3-2.1-.5-3.2-5.4 1.1-2z"/><path id="path121" class="s7" d="M91.4 132.8v3.1l-8 6.5.3 3.3-5.8 6.1-5.8.1-3.8 2.7-3.6-3.6v-6.8l-1.3-1.9 1.6-1 1.3-5.9-6.8-1.8v-1.4l3.2-3.3 17.5.8 4.6 2.5z"/><path id="path123" class="s4" d="m80.2 90.4 6.4 8.9-.3 2.9-15.9 5.3-.4-1.8 3.5-1.9 1-1.5h-3l.1-6.8 4.2-2.2z"/><path id="path125" class="s4" d="m80.2 90.4-4.4 2.9-5.1-6.6h-2.1l-2.4-2.6 3.6-8.8h4.3l1.3 6.8 2.6 5.4z"/><path id="path127" class="s6" d="m69.2 89.5-1.3 2.9-1.7 7.5h-3l-4.9 1.4-2.8-2.8 3.1-3-.9-4.5 3.1-1.7 3.4-2.7z"/><path id="path129" class="s8" d="m66.3 135.4-1.3 5.9-1.6 1 1.3 1.9v6.8l-4.9-1.2.6-2.7-2.9-2.6 2-3.4v-7.5z"/><path id="path131" class="s6" d="m52.5 38 2.7 8.8L36 53.6l-5-3.1-1-6.9-3.9-2.5 3.9-3.8 4.9 3.2 7.3-4.3z"/></g></g><path id="path139" class="s4" d="m155.8 134.5 3.4-2"/><path id="path141" class="s9" d="m30 37.3-3.9 3.9 3.9 2.4 1 6.9 5 3.1 19.2-6.8-2.7-8.8-10.3-1.8-7.3 4.3z"/><path id="path143" class="s9" d="M59.5 132.2v8.9l-2 3.4 2.9 2.6-.6 2.7 4.9 1.2 3.6 3.6 3.8-2.7 5.8-.1 5.8-6.1-.3-3.3 8-6.5v-5.8l2.6-1.5 5.2 2.2 7.3-3.9 4 .9v2.5l8.1 7.4 8.6 4.3-.7 5.2 2 1.4 2-5.6-1.6-3.4 1.6-.2 2.9 2.5v-2.5l-7.8-5.1-7.6-6.5-1-5.4 3 .5 9 8.5 4 .5 2.8 3.6 1.3 6.9 4.1 3.7 1.1 3.9 4.4 2.3 3-4.6-4.2-8.6 7.6-1.3 47.7-114.6-9.8 9.6-15 8.5.1 4.2-3.6 3.8-7.4-1.9-.8-7-5.5-6 2.6-.7 6.6 5.1 7-1.1 3.5-7-14.9-8.9-15.2-2.1 3-2.8-5.4-3.5-4.2-.9-10.1 4.7-14.3 9.1-7.9 5 1.5 1.2 6.4-3.7v2.5l-4.4 6.3-1.7 8.2-10.4 10.6-7.4 3.4 1.8 12.1 3.5 4.8 6.7-2.1 3.5-2.5 5 9.2 4 3.8 5.3-1.4 3-11.2 3.2-4.7-4.3-5.6-.2-6.2 7.9-7.9.1-3.9 3.9-3.9 4.8 1.8-8 12.8 1.7 9.8 6.1 2.6 11.4-1.8.9 4.4h-11.9l-5.9 6.2-.2 8.7 5 3.9-6.7 2.3-7.8-1.1-7.7 3.8-5.8-2.4-5.8.3.2-4.1 5.8 1.3 2.2-3.3-3.2-.9-.2 1.8-2.9-1.3-.4-6.4-6.3 2.4.3 4.9 2.7 8.1-9.9 1.1-4.2 8.1-18.8 9.2 1 3.1 8.9 5.8-2.6 2.3.6 6-17.5-.8z"/><path id="path145" class="s9" d="m70.4 107.5 15.9-5.3.3-2.9L78 87.5l-2.6-5.4-1.3-6.8h-4.3l-3.6 8.8 2.4 2.6h2.1l5.1 6.6-4.2 2.2-.1 6.8h3l-1 1.5-3.5 1.9z"/><path id="path147" class="s9" d="m55.5 98.5 2.8 2.8 4.9-1.4h3l1.7-7.5 1.3-2.9-5-2.9-3.4 2.7-3.1 1.7.9 4.5z"/><path id="path149" class="s9" d="m108.6 137.6-3 .9v6.6l4.5-.5z"/><path id="path151" class="s9" d="m108.4 130.9-2.8 1.7.3 3.3 2.5.4z"/><path id="path153" class="s9" d="m117.4 147.9 6.1.3 1.5-.6.9 1.4-1.5 3.4-6.7-2.1z"/><path id="path179" class="s10" d="M64.7 151v-6.8l-1.3-1.9 1.6-1 1.3-5.9-6.8-1.8"/><path id="path181" class="s10" d="m80.2 129.7 4.5 2.5 6.7.6"/><path id="path183" class="s10" d="m91.1 103.3 3.1 5.4 9.5 2.3-2.1 4.8-3.4 4.4 2.7.9 2.2 7.6"/><path id="path185" class="s10" d="m92.1 101.3 5.3 1.5 1 3.1-2.1 3.3"/><path id="path187" class="s10" d="m101.6 94.5-.4 4.4-3.8 3.9"/><path id="path189" class="s10" d="m103.2 88.2 4-.7"/><path id="path191" class="s10" d="m102 114.9 13.3.4 2.6-3.7h3.2l1.3-1 4.6.9 5.4-.3 2.1-2.9-4.7-2-7.9-3.5L120 93"/><path id="path193" class="s10" d="m127.7 111.8 1 3.1 2.5.8 3.6-2.4 6.9-1 4-8.1-2.1-6.2 1.1-1.3-3.9-8"/><path id="path195" class="s10" d="m109.3 115.3-.9 2 2.8 1 3.4-.7 3.3 1.9h8.4l2.3-5"/><path id="path197" class="s10" d="m127.7 117.8 1.6 3.4h5.7l2.6-.9 5.2-6.7-1.1-1.3"/><path id="path199" class="s10" d="m119.1 119.5-.6 3.1"/><path id="path201" class="s10" d="m120.7 123.6 2.4-.4 3.2-3.7"/><path id="path203" class="s10" d="M130.2 131.5V130l-5.1-5.2.8-1.2 4.3 1.3 3.9-.9.4-2.8"/><path id="path205" class="s10" d="m133 131.9 2.3-2.7-1.9-5"/><path id="path207" class="s10" d="m137.6 120.3 3.7 3.9 2.6 2.2.8 6.4-4.9 2-2.2-2.3 1-1.6-3.5-2.2"/><path id="path209" class="s10" d="m135.2 134.8 2.4-2.3"/><path id="path211" class="s10" d="m137.6 142.9 3.1-3.9-.9-4.2"/><path id="path213" class="s10" d="m144.4 132.9 2.5 3.4-6.2 2.7"/><path id="path215" class="s10" d="M153.1 137.8h1.8l.9-3.3-1.3-.5-1.4 1.9-6.2.4"/><path id="path217" class="s10" d="m144.1 128 9 .4 2.3-1.3 4.7.6"/><path id="path219" class="s10" d="m142.8 113.6 2.9-.6 2.2 1.5 5.8-1.5 4.5 4.8.8 3.8.6-.4 1.2-2.4 2.6-.2-.5-1.6-2.8-1.7-.4-2.6-2.8-.4-2.6-1-1.7 2"/><path id="path221" class="s10" d="m159.5 121.6 3.3 1.7"/><path id="path223" class="s10" d="m144.3 100.1 5.6-.6 11.6 1.1 3.1-2.9 7.2.3 5.4 7 11.2 1.4 1 2-1.4 1 .5 2.6-3.6 3.3"/><path id="path225" class="s10" d="m135.8 84.8 2.9-2.2h7.7l4.3 2.7-4.3 6.9-4.4-1"/><path id="path227" class="s10" d="m164.6 97.3 2.7-4.6-4.5-4-1.6-3.8-10.5.4"/><path id="path229" class="s10" d="m154.3 84.9-2.1-6.6-7.9-2.6-3.8-4.3"/><path id="path231" class="s10" d="m153.8 69.9-3.1 3.3 1.5 5.1"/><path id="path233" class="s10" d="m152.9 65.5 6.1-12-6.1-11.5.5-2-2.9-6.4.7-1.9-3.7-4.6 1.4-5.3-3.9-2.6-3.8 1.1-.4 2.6v2.2l-3.7 1.6-6.4-2.9-8.5 6.5-3.9 8.9-3.9 10.6-2.3 1v9.5l1.9 2.4-1.6 9.6-3.4-.2"/><path id="path235" class="s10" d="m137.3 40.4-.8-10.2-7.5-5"/><path id="path241" class="s10" d="m208.9 136.3 7.5-3.1"/><path id="path243" class="s10" d="m196.2 132.4 6.9 4"/><g id="g467"><g id="g355"><path id="path259" class="s2" d="m208 104.2-1.4 6 8.3 7.5-5.5 3.8 2 6.2 5 5.5-8 3.1-4.4-1.2-.9 1.3-6.9-4-9.7-6.9-2.2-5.9 2.4-3.8-1.8-.4v-.1l3.6-3.3-.5-2.6 1.4-1-1-2-11.2-1.4-5.4-7-7.2-.3v-.4l2.7-4.6-4.5-4.1-1.6-3.8-6.9.4v-.4l-2-6.5-1.5-5.1 3-3.3-.9-4.4 6.1-12-6.1-11.5.5-2-2.9-6.4.7-1.9-3.7-4.6 1.4-5.3-1.4-.9.9-1.2 15.2 2.1 14.9 8.9-3.5 7-7 1.1-6.6-5.1-2.6.7 5.5 6 .8 7 7.4 1.9 3.6-3.8-.1-4.2.9-.5 14.1-8 9.8-9.6z"/><path id="path269" class="s4" d="m188.4 106.4 1 2-1.4 1 .5 2.6-3.6 3.3v.1l-2.4-.5-5.3 4.5 1.3 2.9-3.6 3.3-3.3-3 1.3-2.4-7-2-3.1 5.1-3.3-1.7-.1-.3.2-.1 1.2-2.4 2.6-.2-.5-1.6-2.8-1.7-.4-2.6-2.8-.4-2.6-1-1.7 2-4.7 1.2-2.2-1.5-2.9.6-1-1.3 3.9-8.1-1.4-4.1 5.6-.6 11.6 1.1 3.1-2.9 7.2.3 5.4 7z"/><path id="path275" class="s5" d="m167.3 92.7-2.7 4.6v.4l-3.1 2.9-11.6-1.1-5.6.6-.7-2.1 1.2-1.3-2.8-5.5 4.4 1 4.4-6.9 3.5-.1 6.9-.4 1.6 3.8z"/><path id="path277" class="s6" d="m162.9 117 .5 1.6-2.6.2-1.2 2.4-.2.1-.4.3-.8-3.8-4.4-4.8-1.2.3 1.7-2 2.6 1 2.8.4.4 2.6z"/><path id="path279" class="s7" d="m162.8 123.3-2.7 4.4-4.7-.6-2.3 1.3-8.9-.4-.3-1.6-2.6-2.2-3.7-3.9 5.2-6.7 2.9-.6 2.2 1.5 4.7-1.2 1.2-.3 4.4 4.8.8 3.8.4-.3.1.3z"/><path id="path281" class="s8" d="m160.1 127.7-1.9 3.2 1 1.7-3.4 1.9-1.3-.5-1.4 2-6.2.3-2.5-3.4.4-.1-.6-4.8 8.9.4 2.3-1.3z"/><path id="path283" class="s4" d="m152.9 42 6.1 11.5-6.1 12-11.4 1.8-6.1-2.6-1.7-9.8 2.9-4.7 5.1-8.1-4.4-1.7-.8-10.2-7.5-5 1.8-1.4 6.3 2.9 3.7-1.6v-2.2l.4-2.7 3.8-1 2.5 1.7 1.4.9-1.4 5.3 3.7 4.6-.7 1.9 2.9 6.4z"/><path id="path285" class="s4" d="m155.8 134.5-.9 3.3h-1.8l-7.6 1.3 4.2 8.6-3 4.6-4.4-2.3-1.1-3.9-3.6-3.2v-.1l3.1-3.8 6.2-2.7 6.2-.3 1.4-2z"/><path id="path287" class="s7" d="M154.3 84.8v.4l-3.5.1-4.4-2.7h-7.6l-3 2.2.2-8.7 4.5-4.7 3.8 4.3 8 2.6z"/><path id="path289" class="s6" d="m153.8 69.9-3 3.3 1.5 5.1-8-2.6-3.8-4.3 1.4-1.5z"/><path id="path291" class="s6" d="m151.4 16.9-3 2.8-.9 1.2-2.5-1.7-3.8 1-.4 2.7v2.2l-3.7 1.6-6.3-2.9-1.8 1.4-6.8 5.1-1.1 2.5-3.7-1.5v-2.5l-6.4 3.7-1.5-1.2 7.9-5 14.3-9.1 10.1-4.7 4.2.9z"/><path id="path293" class="s8" d="m150.8 85.3-4.4 6.9-4.4-1-1.2-2.6-5-3.8 3-2.2h7.6z"/><path id="path295" class="s6" d="m144.4 132.9 2.5 3.4-6.2 2.7-.9-4.2z"/><path id="path297" class="s3" d="m144.3 100.1 1.4 4.1-3.9 8.1-7 1-3.6 2.4-2.5-.8-.1-.4-.8-2.7-.1-.4 4.7-.2 2.1-2.9-4.7-2-7.9-3.5-1.9-9.7 6.3-3.2 7.8 1.1 6.7-2.4 1.2 2.6 2.8 5.5-1.2 1.3z"/><path id="path299" class="s3" d="m144.2 128 .6 4.8-.4.1-4.6 1.9-2.2-2.3 1-1.6-3.5-2.2-1.7-4.5.7-.2.4-2.8h.5l2.6-.9 3.7 3.9 2.6 2.2z"/><path id="path301" class="s8" d="m141.8 112.3 1 1.3-5.2 6.7-2.6.9h-5.7l-1.5-3.4-.6-.2 1.4-3.1.1.4 2.5.8 3.6-2.4z"/><path id="path303" class="s7" d="m139.8 134.8.9 4.2-3.1 3.8-.5-.4-1.3-6.9-.6-.7 2.4-2.3z"/><path id="path305" class="s5" d="m138.6 130.9-1 1.6-2.4 2.3-2.2-2.9 2.3-2.7-.2-.5z"/><path id="path307" class="s3" d="m136.5 30.2.8 10.2-.4-.1-3.9 3.9-.1 3.9L125 56l.2 6.2 4.3 5.5-3.2 4.8-3 11.2-5.3 1.4-1.2-1.2-2.8-2.6-5-9.2 3.4.2 1.6-9.6-1.9-2.4v-9.5l2.3-1 3.9-10.6 2.8-6.4 1.1-2.5 6.8-5.1z"/><path id="path309" class="s7" d="m135.1 128.7.2.5-2.3 2.7-2.7-.4V130l-5.2-5.3.8-1.1 4.4 1.3 3.1-.7z"/><path id="path311" class="s4" d="m134.5 108.3-2.1 2.9-4.7.2h-.7l-4.6-.8-1.3 1h-3.2l-2.6 3.7-6-.2-7.3-.2 1.8-3.9-7.4-1.8 2-3.3-1-3.1 3.8-3.9.4-4.4 3.6-.4-2-5.9 4-.7-.2 4.1 5.8-.3 5.8 2.4 1.4-.6 1.9 9.7 7.9 3.5z"/><path id="path313" class="s5" d="m134.5 121.2-.4 2.8-.7.2-3.1.7-4.4-1.3-.8 1.1 5.2 5.3v1.5l-1.3-.1-8.3-7.8 2.4-.4 3.2-3.7.9-1.9.6.2 1.5 3.4z"/><path id="path315" class="s7" d="M133.4 139.4v2.4l-2.9-2.4-1.6.2 1.6 3.4-2 5.6-2-1.4.7-5.2-8.6-4.3-8.1-7.4v-2.5l-4-.9-3.4 1.8-2.2-7.6-2.7-.9 3.4-4.3.4-1 7.3.2v.2l-.9 2 2.9 1 3.3-.7 3.3 1.9h1.2l-.6 3.2-1.5-.3 1 5.4 7.6 6.4z"/><path id="path321" class="s6" d="m127.8 111.8.8 2.7-1.4 3.1-.9 1.9h-8.4l-3.3-1.9-3.3.7-2.9-1 .9-2v-.2l6 .2 2.6-3.7h3.2l1.3-1 4.6.8h.7z"/><path id="path323" class="s8" d="m126.3 119.5-3.2 3.7-2.4.4-.7-.7-1.5-.2.6-3.2z"/><path id="path325" class="s7" d="m125 147.5.9 1.5-1.5 3.4-6.7-2.1-.3-2.4 6.1.3z"/><path id="path327" class="s6" d="m121.1 32.8-2.8 6.4-3.9 10.6-2.3 1v9.5l1.9 2.4-1.6 9.6-3.4-.2-3.5 2.5-6.7 2.1-3.5-4.8-1.8-12.1 7.4-3.5 10.4-10.5 1.7-8.2 4.4-6.3z"/><path id="path331" class="s7" d="m115.2 85.5-2.2 3.3-5.8-1.3-4 .7-.7-2.2-.3-4.9 6.3-2.4.4 6.4 2.9 1.3.2-1.8z"/><path id="path333" class="s7" d="m108.6 137.6 1.5 7-4.5.5v-6.6z"/><path id="path335" class="s5" d="M108.4 130.9v5.4l-2.5-.4-.3-3.3z"/><path id="path337" class="s5" d="m103.8 111-1.8 3.9-.4 1-3.4 4.3 2.7.9 2.2 7.6-3.9 2.1-5.2-2.3-2.6 1.6v2.7l-6.6-.6-4.6-2.5-.6-6 2.6-2.3-8.9-5.8-1-3.1 18.8-9.2 3.2 5.4 2.1.5z"/><path id="path339" class="s7" d="m101.6 94.5-.4 4.4-3.8 3.9-5.2-1.5 3.1-6.1z"/><path id="path341" class="s8" d="m97.4 102.8 1 3.1-2 3.3-2.1-.5-3.2-5.4 1.1-2z"/><path id="path343" class="s7" d="M91.4 132.8v3.1l-8 6.5.3 3.3-5.8 6.1-5.8.1-3.8 2.7-3.6-3.6v-6.8l-1.3-1.9 1.6-1 1.3-5.9-6.8-1.8v-1.4l3.2-3.3 17.5.8 4.6 2.5z"/><path id="path345" class="s4" d="m80.2 90.4 6.4 8.9-.3 2.9-15.9 5.3-.4-1.8 3.5-1.9 1-1.5h-3l.1-6.8 4.2-2.2z"/><path id="path347" class="s4" d="m80.2 90.4-4.4 2.9-5.1-6.6h-2.1l-2.4-2.6 3.6-8.8h4.3l1.3 6.8 2.6 5.4z"/><path id="path349" class="s6" d="m69.2 89.5-1.3 2.9-1.7 7.5h-3l-4.9 1.4-2.8-2.8 3.1-3-.9-4.5 3.1-1.7 3.4-2.7z"/><path id="path351" class="s8" d="m66.3 135.4-1.3 5.9-1.6 1 1.3 1.9v6.8l-4.9-1.2.6-2.7-2.9-2.6 2-3.4v-7.5z"/><path id="path353" class="s6" d="m52.5 38 2.7 8.8L36 53.6l-5-3.1-1-6.9-3.9-2.5 3.9-3.8 4.9 3.2 7.3-4.3z"/></g><g id="g465"><path id="path357" class="s11" d="m108.6 137.6-3 .9v6.6l4.5-.5z"/><path id="path359" class="s11" d="m108.4 130.9-2.8 1.7.3 3.3 2.5.4z"/><path id="path361" class="s11" d="m117.4 147.9 6.1.3 1.5-.7.9 1.5-1.5 3.4-6.7-2.1z"/><path id="path363" class="s11" d="M64.7 151v-6.8l-1.3-1.9 1.6-1 1.3-5.9-6.8-1.8"/><path id="path365" class="s11" d="m80.2 129.7 4.6 2.5 6.6.6"/><path id="path367" class="s11" d="m91.1 103.3 3.2 5.4 2.1.5 7.4 1.8-1.8 3.9-.4 1-3.4 4.3 2.7.9 2.2 7.6"/><path id="path369" class="s11" d="m92.2 101.3 5.2 1.5 1 3.1-2 3.3"/><path id="path371" class="s11" d="m101.6 94.5-.4 4.4-3.8 3.9"/><path id="path373" class="s11" d="m103.2 88.2 4-.7"/><path id="path375" class="s11" d="m102 114.9 7.3.2 6 .2 2.6-3.7h3.2l1.3-1 4.6.8h.7l4.7-.2 2.1-2.9-4.7-2-7.9-3.5-1.9-9.7"/><path id="path377" class="s11" d="m127.8 111.8.8 2.7.1.4 2.5.8 3.6-2.4 7-1 3.9-8.1-1.4-4.1-.7-2.1 1.2-1.3-2.8-5.5-1.2-2.6"/><path id="path379" class="s11" d="m109.3 115.3-.9 2 2.9 1 3.3-.7 3.3 1.9h8.4l.9-1.9 1.4-3.1"/><path id="path381" class="s11" d="m127.8 117.8 1.5 3.4h5.7l2.6-.9 5.2-6.7-1-1.3"/><path id="path383" class="s11" d="m119.1 119.5-.6 3.2"/><path id="path385" class="s11" d="m120.7 123.6 2.4-.4 3.2-3.7"/><path id="path387" class="s11" d="M130.3 131.5V130l-5.2-5.3.8-1.1 4.4 1.3 3.1-.7.7-.2.4-2.8"/><path id="path389" class="s11" d="m133 131.9 2.3-2.7-.2-.5-1.7-4.5"/><path id="path391" class="s11" d="m137.6 120.3 3.7 3.9 2.6 2.2.3 1.6.6 4.8-.4.1-4.6 1.9-2.2-2.3 1-1.6-3.5-2.2"/><path id="path393" class="s11" d="m135.2 134.8 2.4-2.3"/><path id="path395" class="s11" d="m137.6 142.8 3.1-3.8-.9-4.2"/><path id="path397" class="s11" d="m144.4 132.9 2.5 3.4-6.2 2.7"/><path id="path399" class="s11" d="M153.1 137.8h1.8l.9-3.3-1.3-.5-1.4 2-6.2.3"/><path id="path401" class="s11" d="m144.2 128 8.9.4 2.3-1.3 4.7.6"/><path id="path403" class="s11" d="m142.8 113.6 2.9-.6 2.2 1.5 4.7-1.2 1.2-.3 4.4 4.8.8 3.8.4-.3.2-.1 1.2-2.4 2.6-.2-.5-1.6-2.8-1.7-.4-2.6-2.8-.4-2.6-1-1.7 2"/><path id="path405" class="s11" d="m159.5 121.6 3.3 1.7"/><path id="path407" class="s11" d="m144.3 100.1 5.6-.6 11.6 1.1 3.1-2.9 7.2.3 5.4 7 11.2 1.4 1 2-1.4 1 .5 2.6-3.6 3.3"/><path id="path409" class="s11" d="m135.8 84.8 3-2.2h7.6l4.4 2.7-4.4 6.9-4.4-1"/><path id="path411" class="s11" d="m164.6 97.3 2.7-4.6-4.5-4.1-1.6-3.8-6.9.4-3.5.1"/><path id="path413" class="s11" d="m154.3 84.8-2-6.5-8-2.6-3.8-4.3"/><path id="path415" class="s11" d="m153.8 69.9-3 3.3 1.5 5.1"/><path id="path421" class="s11" d="m208.4 136.3 8-3.1"/><path id="path423" class="s11" d="m196.2 132.4 6.9 4"/><path id="path433" class="s12" d="m30 37.3-3.9 3.8 3.9 2.5 1 6.9 5 3.1 19.2-6.8-2.7-8.8-10.3-1.8-7.3 4.3z"/><path id="path435" class="s12" d="m115.2 85.5-3.2-.9-.2 1.8-2.9-1.3-.4-6.4-6.3 2.4.3 4.9.7 2.2 2 5.9-3.6.4-6.3.7-3.1 6.1-1.1 2-18.8 9.2 1 3.1 8.9 5.8-2.6 2.3.6 6-17.5-.8-3.2 3.3v8.9l-2 3.4 2.9 2.6-.6 2.7 4.9 1.2 3.6 3.6 3.8-2.7 5.8-.1 5.8-6.1-.3-3.3 8-6.5V130.1l2.6-1.6 5.2 2.3 3.9-2.1 3.4-1.8 4 .9v2.5l8.1 7.4 8.6 4.3-.7 5.2 2 1.4 2-5.6-1.6-3.4 1.6-.2 2.9 2.4v-2.4l-7.8-5.2-7.6-6.4-1-5.4 1.5.3 1.5.2.7.7 8.3 7.8 1.3.1 2.7.4 2.2 2.9.6.7 1.3 6.9.5.4v.1l3.6 3.2 1.1 3.9 4.4 2.3 3-4.6-4.2-8.6 7.6-1.3 47.7-114.6-9.8 9.6-14.1 8-.9.5.1 4.2-3.6 3.8-7.4-1.9-.8-7-5.5-6 2.6-.7 6.6 5.1 7-1.1 3.5-7-14.9-8.9-15.2-2.1 3-2.8-5.4-3.5-4.2-.9-10.1 4.7-14.3 9.1-7.9 5 1.5 1.2 6.4-3.7v2.5l-4.4 6.3-1.7 8.2-10.4 10.5-7.4 3.5 1.8 12.1 3.5 4.8 6.7-2.1 3.5-2.5 5 9.2 2.8 2.6 1.2 1.2 5.3-1.4 3-11.2 3.2-4.8-4.3-5.5-.2-6.2 7.9-7.9.1-3.9 3.9-3.9.4.1 4.4 1.7-5.1 8.1-2.9 4.7 1.7 9.8 6.1 2.6 11.4-1.8.9 4.4h-11.9l-1.4 1.5-4.5 4.7-.2 8.7 5 3.8-6.7 2.4-7.8-1.1-6.3 3.2-1.4.6-5.8-2.4-5.8.3.2-4.1 5.8 1.3z"/><path id="path437" class="s12" d="m75.8 93.3-4.2 2.2-.1 6.8h3l-1 1.5-3.5 1.9.4 1.8 15.9-5.3.3-2.9-6.4-8.9-2.2-2.9-2.6-5.4-1.3-6.8h-4.3l-3.6 8.8 2.4 2.6h2.1z"/><path id="path439" class="s12" d="m55.5 98.5 2.8 2.8 4.9-1.4h3l1.7-7.5 1.3-2.9-5-2.9-3.4 2.7-3.1 1.7.9 4.5z"/><path id="path459" class="s12" d="m152.9 65.5 6.1-12-6.1-11.5.5-2-2.9-6.4.7-1.9-3.7-4.6 1.4-5.3-1.4-.9-2.5-1.7-3.8 1-.4 2.7v2.2l-3.7 1.6-6.3-2.9-1.8 1.4-6.8 5.1-1.1 2.5-2.8 6.4-3.9 10.6-2.3 1v9.5l1.9 2.4-1.6 9.6-3.4-.2"/><path id="path461" class="s12" d="m137.3 40.4-.8-10.2-7.5-5"/></g></g><g id="g492"><path id="path483" class="s13" d="M57.2 90.2c-.4.2-.6.6-.5 1l.8 4-2.7 2.6c-.4.3-.5.9-.1 1.3l2.9 2.9c.2.2.4.3.7.3q.1 0 .3-.1l4.8-1.4h2.8c.5 0 .9-.3 1-.7l1.6-7.4 1.3-2.8c.2-.4.1-.9-.4-1.2l-5-2.9q-.2-.2-.5-.2t-.6.3l-3.3 2.6z"/><path id="path485" class="s13" d="M67.9 87.3c.1.2.4.3.7.3h1.6l4.1 5.4-3.2 1.6c-.3.2-.5.5-.5.8l-.1 6.8q-.1.4.2.7.3.3.8.3h1l-3 1.6c-.3.2-.5.6-.5 1l.4 1.9c0 .2.2.5.5.6q.2.1.5.1h.3l15.9-5.3c.4-.1.6-.4.7-.8l.3-2.9q0-.3-.2-.6l-8.5-11.7-2.6-5.3-1.2-6.7c-.1-.5-.5-.8-1-.8h-4.3c-.4 0-.8.3-.9.6l-3.6 8.8c-.2.4-.1.7.2 1z"/><path id="&lt;Compound Path&gt;" fill-rule="evenodd" class="s13" d="m64.2 151.9-4.7-1.1c-.5-.2-.8-.6-.7-1.1l.5-2.3-2.5-2.2c-.3-.3-.4-.7-.1-1.1l1.8-3.3v-8.6c0-.267.1-.467.3-.6l3.2-3.4c.2-.2.4-.3.7-.3l16.4.8-.5-4.9c0-.3.1-.6.3-.8l1.7-1.5-7.9-5.1a.964.964 0 0 1-.4-.5l-1-3.1c-.1-.5.1-.9.5-1.2l18.6-9 4-7.8c.1-.3.4-.5.8-.5l8.7-1-2.4-7V86l-.3-4.8c0-.4.2-.8.6-.9l6.4-2.5c.067-.067.167-.1.3-.1.2 0 .4.067.6.2.2.1.4.4.4.7l.3 5.9 1.2.5v-.5c.1-.3.2-.5.5-.7.133-.067.3-.1.5-.1h.3l3.2.9c.3.1.5.3.6.6.2.2.1.6-.1.8l-2.2 3.3c-.2.3-.5.5-.8.5-.133 0-.233-.033-.3-.1l-4.5-1-.1 1.9 4.7-.3c.133 0 .267.033.4.1l5.4 2.3 7.2-3.6c.133-.067.3-.1.5-.1h.1l7.6 1.1 4.8-1.8-3.6-2.8c-.067 0-.1-.033-.1-.1-.067 0-.1-.033-.1-.1l-.1-.1v-.1c-.067-.067-.1-.167-.1-.3v-.1l.2-8.6c0-.2.1-.4.3-.6l5.8-6.2c.2-.2.5-.4.8-.4h10.7l-.5-2.3-10.4 1.6H141.1l-6.1-2.6c-.3-.1-.6-.4-.6-.7l-1.7-9.8c0-.267.033-.467.1-.6l7.5-11.9-3.2-1.2-3.1 3.2-.1 3.6c0 .2-.1.4-.3.6l-7.6 7.6.2 5.5 4.1 5.3c.2.3.2.7 0 1.1l-3.1 4.6-2.9 11.1c-.1.3-.4.6-.8.7l-5.2 1.3h-.3c-.267 0-.5-.067-.7-.2l-4-3.8a1.163 1.163 0 0 1-.2-.3l-4.4-8.2-2.6 1.8a1.164 1.164 0 0 1-.3.2l-6.7 2.1h-.3c-.3 0-.6-.1-.8-.4l-3.5-4.7c-.133-.133-.2-.267-.2-.4l-1.8-12.2c-.1-.4.1-.8.5-1l7.3-3.3 10.1-10.2 1.6-8c.067-.133.133-.233.2-.3l4.2-6v-.6l-4.8 2.8c-.2.133-.4.2-.6.2-.2 0-.4-.1-.6-.3l-1.5-1.1c-.3-.2-.4-.5-.4-.8 0-.3.2-.6.5-.8l7.8-4.9 14.4-9.2 10.2-4.8a.888.888 0 0 1 .4-.1c.067 0 .133.033.2.1l4.2.9c.133.067.233.133.3.2l5.4 3.5c.3.1.4.4.5.7 0 .2-.1.5-.3.7l-1.6 1.4 13.3 1.8c.133.067.233.133.3.2l15 8.9c.4.2.5.8.3 1.2l-3.5 7c-.1.3-.4.5-.7.6l-7 1h-.2c-.2 0-.4-.067-.6-.2l-6.3-4.7-.5.1 4.4 4.8c.133.2.233.4.3.6l.7 6.4 6.1 1.5 3-3-.1-3.8c-.1-.4.1-.7.4-.9l14.9-8.4 9.8-9.6c.133-.133 1.395-.417 1.529-.417l20.425 9.536c.067-.067 9.644 27.598 9.644 27.598s-5.261 18.66-5.061 18.86l-16.638 7.683-1.082 18.437-1.723 5.856 8.464 7.936-5.396 3.81 1.861 5.442 5.922 6.204-9.777 3.985-4.046-1.107-1.055 1.096-17.156-11.273-2.579-6.647 2.36-3.363-3.28-.772-4.905 4.107 1.296 2.857-4.074 3.61s-3.457-3.66-3.362-3.705c20.268-9.61-70.475-20.769-107.267 29.667Zm107.978-31.516-6.14-1.873c-.2-.066-7.574 12.44-7.707 12.24l1.159 2.23c.069-.145-3.147 2.125-3.147 2.058l-1.13 3.596-2.073.12L147 139.8l3.7 7.5c.1.3.1.7-.1.9l-3 4.6c-.2.3-.5.5-.8.5a.679.679 0 0 1-.5-.2l-4.4-2.2c-.3-.2-.5-.4-.5-.6l-1-3.6-3.3-3.1h-.1l-.5-.5a1.255 1.255 0 0 1-.3-.5l-1.3-6.7-.3-.4-2.2-2.7-3.5-.5a.679.679 0 0 1-.5-.2l-8.8-8.3-1.3-.2.7 3.7 7.3 6.3 7.7 5c.3.2.4.5.4.8v2.5c0 .3-.2.7-.6.8a.887.887 0 0 1-.4.1c-.267 0-.5-.067-.7-.2l-2.2-2 1 2c.067.2.067.433 0 .7l-2.1 5.6c-.1.3-.3.5-.6.6-.133.067-.233.1-.3.1l-.6-.2-1.1-.8c.1.3.2.6 0 .8l-1.5 3.4c-.1.3-.5.5-.9.5h-.3l-6.7-2c-.3-.2-.6-.5-.7-.8l-.3-2.5c0-.2.1-.5.3-.7.2-.2.4-.3.7-.3l5.9.3 1.3-.6a.887.887 0 0 1 .4-.1c.2 0 .4.067.6.2l.6-4.2-8-4-.2-.2-8.2-7.4a.96.96 0 0 1-.3-.7v-1.8l-2.8-.6-7 3.7a.887.887 0 0 1-.4.1c-.2 0-.367-.033-.5-.1l-4.6-2-1.8 1.1v5.2c0 .3-.1.6-.3.7l-6.522 6.85-.878 2.25c.1.2 0 .5-.2.7l-5.8 6.1c-.2.2-.5.3-.8.3l-5.541.341c18.47-34.138 46.264-59.374 99.82-32.757Z"/><path id="path488" class="s13" d="M36 54.5h.4l19.2-6.8c.5-.2.7-.7.6-1.2l-2.8-8.8c-.1-.3-.4-.6-.8-.6l-10.2-1.9h-.2q-.3 0-.5.2l-6.8 4-4.4-2.9q-.2-.2-.5-.2c-.3 0-.6.1-.8.3l-3.8 3.9c-.2.2-.3.5-.3.7.1.3.2.6.5.7l3.4 2.3 1 6.4c.1.3.2.5.5.7l5 3.1q.2.1.5.1z"/><path id="path490" class="s13" d="M109.5 137.4q-.1-.3-.4-.6.3-.2.3-.5v-5.4c0-.3-.2-.6-.6-.8q-.2-.1-.4-.1-.3 0-.6.1l-2.7 1.8c-.3.1-.5.5-.5.8l.3 3.3c.1.4.4.8.9.9l1.3.2-1.8.5c-.4.2-.7.5-.7.9v6.6c0 .3.1.5.3.7q.3.3.7.3l4.6-.5c.3-.1.6-.2.7-.4.2-.2.3-.5.2-.8z"/></g><g id="g700"><g id="g588"><path id="path494" class="s2" d="m230.625 58.888-4.83 18.48-16.73 7.617L208 104.2l-1.4 6 8.3 7.5-5.5 3.8 2 6.2 5 5.5-8 3.1-4.4-1.2-.9 1.3-6.9-4-9.7-6.9-2.2-5.9 2.4-3.8-1.8-.4v-.1l3.6-3.3-.5-2.6 1.4-1-1-2-11.2-1.4-5.4-7-7.2-.3v-.4l2.7-4.6-4.5-4.1-1.6-3.8-6.9.4v-.4l-2-6.5-1.5-5.1 3-3.3-.9-4.4 6.1-12-6.1-11.5.5-2-2.9-6.4.7-1.9-3.7-4.6 1.4-5.3-1.4-.9.9-1.2 15.2 2.1 14.9 8.9-3.5 7-7 1.1-6.6-5.1-2.6.7 5.5 6 .8 7 7.4 1.9 3.6-3.8-.1-4.2 14.107-7.846 11.212-10.3 19.99 9.464z"/><path id="path504" class="s4" d="m188.4 106.4 1 2-1.4 1 .5 2.6-3.6 3.3v.1l-2.4-.5-5.3 4.5 1.3 2.9-3.6 3.3-3.3-3 1.3-2.4-7-2-3.1 5.1-3.3-1.7-.1-.3.2-.1 1.2-2.4 2.6-.2-.5-1.6-2.8-1.7-.4-2.6-2.8-.4-2.6-1-1.7 2-4.7 1.2-2.2-1.5-2.9.6-1-1.3 3.9-8.1-1.4-4.1 5.6-.6 11.6 1.1 3.1-2.9 7.2.3 5.4 7z"/><path id="path510" class="s5" d="m167.3 92.7-2.7 4.6v.4l-3.1 2.9-11.6-1.1-5.6.6-.7-2.1 1.2-1.3-2.8-5.5 4.4 1 4.4-6.9 3.5-.1 6.9-.4 1.6 3.8z"/><path id="path512" class="s6" d="m162.9 117 .5 1.6-2.6.2-1.2 2.4-.2.1-.4.3-.8-3.8-4.4-4.8-1.2.3 1.7-2 2.6 1 2.8.4.4 2.6z"/><path id="path514" class="s7" d="m162.8 123.3-2.7 4.4-4.7-.6-2.3 1.3-8.9-.4-.3-1.6-2.6-2.2-3.7-3.9 5.2-6.7 2.9-.6 2.2 1.5 4.7-1.2 1.2-.3 4.4 4.8.8 3.8.4-.3.1.3z"/><path id="path516" class="s8" d="m160.1 127.7-1.9 3.2 1 1.7-3.4 1.9-1.3-.5-1.4 2-6.2.3-2.5-3.4.4-.1-.6-4.8 8.9.4 2.3-1.3z"/><path id="path518" class="s4" d="m152.9 42 6.1 11.5-6.1 12-11.4 1.8-6.1-2.6-1.7-9.8 2.9-4.7 5.1-8.1-4.4-1.7-.8-10.2-7.5-5 1.8-1.4 6.3 2.9 3.7-1.6v-2.2l.4-2.7 3.8-1 2.5 1.7 1.4.9-1.4 5.3 3.7 4.6-.7 1.9 2.9 6.4z"/><path id="path520" class="s4" d="m155.8 134.5-.9 3.3h-1.8l-7.6 1.3 4.2 8.6-3 4.6-4.4-2.3-1.1-3.9-3.6-3.2v-.1l3.1-3.8 6.2-2.7 6.2-.3 1.4-2z"/><path id="path522" class="s7" d="M154.3 84.8v.4l-3.5.1-4.4-2.7h-7.6l-3 2.2.2-8.7 4.5-4.7 3.8 4.3 8 2.6z"/><path id="path524" class="s6" d="m153.8 69.9-3 3.3 1.5 5.1-8-2.6-3.8-4.3 1.4-1.5z"/><path id="path526" class="s6" d="m151.4 16.9-3 2.8-.9 1.2-2.5-1.7-3.8 1-.4 2.7v2.2l-3.7 1.6-6.3-2.9-1.8 1.4-6.8 5.1-1.1 2.5-3.7-1.5v-2.5l-6.4 3.7-1.5-1.2 7.9-5 14.3-9.1 10.1-4.7 4.2.9z"/><path id="path528" class="s8" d="m150.8 85.3-4.4 6.9-4.4-1-1.2-2.6-5-3.8 3-2.2h7.6z"/><path id="path530" class="s6" d="m144.4 132.9 2.5 3.4-6.2 2.7-.9-4.2z"/><path id="path532" class="s3" d="m144.3 100.1 1.4 4.1-3.9 8.1-7 1-3.6 2.4-2.5-.8-.1-.4-.8-2.7-.1-.4 4.7-.2 2.1-2.9-4.7-2-7.9-3.5-1.9-9.7 6.3-3.2 7.8 1.1 6.7-2.4 1.2 2.6 2.8 5.5-1.2 1.3z"/><path id="path534" class="s3" d="m144.2 128 .6 4.8-.4.1-4.6 1.9-2.2-2.3 1-1.6-3.5-2.2-1.7-4.5.7-.2.4-2.8h.5l2.6-.9 3.7 3.9 2.6 2.2z"/><path id="path536" class="s8" d="m141.8 112.3 1 1.3-5.2 6.7-2.6.9h-5.7l-1.5-3.4-.6-.2 1.4-3.1.1.4 2.5.8 3.6-2.4z"/><path id="path538" class="s7" d="m139.8 134.8.9 4.2-3.1 3.8-.5-.4-1.3-6.9-.6-.7 2.4-2.3z"/><path id="path540" class="s5" d="m138.6 130.9-1 1.6-2.4 2.3-2.2-2.9 2.3-2.7-.2-.5z"/><path id="path542" class="s3" d="m136.5 30.2.8 10.2-.4-.1-3.9 3.9-.1 3.9L125 56l.2 6.2 4.3 5.5-3.2 4.8-3 11.2-5.3 1.4-1.2-1.2-2.8-2.6-5-9.2 3.4.2 1.6-9.6-1.9-2.4v-9.5l2.3-1 3.9-10.6 2.8-6.4 1.1-2.5 6.8-5.1z"/><path id="path544" class="s7" d="m135.1 128.7.2.5-2.3 2.7-2.7-.4V130l-5.2-5.3.8-1.1 4.4 1.3 3.1-.7z"/><path id="path546" class="s4" d="m134.5 108.3-2.1 2.9-4.7.2h-.7l-4.6-.8-1.3 1h-3.2l-2.6 3.7-6-.2-7.3-.2 1.8-3.9-7.4-1.8 2-3.3-1-3.1 3.8-3.9.4-4.4 3.6-.4-2-5.9 4-.7-.2 4.1 5.8-.3 5.8 2.4 1.4-.6 1.9 9.7 7.9 3.5z"/><path id="path548" class="s5" d="m134.5 121.2-.4 2.8-.7.2-3.1.7-4.4-1.3-.8 1.1 5.2 5.3v1.5l-1.3-.1-8.3-7.8 2.4-.4 3.2-3.7.9-1.9.6.2 1.5 3.4z"/><path id="path550" class="s7" d="M133.4 139.4v2.4l-2.9-2.4-1.6.2 1.6 3.4-2 5.6-2-1.4.7-5.2-8.6-4.3-8.1-7.4v-2.5l-4-.9-3.4 1.8-2.2-7.6-2.7-.9 3.4-4.3.4-1 7.3.2v.2l-.9 2 2.9 1 3.3-.7 3.3 1.9h1.2l-.6 3.2-1.5-.3 1 5.4 7.6 6.4z"/><path id="path556" class="s6" d="m127.8 111.8.8 2.7-1.4 3.1-.9 1.9h-8.4l-3.3-1.9-3.3.7-2.9-1 .9-2v-.2l6 .2 2.6-3.7h3.2l1.3-1 4.6.8h.7z"/><path id="path558" class="s8" d="m126.3 119.5-3.2 3.7-2.4.4-.7-.7-1.5-.2.6-3.2z"/><path id="path560" class="s7" d="m125 147.5.9 1.5-1.5 3.4-6.7-2.1-.3-2.4 6.1.3z"/><path id="path562" class="s6" d="m121.1 32.8-2.8 6.4-3.9 10.6-2.3 1v9.5l1.9 2.4-1.6 9.6-3.4-.2-3.5 2.5-6.7 2.1-3.5-4.8-1.8-12.1 7.4-3.5 10.4-10.5 1.7-8.2 4.4-6.3z"/><path id="path564" class="s7" d="m115.2 85.5-2.2 3.3-5.8-1.3-4 .7-.7-2.2-.3-4.9 6.3-2.4.4 6.4 2.9 1.3.2-1.8z"/><path id="path566" class="s7" d="m108.6 137.6 1.5 7-4.5.5v-6.6z"/><path id="path568" class="s5" d="M108.4 130.9v5.4l-2.5-.4-.3-3.3z"/><path id="path570" class="s5" d="m103.8 111-1.8 3.9-.4 1-3.4 4.3 2.7.9 2.2 7.6-3.9 2.1-5.2-2.3-2.6 1.6v2.7l-6.6-.6-4.6-2.5-.6-6 2.6-2.3-8.9-5.8-1-3.1 18.8-9.2 3.2 5.4 2.1.5z"/><path id="path572" class="s7" d="m101.6 94.5-.4 4.4-3.8 3.9-5.2-1.5 3.1-6.1z"/><path id="path574" class="s8" d="m97.4 102.8 1 3.1-2 3.3-2.1-.5-3.2-5.4 1.1-2z"/><path id="path576" class="s7" d="M91.4 132.8v3.1l-8 6.5.3 3.3-5.8 6.1-5.8.1-3.8 2.7-3.6-3.6v-6.8l-1.3-1.9 1.6-1 1.3-5.9-6.8-1.8v-1.4l3.2-3.3 17.5.8 4.6 2.5z"/><path id="path578" class="s4" d="m80.2 90.4 6.4 8.9-.3 2.9-15.9 5.3-.4-1.8 3.5-1.9 1-1.5h-3l.1-6.8 4.2-2.2z"/><path id="path580" class="s4" d="m80.2 90.4-4.4 2.9-5.1-6.6h-2.1l-2.4-2.6 3.6-8.8h4.3l1.3 6.8 2.6 5.4z"/><path id="path582" class="s6" d="m69.2 89.5-1.3 2.9-1.7 7.5h-3l-4.9 1.4-2.8-2.8 3.1-3-.9-4.5 3.1-1.7 3.4-2.7z"/><path id="path584" class="s8" d="m66.3 135.4-1.3 5.9-1.6 1 1.3 1.9v6.8l-4.9-1.2.6-2.7-2.9-2.6 2-3.4v-7.5z"/><path id="path586" class="s6" d="m52.5 38 2.7 8.8L36 53.6l-5-3.1-1-6.9-3.9-2.5 3.9-3.8 4.9 3.2 7.3-4.3z"/></g><g id="g698"><path id="path590" class="s12" d="m108.6 137.6-3 .9v6.6l4.5-.5z"/><path id="path592" class="s12" d="m108.4 130.9-2.8 1.7.3 3.3 2.5.4z"/><path id="path594" class="s12" d="m117.4 147.9 6.1.3 1.5-.7.9 1.5-1.5 3.4-6.7-2.1z"/><path id="path596" class="s12" d="M64.7 151v-6.8l-1.3-1.9 1.6-1 1.3-5.9-6.8-1.8"/><path id="path598" class="s12" d="m80.2 129.7 4.6 2.5 6.6.6"/><path id="path600" class="s12" d="m91.1 103.3 3.2 5.4 2.1.5 7.4 1.8-1.8 3.9-.4 1-3.4 4.3 2.7.9 2.2 7.6"/><path id="path602" class="s12" d="m92.2 101.3 5.2 1.5 1 3.1-2 3.3"/><path id="path604" class="s12" d="m101.6 94.5-.4 4.4-3.8 3.9"/><path id="path606" class="s12" d="m103.2 88.2 4-.7"/><path id="path608" class="s12" d="m102 114.9 7.3.2 6 .2 2.6-3.7h3.2l1.3-1 4.6.8h.7l4.7-.2 2.1-2.9-4.7-2-7.9-3.5-1.9-9.7"/><path id="path610" class="s12" d="m127.8 111.8.8 2.7.1.4 2.5.8 3.6-2.4 7-1 3.9-8.1-1.4-4.1-.7-2.1 1.2-1.3-2.8-5.5-1.2-2.6"/><path id="path612" class="s12" d="m109.3 115.3-.9 2 2.9 1 3.3-.7 3.3 1.9h8.4l.9-1.9 1.4-3.1"/><path id="path614" class="s12" d="m127.8 117.8 1.5 3.4h5.7l2.6-.9 5.2-6.7-1-1.3"/><path id="path616" class="s12" d="m119.1 119.5-.6 3.2"/><path id="path618" class="s12" d="m120.7 123.6 2.4-.4 3.2-3.7"/><path id="path620" class="s12" d="M130.3 131.5V130l-5.2-5.3.8-1.1 4.4 1.3 3.1-.7.7-.2.4-2.8"/><path id="path622" class="s12" d="m133 131.9 2.3-2.7-.2-.5-1.7-4.5"/><path id="path624" class="s12" d="m137.6 120.3 3.7 3.9 2.6 2.2.3 1.6.6 4.8-.4.1-4.6 1.9-2.2-2.3 1-1.6-3.5-2.2"/><path id="path626" class="s12" d="m135.2 134.8 2.4-2.3"/><path id="path628" class="s12" d="m137.6 142.8 3.1-3.8-.9-4.2"/><path id="path630" class="s12" d="m144.4 132.9 2.5 3.4-6.2 2.7"/><path id="path632" class="s12" d="M153.1 137.8h1.8l.9-3.3-1.3-.5-1.4 2-6.2.3"/><path id="path634" class="s12" d="m144.2 128 8.9.4 2.3-1.3 4.7.6"/><path id="path636" class="s12" d="m142.8 113.6 2.9-.6 2.2 1.5 4.7-1.2 1.2-.3 4.4 4.8.8 3.8.4-.3.2-.1 1.2-2.4 2.6-.2-.5-1.6-2.8-1.7-.4-2.6-2.8-.4-2.6-1-1.7 2"/><path id="path638" class="s12" d="m159.5 121.6 3.3 1.7"/><path id="path640" class="s12" d="m144.3 100.1 5.6-.6 11.6 1.1 3.1-2.9 7.2.3 5.4 7 11.2 1.4 1 2-1.4 1 .5 2.6-3.6 3.3"/><path id="path642" class="s12" d="m135.8 84.8 3-2.2h7.6l4.4 2.7-4.4 6.9-4.4-1"/><path id="path644" class="s12" d="m164.6 97.3 2.7-4.6-4.5-4.1-1.6-3.8-6.9.4-3.5.1"/><path id="path646" class="s12" d="m154.3 84.8-2-6.5-8-2.6-3.8-4.3"/><path id="path648" class="s12" d="m153.8 69.9-3 3.3 1.5 5.1"/><path id="path654" class="s12" d="m208.4 136.3 8-3.1"/><path id="path656" class="s12" d="m196.2 132.4 6.9 4"/><path id="path666" class="s12" d="m30 37.3-3.9 3.8 3.9 2.5 1 6.9 5 3.1 19.2-6.8-2.7-8.8-10.3-1.8-7.3 4.3z"/><path id="path668" class="s12" d="m115.2 85.5-3.2-.9-.2 1.8-2.9-1.3-.4-6.4-6.3 2.4.3 4.9.7 2.2 2 5.9-3.6.4-6.3.7-3.1 6.1-1.1 2-18.8 9.2 1 3.1 8.9 5.8-2.6 2.3.6 6-17.5-.8-3.2 3.3v8.9l-2 3.4 2.9 2.6-.6 2.7 4.9 1.2 3.6 3.6 3.8-2.7 5.8-.1 5.8-6.1-.3-3.3 8-6.5V130.1l2.6-1.6 5.2 2.3 3.9-2.1 3.4-1.8 4 .9v2.5l8.1 7.4 8.6 4.3-.7 5.2 2 1.4 2-5.6-1.6-3.4 1.6-.2 2.9 2.4v-2.4l-7.8-5.2-7.6-6.4-1-5.4 1.5.3 1.5.2.7.7 8.3 7.8 1.3.1 2.7.4 2.2 2.9.6.7 1.3 6.9.5.4v.1l3.6 3.2 1.1 3.9 4.4 2.3 3-4.6-4.2-8.6 9.248-.97 1.321-3.245 3.512-2.143-1.272-1.703 7.44-12.432 6.907 1.744-1.249 2.246 3.231 3.093 3.864-3.3-1.214-2.833 5.328-4.352 3.37.783-2.055 3.75 2.288 6.273 16.918 10.976.999-1.457 3.9 1.554 9.282-3.805-5.7-5.662-1.811-5.885 5.285-3.677-7.904-8.077 1.246-5.595 1.242-19.124 16.469-7.635 4.94-18.96-9.584-26.524-20.483-9.777L191 32.8l-14.1 8-.9.5.1 4.2-3.6 3.8-7.4-1.9-.8-7-5.5-6 2.6-.7 6.6 5.1 7-1.1 3.5-7-14.9-8.9-15.2-2.1 3-2.8-5.4-3.5-4.2-.9-10.1 4.7-14.3 9.1-7.9 5 1.5 1.2 6.4-3.7v2.5l-4.4 6.3-1.7 8.2-10.4 10.5-7.4 3.5 1.8 12.1 3.5 4.8 6.7-2.1 3.5-2.5 5 9.2 2.8 2.6 1.2 1.2 5.3-1.4 3-11.2 3.2-4.8-4.3-5.5-.2-6.2 7.9-7.9.1-3.9 3.9-3.9.4.1 4.4 1.7-5.1 8.1-2.9 4.7 1.7 9.8 6.1 2.6 11.4-1.8.9 4.4h-11.9l-1.4 1.5-4.5 4.7-.2 8.7 5 3.8-6.7 2.4-7.8-1.1-6.3 3.2-1.4.6-5.8-2.4-5.8.3.2-4.1 5.8 1.3z"/><path id="path670" class="s12" d="m75.8 93.3-4.2 2.2-.1 6.8h3l-1 1.5-3.5 1.9.4 1.8 15.9-5.3.3-2.9-6.4-8.9-2.2-2.9-2.6-5.4-1.3-6.8h-4.3l-3.6 8.8 2.4 2.6h2.1z"/><path id="path672" class="s12" d="m55.5 98.5 2.8 2.8 4.9-1.4h3l1.7-7.5 1.3-2.9-5-2.9-3.4 2.7-3.1 1.7.9 4.5z"/><path id="path692" class="s12" d="m152.9 65.5 6.1-12-6.1-11.5.5-2-2.9-6.4.7-1.9-3.7-4.6 1.4-5.3-1.4-.9-2.5-1.7-3.8 1-.4 2.7v2.2l-3.7 1.6-6.3-2.9-1.8 1.4-6.8 5.1-1.1 2.5-2.8 6.4-3.9 10.6-2.3 1v9.5l1.9 2.4-1.6 9.6-3.4-.2"/><path id="path694" class="s12" d="m137.3 40.4-.8-10.2-7.5-5"/></g></g><path id="path702" class="s12" d="m148.6 19.5-1.4 1.2"/></g><g id="g912"><g id="g800"><path id="path716" class="s4" d="m188.4 106.4 1 2-1.4 1 .5 2.6-3.6 3.3v.1l-2.4-.5-5.3 4.5 1.3 2.9-3.6 3.3-3.3-3 1.3-2.4-7-2-3.1 5.1-3.3-1.7-.1-.3.2-.1 1.2-2.4 2.6-.2-.5-1.6-2.8-1.7-.4-2.6-2.8-.4-2.6-1-1.7 2-4.7 1.2-2.2-1.5-2.9.6-1-1.3 3.9-8.1-1.4-4.1 5.6-.6 11.6 1.1 3.1-2.9 7.2.3 5.4 7z"/><path id="path722" class="s5" d="m167.3 92.7-2.7 4.6v.4l-3.1 2.9-11.6-1.1-5.6.6-.7-2.1 1.2-1.3-2.8-5.5 4.4 1 4.4-6.9 3.5-.1 6.9-.4 1.6 3.8z"/><path id="path724" class="s6" d="m162.9 117 .5 1.6-2.6.2-1.2 2.4-.2.1-.4.3-.8-3.8-4.4-4.8-1.2.3 1.7-2 2.6 1 2.8.4.4 2.6z"/><path id="path726" class="s7" d="m162.8 123.3-2.7 4.4-4.7-.6-2.3 1.3-8.9-.4-.3-1.6-2.6-2.2-3.7-3.9 5.2-6.7 2.9-.6 2.2 1.5 4.7-1.2 1.2-.3 4.4 4.8.8 3.8.4-.3.1.3z"/><path id="path728" class="s8" d="m160.1 127.7-1.9 3.2 1 1.7-3.4 1.9-1.3-.5-1.4 2-6.2.3-2.5-3.4.4-.1-.6-4.8 8.9.4 2.3-1.3z"/><path id="path730" class="s4" d="m152.9 42 6.1 11.5-6.1 12-11.4 1.8-6.1-2.6-1.7-9.8 2.9-4.7 5.1-8.1-4.4-1.7-.8-10.2-7.5-5 1.8-1.4 6.3 2.9 3.7-1.6v-2.2l.4-2.7 3.8-1 2.5 1.7 1.4.9-1.4 5.3 3.7 4.6-.7 1.9 2.9 6.4z"/><path id="path732" class="s4" d="m155.8 134.5-.9 3.3h-1.8l-7.6 1.3 4.2 8.6-3 4.6-4.4-2.3-1.1-3.9-3.6-3.2v-.1l3.1-3.8 6.2-2.7 6.2-.3 1.4-2z"/><path id="path734" class="s7" d="M154.3 84.8v.4l-3.5.1-4.4-2.7h-7.6l-3 2.2.2-8.7 4.5-4.7 3.8 4.3 8 2.6z"/><path id="path736" class="s6" d="m153.8 69.9-3 3.3 1.5 5.1-8-2.6-3.8-4.3 1.4-1.5z"/><path id="path738" class="s6" d="m151.4 16.9-3 2.8-.9 1.2-2.5-1.7-3.8 1-.4 2.7v2.2l-3.7 1.6-6.3-2.9-1.8 1.4-6.8 5.1-1.1 2.5-3.7-1.5v-2.5l-6.4 3.7-1.5-1.2 7.9-5 14.3-9.1 10.1-4.7 4.2.9z"/><path id="path740" class="s8" d="m150.8 85.3-4.4 6.9-4.4-1-1.2-2.6-5-3.8 3-2.2h7.6z"/><path id="path742" class="s6" d="m144.4 132.9 2.5 3.4-6.2 2.7-.9-4.2z"/><path id="path744" class="s3" d="m144.3 100.1 1.4 4.1-3.9 8.1-7 1-3.6 2.4-2.5-.8-.1-.4-.8-2.7-.1-.4 4.7-.2 2.1-2.9-4.7-2-7.9-3.5-1.9-9.7 6.3-3.2 7.8 1.1 6.7-2.4 1.2 2.6 2.8 5.5-1.2 1.3z"/><path id="path746" class="s3" d="m144.2 128 .6 4.8-.4.1-4.6 1.9-2.2-2.3 1-1.6-3.5-2.2-1.7-4.5.7-.2.4-2.8h.5l2.6-.9 3.7 3.9 2.6 2.2z"/><path id="path748" class="s8" d="m141.8 112.3 1 1.3-5.2 6.7-2.6.9h-5.7l-1.5-3.4-.6-.2 1.4-3.1.1.4 2.5.8 3.6-2.4z"/><path id="path750" class="s7" d="m139.8 134.8.9 4.2-3.1 3.8-.5-.4-1.3-6.9-.6-.7 2.4-2.3z"/><path id="path752" class="s5" d="m138.6 130.9-1 1.6-2.4 2.3-2.2-2.9 2.3-2.7-.2-.5z"/><path id="path754" class="s3" d="m136.5 30.2.8 10.2-.4-.1-3.9 3.9-.1 3.9L125 56l.2 6.2 4.3 5.5-3.2 4.8-3 11.2-5.3 1.4-1.2-1.2-2.8-2.6-5-9.2 3.4.2 1.6-9.6-1.9-2.4v-9.5l2.3-1 3.9-10.6 2.8-6.4 1.1-2.5 6.8-5.1z"/><path id="path756" class="s7" d="m135.1 128.7.2.5-2.3 2.7-2.7-.4V130l-5.2-5.3.8-1.1 4.4 1.3 3.1-.7z"/><path id="path758" class="s4" d="m134.5 108.3-2.1 2.9-4.7.2h-.7l-4.6-.8-1.3 1h-3.2l-2.6 3.7-6-.2-7.3-.2 1.8-3.9-7.4-1.8 2-3.3-1-3.1 3.8-3.9.4-4.4 3.6-.4-2-5.9 4-.7-.2 4.1 5.8-.3 5.8 2.4 1.4-.6 1.9 9.7 7.9 3.5z"/><path id="path760" class="s5" d="m134.5 121.2-.4 2.8-.7.2-3.1.7-4.4-1.3-.8 1.1 5.2 5.3v1.5l-1.3-.1-8.3-7.8 2.4-.4 3.2-3.7.9-1.9.6.2 1.5 3.4z"/><path id="path762" class="s7" d="M133.4 139.4v2.4l-2.9-2.4-1.6.2 1.6 3.4-2 5.6-2-1.4.7-5.2-8.6-4.3-8.1-7.4v-2.5l-4-.9-3.4 1.8-2.2-7.6-2.7-.9 3.4-4.3.4-1 7.3.2v.2l-.9 2 2.9 1 3.3-.7 3.3 1.9h1.2l-.6 3.2-1.5-.3 1 5.4 7.6 6.4z"/><path id="path768" class="s6" d="m127.8 111.8.8 2.7-1.4 3.1-.9 1.9h-8.4l-3.3-1.9-3.3.7-2.9-1 .9-2v-.2l6 .2 2.6-3.7h3.2l1.3-1 4.6.8h.7z"/><path id="path770" class="s8" d="m126.3 119.5-3.2 3.7-2.4.4-.7-.7-1.5-.2.6-3.2z"/><path id="path772" class="s7" d="m125 147.5.9 1.5-1.5 3.4-6.7-2.1-.3-2.4 6.1.3z"/><path id="path774" class="s6" d="m121.1 32.8-2.8 6.4-3.9 10.6-2.3 1v9.5l1.9 2.4-1.6 9.6-3.4-.2-3.5 2.5-6.7 2.1-3.5-4.8-1.8-12.1 7.4-3.5 10.4-10.5 1.7-8.2 4.4-6.3z"/><path id="path776" class="s7" d="m115.2 85.5-2.2 3.3-5.8-1.3-4 .7-.7-2.2-.3-4.9 6.3-2.4.4 6.4 2.9 1.3.2-1.8z"/><path id="path778" class="s7" d="m108.6 137.6 1.5 7-4.5.5v-6.6z"/><path id="path780" class="s5" d="M108.4 130.9v5.4l-2.5-.4-.3-3.3z"/><path id="path782" class="s5" d="m103.8 111-1.8 3.9-.4 1-3.4 4.3 2.7.9 2.2 7.6-3.9 2.1-5.2-2.3-2.6 1.6v2.7l-6.6-.6-4.6-2.5-.6-6 2.6-2.3-8.9-5.8-1-3.1 18.8-9.2 3.2 5.4 2.1.5z"/><path id="path784" class="s7" d="m101.6 94.5-.4 4.4-3.8 3.9-5.2-1.5 3.1-6.1z"/><path id="path786" class="s8" d="m97.4 102.8 1 3.1-2 3.3-2.1-.5-3.2-5.4 1.1-2z"/><path id="path788" class="s7" d="M91.4 132.8v3.1l-8 6.5.3 3.3-5.8 6.1-5.8.1-3.8 2.7-3.6-3.6v-6.8l-1.3-1.9 1.6-1 1.3-5.9-6.8-1.8v-1.4l3.2-3.3 17.5.8 4.6 2.5z"/><path id="path790" class="s4" d="m80.2 90.4 6.4 8.9-.3 2.9-15.9 5.3-.4-1.8 3.5-1.9 1-1.5h-3l.1-6.8 4.2-2.2z"/><path id="path792" class="s4" d="m80.2 90.4-4.4 2.9-5.1-6.6h-2.1l-2.4-2.6 3.6-8.8h4.3l1.3 6.8 2.6 5.4z"/><path id="path794" class="s6" d="m69.2 89.5-1.3 2.9-1.7 7.5h-3l-4.9 1.4-2.8-2.8 3.1-3-.9-4.5 3.1-1.7 3.4-2.7z"/><path id="path796" class="s8" d="m66.3 135.4-1.3 5.9-1.6 1 1.3 1.9v6.8l-4.9-1.2.6-2.7-2.9-2.6 2-3.4v-7.5z"/><path id="path798" class="s6" d="m52.5 38 2.7 8.8L36 53.6l-5-3.1-1-6.9-3.9-2.5 3.9-3.8 4.9 3.2 7.3-4.3z"/></g><g id="g910"><path id="path802" class="s11" d="m108.6 137.6-3 .9v6.6l4.5-.5z"/><path id="path804" class="s11" d="m108.4 130.9-2.8 1.7.3 3.3 2.5.4z"/><path id="path806" class="s11" d="m117.4 147.9 6.1.3 1.5-.7.9 1.5-1.5 3.4-6.7-2.1z"/><path id="path808" class="s11" d="M64.7 151v-6.8l-1.3-1.9 1.6-1 1.3-5.9-6.8-1.8"/><path id="path810" class="s11" d="m80.2 129.7 4.6 2.5 6.6.6"/><path id="path812" class="s11" d="m91.1 103.3 3.2 5.4 2.1.5 7.4 1.8-1.8 3.9-.4 1-3.4 4.3 2.7.9 2.2 7.6"/><path id="path814" class="s11" d="m92.2 101.3 5.2 1.5 1 3.1-2 3.3"/><path id="path816" class="s11" d="m101.6 94.5-.4 4.4-3.8 3.9"/><path id="path818" class="s11" d="m103.2 88.2 4-.7"/><path id="path820" class="s11" d="m102 114.9 7.3.2 6 .2 2.6-3.7h3.2l1.3-1 4.6.8h.7l4.7-.2 2.1-2.9-4.7-2-7.9-3.5-1.9-9.7"/><path id="path822" class="s11" d="m127.8 111.8.8 2.7.1.4 2.5.8 3.6-2.4 7-1 3.9-8.1-1.4-4.1-.7-2.1 1.2-1.3-2.8-5.5-1.2-2.6"/><path id="path824" class="s11" d="m109.3 115.3-.9 2 2.9 1 3.3-.7 3.3 1.9h8.4l.9-1.9 1.4-3.1"/><path id="path826" class="s11" d="m127.8 117.8 1.5 3.4h5.7l2.6-.9 5.2-6.7-1-1.3"/><path id="path828" class="s11" d="m119.1 119.5-.6 3.2"/><path id="path830" class="s11" d="m120.7 123.6 2.4-.4 3.2-3.7"/><path id="path832" class="s11" d="M130.3 131.5V130l-5.2-5.3.8-1.1 4.4 1.3 3.1-.7.7-.2.4-2.8"/><path id="path834" class="s11" d="m133 131.9 2.3-2.7-.2-.5-1.7-4.5"/><path id="path836" class="s11" d="m137.6 120.3 3.7 3.9 2.6 2.2.3 1.6.6 4.8-.4.1-4.6 1.9-2.2-2.3 1-1.6-3.5-2.2"/><path id="path838" class="s11" d="m135.2 134.8 2.4-2.3"/><path id="path840" class="s11" d="m137.6 142.8 3.1-3.8-.9-4.2"/><path id="path842" class="s11" d="m144.4 132.9 2.5 3.4-6.2 2.7"/><path id="path844" class="s11" d="M153.1 137.8h1.8l.9-3.3-1.3-.5-1.4 2-6.2.3"/><path id="path846" class="s11" d="m144.2 128 8.9.4 2.3-1.3 4.7.6"/><path id="path848" class="s11" d="m142.8 113.6 2.9-.6 2.2 1.5 4.7-1.2 1.2-.3 4.4 4.8.8 3.8.4-.3.2-.1 1.2-2.4 2.6-.2-.5-1.6-2.8-1.7-.4-2.6-2.8-.4-2.6-1-1.7 2"/><path id="path850" class="s11" d="m159.5 121.6 3.3 1.7"/><path id="path852" class="s11" d="m144.3 100.1 5.6-.6 11.6 1.1 3.1-2.9 7.2.3 5.4 7 11.2 1.4 1 2-1.4 1 .5 2.6-3.6 3.3"/><path id="path854" class="s11" d="m135.8 84.8 3-2.2h7.6l4.4 2.7-4.4 6.9-4.4-1"/><path id="path856" class="s11" d="m164.6 97.3 2.7-4.6-4.5-4.1-1.6-3.8-6.9.4-3.5.1"/><path id="path858" class="s11" d="m154.3 84.8-2-6.5-8-2.6-3.8-4.3"/><path id="path860" class="s11" d="m153.8 69.9-3 3.3 1.5 5.1"/><path id="path866" class="s11" d="m208.4 136.3 8-3.1"/><path id="path868" class="s11" d="m196.2 132.4 6.9 4"/><path id="path878" class="s12" d="m30 37.3-3.9 3.8 3.9 2.5 1 6.9 5 3.1 19.2-6.8-2.7-8.8-10.3-1.8-7.3 4.3z"/><path id="path880" class="s12" d="m115.2 85.5-3.2-.9-.2 1.8-2.9-1.3-.4-6.4-6.3 2.4.3 4.9.7 2.2 2 5.9-3.6.4-6.3.7-3.1 6.1-1.1 2-18.8 9.2 1 3.1 8.9 5.8-2.6 2.3.6 6-17.5-.8-3.2 3.3v8.9l-2 3.4 2.9 2.6-.6 2.7 4.9 1.2 3.6 3.6 3.8-2.7 5.8-.1 5.8-6.1-.3-3.3 8-6.5V130.1l2.6-1.6 5.2 2.3 3.9-2.1 3.4-1.8 4 .9v2.5l8.1 7.4 8.6 4.3-.7 5.2 2 1.4 2-5.6-1.6-3.4 1.6-.2 2.9 2.4v-2.4l-7.8-5.2-7.6-6.4-1-5.4 1.5.3 1.5.2.7.7 8.3 7.8 1.3.1 2.7.4 2.2 2.9.6.7 1.3 6.9.5.4v.1l3.6 3.2 1.1 3.9 4.4 2.3 3-4.6-4.2-8.6 7.6-1.3 2.063.57.898-3.742 3.588-1.844-1.365-1.863 7.78-12.516 6.642 1.877-1.396 2.218 3.253 3.417 4.072-3.545-1.312-2.694 5.135-4.355 3.671.73-2.458 3.689 2.287 6.376 17.351 10.824 1.003-1.515 4.09 1.38 8.784-3.972-5.275-5.147-1.956-6.092 5.151-3.597-8.194-7.835 1.706-6.283.998-18.393 16.554-7.804 4.913-18.527-9.541-26.94-20.26-9.55L191 32.8l-14.1 8-.9.5.1 4.2-3.6 3.8-7.4-1.9-.8-7-5.5-6 2.6-.7 6.6 5.1 7-1.1 3.5-7-14.9-8.9-15.2-2.1 3-2.8-5.4-3.5-4.2-.9-10.1 4.7-14.3 9.1-7.9 5 1.5 1.2 6.4-3.7v2.5l-4.4 6.3-1.7 8.2-10.4 10.5-7.4 3.5 1.8 12.1 3.5 4.8 6.7-2.1 3.5-2.5 5 9.2 2.8 2.6 1.2 1.2 5.3-1.4 3-11.2 3.2-4.8-4.3-5.5-.2-6.2 7.9-7.9.1-3.9 3.9-3.9.4.1 4.4 1.7-5.1 8.1-2.9 4.7 1.7 9.8 6.1 2.6 11.4-1.8.9 4.4h-11.9l-1.4 1.5-4.5 4.7-.2 8.7 5 3.8-6.7 2.4-7.8-1.1-6.3 3.2-1.4.6-5.8-2.4-5.8.3.2-4.1 5.8 1.3z"/><path id="path882" class="s12" d="m75.8 93.3-4.2 2.2-.1 6.8h3l-1 1.5-3.5 1.9.4 1.8 15.9-5.3.3-2.9-6.4-8.9-2.2-2.9-2.6-5.4-1.3-6.8h-4.3l-3.6 8.8 2.4 2.6h2.1z"/><path id="path884" class="s12" d="m55.5 98.5 2.8 2.8 4.9-1.4h3l1.7-7.5 1.3-2.9-5-2.9-3.4 2.7-3.1 1.7.9 4.5z"/><path id="path904" class="s12" d="m152.9 65.5 6.1-12-6.1-11.5.5-2-2.9-6.4.7-1.9-3.7-4.6 1.4-5.3-1.4-.9-2.5-1.7-3.8 1-.4 2.7v2.2l-3.7 1.6-6.3-2.9-1.8 1.4-6.8 5.1-1.1 2.5-2.8 6.4-3.9 10.6-2.3 1v9.5l1.9 2.4-1.6 9.6-3.4-.2"/><path id="path906" class="s12" d="m137.3 40.4-.8-10.2-7.5-5"/></g></g></g></g></g></svg>