<?xml version="1.0" standalone="no"?><svg xmlns="http://www.w3.org/2000/svg" viewBox="0 0 1440 320"><path fill="#fff" fill-opacity="0.85" d="M0,288L40,288C80,288,160,288,240,261.3C320,235,400,181,480,181.3C560,181,640,235,720,256C800,277,880,267,960,234.7C1040,203,1120,149,1200,160C1280,171,1360,245,1400,282.7L1440,320L1440,320L1400,320C1360,320,1280,320,1200,320C1120,320,1040,320,960,320C880,320,800,320,720,320C640,320,560,320,480,320C400,320,320,320,240,320C160,320,80,320,40,320L0,320Z"></path></svg>